M48
;DRILL file {KiCad 5.0.2-bee76a0~70~ubuntu18.04.1} date Sun 28 Jul 2019 11:17:57 PM EDT
;FORMAT={-:-/ absolute / inch / decimal}
FMAT,2
INCH,TZ
T1C0.0315
T2C0.0350
T3C0.0394
T4C0.0472
T5C0.0787
%
G90
G05
T1
X4.7025Y-4.2
X4.7025Y-4.6
X5.805Y-4.145
X5.805Y-4.545
X4.5575Y-4.2
X4.5575Y-4.6
X4.5325Y-5.2075
X4.5325Y-5.5075
X5.59Y-4.015
X5.59Y-4.415
T2
X3.4075Y-4.275
X3.52Y-3.92
X3.5525Y-4.4825
X3.615Y-5.9025
X3.755Y-6.0325
X3.8775Y-5.66
X3.8925Y-4.4975
X3.9Y-3.78
X3.9Y-4.22
X4.195Y-5.6375
X4.95Y-3.525
X4.95Y-3.745
X5.32Y-4.67
X5.66Y-4.49
T3
X4.11Y-3.11
X4.11Y-3.21
X3.245Y-3.8
X3.245Y-3.9
X3.245Y-4.
X3.245Y-4.1
X3.245Y-4.2
X3.245Y-4.3
X3.245Y-4.4
X3.245Y-4.5
X3.245Y-4.6
X3.245Y-4.7
X3.245Y-4.8
X3.245Y-4.9
X4.95Y-4.855
X4.95Y-4.955
X4.95Y-5.055
X5.0675Y-3.645
X5.0675Y-3.745
X4.9Y-4.14
X4.9Y-4.24
X5.125Y-4.05
X5.125Y-4.15
X5.125Y-4.25
X5.125Y-4.35
X5.125Y-4.45
X4.6275Y-5.7375
X4.6275Y-5.8375
X4.6275Y-5.9375
X4.045Y-3.8
X4.045Y-3.9
X4.045Y-4.
X4.045Y-4.1
X4.045Y-4.2
X4.045Y-4.3
X4.045Y-4.4
X4.045Y-4.5
X4.045Y-4.6
X4.045Y-4.7
X4.045Y-4.8
X4.045Y-4.9
X4.045Y-5.
X4.045Y-5.1
X4.045Y-5.2
X4.045Y-5.3
X3.265Y-5.6925
X3.365Y-5.6925
X4.38Y-3.34
X4.48Y-3.34
X4.58Y-3.34
X3.77Y-6.185
X3.87Y-6.185
X3.97Y-6.185
X4.07Y-6.185
X4.17Y-6.185
X4.27Y-6.185
X4.37Y-6.185
X4.47Y-6.185
X4.57Y-6.185
X4.67Y-6.185
X4.77Y-6.185
X4.87Y-6.185
X4.85Y-3.105
X4.85Y-3.205
X4.8375Y-3.645
X4.8375Y-3.745
X5.405Y-3.745
X5.505Y-3.745
X5.605Y-3.745
X4.95Y-5.355
X4.95Y-5.455
X4.95Y-5.555
T4
X5.1022Y-3.115
X5.24Y-3.115
X3.7272Y-3.105
X3.865Y-3.105
X5.4Y-5.3294
X5.4Y-5.4672
X5.4Y-5.605
X5.4Y-4.8294
X5.4Y-4.9672
X5.4Y-5.105
T5
X3.05Y-3.0158
X3.05Y-6.2958
X6.005Y-3.0158
X6.005Y-6.2958
T0
M30
