M48
;DRILL file {KiCad 5.0.0-fee4fd1~65~ubuntu17.10.1} date Tue Jul  2 16:20:03 2019
;FORMAT={-:-/ absolute / metric / decimal}
FMAT,2
METRIC,TZ
T1C0.700
T2C0.750
T3C0.889
T4C1.000
%
G90
G05
M71
T1
X240.03Y-71.12
X240.03Y-76.2
X240.Y-87.08
X245.08Y-87.08
X231.59Y-87.97
X231.59Y-93.05
T2
X235.23Y-82.85
X235.23Y-85.39
X236.5Y-84.12
T3
X219.075Y-113.665
X221.62Y-110.04
X222.25Y-91.44
X223.64Y-104.57
X224.67Y-99.14
X231.59Y-84.88
X232.36Y-100.59
X232.85Y-104.83
X237.27Y-73.7
X237.54Y-80.73
X237.87Y-102.64
X243.7Y-103.75
X243.84Y-82.55
X247.57Y-96.83
X248.66Y-101.68
X248.92Y-82.55
X250.52Y-84.6
X250.56Y-80.48
T4
X254.Y-88.9
X254.Y-91.44
X254.Y-93.98
X254.Y-96.52
X254.Y-99.06
X214.63Y-68.58
X214.63Y-71.12
X214.63Y-73.66
X214.63Y-76.2
X214.63Y-78.74
X214.63Y-81.28
X214.63Y-83.82
X214.63Y-86.36
X214.63Y-88.9
X214.63Y-91.44
X214.63Y-93.98
X214.63Y-96.52
X214.63Y-99.06
X214.63Y-101.6
X214.63Y-104.14
X214.63Y-106.68
X237.49Y-60.96
X240.03Y-60.96
X242.57Y-60.96
X245.11Y-60.96
X247.65Y-60.96
X250.19Y-60.96
X252.73Y-60.96
X255.27Y-60.96
X229.87Y-107.95
X232.41Y-107.95
X234.95Y-107.95
X237.49Y-107.95
X240.03Y-107.95
X242.57Y-107.95
X245.11Y-107.95
X247.65Y-107.95
X250.19Y-107.95
X252.73Y-107.95
X255.27Y-107.95
X257.81Y-107.95
X260.35Y-107.95
X262.89Y-107.95
X265.43Y-107.95
X267.97Y-107.95
X236.56Y-91.68
X236.56Y-94.22
X236.56Y-96.76
X248.82Y-90.8
X248.82Y-93.34
X230.597Y-71.206
X230.597Y-73.746
X230.597Y-76.286
X254.Y-77.47
X254.Y-80.01
X246.38Y-71.12
X246.38Y-73.66
X246.38Y-76.2
X246.38Y-78.74
X254.Y-68.58
X254.Y-71.12
X219.71Y-68.58
X219.71Y-71.12
X219.71Y-73.66
X219.71Y-76.2
X219.71Y-78.74
X219.71Y-81.28
X219.71Y-83.82
X219.71Y-86.36
X219.71Y-88.9
X219.71Y-91.44
X219.71Y-93.98
X219.71Y-96.52
X219.71Y-99.06
X219.71Y-101.6
X219.71Y-104.14
X219.71Y-106.68
T0
M30
