M48
;DRILL file {KiCad 5.0.2-bee76a0~70~ubuntu18.04.1} date Sun 21 Jul 2019 01:42:59 PM EDT
;FORMAT={-:-/ absolute / inch / decimal}
FMAT,2
INCH,TZ
T1C0.0276
T2C0.0315
T3C0.0350
T4C0.0394
T5C0.0787
%
G90
G05
T1
X9.45Y-2.8
X9.45Y-3.
X9.4488Y-3.4283
X9.6488Y-3.4283
X9.1177Y-3.4634
X9.1177Y-3.6634
T2
X9.28Y-3.24
X9.28Y-3.44
X9.38Y-3.34
T3
X8.625Y-4.475
X8.75Y-3.6
X8.8Y-4.15
X8.8Y-4.3323
X8.8453Y-3.9031
X9.1177Y-3.3417
X9.4Y-3.22
X9.55Y-3.1
X9.5945Y-4.0846
X9.6Y-3.25
X9.7469Y-3.8122
X9.9Y-3.25
T4
X8.65Y-2.7
X8.65Y-2.8
X8.65Y-2.9
X8.65Y-3.
X8.65Y-3.1
X8.65Y-3.2
X8.65Y-3.3
X8.65Y-3.4
X8.65Y-3.5
X8.65Y-3.6
X8.65Y-3.7
X8.65Y-3.8
X8.65Y-3.9
X8.65Y-4.
X8.65Y-4.1
X8.65Y-4.2
X9.7961Y-3.5748
X9.7961Y-3.6748
X9.7Y-2.8
X9.7Y-2.9
X9.7Y-3.
X9.7Y-3.1
X9.4Y-2.4
X9.5Y-2.4
X9.6Y-2.4
X9.7Y-2.4
X9.8Y-2.4
X9.9Y-2.4
X10.Y-2.4
X10.1Y-2.4
X9.3134Y-3.6094
X9.3134Y-3.7094
X9.3134Y-3.8094
X8.45Y-2.7
X8.45Y-2.8
X8.45Y-2.9
X8.45Y-3.
X8.45Y-3.1
X8.45Y-3.2
X8.45Y-3.3
X8.45Y-3.4
X8.45Y-3.5
X8.45Y-3.6
X8.45Y-3.7
X8.45Y-3.8
X8.45Y-3.9
X8.45Y-4.
X8.45Y-4.1
X8.45Y-4.2
X10.Y-3.5
X10.Y-3.6
X10.Y-3.7
X10.Y-3.8
X10.Y-3.9
X9.05Y-4.25
X9.15Y-4.25
X9.25Y-4.25
X9.35Y-4.25
X9.45Y-4.25
X9.55Y-4.25
X9.65Y-4.25
X9.75Y-4.25
X9.85Y-4.25
X9.95Y-4.25
X10.05Y-4.25
X10.15Y-4.25
X10.Y-3.05
X10.Y-3.15
X9.0786Y-2.8034
X9.0786Y-2.9034
X9.0786Y-3.0034
X10.Y-2.7
X10.Y-2.8
T5
X8.35Y-2.35
X8.35Y-4.6
X10.55Y-2.35
X10.55Y-4.6
T0
M30
