G04 #@! TF.GenerationSoftware,KiCad,Pcbnew,5.0.2-bee76a0~70~ubuntu18.04.1*
G04 #@! TF.CreationDate,2019-07-26T15:06:13-04:00*
G04 #@! TF.ProjectId,knuth-gateway,6b6e7574-682d-4676-9174-657761792e6b,rev?*
G04 #@! TF.SameCoordinates,Original*
G04 #@! TF.FileFunction,Legend,Top*
G04 #@! TF.FilePolarity,Positive*
%FSLAX46Y46*%
G04 Gerber Fmt 4.6, Leading zero omitted, Abs format (unit mm)*
G04 Created by KiCad (PCBNEW 5.0.2-bee76a0~70~ubuntu18.04.1) date Fri 26 Jul 2019 03:06:13 PM EDT*
%MOMM*%
%LPD*%
G01*
G04 APERTURE LIST*
%ADD10C,0.300000*%
%ADD11C,0.120000*%
%ADD12C,0.150000*%
G04 APERTURE END LIST*
D10*
X265592571Y-89226400D02*
X265592571Y-89583542D01*
X263449714Y-89583542D01*
X263449714Y-89226400D01*
X263592571Y-88869257D02*
X263592571Y-88012114D01*
X265092571Y-88440685D02*
X263592571Y-88440685D01*
X265092571Y-87512114D02*
X263592571Y-87512114D01*
X263592571Y-86940685D01*
X263664000Y-86797828D01*
X263735428Y-86726400D01*
X263878285Y-86654971D01*
X264092571Y-86654971D01*
X264235428Y-86726400D01*
X264306857Y-86797828D01*
X264378285Y-86940685D01*
X264378285Y-87512114D01*
X265092571Y-85297828D02*
X265092571Y-86012114D01*
X263592571Y-86012114D01*
X263592571Y-84083542D02*
X263592571Y-84797828D01*
X264306857Y-84869257D01*
X264235428Y-84797828D01*
X264164000Y-84654971D01*
X264164000Y-84297828D01*
X264235428Y-84154971D01*
X264306857Y-84083542D01*
X264449714Y-84012114D01*
X264806857Y-84012114D01*
X264949714Y-84083542D01*
X265021142Y-84154971D01*
X265092571Y-84297828D01*
X265092571Y-84654971D01*
X265021142Y-84797828D01*
X264949714Y-84869257D01*
X265092571Y-82583542D02*
X265092571Y-83440685D01*
X265092571Y-83012114D02*
X263592571Y-83012114D01*
X263806857Y-83154971D01*
X263949714Y-83297828D01*
X264021142Y-83440685D01*
X265092571Y-81154971D02*
X265092571Y-82012114D01*
X265092571Y-81583542D02*
X263592571Y-81583542D01*
X263806857Y-81726400D01*
X263949714Y-81869257D01*
X264021142Y-82012114D01*
X263592571Y-80226400D02*
X263592571Y-80083542D01*
X263664000Y-79940685D01*
X263735428Y-79869257D01*
X263878285Y-79797828D01*
X264164000Y-79726400D01*
X264521142Y-79726400D01*
X264806857Y-79797828D01*
X264949714Y-79869257D01*
X265021142Y-79940685D01*
X265092571Y-80083542D01*
X265092571Y-80226400D01*
X265021142Y-80369257D01*
X264949714Y-80440685D01*
X264806857Y-80512114D01*
X264521142Y-80583542D01*
X264164000Y-80583542D01*
X263878285Y-80512114D01*
X263735428Y-80440685D01*
X263664000Y-80369257D01*
X263592571Y-80226400D01*
X265592571Y-79226400D02*
X265592571Y-78869257D01*
X263449714Y-78869257D01*
X263449714Y-79226400D01*
X229168971Y-91343085D02*
X229168971Y-91700228D01*
X227026114Y-91700228D01*
X227026114Y-91343085D01*
X227668971Y-90985942D02*
X227668971Y-90414514D01*
X228668971Y-90771657D02*
X227383257Y-90771657D01*
X227240400Y-90700228D01*
X227168971Y-90557371D01*
X227168971Y-90414514D01*
X228597542Y-89343085D02*
X228668971Y-89485942D01*
X228668971Y-89771657D01*
X228597542Y-89914514D01*
X228454685Y-89985942D01*
X227883257Y-89985942D01*
X227740400Y-89914514D01*
X227668971Y-89771657D01*
X227668971Y-89485942D01*
X227740400Y-89343085D01*
X227883257Y-89271657D01*
X228026114Y-89271657D01*
X228168971Y-89985942D01*
X228668971Y-87985942D02*
X227883257Y-87985942D01*
X227740400Y-88057371D01*
X227668971Y-88200228D01*
X227668971Y-88485942D01*
X227740400Y-88628800D01*
X228597542Y-87985942D02*
X228668971Y-88128800D01*
X228668971Y-88485942D01*
X228597542Y-88628800D01*
X228454685Y-88700228D01*
X228311828Y-88700228D01*
X228168971Y-88628800D01*
X228097542Y-88485942D01*
X228097542Y-88128800D01*
X228026114Y-87985942D01*
X227668971Y-87485942D02*
X227668971Y-86914514D01*
X227168971Y-87271657D02*
X228454685Y-87271657D01*
X228597542Y-87200228D01*
X228668971Y-87057371D01*
X228668971Y-86914514D01*
X228668971Y-86414514D02*
X227168971Y-86414514D01*
X228668971Y-85771657D02*
X227883257Y-85771657D01*
X227740400Y-85843085D01*
X227668971Y-85985942D01*
X227668971Y-86200228D01*
X227740400Y-86343085D01*
X227811828Y-86414514D01*
X228597542Y-84485942D02*
X228668971Y-84628800D01*
X228668971Y-84914514D01*
X228597542Y-85057371D01*
X228454685Y-85128800D01*
X227883257Y-85128800D01*
X227740400Y-85057371D01*
X227668971Y-84914514D01*
X227668971Y-84628800D01*
X227740400Y-84485942D01*
X227883257Y-84414514D01*
X228026114Y-84414514D01*
X228168971Y-85128800D01*
X228668971Y-83771657D02*
X227668971Y-83771657D01*
X227954685Y-83771657D02*
X227811828Y-83700228D01*
X227740400Y-83628800D01*
X227668971Y-83485942D01*
X227668971Y-83343085D01*
X228668971Y-81485942D02*
X228597542Y-81628800D01*
X228454685Y-81700228D01*
X227168971Y-81700228D01*
X228668971Y-80700228D02*
X228597542Y-80843085D01*
X228526114Y-80914514D01*
X228383257Y-80985942D01*
X227954685Y-80985942D01*
X227811828Y-80914514D01*
X227740400Y-80843085D01*
X227668971Y-80700228D01*
X227668971Y-80485942D01*
X227740400Y-80343085D01*
X227811828Y-80271657D01*
X227954685Y-80200228D01*
X228383257Y-80200228D01*
X228526114Y-80271657D01*
X228597542Y-80343085D01*
X228668971Y-80485942D01*
X228668971Y-80700228D01*
X228668971Y-79557371D02*
X227668971Y-79557371D01*
X227954685Y-79557371D02*
X227811828Y-79485942D01*
X227740400Y-79414514D01*
X227668971Y-79271657D01*
X227668971Y-79128800D01*
X228668971Y-77985942D02*
X227883257Y-77985942D01*
X227740400Y-78057371D01*
X227668971Y-78200228D01*
X227668971Y-78485942D01*
X227740400Y-78628800D01*
X228597542Y-77985942D02*
X228668971Y-78128800D01*
X228668971Y-78485942D01*
X228597542Y-78628800D01*
X228454685Y-78700228D01*
X228311828Y-78700228D01*
X228168971Y-78628800D01*
X228097542Y-78485942D01*
X228097542Y-78128800D01*
X228026114Y-77985942D01*
X229168971Y-77414514D02*
X229168971Y-77057371D01*
X227026114Y-77057371D01*
X227026114Y-77414514D01*
X230454914Y-62646571D02*
X230097771Y-62646571D01*
X230097771Y-60503714D01*
X230454914Y-60503714D01*
X230954914Y-62075142D02*
X231097771Y-62146571D01*
X231383485Y-62146571D01*
X231526342Y-62075142D01*
X231597771Y-61932285D01*
X231597771Y-61860857D01*
X231526342Y-61718000D01*
X231383485Y-61646571D01*
X231169200Y-61646571D01*
X231026342Y-61575142D01*
X230954914Y-61432285D01*
X230954914Y-61360857D01*
X231026342Y-61218000D01*
X231169200Y-61146571D01*
X231383485Y-61146571D01*
X231526342Y-61218000D01*
X232454914Y-62146571D02*
X232312057Y-62075142D01*
X232240628Y-62003714D01*
X232169200Y-61860857D01*
X232169200Y-61432285D01*
X232240628Y-61289428D01*
X232312057Y-61218000D01*
X232454914Y-61146571D01*
X232669200Y-61146571D01*
X232812057Y-61218000D01*
X232883485Y-61289428D01*
X232954914Y-61432285D01*
X232954914Y-61860857D01*
X232883485Y-62003714D01*
X232812057Y-62075142D01*
X232669200Y-62146571D01*
X232454914Y-62146571D01*
X233812057Y-62146571D02*
X233669200Y-62075142D01*
X233597771Y-61932285D01*
X233597771Y-60646571D01*
X235026342Y-62146571D02*
X235026342Y-61360857D01*
X234954914Y-61218000D01*
X234812057Y-61146571D01*
X234526342Y-61146571D01*
X234383485Y-61218000D01*
X235026342Y-62075142D02*
X234883485Y-62146571D01*
X234526342Y-62146571D01*
X234383485Y-62075142D01*
X234312057Y-61932285D01*
X234312057Y-61789428D01*
X234383485Y-61646571D01*
X234526342Y-61575142D01*
X234883485Y-61575142D01*
X235026342Y-61503714D01*
X235740628Y-62146571D02*
X235740628Y-61146571D01*
X235740628Y-61432285D02*
X235812057Y-61289428D01*
X235883485Y-61218000D01*
X236026342Y-61146571D01*
X236169200Y-61146571D01*
X238026342Y-62146571D02*
X237883485Y-62075142D01*
X237812057Y-61932285D01*
X237812057Y-60646571D01*
X238597771Y-62146571D02*
X238597771Y-61146571D01*
X238597771Y-60646571D02*
X238526342Y-60718000D01*
X238597771Y-60789428D01*
X238669200Y-60718000D01*
X238597771Y-60646571D01*
X238597771Y-60789428D01*
X239312057Y-61146571D02*
X239312057Y-62646571D01*
X239312057Y-61218000D02*
X239454914Y-61146571D01*
X239740628Y-61146571D01*
X239883485Y-61218000D01*
X239954914Y-61289428D01*
X240026342Y-61432285D01*
X240026342Y-61860857D01*
X239954914Y-62003714D01*
X239883485Y-62075142D01*
X239740628Y-62146571D01*
X239454914Y-62146571D01*
X239312057Y-62075142D01*
X240883485Y-62146571D02*
X240740628Y-62075142D01*
X240669200Y-62003714D01*
X240597771Y-61860857D01*
X240597771Y-61432285D01*
X240669200Y-61289428D01*
X240740628Y-61218000D01*
X240883485Y-61146571D01*
X241097771Y-61146571D01*
X241240628Y-61218000D01*
X241312057Y-61289428D01*
X241383485Y-61432285D01*
X241383485Y-61860857D01*
X241312057Y-62003714D01*
X241240628Y-62075142D01*
X241097771Y-62146571D01*
X240883485Y-62146571D01*
X241883485Y-62646571D02*
X242240628Y-62646571D01*
X242240628Y-60503714D01*
X241883485Y-60503714D01*
X249117657Y-61406742D02*
X249189085Y-61192457D01*
X249260514Y-61121028D01*
X249403371Y-61049600D01*
X249617657Y-61049600D01*
X249760514Y-61121028D01*
X249831942Y-61192457D01*
X249903371Y-61335314D01*
X249903371Y-61906742D01*
X248403371Y-61906742D01*
X248403371Y-61406742D01*
X248474800Y-61263885D01*
X248546228Y-61192457D01*
X248689085Y-61121028D01*
X248831942Y-61121028D01*
X248974800Y-61192457D01*
X249046228Y-61263885D01*
X249117657Y-61406742D01*
X249117657Y-61906742D01*
X249474800Y-60478171D02*
X249474800Y-59763885D01*
X249903371Y-60621028D02*
X248403371Y-60121028D01*
X249903371Y-59621028D01*
X248403371Y-59335314D02*
X248403371Y-58478171D01*
X249903371Y-58906742D02*
X248403371Y-58906742D01*
X245680800Y-59398742D02*
X245609371Y-59541600D01*
X245609371Y-59755885D01*
X245680800Y-59970171D01*
X245823657Y-60113028D01*
X245966514Y-60184457D01*
X246252228Y-60255885D01*
X246466514Y-60255885D01*
X246752228Y-60184457D01*
X246895085Y-60113028D01*
X247037942Y-59970171D01*
X247109371Y-59755885D01*
X247109371Y-59613028D01*
X247037942Y-59398742D01*
X246966514Y-59327314D01*
X246466514Y-59327314D01*
X246466514Y-59613028D01*
X255468571Y-99310000D02*
X256182857Y-99310000D01*
X255325714Y-99738571D02*
X255825714Y-98238571D01*
X256325714Y-99738571D01*
X257111428Y-98238571D02*
X257254285Y-98238571D01*
X257397142Y-98310000D01*
X257468571Y-98381428D01*
X257540000Y-98524285D01*
X257611428Y-98810000D01*
X257611428Y-99167142D01*
X257540000Y-99452857D01*
X257468571Y-99595714D01*
X257397142Y-99667142D01*
X257254285Y-99738571D01*
X257111428Y-99738571D01*
X256968571Y-99667142D01*
X256897142Y-99595714D01*
X256825714Y-99452857D01*
X256754285Y-99167142D01*
X256754285Y-98810000D01*
X256825714Y-98524285D01*
X256897142Y-98381428D01*
X256968571Y-98310000D01*
X257111428Y-98238571D01*
X255343257Y-101032571D02*
X256271828Y-101032571D01*
X255771828Y-101604000D01*
X255986114Y-101604000D01*
X256128971Y-101675428D01*
X256200400Y-101746857D01*
X256271828Y-101889714D01*
X256271828Y-102246857D01*
X256200400Y-102389714D01*
X256128971Y-102461142D01*
X255986114Y-102532571D01*
X255557542Y-102532571D01*
X255414685Y-102461142D01*
X255343257Y-102389714D01*
X256700400Y-101032571D02*
X257200400Y-102532571D01*
X257700400Y-101032571D01*
X258057542Y-101032571D02*
X258986114Y-101032571D01*
X258486114Y-101604000D01*
X258700400Y-101604000D01*
X258843257Y-101675428D01*
X258914685Y-101746857D01*
X258986114Y-101889714D01*
X258986114Y-102246857D01*
X258914685Y-102389714D01*
X258843257Y-102461142D01*
X258700400Y-102532571D01*
X258271828Y-102532571D01*
X258128971Y-102461142D01*
X258057542Y-102389714D01*
X256120057Y-103644000D02*
X255977200Y-103572571D01*
X255762914Y-103572571D01*
X255548628Y-103644000D01*
X255405771Y-103786857D01*
X255334342Y-103929714D01*
X255262914Y-104215428D01*
X255262914Y-104429714D01*
X255334342Y-104715428D01*
X255405771Y-104858285D01*
X255548628Y-105001142D01*
X255762914Y-105072571D01*
X255905771Y-105072571D01*
X256120057Y-105001142D01*
X256191485Y-104929714D01*
X256191485Y-104429714D01*
X255905771Y-104429714D01*
X255432857Y-112489371D02*
X255432857Y-110989371D01*
X255790000Y-110989371D01*
X256004285Y-111060800D01*
X256147142Y-111203657D01*
X256218571Y-111346514D01*
X256290000Y-111632228D01*
X256290000Y-111846514D01*
X256218571Y-112132228D01*
X256147142Y-112275085D01*
X256004285Y-112417942D01*
X255790000Y-112489371D01*
X255432857Y-112489371D01*
X257647142Y-110989371D02*
X256932857Y-110989371D01*
X256861428Y-111703657D01*
X256932857Y-111632228D01*
X257075714Y-111560800D01*
X257432857Y-111560800D01*
X257575714Y-111632228D01*
X257647142Y-111703657D01*
X257718571Y-111846514D01*
X257718571Y-112203657D01*
X257647142Y-112346514D01*
X257575714Y-112417942D01*
X257432857Y-112489371D01*
X257075714Y-112489371D01*
X256932857Y-112417942D01*
X256861428Y-112346514D01*
X255292457Y-113681771D02*
X256221028Y-113681771D01*
X255721028Y-114253200D01*
X255935314Y-114253200D01*
X256078171Y-114324628D01*
X256149600Y-114396057D01*
X256221028Y-114538914D01*
X256221028Y-114896057D01*
X256149600Y-115038914D01*
X256078171Y-115110342D01*
X255935314Y-115181771D01*
X255506742Y-115181771D01*
X255363885Y-115110342D01*
X255292457Y-115038914D01*
X256649600Y-113681771D02*
X257149600Y-115181771D01*
X257649600Y-113681771D01*
X258006742Y-113681771D02*
X258935314Y-113681771D01*
X258435314Y-114253200D01*
X258649600Y-114253200D01*
X258792457Y-114324628D01*
X258863885Y-114396057D01*
X258935314Y-114538914D01*
X258935314Y-114896057D01*
X258863885Y-115038914D01*
X258792457Y-115110342D01*
X258649600Y-115181771D01*
X258221028Y-115181771D01*
X258078171Y-115110342D01*
X258006742Y-115038914D01*
X256323257Y-116293200D02*
X256180400Y-116221771D01*
X255966114Y-116221771D01*
X255751828Y-116293200D01*
X255608971Y-116436057D01*
X255537542Y-116578914D01*
X255466114Y-116864628D01*
X255466114Y-117078914D01*
X255537542Y-117364628D01*
X255608971Y-117507485D01*
X255751828Y-117650342D01*
X255966114Y-117721771D01*
X256108971Y-117721771D01*
X256323257Y-117650342D01*
X256394685Y-117578914D01*
X256394685Y-117078914D01*
X256108971Y-117078914D01*
X255294285Y-65726571D02*
X255580000Y-65726571D01*
X255722857Y-65798000D01*
X255865714Y-65940857D01*
X255937142Y-66226571D01*
X255937142Y-66726571D01*
X255865714Y-67012285D01*
X255722857Y-67155142D01*
X255580000Y-67226571D01*
X255294285Y-67226571D01*
X255151428Y-67155142D01*
X255008571Y-67012285D01*
X254937142Y-66726571D01*
X254937142Y-66226571D01*
X255008571Y-65940857D01*
X255151428Y-65798000D01*
X255294285Y-65726571D01*
X256580000Y-67226571D02*
X256580000Y-65726571D01*
X257437142Y-67226571D01*
X257437142Y-65726571D01*
X259222857Y-65655142D02*
X257937142Y-67583714D01*
X260008571Y-65726571D02*
X260294285Y-65726571D01*
X260437142Y-65798000D01*
X260580000Y-65940857D01*
X260651428Y-66226571D01*
X260651428Y-66726571D01*
X260580000Y-67012285D01*
X260437142Y-67155142D01*
X260294285Y-67226571D01*
X260008571Y-67226571D01*
X259865714Y-67155142D01*
X259722857Y-67012285D01*
X259651428Y-66726571D01*
X259651428Y-66226571D01*
X259722857Y-65940857D01*
X259865714Y-65798000D01*
X260008571Y-65726571D01*
X261794285Y-66440857D02*
X261294285Y-66440857D01*
X261294285Y-67226571D02*
X261294285Y-65726571D01*
X262008571Y-65726571D01*
X263080000Y-66440857D02*
X262580000Y-66440857D01*
X262580000Y-67226571D02*
X262580000Y-65726571D01*
X263294285Y-65726571D01*
X267648571Y-112354285D02*
X269148571Y-112354285D01*
X267720000Y-112354285D02*
X267648571Y-112211428D01*
X267648571Y-111925714D01*
X267720000Y-111782857D01*
X267791428Y-111711428D01*
X267934285Y-111640000D01*
X268362857Y-111640000D01*
X268505714Y-111711428D01*
X268577142Y-111782857D01*
X268648571Y-111925714D01*
X268648571Y-112211428D01*
X268577142Y-112354285D01*
X267648571Y-111140000D02*
X268648571Y-110782857D01*
X267648571Y-110425714D01*
X268648571Y-109640000D02*
X268577142Y-109782857D01*
X268505714Y-109854285D01*
X268362857Y-109925714D01*
X267934285Y-109925714D01*
X267791428Y-109854285D01*
X267720000Y-109782857D01*
X267648571Y-109640000D01*
X267648571Y-109425714D01*
X267720000Y-109282857D01*
X267791428Y-109211428D01*
X267934285Y-109140000D01*
X268362857Y-109140000D01*
X268505714Y-109211428D01*
X268577142Y-109282857D01*
X268648571Y-109425714D01*
X268648571Y-109640000D01*
X268577142Y-108568571D02*
X268648571Y-108425714D01*
X268648571Y-108140000D01*
X268577142Y-107997142D01*
X268434285Y-107925714D01*
X268362857Y-107925714D01*
X268220000Y-107997142D01*
X268148571Y-108140000D01*
X268148571Y-108354285D01*
X268077142Y-108497142D01*
X267934285Y-108568571D01*
X267862857Y-108568571D01*
X267720000Y-108497142D01*
X267648571Y-108354285D01*
X267648571Y-108140000D01*
X267720000Y-107997142D01*
X268505714Y-107282857D02*
X268577142Y-107211428D01*
X268648571Y-107282857D01*
X268577142Y-107354285D01*
X268505714Y-107282857D01*
X268648571Y-107282857D01*
X268648571Y-106354285D02*
X268577142Y-106497142D01*
X268505714Y-106568571D01*
X268362857Y-106640000D01*
X267934285Y-106640000D01*
X267791428Y-106568571D01*
X267720000Y-106497142D01*
X267648571Y-106354285D01*
X267648571Y-106140000D01*
X267720000Y-105997142D01*
X267791428Y-105925714D01*
X267934285Y-105854285D01*
X268362857Y-105854285D01*
X268505714Y-105925714D01*
X268577142Y-105997142D01*
X268648571Y-106140000D01*
X268648571Y-106354285D01*
X268648571Y-105211428D02*
X267648571Y-105211428D01*
X267934285Y-105211428D02*
X267791428Y-105140000D01*
X267720000Y-105068571D01*
X267648571Y-104925714D01*
X267648571Y-104782857D01*
X267648571Y-103640000D02*
X268862857Y-103640000D01*
X269005714Y-103711428D01*
X269077142Y-103782857D01*
X269148571Y-103925714D01*
X269148571Y-104140000D01*
X269077142Y-104282857D01*
X268577142Y-103640000D02*
X268648571Y-103782857D01*
X268648571Y-104068571D01*
X268577142Y-104211428D01*
X268505714Y-104282857D01*
X268362857Y-104354285D01*
X267934285Y-104354285D01*
X267791428Y-104282857D01*
X267720000Y-104211428D01*
X267648571Y-104068571D01*
X267648571Y-103782857D01*
X267720000Y-103640000D01*
X267077142Y-101854285D02*
X269005714Y-103140000D01*
X268648571Y-101354285D02*
X267148571Y-101354285D01*
X268077142Y-101211428D02*
X268648571Y-100782857D01*
X267648571Y-100782857D02*
X268220000Y-101354285D01*
X267648571Y-100140000D02*
X268648571Y-100140000D01*
X267791428Y-100140000D02*
X267720000Y-100068571D01*
X267648571Y-99925714D01*
X267648571Y-99711428D01*
X267720000Y-99568571D01*
X267862857Y-99497142D01*
X268648571Y-99497142D01*
X267648571Y-98140000D02*
X268648571Y-98140000D01*
X267648571Y-98782857D02*
X268434285Y-98782857D01*
X268577142Y-98711428D01*
X268648571Y-98568571D01*
X268648571Y-98354285D01*
X268577142Y-98211428D01*
X268505714Y-98140000D01*
X267648571Y-97640000D02*
X267648571Y-97068571D01*
X267148571Y-97425714D02*
X268434285Y-97425714D01*
X268577142Y-97354285D01*
X268648571Y-97211428D01*
X268648571Y-97068571D01*
X268648571Y-96568571D02*
X267148571Y-96568571D01*
X268648571Y-95925714D02*
X267862857Y-95925714D01*
X267720000Y-95997142D01*
X267648571Y-96140000D01*
X267648571Y-96354285D01*
X267720000Y-96497142D01*
X267791428Y-96568571D01*
X212768571Y-102181428D02*
X211268571Y-102181428D01*
X212768571Y-101324285D02*
X211911428Y-101967142D01*
X211268571Y-101324285D02*
X212125714Y-102181428D01*
X211768571Y-100681428D02*
X212768571Y-100681428D01*
X211911428Y-100681428D02*
X211840000Y-100610000D01*
X211768571Y-100467142D01*
X211768571Y-100252857D01*
X211840000Y-100110000D01*
X211982857Y-100038571D01*
X212768571Y-100038571D01*
X211768571Y-98681428D02*
X212768571Y-98681428D01*
X211768571Y-99324285D02*
X212554285Y-99324285D01*
X212697142Y-99252857D01*
X212768571Y-99110000D01*
X212768571Y-98895714D01*
X212697142Y-98752857D01*
X212625714Y-98681428D01*
X211768571Y-98181428D02*
X211768571Y-97610000D01*
X211268571Y-97967142D02*
X212554285Y-97967142D01*
X212697142Y-97895714D01*
X212768571Y-97752857D01*
X212768571Y-97610000D01*
X212768571Y-97110000D02*
X211268571Y-97110000D01*
X212768571Y-96467142D02*
X211982857Y-96467142D01*
X211840000Y-96538571D01*
X211768571Y-96681428D01*
X211768571Y-96895714D01*
X211840000Y-97038571D01*
X211911428Y-97110000D01*
X212768571Y-93752857D02*
X212054285Y-94252857D01*
X212768571Y-94610000D02*
X211268571Y-94610000D01*
X211268571Y-94038571D01*
X211340000Y-93895714D01*
X211411428Y-93824285D01*
X211554285Y-93752857D01*
X211768571Y-93752857D01*
X211911428Y-93824285D01*
X211982857Y-93895714D01*
X212054285Y-94038571D01*
X212054285Y-94610000D01*
X212768571Y-92467142D02*
X211982857Y-92467142D01*
X211840000Y-92538571D01*
X211768571Y-92681428D01*
X211768571Y-92967142D01*
X211840000Y-93110000D01*
X212697142Y-92467142D02*
X212768571Y-92610000D01*
X212768571Y-92967142D01*
X212697142Y-93110000D01*
X212554285Y-93181428D01*
X212411428Y-93181428D01*
X212268571Y-93110000D01*
X212197142Y-92967142D01*
X212197142Y-92610000D01*
X212125714Y-92467142D01*
X211768571Y-91752857D02*
X212768571Y-91752857D01*
X211911428Y-91752857D02*
X211840000Y-91681428D01*
X211768571Y-91538571D01*
X211768571Y-91324285D01*
X211840000Y-91181428D01*
X211982857Y-91110000D01*
X212768571Y-91110000D01*
X212697142Y-89752857D02*
X212768571Y-89895714D01*
X212768571Y-90181428D01*
X212697142Y-90324285D01*
X212625714Y-90395714D01*
X212482857Y-90467142D01*
X212054285Y-90467142D01*
X211911428Y-90395714D01*
X211840000Y-90324285D01*
X211768571Y-90181428D01*
X211768571Y-89895714D01*
X211840000Y-89752857D01*
X212768571Y-89110000D02*
X211268571Y-89110000D01*
X212768571Y-88467142D02*
X211982857Y-88467142D01*
X211840000Y-88538571D01*
X211768571Y-88681428D01*
X211768571Y-88895714D01*
X211840000Y-89038571D01*
X211911428Y-89110000D01*
X212625714Y-87752857D02*
X212697142Y-87681428D01*
X212768571Y-87752857D01*
X212697142Y-87824285D01*
X212625714Y-87752857D01*
X212768571Y-87752857D01*
X211840000Y-87752857D02*
X211911428Y-87681428D01*
X211982857Y-87752857D01*
X211911428Y-87824285D01*
X211840000Y-87752857D01*
X211982857Y-87752857D01*
X211982857Y-85895714D02*
X211982857Y-85395714D01*
X212768571Y-85181428D02*
X212768571Y-85895714D01*
X211268571Y-85895714D01*
X211268571Y-85181428D01*
X212625714Y-83681428D02*
X212697142Y-83752857D01*
X212768571Y-83967142D01*
X212768571Y-84110000D01*
X212697142Y-84324285D01*
X212554285Y-84467142D01*
X212411428Y-84538571D01*
X212125714Y-84610000D01*
X211911428Y-84610000D01*
X211625714Y-84538571D01*
X211482857Y-84467142D01*
X211340000Y-84324285D01*
X211268571Y-84110000D01*
X211268571Y-83967142D01*
X211340000Y-83752857D01*
X211411428Y-83681428D01*
X212197142Y-83038571D02*
X212197142Y-81895714D01*
X211268571Y-80467142D02*
X211268571Y-81181428D01*
X211982857Y-81252857D01*
X211911428Y-81181428D01*
X211840000Y-81038571D01*
X211840000Y-80681428D01*
X211911428Y-80538571D01*
X211982857Y-80467142D01*
X212125714Y-80395714D01*
X212482857Y-80395714D01*
X212625714Y-80467142D01*
X212697142Y-80538571D01*
X212768571Y-80681428D01*
X212768571Y-81038571D01*
X212697142Y-81181428D01*
X212625714Y-81252857D01*
X212768571Y-77395714D02*
X212768571Y-77467142D01*
X212697142Y-77610000D01*
X212482857Y-77824285D01*
X212054285Y-78181428D01*
X211840000Y-78324285D01*
X211625714Y-78395714D01*
X211482857Y-78395714D01*
X211340000Y-78324285D01*
X211268571Y-78181428D01*
X211268571Y-78110000D01*
X211340000Y-77967142D01*
X211482857Y-77895714D01*
X211554285Y-77895714D01*
X211697142Y-77967142D01*
X211768571Y-78038571D01*
X212054285Y-78467142D01*
X212125714Y-78538571D01*
X212268571Y-78610000D01*
X212482857Y-78610000D01*
X212625714Y-78538571D01*
X212697142Y-78467142D01*
X212768571Y-78324285D01*
X212768571Y-78110000D01*
X212697142Y-77967142D01*
X212625714Y-77895714D01*
X212340000Y-77681428D01*
X212125714Y-77610000D01*
X211982857Y-77610000D01*
X211268571Y-75824285D02*
X211268571Y-74967142D01*
X212768571Y-75395714D02*
X211268571Y-75395714D01*
X212697142Y-73895714D02*
X212768571Y-74038571D01*
X212768571Y-74324285D01*
X212697142Y-74467142D01*
X212554285Y-74538571D01*
X211982857Y-74538571D01*
X211840000Y-74467142D01*
X211768571Y-74324285D01*
X211768571Y-74038571D01*
X211840000Y-73895714D01*
X211982857Y-73824285D01*
X212125714Y-73824285D01*
X212268571Y-74538571D01*
X212768571Y-73181428D02*
X211768571Y-73181428D01*
X211911428Y-73181428D02*
X211840000Y-73110000D01*
X211768571Y-72967142D01*
X211768571Y-72752857D01*
X211840000Y-72610000D01*
X211982857Y-72538571D01*
X212768571Y-72538571D01*
X211982857Y-72538571D02*
X211840000Y-72467142D01*
X211768571Y-72324285D01*
X211768571Y-72110000D01*
X211840000Y-71967142D01*
X211982857Y-71895714D01*
X212768571Y-71895714D01*
X211768571Y-71181428D02*
X213268571Y-71181428D01*
X211840000Y-71181428D02*
X211768571Y-71038571D01*
X211768571Y-70752857D01*
X211840000Y-70610000D01*
X211911428Y-70538571D01*
X212054285Y-70467142D01*
X212482857Y-70467142D01*
X212625714Y-70538571D01*
X212697142Y-70610000D01*
X212768571Y-70752857D01*
X212768571Y-71038571D01*
X212697142Y-71181428D01*
D11*
G04 #@! TO.C,R_Delay1*
X245050000Y-82550000D02*
X247710000Y-82550000D01*
X245050000Y-82550000D02*
X245050000Y-85150000D01*
X245050000Y-85150000D02*
X247710000Y-85150000D01*
X247710000Y-82550000D02*
X247710000Y-85150000D01*
X247710000Y-79950000D02*
X247710000Y-81280000D01*
X246380000Y-79950000D02*
X247710000Y-79950000D01*
G04 #@! TO.C,U4*
X251400000Y-80010000D02*
X254060000Y-80010000D01*
X251400000Y-80010000D02*
X251400000Y-90230000D01*
X251400000Y-90230000D02*
X254060000Y-90230000D01*
X254060000Y-80010000D02*
X254060000Y-90230000D01*
X254060000Y-77410000D02*
X254060000Y-78740000D01*
X252730000Y-77410000D02*
X254060000Y-77410000D01*
G04 #@! TO.C,U5*
X247650000Y-54550000D02*
X247650000Y-57210000D01*
X247650000Y-54550000D02*
X239970000Y-54550000D01*
X239970000Y-54550000D02*
X239970000Y-57210000D01*
X247650000Y-57210000D02*
X239970000Y-57210000D01*
X250250000Y-57210000D02*
X248920000Y-57210000D01*
X250250000Y-55880000D02*
X250250000Y-57210000D01*
G04 #@! TO.C,1-Wire1*
X252730000Y-110430000D02*
X254060000Y-110430000D01*
X254060000Y-110430000D02*
X254060000Y-111760000D01*
X254060000Y-113030000D02*
X254060000Y-118170000D01*
X251400000Y-118170000D02*
X254060000Y-118170000D01*
X251400000Y-113030000D02*
X251400000Y-118170000D01*
X251400000Y-113030000D02*
X254060000Y-113030000D01*
G04 #@! TO.C,EC-5*
X251400000Y-100330000D02*
X254060000Y-100330000D01*
X251400000Y-100330000D02*
X251400000Y-105470000D01*
X251400000Y-105470000D02*
X254060000Y-105470000D01*
X254060000Y-100330000D02*
X254060000Y-105470000D01*
X254060000Y-97730000D02*
X254060000Y-99060000D01*
X252730000Y-97730000D02*
X254060000Y-97730000D01*
G04 #@! TO.C,J1*
X219770000Y-101600000D02*
X217110000Y-101600000D01*
X219770000Y-101600000D02*
X219770000Y-73600000D01*
X219770000Y-73600000D02*
X217110000Y-73600000D01*
X217110000Y-101600000D02*
X217110000Y-73600000D01*
X217110000Y-104200000D02*
X217110000Y-102870000D01*
X218440000Y-104200000D02*
X217110000Y-104200000D01*
G04 #@! TO.C,J2*
X240090000Y-111760000D02*
X237430000Y-111760000D01*
X240090000Y-111760000D02*
X240090000Y-73600000D01*
X240090000Y-73600000D02*
X237430000Y-73600000D01*
X237430000Y-111760000D02*
X237430000Y-73600000D01*
X237430000Y-114360000D02*
X237430000Y-113030000D01*
X238760000Y-114360000D02*
X237430000Y-114360000D01*
G04 #@! TO.C,switch1*
X260350000Y-68520000D02*
X260350000Y-71180000D01*
X260350000Y-68520000D02*
X255210000Y-68520000D01*
X255210000Y-68520000D02*
X255210000Y-71180000D01*
X260350000Y-71180000D02*
X255210000Y-71180000D01*
X262950000Y-71180000D02*
X261620000Y-71180000D01*
X262950000Y-69850000D02*
X262950000Y-71180000D01*
G04 #@! TO.C,R1*
X246480000Y-107950000D02*
G75*
G03X246480000Y-107950000I-1370000J0D01*
G01*
X245110000Y-109320000D02*
X245110000Y-111930000D01*
G04 #@! TO.C,R_Delay1*
D12*
X243657380Y-85121428D02*
X243181190Y-85454761D01*
X243657380Y-85692857D02*
X242657380Y-85692857D01*
X242657380Y-85311904D01*
X242705000Y-85216666D01*
X242752619Y-85169047D01*
X242847857Y-85121428D01*
X242990714Y-85121428D01*
X243085952Y-85169047D01*
X243133571Y-85216666D01*
X243181190Y-85311904D01*
X243181190Y-85692857D01*
X243752619Y-84930952D02*
X243752619Y-84169047D01*
X243657380Y-83930952D02*
X242657380Y-83930952D01*
X242657380Y-83692857D01*
X242705000Y-83550000D01*
X242800238Y-83454761D01*
X242895476Y-83407142D01*
X243085952Y-83359523D01*
X243228809Y-83359523D01*
X243419285Y-83407142D01*
X243514523Y-83454761D01*
X243609761Y-83550000D01*
X243657380Y-83692857D01*
X243657380Y-83930952D01*
X243609761Y-82550000D02*
X243657380Y-82645238D01*
X243657380Y-82835714D01*
X243609761Y-82930952D01*
X243514523Y-82978571D01*
X243133571Y-82978571D01*
X243038333Y-82930952D01*
X242990714Y-82835714D01*
X242990714Y-82645238D01*
X243038333Y-82550000D01*
X243133571Y-82502380D01*
X243228809Y-82502380D01*
X243324047Y-82978571D01*
X243657380Y-81930952D02*
X243609761Y-82026190D01*
X243514523Y-82073809D01*
X242657380Y-82073809D01*
X243657380Y-81121428D02*
X243133571Y-81121428D01*
X243038333Y-81169047D01*
X242990714Y-81264285D01*
X242990714Y-81454761D01*
X243038333Y-81550000D01*
X243609761Y-81121428D02*
X243657380Y-81216666D01*
X243657380Y-81454761D01*
X243609761Y-81550000D01*
X243514523Y-81597619D01*
X243419285Y-81597619D01*
X243324047Y-81550000D01*
X243276428Y-81454761D01*
X243276428Y-81216666D01*
X243228809Y-81121428D01*
X242990714Y-80740476D02*
X243657380Y-80502380D01*
X242990714Y-80264285D02*
X243657380Y-80502380D01*
X243895476Y-80597619D01*
X243943095Y-80645238D01*
X243990714Y-80740476D01*
X243657380Y-79359523D02*
X243657380Y-79930952D01*
X243657380Y-79645238D02*
X242657380Y-79645238D01*
X242800238Y-79740476D01*
X242895476Y-79835714D01*
X242943095Y-79930952D01*
G04 #@! TO.C,U4*
X251968095Y-75422380D02*
X251968095Y-76231904D01*
X252015714Y-76327142D01*
X252063333Y-76374761D01*
X252158571Y-76422380D01*
X252349047Y-76422380D01*
X252444285Y-76374761D01*
X252491904Y-76327142D01*
X252539523Y-76231904D01*
X252539523Y-75422380D01*
X253444285Y-75755714D02*
X253444285Y-76422380D01*
X253206190Y-75374761D02*
X252968095Y-76089047D01*
X253587142Y-76089047D01*
G04 #@! TO.C,U5*
X251142380Y-56641904D02*
X251951904Y-56641904D01*
X252047142Y-56594285D01*
X252094761Y-56546666D01*
X252142380Y-56451428D01*
X252142380Y-56260952D01*
X252094761Y-56165714D01*
X252047142Y-56118095D01*
X251951904Y-56070476D01*
X251142380Y-56070476D01*
X251142380Y-55118095D02*
X251142380Y-55594285D01*
X251618571Y-55641904D01*
X251570952Y-55594285D01*
X251523333Y-55499047D01*
X251523333Y-55260952D01*
X251570952Y-55165714D01*
X251618571Y-55118095D01*
X251713809Y-55070476D01*
X251951904Y-55070476D01*
X252047142Y-55118095D01*
X252094761Y-55165714D01*
X252142380Y-55260952D01*
X252142380Y-55499047D01*
X252094761Y-55594285D01*
X252047142Y-55641904D01*
G04 #@! TO.C,1-Wire1*
X249372380Y-116657142D02*
X249372380Y-117228571D01*
X249372380Y-116942857D02*
X248372380Y-116942857D01*
X248515238Y-117038095D01*
X248610476Y-117133333D01*
X248658095Y-117228571D01*
X248991428Y-116228571D02*
X248991428Y-115466666D01*
X248372380Y-115085714D02*
X249372380Y-114847619D01*
X248658095Y-114657142D01*
X249372380Y-114466666D01*
X248372380Y-114228571D01*
X249372380Y-113847619D02*
X248705714Y-113847619D01*
X248372380Y-113847619D02*
X248420000Y-113895238D01*
X248467619Y-113847619D01*
X248420000Y-113800000D01*
X248372380Y-113847619D01*
X248467619Y-113847619D01*
X249372380Y-113371428D02*
X248705714Y-113371428D01*
X248896190Y-113371428D02*
X248800952Y-113323809D01*
X248753333Y-113276190D01*
X248705714Y-113180952D01*
X248705714Y-113085714D01*
X249324761Y-112371428D02*
X249372380Y-112466666D01*
X249372380Y-112657142D01*
X249324761Y-112752380D01*
X249229523Y-112800000D01*
X248848571Y-112800000D01*
X248753333Y-112752380D01*
X248705714Y-112657142D01*
X248705714Y-112466666D01*
X248753333Y-112371428D01*
X248848571Y-112323809D01*
X248943809Y-112323809D01*
X249039047Y-112800000D01*
X249372380Y-111371428D02*
X249372380Y-111942857D01*
X249372380Y-111657142D02*
X248372380Y-111657142D01*
X248515238Y-111752380D01*
X248610476Y-111847619D01*
X248658095Y-111942857D01*
G04 #@! TO.C,EC-5*
X248848571Y-103409523D02*
X248848571Y-103076190D01*
X249372380Y-102933333D02*
X249372380Y-103409523D01*
X248372380Y-103409523D01*
X248372380Y-102933333D01*
X249277142Y-101933333D02*
X249324761Y-101980952D01*
X249372380Y-102123809D01*
X249372380Y-102219047D01*
X249324761Y-102361904D01*
X249229523Y-102457142D01*
X249134285Y-102504761D01*
X248943809Y-102552380D01*
X248800952Y-102552380D01*
X248610476Y-102504761D01*
X248515238Y-102457142D01*
X248420000Y-102361904D01*
X248372380Y-102219047D01*
X248372380Y-102123809D01*
X248420000Y-101980952D01*
X248467619Y-101933333D01*
X248991428Y-101504761D02*
X248991428Y-100742857D01*
X248372380Y-99790476D02*
X248372380Y-100266666D01*
X248848571Y-100314285D01*
X248800952Y-100266666D01*
X248753333Y-100171428D01*
X248753333Y-99933333D01*
X248800952Y-99838095D01*
X248848571Y-99790476D01*
X248943809Y-99742857D01*
X249181904Y-99742857D01*
X249277142Y-99790476D01*
X249324761Y-99838095D01*
X249372380Y-99933333D01*
X249372380Y-100171428D01*
X249324761Y-100266666D01*
X249277142Y-100314285D01*
G04 #@! TO.C,J1*
X218106666Y-105092380D02*
X218106666Y-105806666D01*
X218059047Y-105949523D01*
X217963809Y-106044761D01*
X217820952Y-106092380D01*
X217725714Y-106092380D01*
X219106666Y-106092380D02*
X218535238Y-106092380D01*
X218820952Y-106092380D02*
X218820952Y-105092380D01*
X218725714Y-105235238D01*
X218630476Y-105330476D01*
X218535238Y-105378095D01*
G04 #@! TO.C,J2*
X238426666Y-115252380D02*
X238426666Y-115966666D01*
X238379047Y-116109523D01*
X238283809Y-116204761D01*
X238140952Y-116252380D01*
X238045714Y-116252380D01*
X238855238Y-115347619D02*
X238902857Y-115300000D01*
X238998095Y-115252380D01*
X239236190Y-115252380D01*
X239331428Y-115300000D01*
X239379047Y-115347619D01*
X239426666Y-115442857D01*
X239426666Y-115538095D01*
X239379047Y-115680952D01*
X238807619Y-116252380D01*
X239426666Y-116252380D01*
G04 #@! TO.C,switch1*
X256460952Y-72794761D02*
X256556190Y-72842380D01*
X256746666Y-72842380D01*
X256841904Y-72794761D01*
X256889523Y-72699523D01*
X256889523Y-72651904D01*
X256841904Y-72556666D01*
X256746666Y-72509047D01*
X256603809Y-72509047D01*
X256508571Y-72461428D01*
X256460952Y-72366190D01*
X256460952Y-72318571D01*
X256508571Y-72223333D01*
X256603809Y-72175714D01*
X256746666Y-72175714D01*
X256841904Y-72223333D01*
X257222857Y-72175714D02*
X257413333Y-72842380D01*
X257603809Y-72366190D01*
X257794285Y-72842380D01*
X257984761Y-72175714D01*
X258365714Y-72842380D02*
X258365714Y-72175714D01*
X258365714Y-71842380D02*
X258318095Y-71890000D01*
X258365714Y-71937619D01*
X258413333Y-71890000D01*
X258365714Y-71842380D01*
X258365714Y-71937619D01*
X258699047Y-72175714D02*
X259080000Y-72175714D01*
X258841904Y-71842380D02*
X258841904Y-72699523D01*
X258889523Y-72794761D01*
X258984761Y-72842380D01*
X259080000Y-72842380D01*
X259841904Y-72794761D02*
X259746666Y-72842380D01*
X259556190Y-72842380D01*
X259460952Y-72794761D01*
X259413333Y-72747142D01*
X259365714Y-72651904D01*
X259365714Y-72366190D01*
X259413333Y-72270952D01*
X259460952Y-72223333D01*
X259556190Y-72175714D01*
X259746666Y-72175714D01*
X259841904Y-72223333D01*
X260270476Y-72842380D02*
X260270476Y-71842380D01*
X260699047Y-72842380D02*
X260699047Y-72318571D01*
X260651428Y-72223333D01*
X260556190Y-72175714D01*
X260413333Y-72175714D01*
X260318095Y-72223333D01*
X260270476Y-72270952D01*
X261699047Y-72842380D02*
X261127619Y-72842380D01*
X261413333Y-72842380D02*
X261413333Y-71842380D01*
X261318095Y-71985238D01*
X261222857Y-72080476D01*
X261127619Y-72128095D01*
G04 #@! TO.C,R1*
X244943333Y-105862380D02*
X244610000Y-105386190D01*
X244371904Y-105862380D02*
X244371904Y-104862380D01*
X244752857Y-104862380D01*
X244848095Y-104910000D01*
X244895714Y-104957619D01*
X244943333Y-105052857D01*
X244943333Y-105195714D01*
X244895714Y-105290952D01*
X244848095Y-105338571D01*
X244752857Y-105386190D01*
X244371904Y-105386190D01*
X245895714Y-105862380D02*
X245324285Y-105862380D01*
X245610000Y-105862380D02*
X245610000Y-104862380D01*
X245514761Y-105005238D01*
X245419523Y-105100476D01*
X245324285Y-105148095D01*
G04 #@! TD*
M02*
