G04 #@! TF.GenerationSoftware,KiCad,Pcbnew,5.0.2-bee76a0~70~ubuntu18.04.1*
G04 #@! TF.CreationDate,2019-07-28T20:14:29-04:00*
G04 #@! TF.ProjectId,knuth-gateway,6b6e7574-682d-4676-9174-657761792e6b,rev?*
G04 #@! TF.SameCoordinates,Original*
G04 #@! TF.FileFunction,Copper,L1,Top*
G04 #@! TF.FilePolarity,Positive*
%FSLAX46Y46*%
G04 Gerber Fmt 4.6, Leading zero omitted, Abs format (unit mm)*
G04 Created by KiCad (PCBNEW 5.0.2-bee76a0~70~ubuntu18.04.1) date Sun 28 Jul 2019 08:14:29 PM EDT*
%MOMM*%
%LPD*%
G01*
G04 APERTURE LIST*
G04 #@! TA.AperFunction,ComponentPad*
%ADD10R,1.700000X1.700000*%
G04 #@! TD*
G04 #@! TA.AperFunction,ComponentPad*
%ADD11O,1.700000X1.700000*%
G04 #@! TD*
G04 #@! TA.AperFunction,ComponentPad*
%ADD12C,1.600000*%
G04 #@! TD*
G04 #@! TA.AperFunction,ComponentPad*
%ADD13O,1.600000X1.600000*%
G04 #@! TD*
G04 #@! TA.AperFunction,ComponentPad*
%ADD14C,2.400000*%
G04 #@! TD*
G04 #@! TA.AperFunction,ComponentPad*
%ADD15R,2.400000X2.400000*%
G04 #@! TD*
G04 #@! TA.AperFunction,ViaPad*
%ADD16C,3.000000*%
G04 #@! TD*
G04 #@! TA.AperFunction,ViaPad*
%ADD17C,1.778000*%
G04 #@! TD*
G04 APERTURE END LIST*
D10*
G04 #@! TO.P,R_Delay1,1*
G04 #@! TO.N,GND*
X124460000Y-105156000D03*
D11*
G04 #@! TO.P,R_Delay1,2*
G04 #@! TO.N,Net-(R_Delay1-Pad2)*
X124460000Y-107696000D03*
G04 #@! TD*
D10*
G04 #@! TO.P,U4,1*
G04 #@! TO.N,SWITCHED_LOAD*
X130175000Y-102870000D03*
D11*
G04 #@! TO.P,U4,2*
G04 #@! TO.N,GND*
X130175000Y-105410000D03*
G04 #@! TO.P,U4,3*
G04 #@! TO.N,Net-(R_Delay1-Pad2)*
X130175000Y-107950000D03*
G04 #@! TO.P,U4,4*
G04 #@! TO.N,VBUS*
X130175000Y-110490000D03*
G04 #@! TO.P,U4,5*
G04 #@! TO.N,D10*
X130175000Y-113030000D03*
G04 #@! TD*
G04 #@! TO.P,1-Wire1,3*
G04 #@! TO.N,D5*
X125730000Y-141097000D03*
G04 #@! TO.P,1-Wire1,2*
G04 #@! TO.N,+3V3*
X125730000Y-138557000D03*
D10*
G04 #@! TO.P,1-Wire1,1*
G04 #@! TO.N,GND*
X125730000Y-136017000D03*
G04 #@! TD*
G04 #@! TO.P,EC-5,1*
G04 #@! TO.N,A0*
X125730000Y-123317000D03*
D11*
G04 #@! TO.P,EC-5,2*
G04 #@! TO.N,GND*
X125730000Y-125857000D03*
G04 #@! TO.P,EC-5,3*
G04 #@! TO.N,+3V3*
X125730000Y-128397000D03*
G04 #@! TD*
D10*
G04 #@! TO.P,J1,1*
G04 #@! TO.N,N/C*
X82423000Y-124460000D03*
D11*
G04 #@! TO.P,J1,2*
X82423000Y-121920000D03*
G04 #@! TO.P,J1,3*
G04 #@! TO.N,VBUS*
X82423000Y-119380000D03*
G04 #@! TO.P,J1,4*
G04 #@! TO.N,N/C*
X82423000Y-116840000D03*
G04 #@! TO.P,J1,5*
G04 #@! TO.N,D12*
X82423000Y-114300000D03*
G04 #@! TO.P,J1,6*
G04 #@! TO.N,D11*
X82423000Y-111760000D03*
G04 #@! TO.P,J1,7*
G04 #@! TO.N,D10*
X82423000Y-109220000D03*
G04 #@! TO.P,J1,8*
G04 #@! TO.N,N/C*
X82423000Y-106680000D03*
G04 #@! TO.P,J1,9*
X82423000Y-104140000D03*
G04 #@! TO.P,J1,10*
G04 #@! TO.N,D5*
X82423000Y-101600000D03*
G04 #@! TO.P,J1,11*
G04 #@! TO.N,N/C*
X82423000Y-99060000D03*
G04 #@! TO.P,J1,12*
X82423000Y-96520000D03*
G04 #@! TD*
D10*
G04 #@! TO.P,J2,1*
G04 #@! TO.N,N/C*
X102743000Y-134620000D03*
D11*
G04 #@! TO.P,J2,2*
G04 #@! TO.N,+3V3*
X102743000Y-132080000D03*
G04 #@! TO.P,J2,3*
G04 #@! TO.N,N/C*
X102743000Y-129540000D03*
G04 #@! TO.P,J2,4*
G04 #@! TO.N,GND*
X102743000Y-127000000D03*
G04 #@! TO.P,J2,5*
G04 #@! TO.N,A0*
X102743000Y-124460000D03*
G04 #@! TO.P,J2,6*
G04 #@! TO.N,N/C*
X102743000Y-121920000D03*
G04 #@! TO.P,J2,7*
X102743000Y-119380000D03*
G04 #@! TO.P,J2,8*
X102743000Y-116840000D03*
G04 #@! TO.P,J2,9*
X102743000Y-114300000D03*
G04 #@! TO.P,J2,10*
G04 #@! TO.N,A5*
X102743000Y-111760000D03*
G04 #@! TO.P,J2,11*
G04 #@! TO.N,N/C*
X102743000Y-109220000D03*
G04 #@! TO.P,J2,12*
X102743000Y-106680000D03*
G04 #@! TO.P,J2,13*
X102743000Y-104140000D03*
G04 #@! TO.P,J2,14*
G04 #@! TO.N,FEATHER_RX*
X102743000Y-101600000D03*
G04 #@! TO.P,J2,15*
G04 #@! TO.N,FEATHER_TX*
X102743000Y-99060000D03*
G04 #@! TO.P,J2,16*
G04 #@! TO.N,N/C*
X102743000Y-96520000D03*
G04 #@! TD*
D12*
G04 #@! TO.P,RP1,1*
G04 #@! TO.N,D5*
X115125500Y-139890500D03*
D13*
G04 #@! TO.P,RP1,2*
G04 #@! TO.N,+3V3*
X115125500Y-132270500D03*
G04 #@! TD*
D11*
G04 #@! TO.P,J3,2*
G04 #@! TO.N,GND*
X122872500Y-92583000D03*
D10*
G04 #@! TO.P,J3,1*
G04 #@! TO.N,BATT*
X122872500Y-95123000D03*
G04 #@! TD*
G04 #@! TO.P,J4,1*
G04 #@! TO.N,LOAD*
X128714500Y-95123000D03*
D11*
G04 #@! TO.P,J4,2*
G04 #@! TO.N,GND*
X128714500Y-92583000D03*
G04 #@! TD*
G04 #@! TO.P,J5,3*
G04 #@! TO.N,N/C*
X137287000Y-95123000D03*
G04 #@! TO.P,J5,2*
G04 #@! TO.N,SWITCHED_LOAD*
X139827000Y-95123000D03*
D10*
G04 #@! TO.P,J5,1*
G04 #@! TO.N,LOAD*
X142367000Y-95123000D03*
G04 #@! TD*
G04 #@! TO.P,J6,1*
G04 #@! TO.N,D12*
X117538500Y-145732500D03*
D11*
G04 #@! TO.P,J6,2*
G04 #@! TO.N,GND*
X117538500Y-148272500D03*
G04 #@! TO.P,J6,3*
G04 #@! TO.N,KEY*
X117538500Y-150812500D03*
G04 #@! TD*
D10*
G04 #@! TO.P,J7,1*
G04 #@! TO.N,D11*
X82931000Y-144589500D03*
D11*
G04 #@! TO.P,J7,2*
G04 #@! TO.N,PS*
X85471000Y-144589500D03*
G04 #@! TD*
D14*
G04 #@! TO.P,J8,3*
G04 #@! TO.N,GND*
X137160000Y-135367000D03*
G04 #@! TO.P,J8,2*
G04 #@! TO.N,+3V3*
X137160000Y-138867000D03*
D15*
G04 #@! TO.P,J8,1*
G04 #@! TO.N,D5*
X137160000Y-142367000D03*
G04 #@! TD*
G04 #@! TO.P,J9,1*
G04 #@! TO.N,+3V3*
X137160000Y-129667000D03*
D14*
G04 #@! TO.P,J9,2*
G04 #@! TO.N,GND*
X137160000Y-126167000D03*
G04 #@! TO.P,J9,3*
G04 #@! TO.N,A0*
X137160000Y-122667000D03*
G04 #@! TD*
D10*
G04 #@! TO.P,U1,1*
G04 #@! TO.N,BATT*
X123698000Y-157099000D03*
D11*
G04 #@! TO.P,U1,2*
G04 #@! TO.N,GND*
X121158000Y-157099000D03*
G04 #@! TO.P,U1,3*
G04 #@! TO.N,N/C*
X118618000Y-157099000D03*
G04 #@! TO.P,U1,4*
X116078000Y-157099000D03*
G04 #@! TO.P,U1,5*
X113538000Y-157099000D03*
G04 #@! TO.P,U1,6*
G04 #@! TO.N,PS*
X110998000Y-157099000D03*
G04 #@! TO.P,U1,7*
G04 #@! TO.N,KEY*
X108458000Y-157099000D03*
G04 #@! TO.P,U1,8*
G04 #@! TO.N,N/C*
X105918000Y-157099000D03*
G04 #@! TO.P,U1,9*
G04 #@! TO.N,FEATHER_RX*
X103378000Y-157099000D03*
G04 #@! TO.P,U1,10*
G04 #@! TO.N,FEATHER_TX*
X100838000Y-157099000D03*
G04 #@! TO.P,U1,11*
G04 #@! TO.N,N/C*
X98298000Y-157099000D03*
G04 #@! TO.P,U1,12*
G04 #@! TO.N,+3V3*
X95758000Y-157099000D03*
G04 #@! TD*
D12*
G04 #@! TO.P,RD1,1*
G04 #@! TO.N,BATT*
X115760500Y-106680000D03*
D13*
G04 #@! TO.P,RD1,2*
G04 #@! TO.N,A5*
X115760500Y-116840000D03*
G04 #@! TD*
G04 #@! TO.P,RD2,2*
G04 #@! TO.N,GND*
X119443500Y-106680000D03*
D12*
G04 #@! TO.P,RD2,1*
G04 #@! TO.N,A5*
X119443500Y-116840000D03*
G04 #@! TD*
D16*
G04 #@! TO.N,*
X77978000Y-86000000D03*
X153035000Y-86000000D03*
X153035000Y-159660000D03*
X77978000Y-159660000D03*
D17*
G04 #@! TO.N,+3V3*
X95377000Y-153225500D03*
X106553000Y-143192500D03*
G04 #@! TO.N,D5*
X98869500Y-114236500D03*
X90233500Y-113855500D03*
G04 #@! TO.N,A5*
X99060000Y-107188000D03*
X99060000Y-96012000D03*
G04 #@! TO.N,VBUS*
X86550500Y-108585000D03*
X89408000Y-99568000D03*
G04 #@! TO.N,D12*
X91821000Y-149923500D03*
X98488500Y-143764000D03*
G04 #@! TD*
M02*
