G04 #@! TF.GenerationSoftware,KiCad,Pcbnew,5.0.2-bee76a0~70~ubuntu18.04.1*
G04 #@! TF.CreationDate,2019-07-28T23:18:03-04:00*
G04 #@! TF.ProjectId,knuth-gateway,6b6e7574-682d-4676-9174-657761792e6b,rev?*
G04 #@! TF.SameCoordinates,Original*
G04 #@! TF.FileFunction,Soldermask,Bot*
G04 #@! TF.FilePolarity,Negative*
%FSLAX46Y46*%
G04 Gerber Fmt 4.6, Leading zero omitted, Abs format (unit mm)*
G04 Created by KiCad (PCBNEW 5.0.2-bee76a0~70~ubuntu18.04.1) date Sun 28 Jul 2019 11:18:03 PM EDT*
%MOMM*%
%LPD*%
G01*
G04 APERTURE LIST*
%ADD10C,0.100000*%
G04 APERTURE END LIST*
D10*
G36*
X124599000Y-158000000D02*
X122797000Y-158000000D01*
X122797000Y-156198000D01*
X124599000Y-156198000D01*
X124599000Y-158000000D01*
X124599000Y-158000000D01*
G37*
G36*
X121268442Y-156204518D02*
X121334627Y-156211037D01*
X121447853Y-156245384D01*
X121504467Y-156262557D01*
X121643087Y-156336652D01*
X121660991Y-156346222D01*
X121696729Y-156375552D01*
X121798186Y-156458814D01*
X121881448Y-156560271D01*
X121910778Y-156596009D01*
X121910779Y-156596011D01*
X121994443Y-156752533D01*
X121994443Y-156752534D01*
X122045963Y-156922373D01*
X122063359Y-157099000D01*
X122045963Y-157275627D01*
X122011616Y-157388853D01*
X121994443Y-157445467D01*
X121920348Y-157584087D01*
X121910778Y-157601991D01*
X121881448Y-157637729D01*
X121798186Y-157739186D01*
X121696729Y-157822448D01*
X121660991Y-157851778D01*
X121660989Y-157851779D01*
X121504467Y-157935443D01*
X121447853Y-157952616D01*
X121334627Y-157986963D01*
X121268443Y-157993481D01*
X121202260Y-158000000D01*
X121113740Y-158000000D01*
X121047557Y-157993481D01*
X120981373Y-157986963D01*
X120868147Y-157952616D01*
X120811533Y-157935443D01*
X120655011Y-157851779D01*
X120655009Y-157851778D01*
X120619271Y-157822448D01*
X120517814Y-157739186D01*
X120434552Y-157637729D01*
X120405222Y-157601991D01*
X120395652Y-157584087D01*
X120321557Y-157445467D01*
X120304384Y-157388853D01*
X120270037Y-157275627D01*
X120252641Y-157099000D01*
X120270037Y-156922373D01*
X120321557Y-156752534D01*
X120321557Y-156752533D01*
X120405221Y-156596011D01*
X120405222Y-156596009D01*
X120434552Y-156560271D01*
X120517814Y-156458814D01*
X120619271Y-156375552D01*
X120655009Y-156346222D01*
X120672913Y-156336652D01*
X120811533Y-156262557D01*
X120868147Y-156245384D01*
X120981373Y-156211037D01*
X121047558Y-156204518D01*
X121113740Y-156198000D01*
X121202260Y-156198000D01*
X121268442Y-156204518D01*
X121268442Y-156204518D01*
G37*
G36*
X95868442Y-156204518D02*
X95934627Y-156211037D01*
X96047853Y-156245384D01*
X96104467Y-156262557D01*
X96243087Y-156336652D01*
X96260991Y-156346222D01*
X96296729Y-156375552D01*
X96398186Y-156458814D01*
X96481448Y-156560271D01*
X96510778Y-156596009D01*
X96510779Y-156596011D01*
X96594443Y-156752533D01*
X96594443Y-156752534D01*
X96645963Y-156922373D01*
X96663359Y-157099000D01*
X96645963Y-157275627D01*
X96611616Y-157388853D01*
X96594443Y-157445467D01*
X96520348Y-157584087D01*
X96510778Y-157601991D01*
X96481448Y-157637729D01*
X96398186Y-157739186D01*
X96296729Y-157822448D01*
X96260991Y-157851778D01*
X96260989Y-157851779D01*
X96104467Y-157935443D01*
X96047853Y-157952616D01*
X95934627Y-157986963D01*
X95868443Y-157993481D01*
X95802260Y-158000000D01*
X95713740Y-158000000D01*
X95647557Y-157993481D01*
X95581373Y-157986963D01*
X95468147Y-157952616D01*
X95411533Y-157935443D01*
X95255011Y-157851779D01*
X95255009Y-157851778D01*
X95219271Y-157822448D01*
X95117814Y-157739186D01*
X95034552Y-157637729D01*
X95005222Y-157601991D01*
X94995652Y-157584087D01*
X94921557Y-157445467D01*
X94904384Y-157388853D01*
X94870037Y-157275627D01*
X94852641Y-157099000D01*
X94870037Y-156922373D01*
X94921557Y-156752534D01*
X94921557Y-156752533D01*
X95005221Y-156596011D01*
X95005222Y-156596009D01*
X95034552Y-156560271D01*
X95117814Y-156458814D01*
X95219271Y-156375552D01*
X95255009Y-156346222D01*
X95272913Y-156336652D01*
X95411533Y-156262557D01*
X95468147Y-156245384D01*
X95581373Y-156211037D01*
X95647558Y-156204518D01*
X95713740Y-156198000D01*
X95802260Y-156198000D01*
X95868442Y-156204518D01*
X95868442Y-156204518D01*
G37*
G36*
X98408442Y-156204518D02*
X98474627Y-156211037D01*
X98587853Y-156245384D01*
X98644467Y-156262557D01*
X98783087Y-156336652D01*
X98800991Y-156346222D01*
X98836729Y-156375552D01*
X98938186Y-156458814D01*
X99021448Y-156560271D01*
X99050778Y-156596009D01*
X99050779Y-156596011D01*
X99134443Y-156752533D01*
X99134443Y-156752534D01*
X99185963Y-156922373D01*
X99203359Y-157099000D01*
X99185963Y-157275627D01*
X99151616Y-157388853D01*
X99134443Y-157445467D01*
X99060348Y-157584087D01*
X99050778Y-157601991D01*
X99021448Y-157637729D01*
X98938186Y-157739186D01*
X98836729Y-157822448D01*
X98800991Y-157851778D01*
X98800989Y-157851779D01*
X98644467Y-157935443D01*
X98587853Y-157952616D01*
X98474627Y-157986963D01*
X98408443Y-157993481D01*
X98342260Y-158000000D01*
X98253740Y-158000000D01*
X98187557Y-157993481D01*
X98121373Y-157986963D01*
X98008147Y-157952616D01*
X97951533Y-157935443D01*
X97795011Y-157851779D01*
X97795009Y-157851778D01*
X97759271Y-157822448D01*
X97657814Y-157739186D01*
X97574552Y-157637729D01*
X97545222Y-157601991D01*
X97535652Y-157584087D01*
X97461557Y-157445467D01*
X97444384Y-157388853D01*
X97410037Y-157275627D01*
X97392641Y-157099000D01*
X97410037Y-156922373D01*
X97461557Y-156752534D01*
X97461557Y-156752533D01*
X97545221Y-156596011D01*
X97545222Y-156596009D01*
X97574552Y-156560271D01*
X97657814Y-156458814D01*
X97759271Y-156375552D01*
X97795009Y-156346222D01*
X97812913Y-156336652D01*
X97951533Y-156262557D01*
X98008147Y-156245384D01*
X98121373Y-156211037D01*
X98187558Y-156204518D01*
X98253740Y-156198000D01*
X98342260Y-156198000D01*
X98408442Y-156204518D01*
X98408442Y-156204518D01*
G37*
G36*
X100948442Y-156204518D02*
X101014627Y-156211037D01*
X101127853Y-156245384D01*
X101184467Y-156262557D01*
X101323087Y-156336652D01*
X101340991Y-156346222D01*
X101376729Y-156375552D01*
X101478186Y-156458814D01*
X101561448Y-156560271D01*
X101590778Y-156596009D01*
X101590779Y-156596011D01*
X101674443Y-156752533D01*
X101674443Y-156752534D01*
X101725963Y-156922373D01*
X101743359Y-157099000D01*
X101725963Y-157275627D01*
X101691616Y-157388853D01*
X101674443Y-157445467D01*
X101600348Y-157584087D01*
X101590778Y-157601991D01*
X101561448Y-157637729D01*
X101478186Y-157739186D01*
X101376729Y-157822448D01*
X101340991Y-157851778D01*
X101340989Y-157851779D01*
X101184467Y-157935443D01*
X101127853Y-157952616D01*
X101014627Y-157986963D01*
X100948443Y-157993481D01*
X100882260Y-158000000D01*
X100793740Y-158000000D01*
X100727557Y-157993481D01*
X100661373Y-157986963D01*
X100548147Y-157952616D01*
X100491533Y-157935443D01*
X100335011Y-157851779D01*
X100335009Y-157851778D01*
X100299271Y-157822448D01*
X100197814Y-157739186D01*
X100114552Y-157637729D01*
X100085222Y-157601991D01*
X100075652Y-157584087D01*
X100001557Y-157445467D01*
X99984384Y-157388853D01*
X99950037Y-157275627D01*
X99932641Y-157099000D01*
X99950037Y-156922373D01*
X100001557Y-156752534D01*
X100001557Y-156752533D01*
X100085221Y-156596011D01*
X100085222Y-156596009D01*
X100114552Y-156560271D01*
X100197814Y-156458814D01*
X100299271Y-156375552D01*
X100335009Y-156346222D01*
X100352913Y-156336652D01*
X100491533Y-156262557D01*
X100548147Y-156245384D01*
X100661373Y-156211037D01*
X100727558Y-156204518D01*
X100793740Y-156198000D01*
X100882260Y-156198000D01*
X100948442Y-156204518D01*
X100948442Y-156204518D01*
G37*
G36*
X103488442Y-156204518D02*
X103554627Y-156211037D01*
X103667853Y-156245384D01*
X103724467Y-156262557D01*
X103863087Y-156336652D01*
X103880991Y-156346222D01*
X103916729Y-156375552D01*
X104018186Y-156458814D01*
X104101448Y-156560271D01*
X104130778Y-156596009D01*
X104130779Y-156596011D01*
X104214443Y-156752533D01*
X104214443Y-156752534D01*
X104265963Y-156922373D01*
X104283359Y-157099000D01*
X104265963Y-157275627D01*
X104231616Y-157388853D01*
X104214443Y-157445467D01*
X104140348Y-157584087D01*
X104130778Y-157601991D01*
X104101448Y-157637729D01*
X104018186Y-157739186D01*
X103916729Y-157822448D01*
X103880991Y-157851778D01*
X103880989Y-157851779D01*
X103724467Y-157935443D01*
X103667853Y-157952616D01*
X103554627Y-157986963D01*
X103488443Y-157993481D01*
X103422260Y-158000000D01*
X103333740Y-158000000D01*
X103267557Y-157993481D01*
X103201373Y-157986963D01*
X103088147Y-157952616D01*
X103031533Y-157935443D01*
X102875011Y-157851779D01*
X102875009Y-157851778D01*
X102839271Y-157822448D01*
X102737814Y-157739186D01*
X102654552Y-157637729D01*
X102625222Y-157601991D01*
X102615652Y-157584087D01*
X102541557Y-157445467D01*
X102524384Y-157388853D01*
X102490037Y-157275627D01*
X102472641Y-157099000D01*
X102490037Y-156922373D01*
X102541557Y-156752534D01*
X102541557Y-156752533D01*
X102625221Y-156596011D01*
X102625222Y-156596009D01*
X102654552Y-156560271D01*
X102737814Y-156458814D01*
X102839271Y-156375552D01*
X102875009Y-156346222D01*
X102892913Y-156336652D01*
X103031533Y-156262557D01*
X103088147Y-156245384D01*
X103201373Y-156211037D01*
X103267558Y-156204518D01*
X103333740Y-156198000D01*
X103422260Y-156198000D01*
X103488442Y-156204518D01*
X103488442Y-156204518D01*
G37*
G36*
X106028442Y-156204518D02*
X106094627Y-156211037D01*
X106207853Y-156245384D01*
X106264467Y-156262557D01*
X106403087Y-156336652D01*
X106420991Y-156346222D01*
X106456729Y-156375552D01*
X106558186Y-156458814D01*
X106641448Y-156560271D01*
X106670778Y-156596009D01*
X106670779Y-156596011D01*
X106754443Y-156752533D01*
X106754443Y-156752534D01*
X106805963Y-156922373D01*
X106823359Y-157099000D01*
X106805963Y-157275627D01*
X106771616Y-157388853D01*
X106754443Y-157445467D01*
X106680348Y-157584087D01*
X106670778Y-157601991D01*
X106641448Y-157637729D01*
X106558186Y-157739186D01*
X106456729Y-157822448D01*
X106420991Y-157851778D01*
X106420989Y-157851779D01*
X106264467Y-157935443D01*
X106207853Y-157952616D01*
X106094627Y-157986963D01*
X106028443Y-157993481D01*
X105962260Y-158000000D01*
X105873740Y-158000000D01*
X105807557Y-157993481D01*
X105741373Y-157986963D01*
X105628147Y-157952616D01*
X105571533Y-157935443D01*
X105415011Y-157851779D01*
X105415009Y-157851778D01*
X105379271Y-157822448D01*
X105277814Y-157739186D01*
X105194552Y-157637729D01*
X105165222Y-157601991D01*
X105155652Y-157584087D01*
X105081557Y-157445467D01*
X105064384Y-157388853D01*
X105030037Y-157275627D01*
X105012641Y-157099000D01*
X105030037Y-156922373D01*
X105081557Y-156752534D01*
X105081557Y-156752533D01*
X105165221Y-156596011D01*
X105165222Y-156596009D01*
X105194552Y-156560271D01*
X105277814Y-156458814D01*
X105379271Y-156375552D01*
X105415009Y-156346222D01*
X105432913Y-156336652D01*
X105571533Y-156262557D01*
X105628147Y-156245384D01*
X105741373Y-156211037D01*
X105807558Y-156204518D01*
X105873740Y-156198000D01*
X105962260Y-156198000D01*
X106028442Y-156204518D01*
X106028442Y-156204518D01*
G37*
G36*
X111108442Y-156204518D02*
X111174627Y-156211037D01*
X111287853Y-156245384D01*
X111344467Y-156262557D01*
X111483087Y-156336652D01*
X111500991Y-156346222D01*
X111536729Y-156375552D01*
X111638186Y-156458814D01*
X111721448Y-156560271D01*
X111750778Y-156596009D01*
X111750779Y-156596011D01*
X111834443Y-156752533D01*
X111834443Y-156752534D01*
X111885963Y-156922373D01*
X111903359Y-157099000D01*
X111885963Y-157275627D01*
X111851616Y-157388853D01*
X111834443Y-157445467D01*
X111760348Y-157584087D01*
X111750778Y-157601991D01*
X111721448Y-157637729D01*
X111638186Y-157739186D01*
X111536729Y-157822448D01*
X111500991Y-157851778D01*
X111500989Y-157851779D01*
X111344467Y-157935443D01*
X111287853Y-157952616D01*
X111174627Y-157986963D01*
X111108443Y-157993481D01*
X111042260Y-158000000D01*
X110953740Y-158000000D01*
X110887557Y-157993481D01*
X110821373Y-157986963D01*
X110708147Y-157952616D01*
X110651533Y-157935443D01*
X110495011Y-157851779D01*
X110495009Y-157851778D01*
X110459271Y-157822448D01*
X110357814Y-157739186D01*
X110274552Y-157637729D01*
X110245222Y-157601991D01*
X110235652Y-157584087D01*
X110161557Y-157445467D01*
X110144384Y-157388853D01*
X110110037Y-157275627D01*
X110092641Y-157099000D01*
X110110037Y-156922373D01*
X110161557Y-156752534D01*
X110161557Y-156752533D01*
X110245221Y-156596011D01*
X110245222Y-156596009D01*
X110274552Y-156560271D01*
X110357814Y-156458814D01*
X110459271Y-156375552D01*
X110495009Y-156346222D01*
X110512913Y-156336652D01*
X110651533Y-156262557D01*
X110708147Y-156245384D01*
X110821373Y-156211037D01*
X110887558Y-156204518D01*
X110953740Y-156198000D01*
X111042260Y-156198000D01*
X111108442Y-156204518D01*
X111108442Y-156204518D01*
G37*
G36*
X108568442Y-156204518D02*
X108634627Y-156211037D01*
X108747853Y-156245384D01*
X108804467Y-156262557D01*
X108943087Y-156336652D01*
X108960991Y-156346222D01*
X108996729Y-156375552D01*
X109098186Y-156458814D01*
X109181448Y-156560271D01*
X109210778Y-156596009D01*
X109210779Y-156596011D01*
X109294443Y-156752533D01*
X109294443Y-156752534D01*
X109345963Y-156922373D01*
X109363359Y-157099000D01*
X109345963Y-157275627D01*
X109311616Y-157388853D01*
X109294443Y-157445467D01*
X109220348Y-157584087D01*
X109210778Y-157601991D01*
X109181448Y-157637729D01*
X109098186Y-157739186D01*
X108996729Y-157822448D01*
X108960991Y-157851778D01*
X108960989Y-157851779D01*
X108804467Y-157935443D01*
X108747853Y-157952616D01*
X108634627Y-157986963D01*
X108568443Y-157993481D01*
X108502260Y-158000000D01*
X108413740Y-158000000D01*
X108347557Y-157993481D01*
X108281373Y-157986963D01*
X108168147Y-157952616D01*
X108111533Y-157935443D01*
X107955011Y-157851779D01*
X107955009Y-157851778D01*
X107919271Y-157822448D01*
X107817814Y-157739186D01*
X107734552Y-157637729D01*
X107705222Y-157601991D01*
X107695652Y-157584087D01*
X107621557Y-157445467D01*
X107604384Y-157388853D01*
X107570037Y-157275627D01*
X107552641Y-157099000D01*
X107570037Y-156922373D01*
X107621557Y-156752534D01*
X107621557Y-156752533D01*
X107705221Y-156596011D01*
X107705222Y-156596009D01*
X107734552Y-156560271D01*
X107817814Y-156458814D01*
X107919271Y-156375552D01*
X107955009Y-156346222D01*
X107972913Y-156336652D01*
X108111533Y-156262557D01*
X108168147Y-156245384D01*
X108281373Y-156211037D01*
X108347558Y-156204518D01*
X108413740Y-156198000D01*
X108502260Y-156198000D01*
X108568442Y-156204518D01*
X108568442Y-156204518D01*
G37*
G36*
X118728442Y-156204518D02*
X118794627Y-156211037D01*
X118907853Y-156245384D01*
X118964467Y-156262557D01*
X119103087Y-156336652D01*
X119120991Y-156346222D01*
X119156729Y-156375552D01*
X119258186Y-156458814D01*
X119341448Y-156560271D01*
X119370778Y-156596009D01*
X119370779Y-156596011D01*
X119454443Y-156752533D01*
X119454443Y-156752534D01*
X119505963Y-156922373D01*
X119523359Y-157099000D01*
X119505963Y-157275627D01*
X119471616Y-157388853D01*
X119454443Y-157445467D01*
X119380348Y-157584087D01*
X119370778Y-157601991D01*
X119341448Y-157637729D01*
X119258186Y-157739186D01*
X119156729Y-157822448D01*
X119120991Y-157851778D01*
X119120989Y-157851779D01*
X118964467Y-157935443D01*
X118907853Y-157952616D01*
X118794627Y-157986963D01*
X118728443Y-157993481D01*
X118662260Y-158000000D01*
X118573740Y-158000000D01*
X118507557Y-157993481D01*
X118441373Y-157986963D01*
X118328147Y-157952616D01*
X118271533Y-157935443D01*
X118115011Y-157851779D01*
X118115009Y-157851778D01*
X118079271Y-157822448D01*
X117977814Y-157739186D01*
X117894552Y-157637729D01*
X117865222Y-157601991D01*
X117855652Y-157584087D01*
X117781557Y-157445467D01*
X117764384Y-157388853D01*
X117730037Y-157275627D01*
X117712641Y-157099000D01*
X117730037Y-156922373D01*
X117781557Y-156752534D01*
X117781557Y-156752533D01*
X117865221Y-156596011D01*
X117865222Y-156596009D01*
X117894552Y-156560271D01*
X117977814Y-156458814D01*
X118079271Y-156375552D01*
X118115009Y-156346222D01*
X118132913Y-156336652D01*
X118271533Y-156262557D01*
X118328147Y-156245384D01*
X118441373Y-156211037D01*
X118507558Y-156204518D01*
X118573740Y-156198000D01*
X118662260Y-156198000D01*
X118728442Y-156204518D01*
X118728442Y-156204518D01*
G37*
G36*
X113648442Y-156204518D02*
X113714627Y-156211037D01*
X113827853Y-156245384D01*
X113884467Y-156262557D01*
X114023087Y-156336652D01*
X114040991Y-156346222D01*
X114076729Y-156375552D01*
X114178186Y-156458814D01*
X114261448Y-156560271D01*
X114290778Y-156596009D01*
X114290779Y-156596011D01*
X114374443Y-156752533D01*
X114374443Y-156752534D01*
X114425963Y-156922373D01*
X114443359Y-157099000D01*
X114425963Y-157275627D01*
X114391616Y-157388853D01*
X114374443Y-157445467D01*
X114300348Y-157584087D01*
X114290778Y-157601991D01*
X114261448Y-157637729D01*
X114178186Y-157739186D01*
X114076729Y-157822448D01*
X114040991Y-157851778D01*
X114040989Y-157851779D01*
X113884467Y-157935443D01*
X113827853Y-157952616D01*
X113714627Y-157986963D01*
X113648443Y-157993481D01*
X113582260Y-158000000D01*
X113493740Y-158000000D01*
X113427557Y-157993481D01*
X113361373Y-157986963D01*
X113248147Y-157952616D01*
X113191533Y-157935443D01*
X113035011Y-157851779D01*
X113035009Y-157851778D01*
X112999271Y-157822448D01*
X112897814Y-157739186D01*
X112814552Y-157637729D01*
X112785222Y-157601991D01*
X112775652Y-157584087D01*
X112701557Y-157445467D01*
X112684384Y-157388853D01*
X112650037Y-157275627D01*
X112632641Y-157099000D01*
X112650037Y-156922373D01*
X112701557Y-156752534D01*
X112701557Y-156752533D01*
X112785221Y-156596011D01*
X112785222Y-156596009D01*
X112814552Y-156560271D01*
X112897814Y-156458814D01*
X112999271Y-156375552D01*
X113035009Y-156346222D01*
X113052913Y-156336652D01*
X113191533Y-156262557D01*
X113248147Y-156245384D01*
X113361373Y-156211037D01*
X113427558Y-156204518D01*
X113493740Y-156198000D01*
X113582260Y-156198000D01*
X113648442Y-156204518D01*
X113648442Y-156204518D01*
G37*
G36*
X116188442Y-156204518D02*
X116254627Y-156211037D01*
X116367853Y-156245384D01*
X116424467Y-156262557D01*
X116563087Y-156336652D01*
X116580991Y-156346222D01*
X116616729Y-156375552D01*
X116718186Y-156458814D01*
X116801448Y-156560271D01*
X116830778Y-156596009D01*
X116830779Y-156596011D01*
X116914443Y-156752533D01*
X116914443Y-156752534D01*
X116965963Y-156922373D01*
X116983359Y-157099000D01*
X116965963Y-157275627D01*
X116931616Y-157388853D01*
X116914443Y-157445467D01*
X116840348Y-157584087D01*
X116830778Y-157601991D01*
X116801448Y-157637729D01*
X116718186Y-157739186D01*
X116616729Y-157822448D01*
X116580991Y-157851778D01*
X116580989Y-157851779D01*
X116424467Y-157935443D01*
X116367853Y-157952616D01*
X116254627Y-157986963D01*
X116188443Y-157993481D01*
X116122260Y-158000000D01*
X116033740Y-158000000D01*
X115967557Y-157993481D01*
X115901373Y-157986963D01*
X115788147Y-157952616D01*
X115731533Y-157935443D01*
X115575011Y-157851779D01*
X115575009Y-157851778D01*
X115539271Y-157822448D01*
X115437814Y-157739186D01*
X115354552Y-157637729D01*
X115325222Y-157601991D01*
X115315652Y-157584087D01*
X115241557Y-157445467D01*
X115224384Y-157388853D01*
X115190037Y-157275627D01*
X115172641Y-157099000D01*
X115190037Y-156922373D01*
X115241557Y-156752534D01*
X115241557Y-156752533D01*
X115325221Y-156596011D01*
X115325222Y-156596009D01*
X115354552Y-156560271D01*
X115437814Y-156458814D01*
X115539271Y-156375552D01*
X115575009Y-156346222D01*
X115592913Y-156336652D01*
X115731533Y-156262557D01*
X115788147Y-156245384D01*
X115901373Y-156211037D01*
X115967558Y-156204518D01*
X116033740Y-156198000D01*
X116122260Y-156198000D01*
X116188442Y-156204518D01*
X116188442Y-156204518D01*
G37*
G36*
X117648942Y-149918018D02*
X117715127Y-149924537D01*
X117828353Y-149958884D01*
X117884967Y-149976057D01*
X118023587Y-150050152D01*
X118041491Y-150059722D01*
X118077229Y-150089052D01*
X118178686Y-150172314D01*
X118261948Y-150273771D01*
X118291278Y-150309509D01*
X118291279Y-150309511D01*
X118374943Y-150466033D01*
X118374943Y-150466034D01*
X118426463Y-150635873D01*
X118443859Y-150812500D01*
X118426463Y-150989127D01*
X118392116Y-151102353D01*
X118374943Y-151158967D01*
X118300848Y-151297587D01*
X118291278Y-151315491D01*
X118261948Y-151351229D01*
X118178686Y-151452686D01*
X118077229Y-151535948D01*
X118041491Y-151565278D01*
X118041489Y-151565279D01*
X117884967Y-151648943D01*
X117828353Y-151666116D01*
X117715127Y-151700463D01*
X117648943Y-151706981D01*
X117582760Y-151713500D01*
X117494240Y-151713500D01*
X117428057Y-151706981D01*
X117361873Y-151700463D01*
X117248647Y-151666116D01*
X117192033Y-151648943D01*
X117035511Y-151565279D01*
X117035509Y-151565278D01*
X116999771Y-151535948D01*
X116898314Y-151452686D01*
X116815052Y-151351229D01*
X116785722Y-151315491D01*
X116776152Y-151297587D01*
X116702057Y-151158967D01*
X116684884Y-151102353D01*
X116650537Y-150989127D01*
X116633141Y-150812500D01*
X116650537Y-150635873D01*
X116702057Y-150466034D01*
X116702057Y-150466033D01*
X116785721Y-150309511D01*
X116785722Y-150309509D01*
X116815052Y-150273771D01*
X116898314Y-150172314D01*
X116999771Y-150089052D01*
X117035509Y-150059722D01*
X117053413Y-150050152D01*
X117192033Y-149976057D01*
X117248647Y-149958884D01*
X117361873Y-149924537D01*
X117428058Y-149918018D01*
X117494240Y-149911500D01*
X117582760Y-149911500D01*
X117648942Y-149918018D01*
X117648942Y-149918018D01*
G37*
G36*
X117648942Y-147378018D02*
X117715127Y-147384537D01*
X117828353Y-147418884D01*
X117884967Y-147436057D01*
X118023587Y-147510152D01*
X118041491Y-147519722D01*
X118077229Y-147549052D01*
X118178686Y-147632314D01*
X118261948Y-147733771D01*
X118291278Y-147769509D01*
X118291279Y-147769511D01*
X118374943Y-147926033D01*
X118374943Y-147926034D01*
X118426463Y-148095873D01*
X118443859Y-148272500D01*
X118426463Y-148449127D01*
X118392116Y-148562353D01*
X118374943Y-148618967D01*
X118300848Y-148757587D01*
X118291278Y-148775491D01*
X118261948Y-148811229D01*
X118178686Y-148912686D01*
X118077229Y-148995948D01*
X118041491Y-149025278D01*
X118041489Y-149025279D01*
X117884967Y-149108943D01*
X117828353Y-149126116D01*
X117715127Y-149160463D01*
X117648942Y-149166982D01*
X117582760Y-149173500D01*
X117494240Y-149173500D01*
X117428058Y-149166982D01*
X117361873Y-149160463D01*
X117248647Y-149126116D01*
X117192033Y-149108943D01*
X117035511Y-149025279D01*
X117035509Y-149025278D01*
X116999771Y-148995948D01*
X116898314Y-148912686D01*
X116815052Y-148811229D01*
X116785722Y-148775491D01*
X116776152Y-148757587D01*
X116702057Y-148618967D01*
X116684884Y-148562353D01*
X116650537Y-148449127D01*
X116633141Y-148272500D01*
X116650537Y-148095873D01*
X116702057Y-147926034D01*
X116702057Y-147926033D01*
X116785721Y-147769511D01*
X116785722Y-147769509D01*
X116815052Y-147733771D01*
X116898314Y-147632314D01*
X116999771Y-147549052D01*
X117035509Y-147519722D01*
X117053413Y-147510152D01*
X117192033Y-147436057D01*
X117248647Y-147418884D01*
X117361873Y-147384537D01*
X117428058Y-147378018D01*
X117494240Y-147371500D01*
X117582760Y-147371500D01*
X117648942Y-147378018D01*
X117648942Y-147378018D01*
G37*
G36*
X118439500Y-146633500D02*
X116637500Y-146633500D01*
X116637500Y-144831500D01*
X118439500Y-144831500D01*
X118439500Y-146633500D01*
X118439500Y-146633500D01*
G37*
G36*
X83832000Y-145490500D02*
X82030000Y-145490500D01*
X82030000Y-143688500D01*
X83832000Y-143688500D01*
X83832000Y-145490500D01*
X83832000Y-145490500D01*
G37*
G36*
X85581443Y-143695019D02*
X85647627Y-143701537D01*
X85760853Y-143735884D01*
X85817467Y-143753057D01*
X85956087Y-143827152D01*
X85973991Y-143836722D01*
X86009729Y-143866052D01*
X86111186Y-143949314D01*
X86194448Y-144050771D01*
X86223778Y-144086509D01*
X86223779Y-144086511D01*
X86307443Y-144243033D01*
X86307443Y-144243034D01*
X86358963Y-144412873D01*
X86376359Y-144589500D01*
X86358963Y-144766127D01*
X86339132Y-144831500D01*
X86307443Y-144935967D01*
X86233348Y-145074587D01*
X86223778Y-145092491D01*
X86194448Y-145128229D01*
X86111186Y-145229686D01*
X86009729Y-145312948D01*
X85973991Y-145342278D01*
X85973989Y-145342279D01*
X85817467Y-145425943D01*
X85760853Y-145443116D01*
X85647627Y-145477463D01*
X85581442Y-145483982D01*
X85515260Y-145490500D01*
X85426740Y-145490500D01*
X85360558Y-145483982D01*
X85294373Y-145477463D01*
X85181147Y-145443116D01*
X85124533Y-145425943D01*
X84968011Y-145342279D01*
X84968009Y-145342278D01*
X84932271Y-145312948D01*
X84830814Y-145229686D01*
X84747552Y-145128229D01*
X84718222Y-145092491D01*
X84708652Y-145074587D01*
X84634557Y-144935967D01*
X84602868Y-144831500D01*
X84583037Y-144766127D01*
X84565641Y-144589500D01*
X84583037Y-144412873D01*
X84634557Y-144243034D01*
X84634557Y-144243033D01*
X84718221Y-144086511D01*
X84718222Y-144086509D01*
X84747552Y-144050771D01*
X84830814Y-143949314D01*
X84932271Y-143866052D01*
X84968009Y-143836722D01*
X84985913Y-143827152D01*
X85124533Y-143753057D01*
X85181147Y-143735884D01*
X85294373Y-143701537D01*
X85360557Y-143695019D01*
X85426740Y-143688500D01*
X85515260Y-143688500D01*
X85581443Y-143695019D01*
X85581443Y-143695019D01*
G37*
G36*
X138411000Y-143618000D02*
X135909000Y-143618000D01*
X135909000Y-141116000D01*
X138411000Y-141116000D01*
X138411000Y-143618000D01*
X138411000Y-143618000D01*
G37*
G36*
X125840442Y-140202518D02*
X125906627Y-140209037D01*
X126019853Y-140243384D01*
X126076467Y-140260557D01*
X126138285Y-140293600D01*
X126232991Y-140344222D01*
X126268729Y-140373552D01*
X126370186Y-140456814D01*
X126447903Y-140551514D01*
X126482778Y-140594009D01*
X126482779Y-140594011D01*
X126566443Y-140750533D01*
X126566443Y-140750534D01*
X126617963Y-140920373D01*
X126635359Y-141097000D01*
X126617963Y-141273627D01*
X126583616Y-141386853D01*
X126566443Y-141443467D01*
X126492348Y-141582087D01*
X126482778Y-141599991D01*
X126453448Y-141635729D01*
X126370186Y-141737186D01*
X126268729Y-141820448D01*
X126232991Y-141849778D01*
X126232989Y-141849779D01*
X126076467Y-141933443D01*
X126019853Y-141950616D01*
X125906627Y-141984963D01*
X125840443Y-141991481D01*
X125774260Y-141998000D01*
X125685740Y-141998000D01*
X125619557Y-141991481D01*
X125553373Y-141984963D01*
X125440147Y-141950616D01*
X125383533Y-141933443D01*
X125227011Y-141849779D01*
X125227009Y-141849778D01*
X125191271Y-141820448D01*
X125089814Y-141737186D01*
X125006552Y-141635729D01*
X124977222Y-141599991D01*
X124967652Y-141582087D01*
X124893557Y-141443467D01*
X124876384Y-141386853D01*
X124842037Y-141273627D01*
X124824641Y-141097000D01*
X124842037Y-140920373D01*
X124893557Y-140750534D01*
X124893557Y-140750533D01*
X124977221Y-140594011D01*
X124977222Y-140594009D01*
X125012097Y-140551514D01*
X125089814Y-140456814D01*
X125191271Y-140373552D01*
X125227009Y-140344222D01*
X125321715Y-140293600D01*
X125383533Y-140260557D01*
X125440147Y-140243384D01*
X125553373Y-140209037D01*
X125619558Y-140202518D01*
X125685740Y-140196000D01*
X125774260Y-140196000D01*
X125840442Y-140202518D01*
X125840442Y-140202518D01*
G37*
G36*
X115373728Y-139072203D02*
X115528600Y-139136353D01*
X115667981Y-139229485D01*
X115786515Y-139348019D01*
X115879647Y-139487400D01*
X115943797Y-139642272D01*
X115976500Y-139806684D01*
X115976500Y-139974316D01*
X115943797Y-140138728D01*
X115879647Y-140293600D01*
X115786515Y-140432981D01*
X115667981Y-140551515D01*
X115528600Y-140644647D01*
X115373728Y-140708797D01*
X115209316Y-140741500D01*
X115041684Y-140741500D01*
X114877272Y-140708797D01*
X114722400Y-140644647D01*
X114583019Y-140551515D01*
X114464485Y-140432981D01*
X114371353Y-140293600D01*
X114307203Y-140138728D01*
X114274500Y-139974316D01*
X114274500Y-139806684D01*
X114307203Y-139642272D01*
X114371353Y-139487400D01*
X114464485Y-139348019D01*
X114583019Y-139229485D01*
X114722400Y-139136353D01*
X114877272Y-139072203D01*
X115041684Y-139039500D01*
X115209316Y-139039500D01*
X115373728Y-139072203D01*
X115373728Y-139072203D01*
G37*
G36*
X137343636Y-137628019D02*
X137524903Y-137664075D01*
X137752571Y-137758378D01*
X137956542Y-137894668D01*
X137957469Y-137895287D01*
X138131713Y-138069531D01*
X138131715Y-138069534D01*
X138268622Y-138274429D01*
X138362925Y-138502097D01*
X138411000Y-138743787D01*
X138411000Y-138990213D01*
X138362925Y-139231903D01*
X138268622Y-139459571D01*
X138146545Y-139642272D01*
X138131713Y-139664469D01*
X137957469Y-139838713D01*
X137957466Y-139838715D01*
X137752571Y-139975622D01*
X137524903Y-140069925D01*
X137343635Y-140105981D01*
X137283214Y-140118000D01*
X137036786Y-140118000D01*
X136976365Y-140105981D01*
X136795097Y-140069925D01*
X136567429Y-139975622D01*
X136362534Y-139838715D01*
X136362531Y-139838713D01*
X136188287Y-139664469D01*
X136173455Y-139642272D01*
X136051378Y-139459571D01*
X135957075Y-139231903D01*
X135909000Y-138990213D01*
X135909000Y-138743787D01*
X135957075Y-138502097D01*
X136051378Y-138274429D01*
X136188285Y-138069534D01*
X136188287Y-138069531D01*
X136362531Y-137895287D01*
X136363458Y-137894668D01*
X136567429Y-137758378D01*
X136795097Y-137664075D01*
X136976364Y-137628019D01*
X137036786Y-137616000D01*
X137283214Y-137616000D01*
X137343636Y-137628019D01*
X137343636Y-137628019D01*
G37*
G36*
X125840442Y-137662518D02*
X125906627Y-137669037D01*
X126019853Y-137703384D01*
X126076467Y-137720557D01*
X126215087Y-137794652D01*
X126232991Y-137804222D01*
X126268729Y-137833552D01*
X126370186Y-137916814D01*
X126453448Y-138018271D01*
X126482778Y-138054009D01*
X126482779Y-138054011D01*
X126566443Y-138210533D01*
X126566443Y-138210534D01*
X126617963Y-138380373D01*
X126635359Y-138557000D01*
X126617963Y-138733627D01*
X126583616Y-138846853D01*
X126566443Y-138903467D01*
X126520075Y-138990214D01*
X126482778Y-139059991D01*
X126472755Y-139072204D01*
X126370186Y-139197186D01*
X126268729Y-139280448D01*
X126232991Y-139309778D01*
X126232989Y-139309779D01*
X126076467Y-139393443D01*
X126019853Y-139410616D01*
X125906627Y-139444963D01*
X125840442Y-139451482D01*
X125774260Y-139458000D01*
X125685740Y-139458000D01*
X125619558Y-139451482D01*
X125553373Y-139444963D01*
X125440147Y-139410616D01*
X125383533Y-139393443D01*
X125227011Y-139309779D01*
X125227009Y-139309778D01*
X125191271Y-139280448D01*
X125089814Y-139197186D01*
X124987245Y-139072204D01*
X124977222Y-139059991D01*
X124939925Y-138990214D01*
X124893557Y-138903467D01*
X124876384Y-138846853D01*
X124842037Y-138733627D01*
X124824641Y-138557000D01*
X124842037Y-138380373D01*
X124893557Y-138210534D01*
X124893557Y-138210533D01*
X124977221Y-138054011D01*
X124977222Y-138054009D01*
X125006552Y-138018271D01*
X125089814Y-137916814D01*
X125191271Y-137833552D01*
X125227009Y-137804222D01*
X125244913Y-137794652D01*
X125383533Y-137720557D01*
X125440147Y-137703384D01*
X125553373Y-137669037D01*
X125619558Y-137662518D01*
X125685740Y-137656000D01*
X125774260Y-137656000D01*
X125840442Y-137662518D01*
X125840442Y-137662518D01*
G37*
G36*
X126631000Y-136918000D02*
X124829000Y-136918000D01*
X124829000Y-135116000D01*
X126631000Y-135116000D01*
X126631000Y-136918000D01*
X126631000Y-136918000D01*
G37*
G36*
X137343636Y-134128019D02*
X137524903Y-134164075D01*
X137752571Y-134258378D01*
X137956542Y-134394668D01*
X137957469Y-134395287D01*
X138131713Y-134569531D01*
X138131715Y-134569534D01*
X138268622Y-134774429D01*
X138362925Y-135002097D01*
X138411000Y-135243787D01*
X138411000Y-135490213D01*
X138362925Y-135731903D01*
X138268622Y-135959571D01*
X138132332Y-136163542D01*
X138131713Y-136164469D01*
X137957469Y-136338713D01*
X137957466Y-136338715D01*
X137752571Y-136475622D01*
X137524903Y-136569925D01*
X137343635Y-136605981D01*
X137283214Y-136618000D01*
X137036786Y-136618000D01*
X136976365Y-136605981D01*
X136795097Y-136569925D01*
X136567429Y-136475622D01*
X136362534Y-136338715D01*
X136362531Y-136338713D01*
X136188287Y-136164469D01*
X136187668Y-136163542D01*
X136051378Y-135959571D01*
X135957075Y-135731903D01*
X135909000Y-135490213D01*
X135909000Y-135243787D01*
X135957075Y-135002097D01*
X136051378Y-134774429D01*
X136188285Y-134569534D01*
X136188287Y-134569531D01*
X136362531Y-134395287D01*
X136363458Y-134394668D01*
X136567429Y-134258378D01*
X136795097Y-134164075D01*
X136976364Y-134128019D01*
X137036786Y-134116000D01*
X137283214Y-134116000D01*
X137343636Y-134128019D01*
X137343636Y-134128019D01*
G37*
G36*
X103644000Y-135521000D02*
X101842000Y-135521000D01*
X101842000Y-133719000D01*
X103644000Y-133719000D01*
X103644000Y-135521000D01*
X103644000Y-135521000D01*
G37*
G36*
X115292321Y-131431813D02*
X115292324Y-131431814D01*
X115292325Y-131431814D01*
X115452739Y-131480475D01*
X115452741Y-131480476D01*
X115452744Y-131480477D01*
X115600578Y-131559495D01*
X115730159Y-131665841D01*
X115836505Y-131795422D01*
X115915523Y-131943256D01*
X115964187Y-132103679D01*
X115980617Y-132270500D01*
X115964187Y-132437321D01*
X115964186Y-132437324D01*
X115964186Y-132437325D01*
X115919999Y-132582991D01*
X115915523Y-132597744D01*
X115836505Y-132745578D01*
X115730159Y-132875159D01*
X115600578Y-132981505D01*
X115452744Y-133060523D01*
X115452741Y-133060524D01*
X115452739Y-133060525D01*
X115292325Y-133109186D01*
X115292324Y-133109186D01*
X115292321Y-133109187D01*
X115167304Y-133121500D01*
X115083696Y-133121500D01*
X114958679Y-133109187D01*
X114958676Y-133109186D01*
X114958675Y-133109186D01*
X114798261Y-133060525D01*
X114798259Y-133060524D01*
X114798256Y-133060523D01*
X114650422Y-132981505D01*
X114520841Y-132875159D01*
X114414495Y-132745578D01*
X114335477Y-132597744D01*
X114331002Y-132582991D01*
X114286814Y-132437325D01*
X114286814Y-132437324D01*
X114286813Y-132437321D01*
X114270383Y-132270500D01*
X114286813Y-132103679D01*
X114335477Y-131943256D01*
X114414495Y-131795422D01*
X114520841Y-131665841D01*
X114650422Y-131559495D01*
X114798256Y-131480477D01*
X114798259Y-131480476D01*
X114798261Y-131480475D01*
X114958675Y-131431814D01*
X114958676Y-131431814D01*
X114958679Y-131431813D01*
X115083696Y-131419500D01*
X115167304Y-131419500D01*
X115292321Y-131431813D01*
X115292321Y-131431813D01*
G37*
G36*
X102853442Y-131185518D02*
X102919627Y-131192037D01*
X103032853Y-131226384D01*
X103089467Y-131243557D01*
X103228087Y-131317652D01*
X103245991Y-131327222D01*
X103281729Y-131356552D01*
X103383186Y-131439814D01*
X103466448Y-131541271D01*
X103495778Y-131577009D01*
X103495779Y-131577011D01*
X103579443Y-131733533D01*
X103579443Y-131733534D01*
X103630963Y-131903373D01*
X103648359Y-132080000D01*
X103630963Y-132256627D01*
X103596616Y-132369853D01*
X103579443Y-132426467D01*
X103573641Y-132437321D01*
X103495778Y-132582991D01*
X103483670Y-132597744D01*
X103383186Y-132720186D01*
X103281729Y-132803448D01*
X103245991Y-132832778D01*
X103245989Y-132832779D01*
X103089467Y-132916443D01*
X103032853Y-132933616D01*
X102919627Y-132967963D01*
X102853443Y-132974481D01*
X102787260Y-132981000D01*
X102698740Y-132981000D01*
X102632557Y-132974481D01*
X102566373Y-132967963D01*
X102453147Y-132933616D01*
X102396533Y-132916443D01*
X102240011Y-132832779D01*
X102240009Y-132832778D01*
X102204271Y-132803448D01*
X102102814Y-132720186D01*
X102002330Y-132597744D01*
X101990222Y-132582991D01*
X101912359Y-132437321D01*
X101906557Y-132426467D01*
X101889384Y-132369853D01*
X101855037Y-132256627D01*
X101837641Y-132080000D01*
X101855037Y-131903373D01*
X101906557Y-131733534D01*
X101906557Y-131733533D01*
X101990221Y-131577011D01*
X101990222Y-131577009D01*
X102019552Y-131541271D01*
X102102814Y-131439814D01*
X102204271Y-131356552D01*
X102240009Y-131327222D01*
X102257913Y-131317652D01*
X102396533Y-131243557D01*
X102453147Y-131226384D01*
X102566373Y-131192037D01*
X102632558Y-131185518D01*
X102698740Y-131179000D01*
X102787260Y-131179000D01*
X102853442Y-131185518D01*
X102853442Y-131185518D01*
G37*
G36*
X138411000Y-130918000D02*
X135909000Y-130918000D01*
X135909000Y-128416000D01*
X138411000Y-128416000D01*
X138411000Y-130918000D01*
X138411000Y-130918000D01*
G37*
G36*
X102853443Y-128645519D02*
X102919627Y-128652037D01*
X103032853Y-128686384D01*
X103089467Y-128703557D01*
X103164130Y-128743466D01*
X103245991Y-128787222D01*
X103281729Y-128816552D01*
X103383186Y-128899814D01*
X103466448Y-129001271D01*
X103495778Y-129037009D01*
X103495779Y-129037011D01*
X103579443Y-129193533D01*
X103579443Y-129193534D01*
X103630963Y-129363373D01*
X103648359Y-129540000D01*
X103630963Y-129716627D01*
X103596616Y-129829853D01*
X103579443Y-129886467D01*
X103505348Y-130025087D01*
X103495778Y-130042991D01*
X103466448Y-130078729D01*
X103383186Y-130180186D01*
X103281729Y-130263448D01*
X103245991Y-130292778D01*
X103245989Y-130292779D01*
X103089467Y-130376443D01*
X103032853Y-130393616D01*
X102919627Y-130427963D01*
X102853443Y-130434481D01*
X102787260Y-130441000D01*
X102698740Y-130441000D01*
X102632557Y-130434481D01*
X102566373Y-130427963D01*
X102453147Y-130393616D01*
X102396533Y-130376443D01*
X102240011Y-130292779D01*
X102240009Y-130292778D01*
X102204271Y-130263448D01*
X102102814Y-130180186D01*
X102019552Y-130078729D01*
X101990222Y-130042991D01*
X101980652Y-130025087D01*
X101906557Y-129886467D01*
X101889384Y-129829853D01*
X101855037Y-129716627D01*
X101837641Y-129540000D01*
X101855037Y-129363373D01*
X101906557Y-129193534D01*
X101906557Y-129193533D01*
X101990221Y-129037011D01*
X101990222Y-129037009D01*
X102019552Y-129001271D01*
X102102814Y-128899814D01*
X102204271Y-128816552D01*
X102240009Y-128787222D01*
X102321870Y-128743466D01*
X102396533Y-128703557D01*
X102453147Y-128686384D01*
X102566373Y-128652037D01*
X102632557Y-128645519D01*
X102698740Y-128639000D01*
X102787260Y-128639000D01*
X102853443Y-128645519D01*
X102853443Y-128645519D01*
G37*
G36*
X125840443Y-127502519D02*
X125906627Y-127509037D01*
X126019853Y-127543384D01*
X126076467Y-127560557D01*
X126215087Y-127634652D01*
X126232991Y-127644222D01*
X126268729Y-127673552D01*
X126370186Y-127756814D01*
X126453448Y-127858271D01*
X126482778Y-127894009D01*
X126482779Y-127894011D01*
X126566443Y-128050533D01*
X126566443Y-128050534D01*
X126617963Y-128220373D01*
X126635359Y-128397000D01*
X126617963Y-128573627D01*
X126583616Y-128686853D01*
X126566443Y-128743467D01*
X126543055Y-128787222D01*
X126482778Y-128899991D01*
X126453448Y-128935729D01*
X126370186Y-129037186D01*
X126268729Y-129120448D01*
X126232991Y-129149778D01*
X126232989Y-129149779D01*
X126076467Y-129233443D01*
X126019853Y-129250616D01*
X125906627Y-129284963D01*
X125840443Y-129291481D01*
X125774260Y-129298000D01*
X125685740Y-129298000D01*
X125619557Y-129291481D01*
X125553373Y-129284963D01*
X125440147Y-129250616D01*
X125383533Y-129233443D01*
X125227011Y-129149779D01*
X125227009Y-129149778D01*
X125191271Y-129120448D01*
X125089814Y-129037186D01*
X125006552Y-128935729D01*
X124977222Y-128899991D01*
X124916945Y-128787222D01*
X124893557Y-128743467D01*
X124876384Y-128686853D01*
X124842037Y-128573627D01*
X124824641Y-128397000D01*
X124842037Y-128220373D01*
X124893557Y-128050534D01*
X124893557Y-128050533D01*
X124977221Y-127894011D01*
X124977222Y-127894009D01*
X125006552Y-127858271D01*
X125089814Y-127756814D01*
X125191271Y-127673552D01*
X125227009Y-127644222D01*
X125244913Y-127634652D01*
X125383533Y-127560557D01*
X125440147Y-127543384D01*
X125553373Y-127509037D01*
X125619557Y-127502519D01*
X125685740Y-127496000D01*
X125774260Y-127496000D01*
X125840443Y-127502519D01*
X125840443Y-127502519D01*
G37*
G36*
X102853443Y-126105519D02*
X102919627Y-126112037D01*
X103032853Y-126146384D01*
X103089467Y-126163557D01*
X103164130Y-126203466D01*
X103245991Y-126247222D01*
X103281729Y-126276552D01*
X103383186Y-126359814D01*
X103466448Y-126461271D01*
X103495778Y-126497009D01*
X103495779Y-126497011D01*
X103579443Y-126653533D01*
X103579443Y-126653534D01*
X103630963Y-126823373D01*
X103648359Y-127000000D01*
X103630963Y-127176627D01*
X103600933Y-127275622D01*
X103579443Y-127346467D01*
X103566904Y-127369925D01*
X103495778Y-127502991D01*
X103490816Y-127509037D01*
X103383186Y-127640186D01*
X103281729Y-127723448D01*
X103245991Y-127752778D01*
X103245989Y-127752779D01*
X103089467Y-127836443D01*
X103032853Y-127853616D01*
X102919627Y-127887963D01*
X102853442Y-127894482D01*
X102787260Y-127901000D01*
X102698740Y-127901000D01*
X102632558Y-127894482D01*
X102566373Y-127887963D01*
X102453147Y-127853616D01*
X102396533Y-127836443D01*
X102240011Y-127752779D01*
X102240009Y-127752778D01*
X102204271Y-127723448D01*
X102102814Y-127640186D01*
X101995184Y-127509037D01*
X101990222Y-127502991D01*
X101919096Y-127369925D01*
X101906557Y-127346467D01*
X101885067Y-127275622D01*
X101855037Y-127176627D01*
X101837641Y-127000000D01*
X101855037Y-126823373D01*
X101906557Y-126653534D01*
X101906557Y-126653533D01*
X101990221Y-126497011D01*
X101990222Y-126497009D01*
X102019552Y-126461271D01*
X102102814Y-126359814D01*
X102204271Y-126276552D01*
X102240009Y-126247222D01*
X102321870Y-126203466D01*
X102396533Y-126163557D01*
X102453147Y-126146384D01*
X102566373Y-126112037D01*
X102632557Y-126105519D01*
X102698740Y-126099000D01*
X102787260Y-126099000D01*
X102853443Y-126105519D01*
X102853443Y-126105519D01*
G37*
G36*
X137343635Y-124928019D02*
X137524903Y-124964075D01*
X137752571Y-125058378D01*
X137956542Y-125194668D01*
X137957469Y-125195287D01*
X138131713Y-125369531D01*
X138131715Y-125369534D01*
X138268622Y-125574429D01*
X138362925Y-125802097D01*
X138411000Y-126043787D01*
X138411000Y-126290213D01*
X138362925Y-126531903D01*
X138268622Y-126759571D01*
X138225989Y-126823375D01*
X138131713Y-126964469D01*
X137957469Y-127138713D01*
X137957466Y-127138715D01*
X137752571Y-127275622D01*
X137524903Y-127369925D01*
X137343635Y-127405981D01*
X137283214Y-127418000D01*
X137036786Y-127418000D01*
X136976365Y-127405981D01*
X136795097Y-127369925D01*
X136567429Y-127275622D01*
X136362534Y-127138715D01*
X136362531Y-127138713D01*
X136188287Y-126964469D01*
X136094011Y-126823375D01*
X136051378Y-126759571D01*
X135957075Y-126531903D01*
X135909000Y-126290213D01*
X135909000Y-126043787D01*
X135957075Y-125802097D01*
X136051378Y-125574429D01*
X136188285Y-125369534D01*
X136188287Y-125369531D01*
X136362531Y-125195287D01*
X136363458Y-125194668D01*
X136567429Y-125058378D01*
X136795097Y-124964075D01*
X136976365Y-124928019D01*
X137036786Y-124916000D01*
X137283214Y-124916000D01*
X137343635Y-124928019D01*
X137343635Y-124928019D01*
G37*
G36*
X125840443Y-124962519D02*
X125906627Y-124969037D01*
X126019853Y-125003384D01*
X126076467Y-125020557D01*
X126215087Y-125094652D01*
X126232991Y-125104222D01*
X126268729Y-125133552D01*
X126370186Y-125216814D01*
X126453448Y-125318271D01*
X126482778Y-125354009D01*
X126482779Y-125354011D01*
X126566443Y-125510533D01*
X126566443Y-125510534D01*
X126617963Y-125680373D01*
X126635359Y-125857000D01*
X126617963Y-126033627D01*
X126583616Y-126146853D01*
X126566443Y-126203467D01*
X126520075Y-126290214D01*
X126482778Y-126359991D01*
X126453448Y-126395729D01*
X126370186Y-126497186D01*
X126268729Y-126580448D01*
X126232991Y-126609778D01*
X126232989Y-126609779D01*
X126076467Y-126693443D01*
X126019853Y-126710616D01*
X125906627Y-126744963D01*
X125840442Y-126751482D01*
X125774260Y-126758000D01*
X125685740Y-126758000D01*
X125619558Y-126751482D01*
X125553373Y-126744963D01*
X125440147Y-126710616D01*
X125383533Y-126693443D01*
X125227011Y-126609779D01*
X125227009Y-126609778D01*
X125191271Y-126580448D01*
X125089814Y-126497186D01*
X125006552Y-126395729D01*
X124977222Y-126359991D01*
X124939925Y-126290214D01*
X124893557Y-126203467D01*
X124876384Y-126146853D01*
X124842037Y-126033627D01*
X124824641Y-125857000D01*
X124842037Y-125680373D01*
X124893557Y-125510534D01*
X124893557Y-125510533D01*
X124977221Y-125354011D01*
X124977222Y-125354009D01*
X125006552Y-125318271D01*
X125089814Y-125216814D01*
X125191271Y-125133552D01*
X125227009Y-125104222D01*
X125244913Y-125094652D01*
X125383533Y-125020557D01*
X125440147Y-125003384D01*
X125553373Y-124969037D01*
X125619557Y-124962519D01*
X125685740Y-124956000D01*
X125774260Y-124956000D01*
X125840443Y-124962519D01*
X125840443Y-124962519D01*
G37*
G36*
X102853442Y-123565518D02*
X102919627Y-123572037D01*
X103032853Y-123606384D01*
X103089467Y-123623557D01*
X103228087Y-123697652D01*
X103245991Y-123707222D01*
X103281729Y-123736552D01*
X103383186Y-123819814D01*
X103424310Y-123869925D01*
X103495778Y-123957009D01*
X103495779Y-123957011D01*
X103579443Y-124113533D01*
X103579443Y-124113534D01*
X103630963Y-124283373D01*
X103648359Y-124460000D01*
X103630963Y-124636627D01*
X103596616Y-124749853D01*
X103579443Y-124806467D01*
X103505348Y-124945087D01*
X103495778Y-124962991D01*
X103494888Y-124964075D01*
X103383186Y-125100186D01*
X103281729Y-125183448D01*
X103245991Y-125212778D01*
X103245989Y-125212779D01*
X103089467Y-125296443D01*
X103032853Y-125313616D01*
X102919627Y-125347963D01*
X102853442Y-125354482D01*
X102787260Y-125361000D01*
X102698740Y-125361000D01*
X102632558Y-125354482D01*
X102566373Y-125347963D01*
X102453147Y-125313616D01*
X102396533Y-125296443D01*
X102240011Y-125212779D01*
X102240009Y-125212778D01*
X102204271Y-125183448D01*
X102102814Y-125100186D01*
X101991112Y-124964075D01*
X101990222Y-124962991D01*
X101980652Y-124945087D01*
X101906557Y-124806467D01*
X101889384Y-124749853D01*
X101855037Y-124636627D01*
X101837641Y-124460000D01*
X101855037Y-124283373D01*
X101906557Y-124113534D01*
X101906557Y-124113533D01*
X101990221Y-123957011D01*
X101990222Y-123957009D01*
X102061690Y-123869925D01*
X102102814Y-123819814D01*
X102204271Y-123736552D01*
X102240009Y-123707222D01*
X102257913Y-123697652D01*
X102396533Y-123623557D01*
X102453147Y-123606384D01*
X102566373Y-123572037D01*
X102632558Y-123565518D01*
X102698740Y-123559000D01*
X102787260Y-123559000D01*
X102853442Y-123565518D01*
X102853442Y-123565518D01*
G37*
G36*
X83324000Y-125361000D02*
X81522000Y-125361000D01*
X81522000Y-123559000D01*
X83324000Y-123559000D01*
X83324000Y-125361000D01*
X83324000Y-125361000D01*
G37*
G36*
X126631000Y-124218000D02*
X124829000Y-124218000D01*
X124829000Y-122416000D01*
X126631000Y-122416000D01*
X126631000Y-124218000D01*
X126631000Y-124218000D01*
G37*
G36*
X137343636Y-121428019D02*
X137524903Y-121464075D01*
X137752571Y-121558378D01*
X137956542Y-121694668D01*
X137957469Y-121695287D01*
X138131713Y-121869531D01*
X138131715Y-121869534D01*
X138268622Y-122074429D01*
X138362925Y-122302097D01*
X138411000Y-122543787D01*
X138411000Y-122790213D01*
X138362925Y-123031903D01*
X138268622Y-123259571D01*
X138132332Y-123463542D01*
X138131713Y-123464469D01*
X137957469Y-123638713D01*
X137957466Y-123638715D01*
X137752571Y-123775622D01*
X137524903Y-123869925D01*
X137343636Y-123905981D01*
X137283214Y-123918000D01*
X137036786Y-123918000D01*
X136976364Y-123905981D01*
X136795097Y-123869925D01*
X136567429Y-123775622D01*
X136362534Y-123638715D01*
X136362531Y-123638713D01*
X136188287Y-123464469D01*
X136187668Y-123463542D01*
X136051378Y-123259571D01*
X135957075Y-123031903D01*
X135909000Y-122790213D01*
X135909000Y-122543787D01*
X135957075Y-122302097D01*
X136051378Y-122074429D01*
X136188285Y-121869534D01*
X136188287Y-121869531D01*
X136362531Y-121695287D01*
X136363458Y-121694668D01*
X136567429Y-121558378D01*
X136795097Y-121464075D01*
X136976364Y-121428019D01*
X137036786Y-121416000D01*
X137283214Y-121416000D01*
X137343636Y-121428019D01*
X137343636Y-121428019D01*
G37*
G36*
X82533442Y-121025518D02*
X82599627Y-121032037D01*
X82712853Y-121066384D01*
X82769467Y-121083557D01*
X82908087Y-121157652D01*
X82925991Y-121167222D01*
X82961729Y-121196552D01*
X83063186Y-121279814D01*
X83146448Y-121381271D01*
X83175778Y-121417009D01*
X83175779Y-121417011D01*
X83259443Y-121573533D01*
X83259443Y-121573534D01*
X83310963Y-121743373D01*
X83328359Y-121920000D01*
X83310963Y-122096627D01*
X83276616Y-122209853D01*
X83259443Y-122266467D01*
X83240398Y-122302097D01*
X83175778Y-122422991D01*
X83146448Y-122458729D01*
X83063186Y-122560186D01*
X82961729Y-122643448D01*
X82925991Y-122672778D01*
X82925989Y-122672779D01*
X82769467Y-122756443D01*
X82712853Y-122773616D01*
X82599627Y-122807963D01*
X82533443Y-122814481D01*
X82467260Y-122821000D01*
X82378740Y-122821000D01*
X82312557Y-122814481D01*
X82246373Y-122807963D01*
X82133147Y-122773616D01*
X82076533Y-122756443D01*
X81920011Y-122672779D01*
X81920009Y-122672778D01*
X81884271Y-122643448D01*
X81782814Y-122560186D01*
X81699552Y-122458729D01*
X81670222Y-122422991D01*
X81605602Y-122302097D01*
X81586557Y-122266467D01*
X81569384Y-122209853D01*
X81535037Y-122096627D01*
X81517641Y-121920000D01*
X81535037Y-121743373D01*
X81586557Y-121573534D01*
X81586557Y-121573533D01*
X81670221Y-121417011D01*
X81670222Y-121417009D01*
X81699552Y-121381271D01*
X81782814Y-121279814D01*
X81884271Y-121196552D01*
X81920009Y-121167222D01*
X81937913Y-121157652D01*
X82076533Y-121083557D01*
X82133147Y-121066384D01*
X82246373Y-121032037D01*
X82312558Y-121025518D01*
X82378740Y-121019000D01*
X82467260Y-121019000D01*
X82533442Y-121025518D01*
X82533442Y-121025518D01*
G37*
G36*
X102853442Y-121025518D02*
X102919627Y-121032037D01*
X103032853Y-121066384D01*
X103089467Y-121083557D01*
X103228087Y-121157652D01*
X103245991Y-121167222D01*
X103281729Y-121196552D01*
X103383186Y-121279814D01*
X103466448Y-121381271D01*
X103495778Y-121417009D01*
X103495779Y-121417011D01*
X103579443Y-121573533D01*
X103579443Y-121573534D01*
X103630963Y-121743373D01*
X103648359Y-121920000D01*
X103630963Y-122096627D01*
X103596616Y-122209853D01*
X103579443Y-122266467D01*
X103560398Y-122302097D01*
X103495778Y-122422991D01*
X103466448Y-122458729D01*
X103383186Y-122560186D01*
X103281729Y-122643448D01*
X103245991Y-122672778D01*
X103245989Y-122672779D01*
X103089467Y-122756443D01*
X103032853Y-122773616D01*
X102919627Y-122807963D01*
X102853443Y-122814481D01*
X102787260Y-122821000D01*
X102698740Y-122821000D01*
X102632557Y-122814481D01*
X102566373Y-122807963D01*
X102453147Y-122773616D01*
X102396533Y-122756443D01*
X102240011Y-122672779D01*
X102240009Y-122672778D01*
X102204271Y-122643448D01*
X102102814Y-122560186D01*
X102019552Y-122458729D01*
X101990222Y-122422991D01*
X101925602Y-122302097D01*
X101906557Y-122266467D01*
X101889384Y-122209853D01*
X101855037Y-122096627D01*
X101837641Y-121920000D01*
X101855037Y-121743373D01*
X101906557Y-121573534D01*
X101906557Y-121573533D01*
X101990221Y-121417011D01*
X101990222Y-121417009D01*
X102019552Y-121381271D01*
X102102814Y-121279814D01*
X102204271Y-121196552D01*
X102240009Y-121167222D01*
X102257913Y-121157652D01*
X102396533Y-121083557D01*
X102453147Y-121066384D01*
X102566373Y-121032037D01*
X102632558Y-121025518D01*
X102698740Y-121019000D01*
X102787260Y-121019000D01*
X102853442Y-121025518D01*
X102853442Y-121025518D01*
G37*
G36*
X102853442Y-118485518D02*
X102919627Y-118492037D01*
X103032853Y-118526384D01*
X103089467Y-118543557D01*
X103228087Y-118617652D01*
X103245991Y-118627222D01*
X103281729Y-118656552D01*
X103383186Y-118739814D01*
X103466448Y-118841271D01*
X103495778Y-118877009D01*
X103495779Y-118877011D01*
X103579443Y-119033533D01*
X103579443Y-119033534D01*
X103630963Y-119203373D01*
X103648359Y-119380000D01*
X103630963Y-119556627D01*
X103596616Y-119669853D01*
X103579443Y-119726467D01*
X103505348Y-119865087D01*
X103495778Y-119882991D01*
X103466448Y-119918729D01*
X103383186Y-120020186D01*
X103281729Y-120103448D01*
X103245991Y-120132778D01*
X103245989Y-120132779D01*
X103089467Y-120216443D01*
X103032853Y-120233616D01*
X102919627Y-120267963D01*
X102853442Y-120274482D01*
X102787260Y-120281000D01*
X102698740Y-120281000D01*
X102632558Y-120274482D01*
X102566373Y-120267963D01*
X102453147Y-120233616D01*
X102396533Y-120216443D01*
X102240011Y-120132779D01*
X102240009Y-120132778D01*
X102204271Y-120103448D01*
X102102814Y-120020186D01*
X102019552Y-119918729D01*
X101990222Y-119882991D01*
X101980652Y-119865087D01*
X101906557Y-119726467D01*
X101889384Y-119669853D01*
X101855037Y-119556627D01*
X101837641Y-119380000D01*
X101855037Y-119203373D01*
X101906557Y-119033534D01*
X101906557Y-119033533D01*
X101990221Y-118877011D01*
X101990222Y-118877009D01*
X102019552Y-118841271D01*
X102102814Y-118739814D01*
X102204271Y-118656552D01*
X102240009Y-118627222D01*
X102257913Y-118617652D01*
X102396533Y-118543557D01*
X102453147Y-118526384D01*
X102566373Y-118492037D01*
X102632558Y-118485518D01*
X102698740Y-118479000D01*
X102787260Y-118479000D01*
X102853442Y-118485518D01*
X102853442Y-118485518D01*
G37*
G36*
X82533442Y-118485518D02*
X82599627Y-118492037D01*
X82712853Y-118526384D01*
X82769467Y-118543557D01*
X82908087Y-118617652D01*
X82925991Y-118627222D01*
X82961729Y-118656552D01*
X83063186Y-118739814D01*
X83146448Y-118841271D01*
X83175778Y-118877009D01*
X83175779Y-118877011D01*
X83259443Y-119033533D01*
X83259443Y-119033534D01*
X83310963Y-119203373D01*
X83328359Y-119380000D01*
X83310963Y-119556627D01*
X83276616Y-119669853D01*
X83259443Y-119726467D01*
X83185348Y-119865087D01*
X83175778Y-119882991D01*
X83146448Y-119918729D01*
X83063186Y-120020186D01*
X82961729Y-120103448D01*
X82925991Y-120132778D01*
X82925989Y-120132779D01*
X82769467Y-120216443D01*
X82712853Y-120233616D01*
X82599627Y-120267963D01*
X82533442Y-120274482D01*
X82467260Y-120281000D01*
X82378740Y-120281000D01*
X82312558Y-120274482D01*
X82246373Y-120267963D01*
X82133147Y-120233616D01*
X82076533Y-120216443D01*
X81920011Y-120132779D01*
X81920009Y-120132778D01*
X81884271Y-120103448D01*
X81782814Y-120020186D01*
X81699552Y-119918729D01*
X81670222Y-119882991D01*
X81660652Y-119865087D01*
X81586557Y-119726467D01*
X81569384Y-119669853D01*
X81535037Y-119556627D01*
X81517641Y-119380000D01*
X81535037Y-119203373D01*
X81586557Y-119033534D01*
X81586557Y-119033533D01*
X81670221Y-118877011D01*
X81670222Y-118877009D01*
X81699552Y-118841271D01*
X81782814Y-118739814D01*
X81884271Y-118656552D01*
X81920009Y-118627222D01*
X81937913Y-118617652D01*
X82076533Y-118543557D01*
X82133147Y-118526384D01*
X82246373Y-118492037D01*
X82312558Y-118485518D01*
X82378740Y-118479000D01*
X82467260Y-118479000D01*
X82533442Y-118485518D01*
X82533442Y-118485518D01*
G37*
G36*
X102853442Y-115945518D02*
X102919627Y-115952037D01*
X103032853Y-115986384D01*
X103089467Y-116003557D01*
X103176311Y-116049977D01*
X103245991Y-116087222D01*
X103281729Y-116116552D01*
X103383186Y-116199814D01*
X103450376Y-116281687D01*
X103495778Y-116337009D01*
X103495779Y-116337011D01*
X103579443Y-116493533D01*
X103596616Y-116550147D01*
X103630963Y-116663373D01*
X103648359Y-116840000D01*
X103630963Y-117016627D01*
X103609243Y-117088228D01*
X103579443Y-117186467D01*
X103510698Y-117315078D01*
X103495778Y-117342991D01*
X103466448Y-117378729D01*
X103383186Y-117480186D01*
X103281729Y-117563448D01*
X103245991Y-117592778D01*
X103245989Y-117592779D01*
X103089467Y-117676443D01*
X103082069Y-117678687D01*
X102919627Y-117727963D01*
X102853442Y-117734482D01*
X102787260Y-117741000D01*
X102698740Y-117741000D01*
X102632558Y-117734482D01*
X102566373Y-117727963D01*
X102403931Y-117678687D01*
X102396533Y-117676443D01*
X102240011Y-117592779D01*
X102240009Y-117592778D01*
X102204271Y-117563448D01*
X102102814Y-117480186D01*
X102019552Y-117378729D01*
X101990222Y-117342991D01*
X101975302Y-117315078D01*
X101906557Y-117186467D01*
X101876757Y-117088228D01*
X101855037Y-117016627D01*
X101837641Y-116840000D01*
X101855037Y-116663373D01*
X101889384Y-116550147D01*
X101906557Y-116493533D01*
X101990221Y-116337011D01*
X101990222Y-116337009D01*
X102035624Y-116281687D01*
X102102814Y-116199814D01*
X102204271Y-116116552D01*
X102240009Y-116087222D01*
X102309689Y-116049977D01*
X102396533Y-116003557D01*
X102453147Y-115986384D01*
X102566373Y-115952037D01*
X102632558Y-115945518D01*
X102698740Y-115939000D01*
X102787260Y-115939000D01*
X102853442Y-115945518D01*
X102853442Y-115945518D01*
G37*
G36*
X82533442Y-115945518D02*
X82599627Y-115952037D01*
X82712853Y-115986384D01*
X82769467Y-116003557D01*
X82856311Y-116049977D01*
X82925991Y-116087222D01*
X82961729Y-116116552D01*
X83063186Y-116199814D01*
X83130376Y-116281687D01*
X83175778Y-116337009D01*
X83175779Y-116337011D01*
X83259443Y-116493533D01*
X83276616Y-116550147D01*
X83310963Y-116663373D01*
X83328359Y-116840000D01*
X83310963Y-117016627D01*
X83289243Y-117088228D01*
X83259443Y-117186467D01*
X83190698Y-117315078D01*
X83175778Y-117342991D01*
X83146448Y-117378729D01*
X83063186Y-117480186D01*
X82961729Y-117563448D01*
X82925991Y-117592778D01*
X82925989Y-117592779D01*
X82769467Y-117676443D01*
X82762069Y-117678687D01*
X82599627Y-117727963D01*
X82533442Y-117734482D01*
X82467260Y-117741000D01*
X82378740Y-117741000D01*
X82312558Y-117734482D01*
X82246373Y-117727963D01*
X82083931Y-117678687D01*
X82076533Y-117676443D01*
X81920011Y-117592779D01*
X81920009Y-117592778D01*
X81884271Y-117563448D01*
X81782814Y-117480186D01*
X81699552Y-117378729D01*
X81670222Y-117342991D01*
X81655302Y-117315078D01*
X81586557Y-117186467D01*
X81556757Y-117088228D01*
X81535037Y-117016627D01*
X81517641Y-116840000D01*
X81535037Y-116663373D01*
X81569384Y-116550147D01*
X81586557Y-116493533D01*
X81670221Y-116337011D01*
X81670222Y-116337009D01*
X81715624Y-116281687D01*
X81782814Y-116199814D01*
X81884271Y-116116552D01*
X81920009Y-116087222D01*
X81989689Y-116049977D01*
X82076533Y-116003557D01*
X82133147Y-115986384D01*
X82246373Y-115952037D01*
X82312558Y-115945518D01*
X82378740Y-115939000D01*
X82467260Y-115939000D01*
X82533442Y-115945518D01*
X82533442Y-115945518D01*
G37*
G36*
X115927321Y-116001313D02*
X115927324Y-116001314D01*
X115927325Y-116001314D01*
X116087739Y-116049975D01*
X116087741Y-116049976D01*
X116087744Y-116049977D01*
X116235578Y-116128995D01*
X116365159Y-116235341D01*
X116471505Y-116364922D01*
X116550523Y-116512756D01*
X116550524Y-116512759D01*
X116550525Y-116512761D01*
X116596213Y-116663375D01*
X116599187Y-116673179D01*
X116615617Y-116840000D01*
X116599187Y-117006821D01*
X116599186Y-117006824D01*
X116599186Y-117006825D01*
X116574493Y-117088228D01*
X116550523Y-117167244D01*
X116471505Y-117315078D01*
X116365159Y-117444659D01*
X116235578Y-117551005D01*
X116087744Y-117630023D01*
X116087741Y-117630024D01*
X116087739Y-117630025D01*
X115927325Y-117678686D01*
X115927324Y-117678686D01*
X115927321Y-117678687D01*
X115802304Y-117691000D01*
X115718696Y-117691000D01*
X115593679Y-117678687D01*
X115593676Y-117678686D01*
X115593675Y-117678686D01*
X115433261Y-117630025D01*
X115433259Y-117630024D01*
X115433256Y-117630023D01*
X115285422Y-117551005D01*
X115155841Y-117444659D01*
X115049495Y-117315078D01*
X114970477Y-117167244D01*
X114946508Y-117088228D01*
X114921814Y-117006825D01*
X114921814Y-117006824D01*
X114921813Y-117006821D01*
X114905383Y-116840000D01*
X114921813Y-116673179D01*
X114924787Y-116663375D01*
X114970475Y-116512761D01*
X114970476Y-116512759D01*
X114970477Y-116512756D01*
X115049495Y-116364922D01*
X115155841Y-116235341D01*
X115285422Y-116128995D01*
X115433256Y-116049977D01*
X115433259Y-116049976D01*
X115433261Y-116049975D01*
X115593675Y-116001314D01*
X115593676Y-116001314D01*
X115593679Y-116001313D01*
X115718696Y-115989000D01*
X115802304Y-115989000D01*
X115927321Y-116001313D01*
X115927321Y-116001313D01*
G37*
G36*
X119691728Y-116021703D02*
X119846600Y-116085853D01*
X119985981Y-116178985D01*
X120104515Y-116297519D01*
X120197647Y-116436900D01*
X120261797Y-116591772D01*
X120294500Y-116756184D01*
X120294500Y-116923816D01*
X120261797Y-117088228D01*
X120197647Y-117243100D01*
X120104515Y-117382481D01*
X119985981Y-117501015D01*
X119846600Y-117594147D01*
X119691728Y-117658297D01*
X119527316Y-117691000D01*
X119359684Y-117691000D01*
X119195272Y-117658297D01*
X119040400Y-117594147D01*
X118901019Y-117501015D01*
X118782485Y-117382481D01*
X118689353Y-117243100D01*
X118625203Y-117088228D01*
X118592500Y-116923816D01*
X118592500Y-116756184D01*
X118625203Y-116591772D01*
X118689353Y-116436900D01*
X118782485Y-116297519D01*
X118901019Y-116178985D01*
X119040400Y-116085853D01*
X119195272Y-116021703D01*
X119359684Y-115989000D01*
X119527316Y-115989000D01*
X119691728Y-116021703D01*
X119691728Y-116021703D01*
G37*
G36*
X147613821Y-114604313D02*
X147613824Y-114604314D01*
X147613825Y-114604314D01*
X147774239Y-114652975D01*
X147774241Y-114652976D01*
X147774244Y-114652977D01*
X147922078Y-114731995D01*
X148051659Y-114838341D01*
X148158005Y-114967922D01*
X148237023Y-115115756D01*
X148237024Y-115115759D01*
X148237025Y-115115761D01*
X148258927Y-115187963D01*
X148285687Y-115276179D01*
X148302117Y-115443000D01*
X148285687Y-115609821D01*
X148237023Y-115770244D01*
X148158005Y-115918078D01*
X148051659Y-116047659D01*
X147922078Y-116154005D01*
X147774244Y-116233023D01*
X147774241Y-116233024D01*
X147774239Y-116233025D01*
X147613825Y-116281686D01*
X147613824Y-116281686D01*
X147613821Y-116281687D01*
X147488804Y-116294000D01*
X147405196Y-116294000D01*
X147280179Y-116281687D01*
X147280176Y-116281686D01*
X147280175Y-116281686D01*
X147119761Y-116233025D01*
X147119759Y-116233024D01*
X147119756Y-116233023D01*
X146971922Y-116154005D01*
X146842341Y-116047659D01*
X146735995Y-115918078D01*
X146656977Y-115770244D01*
X146608313Y-115609821D01*
X146591883Y-115443000D01*
X146608313Y-115276179D01*
X146635073Y-115187963D01*
X146656975Y-115115761D01*
X146656976Y-115115759D01*
X146656977Y-115115756D01*
X146735995Y-114967922D01*
X146842341Y-114838341D01*
X146971922Y-114731995D01*
X147119756Y-114652977D01*
X147119759Y-114652976D01*
X147119761Y-114652975D01*
X147280175Y-114604314D01*
X147280176Y-114604314D01*
X147280179Y-114604313D01*
X147405196Y-114592000D01*
X147488804Y-114592000D01*
X147613821Y-114604313D01*
X147613821Y-114604313D01*
G37*
G36*
X102853443Y-113405519D02*
X102919627Y-113412037D01*
X103032853Y-113446384D01*
X103089467Y-113463557D01*
X103219363Y-113532989D01*
X103245991Y-113547222D01*
X103281729Y-113576552D01*
X103383186Y-113659814D01*
X103466448Y-113761271D01*
X103495778Y-113797009D01*
X103495779Y-113797011D01*
X103579443Y-113953533D01*
X103579443Y-113953534D01*
X103630963Y-114123373D01*
X103648359Y-114300000D01*
X103630963Y-114476627D01*
X103596616Y-114589853D01*
X103579443Y-114646467D01*
X103533726Y-114731996D01*
X103495778Y-114802991D01*
X103466767Y-114838341D01*
X103383186Y-114940186D01*
X103281729Y-115023448D01*
X103245991Y-115052778D01*
X103245989Y-115052779D01*
X103089467Y-115136443D01*
X103032853Y-115153616D01*
X102919627Y-115187963D01*
X102853442Y-115194482D01*
X102787260Y-115201000D01*
X102698740Y-115201000D01*
X102632558Y-115194482D01*
X102566373Y-115187963D01*
X102453147Y-115153616D01*
X102396533Y-115136443D01*
X102240011Y-115052779D01*
X102240009Y-115052778D01*
X102204271Y-115023448D01*
X102102814Y-114940186D01*
X102019233Y-114838341D01*
X101990222Y-114802991D01*
X101952274Y-114731996D01*
X101906557Y-114646467D01*
X101889384Y-114589853D01*
X101855037Y-114476627D01*
X101837641Y-114300000D01*
X101855037Y-114123373D01*
X101906557Y-113953534D01*
X101906557Y-113953533D01*
X101990221Y-113797011D01*
X101990222Y-113797009D01*
X102019552Y-113761271D01*
X102102814Y-113659814D01*
X102204271Y-113576552D01*
X102240009Y-113547222D01*
X102266637Y-113532989D01*
X102396533Y-113463557D01*
X102453147Y-113446384D01*
X102566373Y-113412037D01*
X102632557Y-113405519D01*
X102698740Y-113399000D01*
X102787260Y-113399000D01*
X102853443Y-113405519D01*
X102853443Y-113405519D01*
G37*
G36*
X82533443Y-113405519D02*
X82599627Y-113412037D01*
X82712853Y-113446384D01*
X82769467Y-113463557D01*
X82899363Y-113532989D01*
X82925991Y-113547222D01*
X82961729Y-113576552D01*
X83063186Y-113659814D01*
X83146448Y-113761271D01*
X83175778Y-113797009D01*
X83175779Y-113797011D01*
X83259443Y-113953533D01*
X83259443Y-113953534D01*
X83310963Y-114123373D01*
X83328359Y-114300000D01*
X83310963Y-114476627D01*
X83276616Y-114589853D01*
X83259443Y-114646467D01*
X83213726Y-114731996D01*
X83175778Y-114802991D01*
X83146767Y-114838341D01*
X83063186Y-114940186D01*
X82961729Y-115023448D01*
X82925991Y-115052778D01*
X82925989Y-115052779D01*
X82769467Y-115136443D01*
X82712853Y-115153616D01*
X82599627Y-115187963D01*
X82533442Y-115194482D01*
X82467260Y-115201000D01*
X82378740Y-115201000D01*
X82312558Y-115194482D01*
X82246373Y-115187963D01*
X82133147Y-115153616D01*
X82076533Y-115136443D01*
X81920011Y-115052779D01*
X81920009Y-115052778D01*
X81884271Y-115023448D01*
X81782814Y-114940186D01*
X81699233Y-114838341D01*
X81670222Y-114802991D01*
X81632274Y-114731996D01*
X81586557Y-114646467D01*
X81569384Y-114589853D01*
X81535037Y-114476627D01*
X81517641Y-114300000D01*
X81535037Y-114123373D01*
X81586557Y-113953534D01*
X81586557Y-113953533D01*
X81670221Y-113797011D01*
X81670222Y-113797009D01*
X81699552Y-113761271D01*
X81782814Y-113659814D01*
X81884271Y-113576552D01*
X81920009Y-113547222D01*
X81946637Y-113532989D01*
X82076533Y-113463557D01*
X82133147Y-113446384D01*
X82246373Y-113412037D01*
X82312557Y-113405519D01*
X82378740Y-113399000D01*
X82467260Y-113399000D01*
X82533443Y-113405519D01*
X82533443Y-113405519D01*
G37*
G36*
X130285443Y-112135519D02*
X130351627Y-112142037D01*
X130464853Y-112176384D01*
X130521467Y-112193557D01*
X130651363Y-112262989D01*
X130677991Y-112277222D01*
X130713729Y-112306552D01*
X130815186Y-112389814D01*
X130898448Y-112491271D01*
X130927778Y-112527009D01*
X130927779Y-112527011D01*
X131011443Y-112683533D01*
X131011443Y-112683534D01*
X131062963Y-112853373D01*
X131080359Y-113030000D01*
X131062963Y-113206627D01*
X131028616Y-113319853D01*
X131011443Y-113376467D01*
X130992430Y-113412037D01*
X130927778Y-113532991D01*
X130898448Y-113568729D01*
X130815186Y-113670186D01*
X130713729Y-113753448D01*
X130677991Y-113782778D01*
X130677989Y-113782779D01*
X130521467Y-113866443D01*
X130464853Y-113883616D01*
X130351627Y-113917963D01*
X130285443Y-113924481D01*
X130219260Y-113931000D01*
X130130740Y-113931000D01*
X130064557Y-113924481D01*
X129998373Y-113917963D01*
X129885147Y-113883616D01*
X129828533Y-113866443D01*
X129672011Y-113782779D01*
X129672009Y-113782778D01*
X129636271Y-113753448D01*
X129534814Y-113670186D01*
X129451552Y-113568729D01*
X129422222Y-113532991D01*
X129357570Y-113412037D01*
X129338557Y-113376467D01*
X129321384Y-113319853D01*
X129287037Y-113206627D01*
X129269641Y-113030000D01*
X129287037Y-112853373D01*
X129338557Y-112683534D01*
X129338557Y-112683533D01*
X129422221Y-112527011D01*
X129422222Y-112527009D01*
X129451552Y-112491271D01*
X129534814Y-112389814D01*
X129636271Y-112306552D01*
X129672009Y-112277222D01*
X129698637Y-112262989D01*
X129828533Y-112193557D01*
X129885147Y-112176384D01*
X129998373Y-112142037D01*
X130064557Y-112135519D01*
X130130740Y-112129000D01*
X130219260Y-112129000D01*
X130285443Y-112135519D01*
X130285443Y-112135519D01*
G37*
G36*
X142234228Y-111322703D02*
X142389100Y-111386853D01*
X142528481Y-111479985D01*
X142647015Y-111598519D01*
X142740147Y-111737900D01*
X142804297Y-111892772D01*
X142837000Y-112057184D01*
X142837000Y-112224816D01*
X142804297Y-112389228D01*
X142740147Y-112544100D01*
X142647015Y-112683481D01*
X142528481Y-112802015D01*
X142389100Y-112895147D01*
X142234228Y-112959297D01*
X142069816Y-112992000D01*
X141902184Y-112992000D01*
X141737772Y-112959297D01*
X141582900Y-112895147D01*
X141443519Y-112802015D01*
X141324985Y-112683481D01*
X141231853Y-112544100D01*
X141167703Y-112389228D01*
X141135000Y-112224816D01*
X141135000Y-112057184D01*
X141167703Y-111892772D01*
X141231853Y-111737900D01*
X141324985Y-111598519D01*
X141443519Y-111479985D01*
X141582900Y-111386853D01*
X141737772Y-111322703D01*
X141902184Y-111290000D01*
X142069816Y-111290000D01*
X142234228Y-111322703D01*
X142234228Y-111322703D01*
G37*
G36*
X102853442Y-110865518D02*
X102919627Y-110872037D01*
X103032853Y-110906384D01*
X103089467Y-110923557D01*
X103219363Y-110992989D01*
X103245991Y-111007222D01*
X103281729Y-111036552D01*
X103383186Y-111119814D01*
X103466448Y-111221271D01*
X103495778Y-111257009D01*
X103495779Y-111257011D01*
X103579443Y-111413533D01*
X103579443Y-111413534D01*
X103630963Y-111583373D01*
X103648359Y-111760000D01*
X103630963Y-111936627D01*
X103596616Y-112049853D01*
X103579443Y-112106467D01*
X103560430Y-112142037D01*
X103495778Y-112262991D01*
X103466448Y-112298729D01*
X103383186Y-112400186D01*
X103281729Y-112483448D01*
X103245991Y-112512778D01*
X103245989Y-112512779D01*
X103089467Y-112596443D01*
X103032853Y-112613616D01*
X102919627Y-112647963D01*
X102853442Y-112654482D01*
X102787260Y-112661000D01*
X102698740Y-112661000D01*
X102632558Y-112654482D01*
X102566373Y-112647963D01*
X102453147Y-112613616D01*
X102396533Y-112596443D01*
X102240011Y-112512779D01*
X102240009Y-112512778D01*
X102204271Y-112483448D01*
X102102814Y-112400186D01*
X102019552Y-112298729D01*
X101990222Y-112262991D01*
X101925570Y-112142037D01*
X101906557Y-112106467D01*
X101889384Y-112049853D01*
X101855037Y-111936627D01*
X101837641Y-111760000D01*
X101855037Y-111583373D01*
X101906557Y-111413534D01*
X101906557Y-111413533D01*
X101990221Y-111257011D01*
X101990222Y-111257009D01*
X102019552Y-111221271D01*
X102102814Y-111119814D01*
X102204271Y-111036552D01*
X102240009Y-111007222D01*
X102266637Y-110992989D01*
X102396533Y-110923557D01*
X102453147Y-110906384D01*
X102566373Y-110872037D01*
X102632558Y-110865518D01*
X102698740Y-110859000D01*
X102787260Y-110859000D01*
X102853442Y-110865518D01*
X102853442Y-110865518D01*
G37*
G36*
X82533442Y-110865518D02*
X82599627Y-110872037D01*
X82712853Y-110906384D01*
X82769467Y-110923557D01*
X82899363Y-110992989D01*
X82925991Y-111007222D01*
X82961729Y-111036552D01*
X83063186Y-111119814D01*
X83146448Y-111221271D01*
X83175778Y-111257009D01*
X83175779Y-111257011D01*
X83259443Y-111413533D01*
X83259443Y-111413534D01*
X83310963Y-111583373D01*
X83328359Y-111760000D01*
X83310963Y-111936627D01*
X83276616Y-112049853D01*
X83259443Y-112106467D01*
X83240430Y-112142037D01*
X83175778Y-112262991D01*
X83146448Y-112298729D01*
X83063186Y-112400186D01*
X82961729Y-112483448D01*
X82925991Y-112512778D01*
X82925989Y-112512779D01*
X82769467Y-112596443D01*
X82712853Y-112613616D01*
X82599627Y-112647963D01*
X82533442Y-112654482D01*
X82467260Y-112661000D01*
X82378740Y-112661000D01*
X82312558Y-112654482D01*
X82246373Y-112647963D01*
X82133147Y-112613616D01*
X82076533Y-112596443D01*
X81920011Y-112512779D01*
X81920009Y-112512778D01*
X81884271Y-112483448D01*
X81782814Y-112400186D01*
X81699552Y-112298729D01*
X81670222Y-112262991D01*
X81605570Y-112142037D01*
X81586557Y-112106467D01*
X81569384Y-112049853D01*
X81535037Y-111936627D01*
X81517641Y-111760000D01*
X81535037Y-111583373D01*
X81586557Y-111413534D01*
X81586557Y-111413533D01*
X81670221Y-111257011D01*
X81670222Y-111257009D01*
X81699552Y-111221271D01*
X81782814Y-111119814D01*
X81884271Y-111036552D01*
X81920009Y-111007222D01*
X81946637Y-110992989D01*
X82076533Y-110923557D01*
X82133147Y-110906384D01*
X82246373Y-110872037D01*
X82312558Y-110865518D01*
X82378740Y-110859000D01*
X82467260Y-110859000D01*
X82533442Y-110865518D01*
X82533442Y-110865518D01*
G37*
G36*
X130285442Y-109595518D02*
X130351627Y-109602037D01*
X130464853Y-109636384D01*
X130521467Y-109653557D01*
X130651363Y-109722989D01*
X130677991Y-109737222D01*
X130713729Y-109766552D01*
X130815186Y-109849814D01*
X130898448Y-109951271D01*
X130927778Y-109987009D01*
X130927779Y-109987011D01*
X131011443Y-110143533D01*
X131011443Y-110143534D01*
X131062963Y-110313373D01*
X131080359Y-110490000D01*
X131062963Y-110666627D01*
X131028616Y-110779853D01*
X131011443Y-110836467D01*
X130992430Y-110872037D01*
X130927778Y-110992991D01*
X130898448Y-111028729D01*
X130815186Y-111130186D01*
X130713729Y-111213448D01*
X130677991Y-111242778D01*
X130677989Y-111242779D01*
X130521467Y-111326443D01*
X130464853Y-111343616D01*
X130351627Y-111377963D01*
X130285443Y-111384481D01*
X130219260Y-111391000D01*
X130130740Y-111391000D01*
X130064557Y-111384481D01*
X129998373Y-111377963D01*
X129885147Y-111343616D01*
X129828533Y-111326443D01*
X129672011Y-111242779D01*
X129672009Y-111242778D01*
X129636271Y-111213448D01*
X129534814Y-111130186D01*
X129451552Y-111028729D01*
X129422222Y-110992991D01*
X129357570Y-110872037D01*
X129338557Y-110836467D01*
X129321384Y-110779853D01*
X129287037Y-110666627D01*
X129269641Y-110490000D01*
X129287037Y-110313373D01*
X129338557Y-110143534D01*
X129338557Y-110143533D01*
X129422221Y-109987011D01*
X129422222Y-109987009D01*
X129451552Y-109951271D01*
X129534814Y-109849814D01*
X129636271Y-109766552D01*
X129672009Y-109737222D01*
X129698637Y-109722989D01*
X129828533Y-109653557D01*
X129885147Y-109636384D01*
X129998373Y-109602037D01*
X130064558Y-109595518D01*
X130130740Y-109589000D01*
X130219260Y-109589000D01*
X130285442Y-109595518D01*
X130285442Y-109595518D01*
G37*
G36*
X102853443Y-108325519D02*
X102919627Y-108332037D01*
X103032853Y-108366384D01*
X103089467Y-108383557D01*
X103211485Y-108448778D01*
X103245991Y-108467222D01*
X103281729Y-108496552D01*
X103383186Y-108579814D01*
X103466448Y-108681271D01*
X103495778Y-108717009D01*
X103495779Y-108717011D01*
X103579443Y-108873533D01*
X103579443Y-108873534D01*
X103630963Y-109043373D01*
X103648359Y-109220000D01*
X103630963Y-109396627D01*
X103596616Y-109509853D01*
X103579443Y-109566467D01*
X103560430Y-109602037D01*
X103495778Y-109722991D01*
X103466448Y-109758729D01*
X103383186Y-109860186D01*
X103281729Y-109943448D01*
X103245991Y-109972778D01*
X103245989Y-109972779D01*
X103089467Y-110056443D01*
X103032853Y-110073616D01*
X102919627Y-110107963D01*
X102853443Y-110114481D01*
X102787260Y-110121000D01*
X102698740Y-110121000D01*
X102632557Y-110114481D01*
X102566373Y-110107963D01*
X102453147Y-110073616D01*
X102396533Y-110056443D01*
X102240011Y-109972779D01*
X102240009Y-109972778D01*
X102204271Y-109943448D01*
X102102814Y-109860186D01*
X102019552Y-109758729D01*
X101990222Y-109722991D01*
X101925570Y-109602037D01*
X101906557Y-109566467D01*
X101889384Y-109509853D01*
X101855037Y-109396627D01*
X101837641Y-109220000D01*
X101855037Y-109043373D01*
X101906557Y-108873534D01*
X101906557Y-108873533D01*
X101990221Y-108717011D01*
X101990222Y-108717009D01*
X102019552Y-108681271D01*
X102102814Y-108579814D01*
X102204271Y-108496552D01*
X102240009Y-108467222D01*
X102274515Y-108448778D01*
X102396533Y-108383557D01*
X102453147Y-108366384D01*
X102566373Y-108332037D01*
X102632557Y-108325519D01*
X102698740Y-108319000D01*
X102787260Y-108319000D01*
X102853443Y-108325519D01*
X102853443Y-108325519D01*
G37*
G36*
X82533443Y-108325519D02*
X82599627Y-108332037D01*
X82712853Y-108366384D01*
X82769467Y-108383557D01*
X82891485Y-108448778D01*
X82925991Y-108467222D01*
X82961729Y-108496552D01*
X83063186Y-108579814D01*
X83146448Y-108681271D01*
X83175778Y-108717009D01*
X83175779Y-108717011D01*
X83259443Y-108873533D01*
X83259443Y-108873534D01*
X83310963Y-109043373D01*
X83328359Y-109220000D01*
X83310963Y-109396627D01*
X83276616Y-109509853D01*
X83259443Y-109566467D01*
X83240430Y-109602037D01*
X83175778Y-109722991D01*
X83146448Y-109758729D01*
X83063186Y-109860186D01*
X82961729Y-109943448D01*
X82925991Y-109972778D01*
X82925989Y-109972779D01*
X82769467Y-110056443D01*
X82712853Y-110073616D01*
X82599627Y-110107963D01*
X82533443Y-110114481D01*
X82467260Y-110121000D01*
X82378740Y-110121000D01*
X82312557Y-110114481D01*
X82246373Y-110107963D01*
X82133147Y-110073616D01*
X82076533Y-110056443D01*
X81920011Y-109972779D01*
X81920009Y-109972778D01*
X81884271Y-109943448D01*
X81782814Y-109860186D01*
X81699552Y-109758729D01*
X81670222Y-109722991D01*
X81605570Y-109602037D01*
X81586557Y-109566467D01*
X81569384Y-109509853D01*
X81535037Y-109396627D01*
X81517641Y-109220000D01*
X81535037Y-109043373D01*
X81586557Y-108873534D01*
X81586557Y-108873533D01*
X81670221Y-108717011D01*
X81670222Y-108717009D01*
X81699552Y-108681271D01*
X81782814Y-108579814D01*
X81884271Y-108496552D01*
X81920009Y-108467222D01*
X81954515Y-108448778D01*
X82076533Y-108383557D01*
X82133147Y-108366384D01*
X82246373Y-108332037D01*
X82312557Y-108325519D01*
X82378740Y-108319000D01*
X82467260Y-108319000D01*
X82533443Y-108325519D01*
X82533443Y-108325519D01*
G37*
G36*
X130285442Y-107055518D02*
X130351627Y-107062037D01*
X130464853Y-107096384D01*
X130521467Y-107113557D01*
X130599146Y-107155078D01*
X130677991Y-107197222D01*
X130708769Y-107222481D01*
X130815186Y-107309814D01*
X130898448Y-107411271D01*
X130927778Y-107447009D01*
X130927779Y-107447011D01*
X131011443Y-107603533D01*
X131011443Y-107603534D01*
X131062963Y-107773373D01*
X131080359Y-107950000D01*
X131062963Y-108126627D01*
X131028616Y-108239853D01*
X131011443Y-108296467D01*
X130992430Y-108332037D01*
X130927778Y-108452991D01*
X130898448Y-108488729D01*
X130815186Y-108590186D01*
X130713729Y-108673448D01*
X130677991Y-108702778D01*
X130677989Y-108702779D01*
X130521467Y-108786443D01*
X130464853Y-108803616D01*
X130351627Y-108837963D01*
X130285442Y-108844482D01*
X130219260Y-108851000D01*
X130130740Y-108851000D01*
X130064558Y-108844482D01*
X129998373Y-108837963D01*
X129885147Y-108803616D01*
X129828533Y-108786443D01*
X129672011Y-108702779D01*
X129672009Y-108702778D01*
X129636271Y-108673448D01*
X129534814Y-108590186D01*
X129451552Y-108488729D01*
X129422222Y-108452991D01*
X129357570Y-108332037D01*
X129338557Y-108296467D01*
X129321384Y-108239853D01*
X129287037Y-108126627D01*
X129269641Y-107950000D01*
X129287037Y-107773373D01*
X129338557Y-107603534D01*
X129338557Y-107603533D01*
X129422221Y-107447011D01*
X129422222Y-107447009D01*
X129451552Y-107411271D01*
X129534814Y-107309814D01*
X129641231Y-107222481D01*
X129672009Y-107197222D01*
X129750854Y-107155078D01*
X129828533Y-107113557D01*
X129885147Y-107096384D01*
X129998373Y-107062037D01*
X130064558Y-107055518D01*
X130130740Y-107049000D01*
X130219260Y-107049000D01*
X130285442Y-107055518D01*
X130285442Y-107055518D01*
G37*
G36*
X124570443Y-106801519D02*
X124636627Y-106808037D01*
X124749853Y-106842384D01*
X124806467Y-106859557D01*
X124934939Y-106928228D01*
X124962991Y-106943222D01*
X124998729Y-106972552D01*
X125100186Y-107055814D01*
X125181649Y-107155078D01*
X125212778Y-107193009D01*
X125212779Y-107193011D01*
X125296443Y-107349533D01*
X125296443Y-107349534D01*
X125347963Y-107519373D01*
X125365359Y-107696000D01*
X125347963Y-107872627D01*
X125324492Y-107950000D01*
X125296443Y-108042467D01*
X125251459Y-108126625D01*
X125212778Y-108198991D01*
X125183448Y-108234729D01*
X125100186Y-108336186D01*
X124998729Y-108419448D01*
X124962991Y-108448778D01*
X124962989Y-108448779D01*
X124806467Y-108532443D01*
X124749853Y-108549616D01*
X124636627Y-108583963D01*
X124573453Y-108590185D01*
X124504260Y-108597000D01*
X124415740Y-108597000D01*
X124346547Y-108590185D01*
X124283373Y-108583963D01*
X124170147Y-108549616D01*
X124113533Y-108532443D01*
X123957011Y-108448779D01*
X123957009Y-108448778D01*
X123921271Y-108419448D01*
X123819814Y-108336186D01*
X123736552Y-108234729D01*
X123707222Y-108198991D01*
X123668541Y-108126625D01*
X123623557Y-108042467D01*
X123595508Y-107950000D01*
X123572037Y-107872627D01*
X123554641Y-107696000D01*
X123572037Y-107519373D01*
X123623557Y-107349534D01*
X123623557Y-107349533D01*
X123707221Y-107193011D01*
X123707222Y-107193009D01*
X123738351Y-107155078D01*
X123819814Y-107055814D01*
X123921271Y-106972552D01*
X123957009Y-106943222D01*
X123985061Y-106928228D01*
X124113533Y-106859557D01*
X124170147Y-106842384D01*
X124283373Y-106808037D01*
X124349557Y-106801519D01*
X124415740Y-106795000D01*
X124504260Y-106795000D01*
X124570443Y-106801519D01*
X124570443Y-106801519D01*
G37*
G36*
X82533443Y-105785519D02*
X82599627Y-105792037D01*
X82709877Y-105825481D01*
X82769467Y-105843557D01*
X82856311Y-105889977D01*
X82925991Y-105927222D01*
X82946452Y-105944014D01*
X83063186Y-106039814D01*
X83140481Y-106134000D01*
X83175778Y-106177009D01*
X83175779Y-106177011D01*
X83259443Y-106333533D01*
X83276616Y-106390147D01*
X83310963Y-106503373D01*
X83328359Y-106680000D01*
X83310963Y-106856627D01*
X83310074Y-106859557D01*
X83259443Y-107026467D01*
X83212892Y-107113557D01*
X83175778Y-107182991D01*
X83146448Y-107218729D01*
X83063186Y-107320186D01*
X82961729Y-107403448D01*
X82925991Y-107432778D01*
X82925989Y-107432779D01*
X82769467Y-107516443D01*
X82721478Y-107531000D01*
X82599627Y-107567963D01*
X82533443Y-107574481D01*
X82467260Y-107581000D01*
X82378740Y-107581000D01*
X82312557Y-107574481D01*
X82246373Y-107567963D01*
X82124522Y-107531000D01*
X82076533Y-107516443D01*
X81920011Y-107432779D01*
X81920009Y-107432778D01*
X81884271Y-107403448D01*
X81782814Y-107320186D01*
X81699552Y-107218729D01*
X81670222Y-107182991D01*
X81633108Y-107113557D01*
X81586557Y-107026467D01*
X81535926Y-106859557D01*
X81535037Y-106856627D01*
X81517641Y-106680000D01*
X81535037Y-106503373D01*
X81569384Y-106390147D01*
X81586557Y-106333533D01*
X81670221Y-106177011D01*
X81670222Y-106177009D01*
X81705519Y-106134000D01*
X81782814Y-106039814D01*
X81899548Y-105944014D01*
X81920009Y-105927222D01*
X81989689Y-105889977D01*
X82076533Y-105843557D01*
X82136123Y-105825481D01*
X82246373Y-105792037D01*
X82312557Y-105785519D01*
X82378740Y-105779000D01*
X82467260Y-105779000D01*
X82533443Y-105785519D01*
X82533443Y-105785519D01*
G37*
G36*
X102853443Y-105785519D02*
X102919627Y-105792037D01*
X103029877Y-105825481D01*
X103089467Y-105843557D01*
X103176311Y-105889977D01*
X103245991Y-105927222D01*
X103266452Y-105944014D01*
X103383186Y-106039814D01*
X103460481Y-106134000D01*
X103495778Y-106177009D01*
X103495779Y-106177011D01*
X103579443Y-106333533D01*
X103596616Y-106390147D01*
X103630963Y-106503373D01*
X103648359Y-106680000D01*
X103630963Y-106856627D01*
X103630074Y-106859557D01*
X103579443Y-107026467D01*
X103532892Y-107113557D01*
X103495778Y-107182991D01*
X103466448Y-107218729D01*
X103383186Y-107320186D01*
X103281729Y-107403448D01*
X103245991Y-107432778D01*
X103245989Y-107432779D01*
X103089467Y-107516443D01*
X103041478Y-107531000D01*
X102919627Y-107567963D01*
X102853443Y-107574481D01*
X102787260Y-107581000D01*
X102698740Y-107581000D01*
X102632557Y-107574481D01*
X102566373Y-107567963D01*
X102444522Y-107531000D01*
X102396533Y-107516443D01*
X102240011Y-107432779D01*
X102240009Y-107432778D01*
X102204271Y-107403448D01*
X102102814Y-107320186D01*
X102019552Y-107218729D01*
X101990222Y-107182991D01*
X101953108Y-107113557D01*
X101906557Y-107026467D01*
X101855926Y-106859557D01*
X101855037Y-106856627D01*
X101837641Y-106680000D01*
X101855037Y-106503373D01*
X101889384Y-106390147D01*
X101906557Y-106333533D01*
X101990221Y-106177011D01*
X101990222Y-106177009D01*
X102025519Y-106134000D01*
X102102814Y-106039814D01*
X102219548Y-105944014D01*
X102240009Y-105927222D01*
X102309689Y-105889977D01*
X102396533Y-105843557D01*
X102456123Y-105825481D01*
X102566373Y-105792037D01*
X102632557Y-105785519D01*
X102698740Y-105779000D01*
X102787260Y-105779000D01*
X102853443Y-105785519D01*
X102853443Y-105785519D01*
G37*
G36*
X119610321Y-105841313D02*
X119610324Y-105841314D01*
X119610325Y-105841314D01*
X119770739Y-105889975D01*
X119770741Y-105889976D01*
X119770744Y-105889977D01*
X119918578Y-105968995D01*
X120048159Y-106075341D01*
X120154505Y-106204922D01*
X120233523Y-106352756D01*
X120233524Y-106352759D01*
X120233525Y-106352761D01*
X120279213Y-106503375D01*
X120282187Y-106513179D01*
X120298617Y-106680000D01*
X120282187Y-106846821D01*
X120282186Y-106846824D01*
X120282186Y-106846825D01*
X120252945Y-106943221D01*
X120233523Y-107007244D01*
X120154505Y-107155078D01*
X120048159Y-107284659D01*
X119918578Y-107391005D01*
X119770744Y-107470023D01*
X119770741Y-107470024D01*
X119770739Y-107470025D01*
X119610325Y-107518686D01*
X119610324Y-107518686D01*
X119610321Y-107518687D01*
X119485304Y-107531000D01*
X119401696Y-107531000D01*
X119276679Y-107518687D01*
X119276676Y-107518686D01*
X119276675Y-107518686D01*
X119116261Y-107470025D01*
X119116259Y-107470024D01*
X119116256Y-107470023D01*
X118968422Y-107391005D01*
X118838841Y-107284659D01*
X118732495Y-107155078D01*
X118653477Y-107007244D01*
X118634056Y-106943221D01*
X118604814Y-106846825D01*
X118604814Y-106846824D01*
X118604813Y-106846821D01*
X118588383Y-106680000D01*
X118604813Y-106513179D01*
X118607787Y-106503375D01*
X118653475Y-106352761D01*
X118653476Y-106352759D01*
X118653477Y-106352756D01*
X118732495Y-106204922D01*
X118838841Y-106075341D01*
X118968422Y-105968995D01*
X119116256Y-105889977D01*
X119116259Y-105889976D01*
X119116261Y-105889975D01*
X119276675Y-105841314D01*
X119276676Y-105841314D01*
X119276679Y-105841313D01*
X119401696Y-105829000D01*
X119485304Y-105829000D01*
X119610321Y-105841313D01*
X119610321Y-105841313D01*
G37*
G36*
X116008728Y-105861703D02*
X116163600Y-105925853D01*
X116302981Y-106018985D01*
X116421515Y-106137519D01*
X116514647Y-106276900D01*
X116578797Y-106431772D01*
X116611500Y-106596184D01*
X116611500Y-106763816D01*
X116578797Y-106928228D01*
X116514647Y-107083100D01*
X116421515Y-107222481D01*
X116302981Y-107341015D01*
X116163600Y-107434147D01*
X116008728Y-107498297D01*
X115844316Y-107531000D01*
X115676684Y-107531000D01*
X115512272Y-107498297D01*
X115357400Y-107434147D01*
X115218019Y-107341015D01*
X115099485Y-107222481D01*
X115006353Y-107083100D01*
X114942203Y-106928228D01*
X114909500Y-106763816D01*
X114909500Y-106596184D01*
X114942203Y-106431772D01*
X115006353Y-106276900D01*
X115099485Y-106137519D01*
X115218019Y-106018985D01*
X115357400Y-105925853D01*
X115512272Y-105861703D01*
X115676684Y-105829000D01*
X115844316Y-105829000D01*
X116008728Y-105861703D01*
X116008728Y-105861703D01*
G37*
G36*
X130285443Y-104515519D02*
X130351627Y-104522037D01*
X130464853Y-104556384D01*
X130521467Y-104573557D01*
X130612068Y-104621985D01*
X130677991Y-104657222D01*
X130713729Y-104686552D01*
X130815186Y-104769814D01*
X130898448Y-104871271D01*
X130927778Y-104907009D01*
X130927779Y-104907011D01*
X131011443Y-105063533D01*
X131011443Y-105063534D01*
X131062963Y-105233373D01*
X131080359Y-105410000D01*
X131062963Y-105586627D01*
X131032788Y-105686100D01*
X131011443Y-105756467D01*
X130964892Y-105843557D01*
X130927778Y-105912991D01*
X130902318Y-105944014D01*
X130815186Y-106050186D01*
X130713729Y-106133448D01*
X130677991Y-106162778D01*
X130677989Y-106162779D01*
X130521467Y-106246443D01*
X130464853Y-106263616D01*
X130351627Y-106297963D01*
X130285442Y-106304482D01*
X130219260Y-106311000D01*
X130130740Y-106311000D01*
X130064558Y-106304482D01*
X129998373Y-106297963D01*
X129885147Y-106263616D01*
X129828533Y-106246443D01*
X129672011Y-106162779D01*
X129672009Y-106162778D01*
X129636271Y-106133448D01*
X129534814Y-106050186D01*
X129447682Y-105944014D01*
X129422222Y-105912991D01*
X129385108Y-105843557D01*
X129338557Y-105756467D01*
X129317212Y-105686100D01*
X129287037Y-105586627D01*
X129269641Y-105410000D01*
X129287037Y-105233373D01*
X129338557Y-105063534D01*
X129338557Y-105063533D01*
X129422221Y-104907011D01*
X129422222Y-104907009D01*
X129451552Y-104871271D01*
X129534814Y-104769814D01*
X129636271Y-104686552D01*
X129672009Y-104657222D01*
X129737932Y-104621985D01*
X129828533Y-104573557D01*
X129885147Y-104556384D01*
X129998373Y-104522037D01*
X130064557Y-104515519D01*
X130130740Y-104509000D01*
X130219260Y-104509000D01*
X130285443Y-104515519D01*
X130285443Y-104515519D01*
G37*
G36*
X147695228Y-104464703D02*
X147850100Y-104528853D01*
X147989481Y-104621985D01*
X148108015Y-104740519D01*
X148201147Y-104879900D01*
X148265297Y-105034772D01*
X148298000Y-105199184D01*
X148298000Y-105366816D01*
X148265297Y-105531228D01*
X148201147Y-105686100D01*
X148108015Y-105825481D01*
X147989481Y-105944015D01*
X147850100Y-106037147D01*
X147695228Y-106101297D01*
X147530816Y-106134000D01*
X147363184Y-106134000D01*
X147198772Y-106101297D01*
X147043900Y-106037147D01*
X146904519Y-105944015D01*
X146785985Y-105825481D01*
X146692853Y-105686100D01*
X146628703Y-105531228D01*
X146596000Y-105366816D01*
X146596000Y-105199184D01*
X146628703Y-105034772D01*
X146692853Y-104879900D01*
X146785985Y-104740519D01*
X146904519Y-104621985D01*
X147043900Y-104528853D01*
X147198772Y-104464703D01*
X147363184Y-104432000D01*
X147530816Y-104432000D01*
X147695228Y-104464703D01*
X147695228Y-104464703D01*
G37*
G36*
X125361000Y-106057000D02*
X123559000Y-106057000D01*
X123559000Y-104255000D01*
X125361000Y-104255000D01*
X125361000Y-106057000D01*
X125361000Y-106057000D01*
G37*
G36*
X102853443Y-103245519D02*
X102919627Y-103252037D01*
X103032853Y-103286384D01*
X103089467Y-103303557D01*
X103228087Y-103377652D01*
X103245991Y-103387222D01*
X103281729Y-103416552D01*
X103383186Y-103499814D01*
X103466448Y-103601271D01*
X103495778Y-103637009D01*
X103495779Y-103637011D01*
X103579443Y-103793533D01*
X103579443Y-103793534D01*
X103630963Y-103963373D01*
X103648359Y-104140000D01*
X103630963Y-104316627D01*
X103596616Y-104429853D01*
X103579443Y-104486467D01*
X103505348Y-104625087D01*
X103495778Y-104642991D01*
X103466448Y-104678729D01*
X103383186Y-104780186D01*
X103281729Y-104863448D01*
X103245991Y-104892778D01*
X103245989Y-104892779D01*
X103089467Y-104976443D01*
X103032853Y-104993616D01*
X102919627Y-105027963D01*
X102853442Y-105034482D01*
X102787260Y-105041000D01*
X102698740Y-105041000D01*
X102632557Y-105034481D01*
X102566373Y-105027963D01*
X102453147Y-104993616D01*
X102396533Y-104976443D01*
X102240011Y-104892779D01*
X102240009Y-104892778D01*
X102204271Y-104863448D01*
X102102814Y-104780186D01*
X102019552Y-104678729D01*
X101990222Y-104642991D01*
X101980652Y-104625087D01*
X101906557Y-104486467D01*
X101889384Y-104429853D01*
X101855037Y-104316627D01*
X101837641Y-104140000D01*
X101855037Y-103963373D01*
X101906557Y-103793534D01*
X101906557Y-103793533D01*
X101990221Y-103637011D01*
X101990222Y-103637009D01*
X102019552Y-103601271D01*
X102102814Y-103499814D01*
X102204271Y-103416552D01*
X102240009Y-103387222D01*
X102257913Y-103377652D01*
X102396533Y-103303557D01*
X102453147Y-103286384D01*
X102566373Y-103252037D01*
X102632558Y-103245518D01*
X102698740Y-103239000D01*
X102787260Y-103239000D01*
X102853443Y-103245519D01*
X102853443Y-103245519D01*
G37*
G36*
X82533443Y-103245519D02*
X82599627Y-103252037D01*
X82712853Y-103286384D01*
X82769467Y-103303557D01*
X82908087Y-103377652D01*
X82925991Y-103387222D01*
X82961729Y-103416552D01*
X83063186Y-103499814D01*
X83146448Y-103601271D01*
X83175778Y-103637009D01*
X83175779Y-103637011D01*
X83259443Y-103793533D01*
X83259443Y-103793534D01*
X83310963Y-103963373D01*
X83328359Y-104140000D01*
X83310963Y-104316627D01*
X83276616Y-104429853D01*
X83259443Y-104486467D01*
X83185348Y-104625087D01*
X83175778Y-104642991D01*
X83146448Y-104678729D01*
X83063186Y-104780186D01*
X82961729Y-104863448D01*
X82925991Y-104892778D01*
X82925989Y-104892779D01*
X82769467Y-104976443D01*
X82712853Y-104993616D01*
X82599627Y-105027963D01*
X82533442Y-105034482D01*
X82467260Y-105041000D01*
X82378740Y-105041000D01*
X82312557Y-105034481D01*
X82246373Y-105027963D01*
X82133147Y-104993616D01*
X82076533Y-104976443D01*
X81920011Y-104892779D01*
X81920009Y-104892778D01*
X81884271Y-104863448D01*
X81782814Y-104780186D01*
X81699552Y-104678729D01*
X81670222Y-104642991D01*
X81660652Y-104625087D01*
X81586557Y-104486467D01*
X81569384Y-104429853D01*
X81535037Y-104316627D01*
X81517641Y-104140000D01*
X81535037Y-103963373D01*
X81586557Y-103793534D01*
X81586557Y-103793533D01*
X81670221Y-103637011D01*
X81670222Y-103637009D01*
X81699552Y-103601271D01*
X81782814Y-103499814D01*
X81884271Y-103416552D01*
X81920009Y-103387222D01*
X81937913Y-103377652D01*
X82076533Y-103303557D01*
X82133147Y-103286384D01*
X82246373Y-103252037D01*
X82312558Y-103245518D01*
X82378740Y-103239000D01*
X82467260Y-103239000D01*
X82533443Y-103245519D01*
X82533443Y-103245519D01*
G37*
G36*
X131076000Y-103771000D02*
X129274000Y-103771000D01*
X129274000Y-101969000D01*
X131076000Y-101969000D01*
X131076000Y-103771000D01*
X131076000Y-103771000D01*
G37*
G36*
X142152821Y-101142313D02*
X142152824Y-101142314D01*
X142152825Y-101142314D01*
X142313239Y-101190975D01*
X142313241Y-101190976D01*
X142313244Y-101190977D01*
X142461078Y-101269995D01*
X142590659Y-101376341D01*
X142697005Y-101505922D01*
X142776023Y-101653756D01*
X142824687Y-101814179D01*
X142841117Y-101981000D01*
X142824687Y-102147821D01*
X142824686Y-102147824D01*
X142824686Y-102147825D01*
X142796669Y-102240186D01*
X142776023Y-102308244D01*
X142697005Y-102456078D01*
X142590659Y-102585659D01*
X142461078Y-102692005D01*
X142313244Y-102771023D01*
X142313241Y-102771024D01*
X142313239Y-102771025D01*
X142152825Y-102819686D01*
X142152824Y-102819686D01*
X142152821Y-102819687D01*
X142027804Y-102832000D01*
X141944196Y-102832000D01*
X141819179Y-102819687D01*
X141819176Y-102819686D01*
X141819175Y-102819686D01*
X141658761Y-102771025D01*
X141658759Y-102771024D01*
X141658756Y-102771023D01*
X141510922Y-102692005D01*
X141381341Y-102585659D01*
X141274995Y-102456078D01*
X141195977Y-102308244D01*
X141175332Y-102240186D01*
X141147314Y-102147825D01*
X141147314Y-102147824D01*
X141147313Y-102147821D01*
X141130883Y-101981000D01*
X141147313Y-101814179D01*
X141195977Y-101653756D01*
X141274995Y-101505922D01*
X141381341Y-101376341D01*
X141510922Y-101269995D01*
X141658756Y-101190977D01*
X141658759Y-101190976D01*
X141658761Y-101190975D01*
X141819175Y-101142314D01*
X141819176Y-101142314D01*
X141819179Y-101142313D01*
X141944196Y-101130000D01*
X142027804Y-101130000D01*
X142152821Y-101142313D01*
X142152821Y-101142313D01*
G37*
G36*
X82533443Y-100705519D02*
X82599627Y-100712037D01*
X82712853Y-100746384D01*
X82769467Y-100763557D01*
X82908087Y-100837652D01*
X82925991Y-100847222D01*
X82961729Y-100876552D01*
X83063186Y-100959814D01*
X83146448Y-101061271D01*
X83175778Y-101097009D01*
X83175779Y-101097011D01*
X83259443Y-101253533D01*
X83264437Y-101269996D01*
X83310963Y-101423373D01*
X83328359Y-101600000D01*
X83310963Y-101776627D01*
X83276616Y-101889853D01*
X83259443Y-101946467D01*
X83240984Y-101981000D01*
X83175778Y-102102991D01*
X83146448Y-102138729D01*
X83063186Y-102240186D01*
X82961729Y-102323448D01*
X82925991Y-102352778D01*
X82925989Y-102352779D01*
X82769467Y-102436443D01*
X82712853Y-102453616D01*
X82599627Y-102487963D01*
X82533442Y-102494482D01*
X82467260Y-102501000D01*
X82378740Y-102501000D01*
X82312558Y-102494482D01*
X82246373Y-102487963D01*
X82133147Y-102453616D01*
X82076533Y-102436443D01*
X81920011Y-102352779D01*
X81920009Y-102352778D01*
X81884271Y-102323448D01*
X81782814Y-102240186D01*
X81699552Y-102138729D01*
X81670222Y-102102991D01*
X81605016Y-101981000D01*
X81586557Y-101946467D01*
X81569384Y-101889853D01*
X81535037Y-101776627D01*
X81517641Y-101600000D01*
X81535037Y-101423373D01*
X81581563Y-101269996D01*
X81586557Y-101253533D01*
X81670221Y-101097011D01*
X81670222Y-101097009D01*
X81699552Y-101061271D01*
X81782814Y-100959814D01*
X81884271Y-100876552D01*
X81920009Y-100847222D01*
X81937913Y-100837652D01*
X82076533Y-100763557D01*
X82133147Y-100746384D01*
X82246373Y-100712037D01*
X82312557Y-100705519D01*
X82378740Y-100699000D01*
X82467260Y-100699000D01*
X82533443Y-100705519D01*
X82533443Y-100705519D01*
G37*
G36*
X102853443Y-100705519D02*
X102919627Y-100712037D01*
X103032853Y-100746384D01*
X103089467Y-100763557D01*
X103228087Y-100837652D01*
X103245991Y-100847222D01*
X103281729Y-100876552D01*
X103383186Y-100959814D01*
X103466448Y-101061271D01*
X103495778Y-101097009D01*
X103495779Y-101097011D01*
X103579443Y-101253533D01*
X103584437Y-101269996D01*
X103630963Y-101423373D01*
X103648359Y-101600000D01*
X103630963Y-101776627D01*
X103596616Y-101889853D01*
X103579443Y-101946467D01*
X103560984Y-101981000D01*
X103495778Y-102102991D01*
X103466448Y-102138729D01*
X103383186Y-102240186D01*
X103281729Y-102323448D01*
X103245991Y-102352778D01*
X103245989Y-102352779D01*
X103089467Y-102436443D01*
X103032853Y-102453616D01*
X102919627Y-102487963D01*
X102853442Y-102494482D01*
X102787260Y-102501000D01*
X102698740Y-102501000D01*
X102632558Y-102494482D01*
X102566373Y-102487963D01*
X102453147Y-102453616D01*
X102396533Y-102436443D01*
X102240011Y-102352779D01*
X102240009Y-102352778D01*
X102204271Y-102323448D01*
X102102814Y-102240186D01*
X102019552Y-102138729D01*
X101990222Y-102102991D01*
X101925016Y-101981000D01*
X101906557Y-101946467D01*
X101889384Y-101889853D01*
X101855037Y-101776627D01*
X101837641Y-101600000D01*
X101855037Y-101423373D01*
X101901563Y-101269996D01*
X101906557Y-101253533D01*
X101990221Y-101097011D01*
X101990222Y-101097009D01*
X102019552Y-101061271D01*
X102102814Y-100959814D01*
X102204271Y-100876552D01*
X102240009Y-100847222D01*
X102257913Y-100837652D01*
X102396533Y-100763557D01*
X102453147Y-100746384D01*
X102566373Y-100712037D01*
X102632557Y-100705519D01*
X102698740Y-100699000D01*
X102787260Y-100699000D01*
X102853443Y-100705519D01*
X102853443Y-100705519D01*
G37*
G36*
X82533443Y-98165519D02*
X82599627Y-98172037D01*
X82712853Y-98206384D01*
X82769467Y-98223557D01*
X82908087Y-98297652D01*
X82925991Y-98307222D01*
X82961729Y-98336552D01*
X83063186Y-98419814D01*
X83146448Y-98521271D01*
X83175778Y-98557009D01*
X83175779Y-98557011D01*
X83259443Y-98713533D01*
X83259443Y-98713534D01*
X83310963Y-98883373D01*
X83328359Y-99060000D01*
X83310963Y-99236627D01*
X83276616Y-99349853D01*
X83259443Y-99406467D01*
X83185348Y-99545087D01*
X83175778Y-99562991D01*
X83146448Y-99598729D01*
X83063186Y-99700186D01*
X82961729Y-99783448D01*
X82925991Y-99812778D01*
X82925989Y-99812779D01*
X82769467Y-99896443D01*
X82712853Y-99913616D01*
X82599627Y-99947963D01*
X82533443Y-99954481D01*
X82467260Y-99961000D01*
X82378740Y-99961000D01*
X82312557Y-99954481D01*
X82246373Y-99947963D01*
X82133147Y-99913616D01*
X82076533Y-99896443D01*
X81920011Y-99812779D01*
X81920009Y-99812778D01*
X81884271Y-99783448D01*
X81782814Y-99700186D01*
X81699552Y-99598729D01*
X81670222Y-99562991D01*
X81660652Y-99545087D01*
X81586557Y-99406467D01*
X81569384Y-99349853D01*
X81535037Y-99236627D01*
X81517641Y-99060000D01*
X81535037Y-98883373D01*
X81586557Y-98713534D01*
X81586557Y-98713533D01*
X81670221Y-98557011D01*
X81670222Y-98557009D01*
X81699552Y-98521271D01*
X81782814Y-98419814D01*
X81884271Y-98336552D01*
X81920009Y-98307222D01*
X81937913Y-98297652D01*
X82076533Y-98223557D01*
X82133147Y-98206384D01*
X82246373Y-98172037D01*
X82312557Y-98165519D01*
X82378740Y-98159000D01*
X82467260Y-98159000D01*
X82533443Y-98165519D01*
X82533443Y-98165519D01*
G37*
G36*
X102853443Y-98165519D02*
X102919627Y-98172037D01*
X103032853Y-98206384D01*
X103089467Y-98223557D01*
X103228087Y-98297652D01*
X103245991Y-98307222D01*
X103281729Y-98336552D01*
X103383186Y-98419814D01*
X103466448Y-98521271D01*
X103495778Y-98557009D01*
X103495779Y-98557011D01*
X103579443Y-98713533D01*
X103579443Y-98713534D01*
X103630963Y-98883373D01*
X103648359Y-99060000D01*
X103630963Y-99236627D01*
X103596616Y-99349853D01*
X103579443Y-99406467D01*
X103505348Y-99545087D01*
X103495778Y-99562991D01*
X103466448Y-99598729D01*
X103383186Y-99700186D01*
X103281729Y-99783448D01*
X103245991Y-99812778D01*
X103245989Y-99812779D01*
X103089467Y-99896443D01*
X103032853Y-99913616D01*
X102919627Y-99947963D01*
X102853443Y-99954481D01*
X102787260Y-99961000D01*
X102698740Y-99961000D01*
X102632557Y-99954481D01*
X102566373Y-99947963D01*
X102453147Y-99913616D01*
X102396533Y-99896443D01*
X102240011Y-99812779D01*
X102240009Y-99812778D01*
X102204271Y-99783448D01*
X102102814Y-99700186D01*
X102019552Y-99598729D01*
X101990222Y-99562991D01*
X101980652Y-99545087D01*
X101906557Y-99406467D01*
X101889384Y-99349853D01*
X101855037Y-99236627D01*
X101837641Y-99060000D01*
X101855037Y-98883373D01*
X101906557Y-98713534D01*
X101906557Y-98713533D01*
X101990221Y-98557011D01*
X101990222Y-98557009D01*
X102019552Y-98521271D01*
X102102814Y-98419814D01*
X102204271Y-98336552D01*
X102240009Y-98307222D01*
X102257913Y-98297652D01*
X102396533Y-98223557D01*
X102453147Y-98206384D01*
X102566373Y-98172037D01*
X102632557Y-98165519D01*
X102698740Y-98159000D01*
X102787260Y-98159000D01*
X102853443Y-98165519D01*
X102853443Y-98165519D01*
G37*
G36*
X82533442Y-95625518D02*
X82599627Y-95632037D01*
X82712853Y-95666384D01*
X82769467Y-95683557D01*
X82908087Y-95757652D01*
X82925991Y-95767222D01*
X82961729Y-95796552D01*
X83063186Y-95879814D01*
X83146448Y-95981271D01*
X83175778Y-96017009D01*
X83175779Y-96017011D01*
X83259443Y-96173533D01*
X83259443Y-96173534D01*
X83310963Y-96343373D01*
X83328359Y-96520000D01*
X83310963Y-96696627D01*
X83276616Y-96809853D01*
X83259443Y-96866467D01*
X83185348Y-97005087D01*
X83175778Y-97022991D01*
X83146448Y-97058729D01*
X83063186Y-97160186D01*
X82961729Y-97243448D01*
X82925991Y-97272778D01*
X82925989Y-97272779D01*
X82769467Y-97356443D01*
X82712853Y-97373616D01*
X82599627Y-97407963D01*
X82533442Y-97414482D01*
X82467260Y-97421000D01*
X82378740Y-97421000D01*
X82312558Y-97414482D01*
X82246373Y-97407963D01*
X82133147Y-97373616D01*
X82076533Y-97356443D01*
X81920011Y-97272779D01*
X81920009Y-97272778D01*
X81884271Y-97243448D01*
X81782814Y-97160186D01*
X81699552Y-97058729D01*
X81670222Y-97022991D01*
X81660652Y-97005087D01*
X81586557Y-96866467D01*
X81569384Y-96809853D01*
X81535037Y-96696627D01*
X81517641Y-96520000D01*
X81535037Y-96343373D01*
X81586557Y-96173534D01*
X81586557Y-96173533D01*
X81670221Y-96017011D01*
X81670222Y-96017009D01*
X81699552Y-95981271D01*
X81782814Y-95879814D01*
X81884271Y-95796552D01*
X81920009Y-95767222D01*
X81937913Y-95757652D01*
X82076533Y-95683557D01*
X82133147Y-95666384D01*
X82246373Y-95632037D01*
X82312558Y-95625518D01*
X82378740Y-95619000D01*
X82467260Y-95619000D01*
X82533442Y-95625518D01*
X82533442Y-95625518D01*
G37*
G36*
X102853442Y-95625518D02*
X102919627Y-95632037D01*
X103032853Y-95666384D01*
X103089467Y-95683557D01*
X103228087Y-95757652D01*
X103245991Y-95767222D01*
X103281729Y-95796552D01*
X103383186Y-95879814D01*
X103466448Y-95981271D01*
X103495778Y-96017009D01*
X103495779Y-96017011D01*
X103579443Y-96173533D01*
X103579443Y-96173534D01*
X103630963Y-96343373D01*
X103648359Y-96520000D01*
X103630963Y-96696627D01*
X103596616Y-96809853D01*
X103579443Y-96866467D01*
X103505348Y-97005087D01*
X103495778Y-97022991D01*
X103466448Y-97058729D01*
X103383186Y-97160186D01*
X103281729Y-97243448D01*
X103245991Y-97272778D01*
X103245989Y-97272779D01*
X103089467Y-97356443D01*
X103032853Y-97373616D01*
X102919627Y-97407963D01*
X102853442Y-97414482D01*
X102787260Y-97421000D01*
X102698740Y-97421000D01*
X102632558Y-97414482D01*
X102566373Y-97407963D01*
X102453147Y-97373616D01*
X102396533Y-97356443D01*
X102240011Y-97272779D01*
X102240009Y-97272778D01*
X102204271Y-97243448D01*
X102102814Y-97160186D01*
X102019552Y-97058729D01*
X101990222Y-97022991D01*
X101980652Y-97005087D01*
X101906557Y-96866467D01*
X101889384Y-96809853D01*
X101855037Y-96696627D01*
X101837641Y-96520000D01*
X101855037Y-96343373D01*
X101906557Y-96173534D01*
X101906557Y-96173533D01*
X101990221Y-96017011D01*
X101990222Y-96017009D01*
X102019552Y-95981271D01*
X102102814Y-95879814D01*
X102204271Y-95796552D01*
X102240009Y-95767222D01*
X102257913Y-95757652D01*
X102396533Y-95683557D01*
X102453147Y-95666384D01*
X102566373Y-95632037D01*
X102632558Y-95625518D01*
X102698740Y-95619000D01*
X102787260Y-95619000D01*
X102853442Y-95625518D01*
X102853442Y-95625518D01*
G37*
G36*
X143268000Y-96024000D02*
X141466000Y-96024000D01*
X141466000Y-94222000D01*
X143268000Y-94222000D01*
X143268000Y-96024000D01*
X143268000Y-96024000D01*
G37*
G36*
X123773500Y-96024000D02*
X121971500Y-96024000D01*
X121971500Y-94222000D01*
X123773500Y-94222000D01*
X123773500Y-96024000D01*
X123773500Y-96024000D01*
G37*
G36*
X129615500Y-96024000D02*
X127813500Y-96024000D01*
X127813500Y-94222000D01*
X129615500Y-94222000D01*
X129615500Y-96024000D01*
X129615500Y-96024000D01*
G37*
G36*
X137397443Y-94228519D02*
X137463627Y-94235037D01*
X137576853Y-94269384D01*
X137633467Y-94286557D01*
X137772087Y-94360652D01*
X137789991Y-94370222D01*
X137825729Y-94399552D01*
X137927186Y-94482814D01*
X138010448Y-94584271D01*
X138039778Y-94620009D01*
X138039779Y-94620011D01*
X138123443Y-94776533D01*
X138123443Y-94776534D01*
X138174963Y-94946373D01*
X138192359Y-95123000D01*
X138174963Y-95299627D01*
X138140616Y-95412853D01*
X138123443Y-95469467D01*
X138049348Y-95608087D01*
X138039778Y-95625991D01*
X138034816Y-95632037D01*
X137927186Y-95763186D01*
X137825729Y-95846448D01*
X137789991Y-95875778D01*
X137789989Y-95875779D01*
X137633467Y-95959443D01*
X137576853Y-95976616D01*
X137463627Y-96010963D01*
X137397443Y-96017481D01*
X137331260Y-96024000D01*
X137242740Y-96024000D01*
X137176557Y-96017481D01*
X137110373Y-96010963D01*
X136997147Y-95976616D01*
X136940533Y-95959443D01*
X136784011Y-95875779D01*
X136784009Y-95875778D01*
X136748271Y-95846448D01*
X136646814Y-95763186D01*
X136539184Y-95632037D01*
X136534222Y-95625991D01*
X136524652Y-95608087D01*
X136450557Y-95469467D01*
X136433384Y-95412853D01*
X136399037Y-95299627D01*
X136381641Y-95123000D01*
X136399037Y-94946373D01*
X136450557Y-94776534D01*
X136450557Y-94776533D01*
X136534221Y-94620011D01*
X136534222Y-94620009D01*
X136563552Y-94584271D01*
X136646814Y-94482814D01*
X136748271Y-94399552D01*
X136784009Y-94370222D01*
X136801913Y-94360652D01*
X136940533Y-94286557D01*
X136997147Y-94269384D01*
X137110373Y-94235037D01*
X137176557Y-94228519D01*
X137242740Y-94222000D01*
X137331260Y-94222000D01*
X137397443Y-94228519D01*
X137397443Y-94228519D01*
G37*
G36*
X139937443Y-94228519D02*
X140003627Y-94235037D01*
X140116853Y-94269384D01*
X140173467Y-94286557D01*
X140312087Y-94360652D01*
X140329991Y-94370222D01*
X140365729Y-94399552D01*
X140467186Y-94482814D01*
X140550448Y-94584271D01*
X140579778Y-94620009D01*
X140579779Y-94620011D01*
X140663443Y-94776533D01*
X140663443Y-94776534D01*
X140714963Y-94946373D01*
X140732359Y-95123000D01*
X140714963Y-95299627D01*
X140680616Y-95412853D01*
X140663443Y-95469467D01*
X140589348Y-95608087D01*
X140579778Y-95625991D01*
X140574816Y-95632037D01*
X140467186Y-95763186D01*
X140365729Y-95846448D01*
X140329991Y-95875778D01*
X140329989Y-95875779D01*
X140173467Y-95959443D01*
X140116853Y-95976616D01*
X140003627Y-96010963D01*
X139937443Y-96017481D01*
X139871260Y-96024000D01*
X139782740Y-96024000D01*
X139716557Y-96017481D01*
X139650373Y-96010963D01*
X139537147Y-95976616D01*
X139480533Y-95959443D01*
X139324011Y-95875779D01*
X139324009Y-95875778D01*
X139288271Y-95846448D01*
X139186814Y-95763186D01*
X139079184Y-95632037D01*
X139074222Y-95625991D01*
X139064652Y-95608087D01*
X138990557Y-95469467D01*
X138973384Y-95412853D01*
X138939037Y-95299627D01*
X138921641Y-95123000D01*
X138939037Y-94946373D01*
X138990557Y-94776534D01*
X138990557Y-94776533D01*
X139074221Y-94620011D01*
X139074222Y-94620009D01*
X139103552Y-94584271D01*
X139186814Y-94482814D01*
X139288271Y-94399552D01*
X139324009Y-94370222D01*
X139341913Y-94360652D01*
X139480533Y-94286557D01*
X139537147Y-94269384D01*
X139650373Y-94235037D01*
X139716557Y-94228519D01*
X139782740Y-94222000D01*
X139871260Y-94222000D01*
X139937443Y-94228519D01*
X139937443Y-94228519D01*
G37*
G36*
X122982943Y-91688519D02*
X123049127Y-91695037D01*
X123162353Y-91729384D01*
X123218967Y-91746557D01*
X123357587Y-91820652D01*
X123375491Y-91830222D01*
X123411229Y-91859552D01*
X123512686Y-91942814D01*
X123595948Y-92044271D01*
X123625278Y-92080009D01*
X123625279Y-92080011D01*
X123708943Y-92236533D01*
X123708943Y-92236534D01*
X123760463Y-92406373D01*
X123777859Y-92583000D01*
X123760463Y-92759627D01*
X123726116Y-92872853D01*
X123708943Y-92929467D01*
X123634848Y-93068087D01*
X123625278Y-93085991D01*
X123595948Y-93121729D01*
X123512686Y-93223186D01*
X123411229Y-93306448D01*
X123375491Y-93335778D01*
X123375489Y-93335779D01*
X123218967Y-93419443D01*
X123162353Y-93436616D01*
X123049127Y-93470963D01*
X122982943Y-93477481D01*
X122916760Y-93484000D01*
X122828240Y-93484000D01*
X122762057Y-93477481D01*
X122695873Y-93470963D01*
X122582647Y-93436616D01*
X122526033Y-93419443D01*
X122369511Y-93335779D01*
X122369509Y-93335778D01*
X122333771Y-93306448D01*
X122232314Y-93223186D01*
X122149052Y-93121729D01*
X122119722Y-93085991D01*
X122110152Y-93068087D01*
X122036057Y-92929467D01*
X122018884Y-92872853D01*
X121984537Y-92759627D01*
X121967141Y-92583000D01*
X121984537Y-92406373D01*
X122036057Y-92236534D01*
X122036057Y-92236533D01*
X122119721Y-92080011D01*
X122119722Y-92080009D01*
X122149052Y-92044271D01*
X122232314Y-91942814D01*
X122333771Y-91859552D01*
X122369509Y-91830222D01*
X122387413Y-91820652D01*
X122526033Y-91746557D01*
X122582647Y-91729384D01*
X122695873Y-91695037D01*
X122762057Y-91688519D01*
X122828240Y-91682000D01*
X122916760Y-91682000D01*
X122982943Y-91688519D01*
X122982943Y-91688519D01*
G37*
G36*
X128824943Y-91688519D02*
X128891127Y-91695037D01*
X129004353Y-91729384D01*
X129060967Y-91746557D01*
X129199587Y-91820652D01*
X129217491Y-91830222D01*
X129253229Y-91859552D01*
X129354686Y-91942814D01*
X129437948Y-92044271D01*
X129467278Y-92080009D01*
X129467279Y-92080011D01*
X129550943Y-92236533D01*
X129550943Y-92236534D01*
X129602463Y-92406373D01*
X129619859Y-92583000D01*
X129602463Y-92759627D01*
X129568116Y-92872853D01*
X129550943Y-92929467D01*
X129476848Y-93068087D01*
X129467278Y-93085991D01*
X129437948Y-93121729D01*
X129354686Y-93223186D01*
X129253229Y-93306448D01*
X129217491Y-93335778D01*
X129217489Y-93335779D01*
X129060967Y-93419443D01*
X129004353Y-93436616D01*
X128891127Y-93470963D01*
X128824943Y-93477481D01*
X128758760Y-93484000D01*
X128670240Y-93484000D01*
X128604057Y-93477481D01*
X128537873Y-93470963D01*
X128424647Y-93436616D01*
X128368033Y-93419443D01*
X128211511Y-93335779D01*
X128211509Y-93335778D01*
X128175771Y-93306448D01*
X128074314Y-93223186D01*
X127991052Y-93121729D01*
X127961722Y-93085991D01*
X127952152Y-93068087D01*
X127878057Y-92929467D01*
X127860884Y-92872853D01*
X127826537Y-92759627D01*
X127809141Y-92583000D01*
X127826537Y-92406373D01*
X127878057Y-92236534D01*
X127878057Y-92236533D01*
X127961721Y-92080011D01*
X127961722Y-92080009D01*
X127991052Y-92044271D01*
X128074314Y-91942814D01*
X128175771Y-91859552D01*
X128211509Y-91830222D01*
X128229413Y-91820652D01*
X128368033Y-91746557D01*
X128424647Y-91729384D01*
X128537873Y-91695037D01*
X128604057Y-91688519D01*
X128670240Y-91682000D01*
X128758760Y-91682000D01*
X128824943Y-91688519D01*
X128824943Y-91688519D01*
G37*
G36*
X111362443Y-83941519D02*
X111428627Y-83948037D01*
X111541853Y-83982384D01*
X111598467Y-83999557D01*
X111737087Y-84073652D01*
X111754991Y-84083222D01*
X111790729Y-84112552D01*
X111892186Y-84195814D01*
X111975448Y-84297271D01*
X112004778Y-84333009D01*
X112004779Y-84333011D01*
X112088443Y-84489533D01*
X112088443Y-84489534D01*
X112139963Y-84659373D01*
X112157359Y-84836000D01*
X112139963Y-85012627D01*
X112105616Y-85125853D01*
X112088443Y-85182467D01*
X112014348Y-85321087D01*
X112004778Y-85338991D01*
X111975448Y-85374729D01*
X111892186Y-85476186D01*
X111790729Y-85559448D01*
X111754991Y-85588778D01*
X111754989Y-85588779D01*
X111598467Y-85672443D01*
X111541853Y-85689616D01*
X111428627Y-85723963D01*
X111362443Y-85730481D01*
X111296260Y-85737000D01*
X111207740Y-85737000D01*
X111141557Y-85730481D01*
X111075373Y-85723963D01*
X110962147Y-85689616D01*
X110905533Y-85672443D01*
X110749011Y-85588779D01*
X110749009Y-85588778D01*
X110713271Y-85559448D01*
X110611814Y-85476186D01*
X110528552Y-85374729D01*
X110499222Y-85338991D01*
X110489652Y-85321087D01*
X110415557Y-85182467D01*
X110398384Y-85125853D01*
X110364037Y-85012627D01*
X110346641Y-84836000D01*
X110364037Y-84659373D01*
X110415557Y-84489534D01*
X110415557Y-84489533D01*
X110499221Y-84333011D01*
X110499222Y-84333009D01*
X110528552Y-84297271D01*
X110611814Y-84195814D01*
X110713271Y-84112552D01*
X110749009Y-84083222D01*
X110766913Y-84073652D01*
X110905533Y-83999557D01*
X110962147Y-83982384D01*
X111075373Y-83948037D01*
X111141557Y-83941519D01*
X111207740Y-83935000D01*
X111296260Y-83935000D01*
X111362443Y-83941519D01*
X111362443Y-83941519D01*
G37*
G36*
X117233000Y-85737000D02*
X115431000Y-85737000D01*
X115431000Y-83935000D01*
X117233000Y-83935000D01*
X117233000Y-85737000D01*
X117233000Y-85737000D01*
G37*
G36*
X113902443Y-83941519D02*
X113968627Y-83948037D01*
X114081853Y-83982384D01*
X114138467Y-83999557D01*
X114277087Y-84073652D01*
X114294991Y-84083222D01*
X114330729Y-84112552D01*
X114432186Y-84195814D01*
X114515448Y-84297271D01*
X114544778Y-84333009D01*
X114544779Y-84333011D01*
X114628443Y-84489533D01*
X114628443Y-84489534D01*
X114679963Y-84659373D01*
X114697359Y-84836000D01*
X114679963Y-85012627D01*
X114645616Y-85125853D01*
X114628443Y-85182467D01*
X114554348Y-85321087D01*
X114544778Y-85338991D01*
X114515448Y-85374729D01*
X114432186Y-85476186D01*
X114330729Y-85559448D01*
X114294991Y-85588778D01*
X114294989Y-85588779D01*
X114138467Y-85672443D01*
X114081853Y-85689616D01*
X113968627Y-85723963D01*
X113902443Y-85730481D01*
X113836260Y-85737000D01*
X113747740Y-85737000D01*
X113681557Y-85730481D01*
X113615373Y-85723963D01*
X113502147Y-85689616D01*
X113445533Y-85672443D01*
X113289011Y-85588779D01*
X113289009Y-85588778D01*
X113253271Y-85559448D01*
X113151814Y-85476186D01*
X113068552Y-85374729D01*
X113039222Y-85338991D01*
X113029652Y-85321087D01*
X112955557Y-85182467D01*
X112938384Y-85125853D01*
X112904037Y-85012627D01*
X112886641Y-84836000D01*
X112904037Y-84659373D01*
X112955557Y-84489534D01*
X112955557Y-84489533D01*
X113039221Y-84333011D01*
X113039222Y-84333009D01*
X113068552Y-84297271D01*
X113151814Y-84195814D01*
X113253271Y-84112552D01*
X113289009Y-84083222D01*
X113306913Y-84073652D01*
X113445533Y-83999557D01*
X113502147Y-83982384D01*
X113615373Y-83948037D01*
X113681557Y-83941519D01*
X113747740Y-83935000D01*
X113836260Y-83935000D01*
X113902443Y-83941519D01*
X113902443Y-83941519D01*
G37*
G36*
X105295000Y-82435000D02*
X103493000Y-82435000D01*
X103493000Y-80633000D01*
X105295000Y-80633000D01*
X105295000Y-82435000D01*
X105295000Y-82435000D01*
G37*
G36*
X124091000Y-82308000D02*
X122289000Y-82308000D01*
X122289000Y-80506000D01*
X124091000Y-80506000D01*
X124091000Y-82308000D01*
X124091000Y-82308000D01*
G37*
G36*
X134347000Y-80372000D02*
X131845000Y-80372000D01*
X131845000Y-77870000D01*
X134347000Y-77870000D01*
X134347000Y-80372000D01*
X134347000Y-80372000D01*
G37*
G36*
X129779635Y-77882019D02*
X129960903Y-77918075D01*
X130188571Y-78012378D01*
X130392542Y-78148668D01*
X130393469Y-78149287D01*
X130567713Y-78323531D01*
X130567715Y-78323534D01*
X130704622Y-78528429D01*
X130798925Y-78756097D01*
X130811114Y-78817375D01*
X130845494Y-78990213D01*
X130847000Y-78997787D01*
X130847000Y-79244213D01*
X130798925Y-79485903D01*
X130704622Y-79713571D01*
X130568332Y-79917542D01*
X130567713Y-79918469D01*
X130393469Y-80092713D01*
X130393466Y-80092715D01*
X130188571Y-80229622D01*
X129960903Y-80323925D01*
X129779635Y-80359981D01*
X129719214Y-80372000D01*
X129472786Y-80372000D01*
X129412365Y-80359981D01*
X129231097Y-80323925D01*
X129003429Y-80229622D01*
X128798534Y-80092715D01*
X128798531Y-80092713D01*
X128624287Y-79918469D01*
X128623668Y-79917542D01*
X128487378Y-79713571D01*
X128393075Y-79485903D01*
X128345000Y-79244213D01*
X128345000Y-78997787D01*
X128346507Y-78990213D01*
X128380886Y-78817375D01*
X128393075Y-78756097D01*
X128487378Y-78528429D01*
X128624285Y-78323534D01*
X128624287Y-78323531D01*
X128798531Y-78149287D01*
X128799458Y-78148668D01*
X129003429Y-78012378D01*
X129231097Y-77918075D01*
X129412365Y-77882019D01*
X129472786Y-77870000D01*
X129719214Y-77870000D01*
X129779635Y-77882019D01*
X129779635Y-77882019D01*
G37*
G36*
X99422000Y-80118000D02*
X96920000Y-80118000D01*
X96920000Y-77616000D01*
X99422000Y-77616000D01*
X99422000Y-80118000D01*
X99422000Y-80118000D01*
G37*
G36*
X94854636Y-77628019D02*
X95035903Y-77664075D01*
X95263571Y-77758378D01*
X95430624Y-77870000D01*
X95468469Y-77895287D01*
X95642713Y-78069531D01*
X95642715Y-78069534D01*
X95779622Y-78274429D01*
X95873925Y-78502097D01*
X95902854Y-78647533D01*
X95922000Y-78743786D01*
X95922000Y-78990214D01*
X95911376Y-79043625D01*
X95873925Y-79231903D01*
X95779622Y-79459571D01*
X95643332Y-79663542D01*
X95642713Y-79664469D01*
X95468469Y-79838713D01*
X95468466Y-79838715D01*
X95263571Y-79975622D01*
X95035903Y-80069925D01*
X94854636Y-80105981D01*
X94794214Y-80118000D01*
X94547786Y-80118000D01*
X94487364Y-80105981D01*
X94306097Y-80069925D01*
X94078429Y-79975622D01*
X93873534Y-79838715D01*
X93873531Y-79838713D01*
X93699287Y-79664469D01*
X93698668Y-79663542D01*
X93562378Y-79459571D01*
X93468075Y-79231903D01*
X93430624Y-79043625D01*
X93420000Y-78990214D01*
X93420000Y-78743786D01*
X93439146Y-78647533D01*
X93468075Y-78502097D01*
X93562378Y-78274429D01*
X93699285Y-78069534D01*
X93699287Y-78069531D01*
X93873531Y-77895287D01*
X93911376Y-77870000D01*
X94078429Y-77758378D01*
X94306097Y-77664075D01*
X94487364Y-77628019D01*
X94547786Y-77616000D01*
X94794214Y-77616000D01*
X94854636Y-77628019D01*
X94854636Y-77628019D01*
G37*
G36*
X104504442Y-78099518D02*
X104570627Y-78106037D01*
X104683853Y-78140384D01*
X104740467Y-78157557D01*
X104870036Y-78226814D01*
X104896991Y-78241222D01*
X104932729Y-78270552D01*
X105034186Y-78353814D01*
X105117448Y-78455271D01*
X105146778Y-78491009D01*
X105146779Y-78491011D01*
X105230443Y-78647533D01*
X105230443Y-78647534D01*
X105281963Y-78817373D01*
X105299359Y-78994000D01*
X105281963Y-79170627D01*
X105247616Y-79283853D01*
X105230443Y-79340467D01*
X105166780Y-79459571D01*
X105146778Y-79496991D01*
X105138411Y-79507186D01*
X105034186Y-79634186D01*
X104937454Y-79713571D01*
X104896991Y-79746778D01*
X104896989Y-79746779D01*
X104740467Y-79830443D01*
X104713197Y-79838715D01*
X104570627Y-79881963D01*
X104504443Y-79888481D01*
X104438260Y-79895000D01*
X104349740Y-79895000D01*
X104283557Y-79888481D01*
X104217373Y-79881963D01*
X104074803Y-79838715D01*
X104047533Y-79830443D01*
X103891011Y-79746779D01*
X103891009Y-79746778D01*
X103850546Y-79713571D01*
X103753814Y-79634186D01*
X103649589Y-79507186D01*
X103641222Y-79496991D01*
X103621220Y-79459571D01*
X103557557Y-79340467D01*
X103540384Y-79283853D01*
X103506037Y-79170627D01*
X103488641Y-78994000D01*
X103506037Y-78817373D01*
X103557557Y-78647534D01*
X103557557Y-78647533D01*
X103641221Y-78491011D01*
X103641222Y-78491009D01*
X103670552Y-78455271D01*
X103753814Y-78353814D01*
X103855271Y-78270552D01*
X103891009Y-78241222D01*
X103917964Y-78226814D01*
X104047533Y-78157557D01*
X104104147Y-78140384D01*
X104217373Y-78106037D01*
X104283558Y-78099518D01*
X104349740Y-78093000D01*
X104438260Y-78093000D01*
X104504442Y-78099518D01*
X104504442Y-78099518D01*
G37*
G36*
X123300443Y-77972519D02*
X123366627Y-77979037D01*
X123476538Y-78012378D01*
X123536467Y-78030557D01*
X123653288Y-78093000D01*
X123692991Y-78114222D01*
X123728729Y-78143552D01*
X123830186Y-78226814D01*
X123909558Y-78323531D01*
X123942778Y-78364009D01*
X123942779Y-78364011D01*
X124026443Y-78520533D01*
X124026443Y-78520534D01*
X124077963Y-78690373D01*
X124095359Y-78867000D01*
X124077963Y-79043627D01*
X124043616Y-79156853D01*
X124026443Y-79213467D01*
X124010008Y-79244214D01*
X123942778Y-79369991D01*
X123913448Y-79405729D01*
X123830186Y-79507186D01*
X123728729Y-79590448D01*
X123692991Y-79619778D01*
X123692989Y-79619779D01*
X123536467Y-79703443D01*
X123479853Y-79720616D01*
X123366627Y-79754963D01*
X123300442Y-79761482D01*
X123234260Y-79768000D01*
X123145740Y-79768000D01*
X123079558Y-79761482D01*
X123013373Y-79754963D01*
X122900147Y-79720616D01*
X122843533Y-79703443D01*
X122687011Y-79619779D01*
X122687009Y-79619778D01*
X122651271Y-79590448D01*
X122549814Y-79507186D01*
X122466552Y-79405729D01*
X122437222Y-79369991D01*
X122369992Y-79244214D01*
X122353557Y-79213467D01*
X122336384Y-79156853D01*
X122302037Y-79043627D01*
X122284641Y-78867000D01*
X122302037Y-78690373D01*
X122353557Y-78520534D01*
X122353557Y-78520533D01*
X122437221Y-78364011D01*
X122437222Y-78364009D01*
X122470442Y-78323531D01*
X122549814Y-78226814D01*
X122651271Y-78143552D01*
X122687009Y-78114222D01*
X122726712Y-78093000D01*
X122843533Y-78030557D01*
X122903462Y-78012378D01*
X123013373Y-77979037D01*
X123079557Y-77972519D01*
X123145740Y-77966000D01*
X123234260Y-77966000D01*
X123300443Y-77972519D01*
X123300443Y-77972519D01*
G37*
M02*
