G04 #@! TF.GenerationSoftware,KiCad,Pcbnew,5.0.2-bee76a0~70~ubuntu18.04.1*
G04 #@! TF.CreationDate,2019-07-28T23:18:03-04:00*
G04 #@! TF.ProjectId,knuth-gateway,6b6e7574-682d-4676-9174-657761792e6b,rev?*
G04 #@! TF.SameCoordinates,Original*
G04 #@! TF.FileFunction,Legend,Top*
G04 #@! TF.FilePolarity,Positive*
%FSLAX46Y46*%
G04 Gerber Fmt 4.6, Leading zero omitted, Abs format (unit mm)*
G04 Created by KiCad (PCBNEW 5.0.2-bee76a0~70~ubuntu18.04.1) date Sun 28 Jul 2019 11:18:03 PM EDT*
%MOMM*%
%LPD*%
G01*
G04 APERTURE LIST*
%ADD10C,0.300000*%
%ADD11C,0.120000*%
%ADD12C,0.150000*%
G04 APERTURE END LIST*
D10*
X97222571Y-89042571D02*
X97222571Y-89756857D01*
X97936857Y-89828285D01*
X97865428Y-89756857D01*
X97794000Y-89614000D01*
X97794000Y-89256857D01*
X97865428Y-89114000D01*
X97936857Y-89042571D01*
X98079714Y-88971142D01*
X98436857Y-88971142D01*
X98579714Y-89042571D01*
X98651142Y-89114000D01*
X98722571Y-89256857D01*
X98722571Y-89614000D01*
X98651142Y-89756857D01*
X98579714Y-89828285D01*
X97222571Y-88542571D02*
X98722571Y-88042571D01*
X97222571Y-87542571D01*
X97222571Y-86756857D02*
X97222571Y-86471142D01*
X97294000Y-86328285D01*
X97436857Y-86185428D01*
X97722571Y-86114000D01*
X98222571Y-86114000D01*
X98508285Y-86185428D01*
X98651142Y-86328285D01*
X98722571Y-86471142D01*
X98722571Y-86756857D01*
X98651142Y-86899714D01*
X98508285Y-87042571D01*
X98222571Y-87114000D01*
X97722571Y-87114000D01*
X97436857Y-87042571D01*
X97294000Y-86899714D01*
X97222571Y-86756857D01*
X97222571Y-85471142D02*
X98436857Y-85471142D01*
X98579714Y-85399714D01*
X98651142Y-85328285D01*
X98722571Y-85185428D01*
X98722571Y-84899714D01*
X98651142Y-84756857D01*
X98579714Y-84685428D01*
X98436857Y-84614000D01*
X97222571Y-84614000D01*
X97222571Y-84114000D02*
X97222571Y-83256857D01*
X98722571Y-83685428D02*
X97222571Y-83685428D01*
X115510571Y-81902857D02*
X117010571Y-81402857D01*
X115510571Y-80902857D01*
X116224857Y-80402857D02*
X116224857Y-79902857D01*
X117010571Y-79688571D02*
X117010571Y-80402857D01*
X115510571Y-80402857D01*
X115510571Y-79688571D01*
X115510571Y-79188571D02*
X117010571Y-78188571D01*
X115510571Y-78188571D02*
X117010571Y-79188571D01*
X110430571Y-80660571D02*
X110430571Y-81374857D01*
X111144857Y-81446285D01*
X111073428Y-81374857D01*
X111002000Y-81232000D01*
X111002000Y-80874857D01*
X111073428Y-80732000D01*
X111144857Y-80660571D01*
X111287714Y-80589142D01*
X111644857Y-80589142D01*
X111787714Y-80660571D01*
X111859142Y-80732000D01*
X111930571Y-80874857D01*
X111930571Y-81232000D01*
X111859142Y-81374857D01*
X111787714Y-81446285D01*
X110430571Y-80160571D02*
X111930571Y-79660571D01*
X110430571Y-79160571D01*
X110430571Y-78374857D02*
X110430571Y-78089142D01*
X110502000Y-77946285D01*
X110644857Y-77803428D01*
X110930571Y-77732000D01*
X111430571Y-77732000D01*
X111716285Y-77803428D01*
X111859142Y-77946285D01*
X111930571Y-78089142D01*
X111930571Y-78374857D01*
X111859142Y-78517714D01*
X111716285Y-78660571D01*
X111430571Y-78732000D01*
X110930571Y-78732000D01*
X110644857Y-78660571D01*
X110502000Y-78517714D01*
X110430571Y-78374857D01*
X110430571Y-77089142D02*
X111644857Y-77089142D01*
X111787714Y-77017714D01*
X111859142Y-76946285D01*
X111930571Y-76803428D01*
X111930571Y-76517714D01*
X111859142Y-76374857D01*
X111787714Y-76303428D01*
X111644857Y-76232000D01*
X110430571Y-76232000D01*
X110430571Y-75732000D02*
X110430571Y-74874857D01*
X111930571Y-75303428D02*
X110430571Y-75303428D01*
X113042000Y-80379142D02*
X112970571Y-80522000D01*
X112970571Y-80736285D01*
X113042000Y-80950571D01*
X113184857Y-81093428D01*
X113327714Y-81164857D01*
X113613428Y-81236285D01*
X113827714Y-81236285D01*
X114113428Y-81164857D01*
X114256285Y-81093428D01*
X114399142Y-80950571D01*
X114470571Y-80736285D01*
X114470571Y-80593428D01*
X114399142Y-80379142D01*
X114327714Y-80307714D01*
X113827714Y-80307714D01*
X113827714Y-80593428D01*
X122622571Y-86982857D02*
X124122571Y-86482857D01*
X122622571Y-85982857D01*
X123336857Y-85482857D02*
X123336857Y-84982857D01*
X124122571Y-84768571D02*
X124122571Y-85482857D01*
X122622571Y-85482857D01*
X122622571Y-84768571D01*
X122622571Y-84268571D02*
X124122571Y-83268571D01*
X122622571Y-83268571D02*
X124122571Y-84268571D01*
X122440000Y-75299142D02*
X122368571Y-75442000D01*
X122368571Y-75656285D01*
X122440000Y-75870571D01*
X122582857Y-76013428D01*
X122725714Y-76084857D01*
X123011428Y-76156285D01*
X123225714Y-76156285D01*
X123511428Y-76084857D01*
X123654285Y-76013428D01*
X123797142Y-75870571D01*
X123868571Y-75656285D01*
X123868571Y-75513428D01*
X123797142Y-75299142D01*
X123725714Y-75227714D01*
X123225714Y-75227714D01*
X123225714Y-75513428D01*
X103898000Y-75553142D02*
X103826571Y-75696000D01*
X103826571Y-75910285D01*
X103898000Y-76124571D01*
X104040857Y-76267428D01*
X104183714Y-76338857D01*
X104469428Y-76410285D01*
X104683714Y-76410285D01*
X104969428Y-76338857D01*
X105112285Y-76267428D01*
X105255142Y-76124571D01*
X105326571Y-75910285D01*
X105326571Y-75767428D01*
X105255142Y-75553142D01*
X105183714Y-75481714D01*
X104683714Y-75481714D01*
X104683714Y-75767428D01*
X132600000Y-83935142D02*
X132528571Y-84078000D01*
X132528571Y-84292285D01*
X132600000Y-84506571D01*
X132742857Y-84649428D01*
X132885714Y-84720857D01*
X133171428Y-84792285D01*
X133385714Y-84792285D01*
X133671428Y-84720857D01*
X133814285Y-84649428D01*
X133957142Y-84506571D01*
X134028571Y-84292285D01*
X134028571Y-84149428D01*
X133957142Y-83935142D01*
X133885714Y-83863714D01*
X133385714Y-83863714D01*
X133385714Y-84149428D01*
X128718571Y-87236857D02*
X130218571Y-86736857D01*
X128718571Y-86236857D01*
X129432857Y-85736857D02*
X129432857Y-85236857D01*
X130218571Y-85022571D02*
X130218571Y-85736857D01*
X128718571Y-85736857D01*
X128718571Y-85022571D01*
X128718571Y-84522571D02*
X130218571Y-83522571D01*
X128718571Y-83522571D02*
X130218571Y-84522571D01*
X103826571Y-89804571D02*
X103826571Y-90518857D01*
X104540857Y-90590285D01*
X104469428Y-90518857D01*
X104398000Y-90376000D01*
X104398000Y-90018857D01*
X104469428Y-89876000D01*
X104540857Y-89804571D01*
X104683714Y-89733142D01*
X105040857Y-89733142D01*
X105183714Y-89804571D01*
X105255142Y-89876000D01*
X105326571Y-90018857D01*
X105326571Y-90376000D01*
X105255142Y-90518857D01*
X105183714Y-90590285D01*
X103826571Y-89304571D02*
X105326571Y-88804571D01*
X103826571Y-88304571D01*
X103826571Y-87518857D02*
X103826571Y-87233142D01*
X103898000Y-87090285D01*
X104040857Y-86947428D01*
X104326571Y-86876000D01*
X104826571Y-86876000D01*
X105112285Y-86947428D01*
X105255142Y-87090285D01*
X105326571Y-87233142D01*
X105326571Y-87518857D01*
X105255142Y-87661714D01*
X105112285Y-87804571D01*
X104826571Y-87876000D01*
X104326571Y-87876000D01*
X104040857Y-87804571D01*
X103898000Y-87661714D01*
X103826571Y-87518857D01*
X103826571Y-86233142D02*
X105040857Y-86233142D01*
X105183714Y-86161714D01*
X105255142Y-86090285D01*
X105326571Y-85947428D01*
X105326571Y-85661714D01*
X105255142Y-85518857D01*
X105183714Y-85447428D01*
X105040857Y-85376000D01*
X103826571Y-85376000D01*
X103826571Y-84876000D02*
X103826571Y-84018857D01*
X105326571Y-84447428D02*
X103826571Y-84447428D01*
X93738000Y-84189142D02*
X93666571Y-84332000D01*
X93666571Y-84546285D01*
X93738000Y-84760571D01*
X93880857Y-84903428D01*
X94023714Y-84974857D01*
X94309428Y-85046285D01*
X94523714Y-85046285D01*
X94809428Y-84974857D01*
X94952285Y-84903428D01*
X95095142Y-84760571D01*
X95166571Y-84546285D01*
X95166571Y-84403428D01*
X95095142Y-84189142D01*
X95023714Y-84117714D01*
X94523714Y-84117714D01*
X94523714Y-84403428D01*
X132485142Y-113962571D02*
X132485142Y-112462571D01*
X132842285Y-112462571D01*
X133056571Y-112534000D01*
X133199428Y-112676857D01*
X133270857Y-112819714D01*
X133342285Y-113105428D01*
X133342285Y-113319714D01*
X133270857Y-113605428D01*
X133199428Y-113748285D01*
X133056571Y-113891142D01*
X132842285Y-113962571D01*
X132485142Y-113962571D01*
X134270857Y-112462571D02*
X134556571Y-112462571D01*
X134699428Y-112534000D01*
X134842285Y-112676857D01*
X134913714Y-112962571D01*
X134913714Y-113462571D01*
X134842285Y-113748285D01*
X134699428Y-113891142D01*
X134556571Y-113962571D01*
X134270857Y-113962571D01*
X134128000Y-113891142D01*
X133985142Y-113748285D01*
X133913714Y-113462571D01*
X133913714Y-112962571D01*
X133985142Y-112676857D01*
X134128000Y-112534000D01*
X134270857Y-112462571D01*
X135556571Y-113962571D02*
X135556571Y-112462571D01*
X136413714Y-113962571D01*
X136413714Y-112462571D01*
X137128000Y-113176857D02*
X137628000Y-113176857D01*
X137842285Y-113962571D02*
X137128000Y-113962571D01*
X137128000Y-112462571D01*
X137842285Y-112462571D01*
X144569571Y-141688000D02*
X144569571Y-142545142D01*
X144569571Y-142116571D02*
X143069571Y-142116571D01*
X143283857Y-142259428D01*
X143426714Y-142402285D01*
X143498142Y-142545142D01*
X143998142Y-141045142D02*
X143998142Y-139902285D01*
X143569571Y-139330857D02*
X144569571Y-139045142D01*
X143855285Y-138759428D01*
X144569571Y-138473714D01*
X143569571Y-138188000D01*
X144569571Y-137616571D02*
X143569571Y-137616571D01*
X143069571Y-137616571D02*
X143141000Y-137688000D01*
X143212428Y-137616571D01*
X143141000Y-137545142D01*
X143069571Y-137616571D01*
X143212428Y-137616571D01*
X144569571Y-136902285D02*
X143569571Y-136902285D01*
X143855285Y-136902285D02*
X143712428Y-136830857D01*
X143641000Y-136759428D01*
X143569571Y-136616571D01*
X143569571Y-136473714D01*
X144498142Y-135402285D02*
X144569571Y-135545142D01*
X144569571Y-135830857D01*
X144498142Y-135973714D01*
X144355285Y-136045142D01*
X143783857Y-136045142D01*
X143641000Y-135973714D01*
X143569571Y-135830857D01*
X143569571Y-135545142D01*
X143641000Y-135402285D01*
X143783857Y-135330857D01*
X143926714Y-135330857D01*
X144069571Y-136045142D01*
X144291857Y-128825285D02*
X144291857Y-128325285D01*
X145077571Y-128111000D02*
X145077571Y-128825285D01*
X143577571Y-128825285D01*
X143577571Y-128111000D01*
X144934714Y-126611000D02*
X145006142Y-126682428D01*
X145077571Y-126896714D01*
X145077571Y-127039571D01*
X145006142Y-127253857D01*
X144863285Y-127396714D01*
X144720428Y-127468142D01*
X144434714Y-127539571D01*
X144220428Y-127539571D01*
X143934714Y-127468142D01*
X143791857Y-127396714D01*
X143649000Y-127253857D01*
X143577571Y-127039571D01*
X143577571Y-126896714D01*
X143649000Y-126682428D01*
X143720428Y-126611000D01*
X144506142Y-125968142D02*
X144506142Y-124825285D01*
X143577571Y-123396714D02*
X143577571Y-124111000D01*
X144291857Y-124182428D01*
X144220428Y-124111000D01*
X144149000Y-123968142D01*
X144149000Y-123611000D01*
X144220428Y-123468142D01*
X144291857Y-123396714D01*
X144434714Y-123325285D01*
X144791857Y-123325285D01*
X144934714Y-123396714D01*
X145006142Y-123468142D01*
X145077571Y-123611000D01*
X145077571Y-123968142D01*
X145006142Y-124111000D01*
X144934714Y-124182428D01*
X86276571Y-149443142D02*
X84776571Y-149443142D01*
X84776571Y-148871714D01*
X84848000Y-148728857D01*
X84919428Y-148657428D01*
X85062285Y-148586000D01*
X85276571Y-148586000D01*
X85419428Y-148657428D01*
X85490857Y-148728857D01*
X85562285Y-148871714D01*
X85562285Y-149443142D01*
X86205142Y-148014571D02*
X86276571Y-147800285D01*
X86276571Y-147443142D01*
X86205142Y-147300285D01*
X86133714Y-147228857D01*
X85990857Y-147157428D01*
X85848000Y-147157428D01*
X85705142Y-147228857D01*
X85633714Y-147300285D01*
X85562285Y-147443142D01*
X85490857Y-147728857D01*
X85419428Y-147871714D01*
X85348000Y-147943142D01*
X85205142Y-148014571D01*
X85062285Y-148014571D01*
X84919428Y-147943142D01*
X84848000Y-147871714D01*
X84776571Y-147728857D01*
X84776571Y-147371714D01*
X84848000Y-147157428D01*
X102556571Y-162178857D02*
X102556571Y-161321714D01*
X104056571Y-161750285D02*
X102556571Y-161750285D01*
X102556571Y-160964571D02*
X104056571Y-159964571D01*
X102556571Y-159964571D02*
X104056571Y-160964571D01*
X83482571Y-150665428D02*
X81982571Y-150665428D01*
X81982571Y-150308285D01*
X82054000Y-150094000D01*
X82196857Y-149951142D01*
X82339714Y-149879714D01*
X82625428Y-149808285D01*
X82839714Y-149808285D01*
X83125428Y-149879714D01*
X83268285Y-149951142D01*
X83411142Y-150094000D01*
X83482571Y-150308285D01*
X83482571Y-150665428D01*
X83482571Y-148379714D02*
X83482571Y-149236857D01*
X83482571Y-148808285D02*
X81982571Y-148808285D01*
X82196857Y-148951142D01*
X82339714Y-149094000D01*
X82411142Y-149236857D01*
X83482571Y-146951142D02*
X83482571Y-147808285D01*
X83482571Y-147379714D02*
X81982571Y-147379714D01*
X82196857Y-147522571D01*
X82339714Y-147665428D01*
X82411142Y-147808285D01*
X101770571Y-161286000D02*
X101056285Y-161786000D01*
X101770571Y-162143142D02*
X100270571Y-162143142D01*
X100270571Y-161571714D01*
X100342000Y-161428857D01*
X100413428Y-161357428D01*
X100556285Y-161286000D01*
X100770571Y-161286000D01*
X100913428Y-161357428D01*
X100984857Y-161428857D01*
X101056285Y-161571714D01*
X101056285Y-162143142D01*
X100270571Y-160786000D02*
X101770571Y-159786000D01*
X100270571Y-159786000D02*
X101770571Y-160786000D01*
X111676571Y-162143142D02*
X110176571Y-162143142D01*
X110176571Y-161571714D01*
X110248000Y-161428857D01*
X110319428Y-161357428D01*
X110462285Y-161286000D01*
X110676571Y-161286000D01*
X110819428Y-161357428D01*
X110890857Y-161428857D01*
X110962285Y-161571714D01*
X110962285Y-162143142D01*
X111605142Y-160714571D02*
X111676571Y-160500285D01*
X111676571Y-160143142D01*
X111605142Y-160000285D01*
X111533714Y-159928857D01*
X111390857Y-159857428D01*
X111248000Y-159857428D01*
X111105142Y-159928857D01*
X111033714Y-160000285D01*
X110962285Y-160143142D01*
X110890857Y-160428857D01*
X110819428Y-160571714D01*
X110748000Y-160643142D01*
X110605142Y-160714571D01*
X110462285Y-160714571D01*
X110319428Y-160643142D01*
X110248000Y-160571714D01*
X110176571Y-160428857D01*
X110176571Y-160071714D01*
X110248000Y-159857428D01*
X109136571Y-162750285D02*
X107636571Y-162750285D01*
X109136571Y-161893142D02*
X108279428Y-162536000D01*
X107636571Y-161893142D02*
X108493714Y-162750285D01*
X108350857Y-161250285D02*
X108350857Y-160750285D01*
X109136571Y-160536000D02*
X109136571Y-161250285D01*
X107636571Y-161250285D01*
X107636571Y-160536000D01*
X108422285Y-159607428D02*
X109136571Y-159607428D01*
X107636571Y-160107428D02*
X108422285Y-159607428D01*
X107636571Y-159107428D01*
X120408000Y-162178857D02*
X120336571Y-162321714D01*
X120336571Y-162536000D01*
X120408000Y-162750285D01*
X120550857Y-162893142D01*
X120693714Y-162964571D01*
X120979428Y-163036000D01*
X121193714Y-163036000D01*
X121479428Y-162964571D01*
X121622285Y-162893142D01*
X121765142Y-162750285D01*
X121836571Y-162536000D01*
X121836571Y-162393142D01*
X121765142Y-162178857D01*
X121693714Y-162107428D01*
X121193714Y-162107428D01*
X121193714Y-162393142D01*
X121836571Y-161464571D02*
X120336571Y-161464571D01*
X121836571Y-160607428D01*
X120336571Y-160607428D01*
X121836571Y-159893142D02*
X120336571Y-159893142D01*
X120336571Y-159536000D01*
X120408000Y-159321714D01*
X120550857Y-159178857D01*
X120693714Y-159107428D01*
X120979428Y-159036000D01*
X121193714Y-159036000D01*
X121479428Y-159107428D01*
X121622285Y-159178857D01*
X121765142Y-159321714D01*
X121836571Y-159536000D01*
X121836571Y-159893142D01*
X123590857Y-161889142D02*
X123662285Y-161674857D01*
X123733714Y-161603428D01*
X123876571Y-161532000D01*
X124090857Y-161532000D01*
X124233714Y-161603428D01*
X124305142Y-161674857D01*
X124376571Y-161817714D01*
X124376571Y-162389142D01*
X122876571Y-162389142D01*
X122876571Y-161889142D01*
X122948000Y-161746285D01*
X123019428Y-161674857D01*
X123162285Y-161603428D01*
X123305142Y-161603428D01*
X123448000Y-161674857D01*
X123519428Y-161746285D01*
X123590857Y-161889142D01*
X123590857Y-162389142D01*
X123948000Y-160960571D02*
X123948000Y-160246285D01*
X124376571Y-161103428D02*
X122876571Y-160603428D01*
X124376571Y-160103428D01*
X122876571Y-159817714D02*
X122876571Y-158960571D01*
X124376571Y-159389142D02*
X122876571Y-159389142D01*
X94936571Y-162932857D02*
X96436571Y-162432857D01*
X94936571Y-161932857D01*
X96436571Y-161432857D02*
X94936571Y-161432857D01*
X94936571Y-160432857D02*
X94936571Y-160147142D01*
X95008000Y-160004285D01*
X95150857Y-159861428D01*
X95436571Y-159790000D01*
X95936571Y-159790000D01*
X96222285Y-159861428D01*
X96365142Y-160004285D01*
X96436571Y-160147142D01*
X96436571Y-160432857D01*
X96365142Y-160575714D01*
X96222285Y-160718571D01*
X95936571Y-160790000D01*
X95436571Y-160790000D01*
X95150857Y-160718571D01*
X95008000Y-160575714D01*
X94936571Y-160432857D01*
X120332714Y-151681571D02*
X120332714Y-150181571D01*
X121189857Y-151681571D02*
X120547000Y-150824428D01*
X121189857Y-150181571D02*
X120332714Y-151038714D01*
X121832714Y-150895857D02*
X122332714Y-150895857D01*
X122547000Y-151681571D02*
X121832714Y-151681571D01*
X121832714Y-150181571D01*
X122547000Y-150181571D01*
X123475571Y-150967285D02*
X123475571Y-151681571D01*
X122975571Y-150181571D02*
X123475571Y-150967285D01*
X123975571Y-150181571D01*
X120904142Y-147713000D02*
X120761285Y-147641571D01*
X120547000Y-147641571D01*
X120332714Y-147713000D01*
X120189857Y-147855857D01*
X120118428Y-147998714D01*
X120047000Y-148284428D01*
X120047000Y-148498714D01*
X120118428Y-148784428D01*
X120189857Y-148927285D01*
X120332714Y-149070142D01*
X120547000Y-149141571D01*
X120689857Y-149141571D01*
X120904142Y-149070142D01*
X120975571Y-148998714D01*
X120975571Y-148498714D01*
X120689857Y-148498714D01*
X121618428Y-149141571D02*
X121618428Y-147641571D01*
X122475571Y-149141571D01*
X122475571Y-147641571D01*
X123189857Y-149141571D02*
X123189857Y-147641571D01*
X123547000Y-147641571D01*
X123761285Y-147713000D01*
X123904142Y-147855857D01*
X123975571Y-147998714D01*
X124047000Y-148284428D01*
X124047000Y-148498714D01*
X123975571Y-148784428D01*
X123904142Y-148927285D01*
X123761285Y-149070142D01*
X123547000Y-149141571D01*
X123189857Y-149141571D01*
X120225571Y-146601571D02*
X120225571Y-145101571D01*
X120582714Y-145101571D01*
X120797000Y-145173000D01*
X120939857Y-145315857D01*
X121011285Y-145458714D01*
X121082714Y-145744428D01*
X121082714Y-145958714D01*
X121011285Y-146244428D01*
X120939857Y-146387285D01*
X120797000Y-146530142D01*
X120582714Y-146601571D01*
X120225571Y-146601571D01*
X122511285Y-146601571D02*
X121654142Y-146601571D01*
X122082714Y-146601571D02*
X122082714Y-145101571D01*
X121939857Y-145315857D01*
X121797000Y-145458714D01*
X121654142Y-145530142D01*
X123082714Y-145244428D02*
X123154142Y-145173000D01*
X123297000Y-145101571D01*
X123654142Y-145101571D01*
X123797000Y-145173000D01*
X123868428Y-145244428D01*
X123939857Y-145387285D01*
X123939857Y-145530142D01*
X123868428Y-145744428D01*
X123011285Y-146601571D01*
X123939857Y-146601571D01*
X132342142Y-101921571D02*
X132842142Y-103421571D01*
X133342142Y-101921571D01*
X133842142Y-103421571D02*
X133842142Y-101921571D01*
X134556428Y-103421571D02*
X134556428Y-101921571D01*
X135413571Y-103421571D01*
X135413571Y-101921571D01*
X133350142Y-104533000D02*
X133207285Y-104461571D01*
X132993000Y-104461571D01*
X132778714Y-104533000D01*
X132635857Y-104675857D01*
X132564428Y-104818714D01*
X132493000Y-105104428D01*
X132493000Y-105318714D01*
X132564428Y-105604428D01*
X132635857Y-105747285D01*
X132778714Y-105890142D01*
X132993000Y-105961571D01*
X133135857Y-105961571D01*
X133350142Y-105890142D01*
X133421571Y-105818714D01*
X133421571Y-105318714D01*
X133135857Y-105318714D01*
X134064428Y-105961571D02*
X134064428Y-104461571D01*
X134921571Y-105961571D01*
X134921571Y-104461571D01*
X135635857Y-105961571D02*
X135635857Y-104461571D01*
X135993000Y-104461571D01*
X136207285Y-104533000D01*
X136350142Y-104675857D01*
X136421571Y-104818714D01*
X136493000Y-105104428D01*
X136493000Y-105318714D01*
X136421571Y-105604428D01*
X136350142Y-105747285D01*
X136207285Y-105890142D01*
X135993000Y-105961571D01*
X135635857Y-105961571D01*
X132544714Y-108755571D02*
X132544714Y-107255571D01*
X132901857Y-107255571D01*
X133116142Y-107327000D01*
X133259000Y-107469857D01*
X133330428Y-107612714D01*
X133401857Y-107898428D01*
X133401857Y-108112714D01*
X133330428Y-108398428D01*
X133259000Y-108541285D01*
X133116142Y-108684142D01*
X132901857Y-108755571D01*
X132544714Y-108755571D01*
X134044714Y-107969857D02*
X134544714Y-107969857D01*
X134759000Y-108755571D02*
X134044714Y-108755571D01*
X134044714Y-107255571D01*
X134759000Y-107255571D01*
X136116142Y-108755571D02*
X135401857Y-108755571D01*
X135401857Y-107255571D01*
X136544714Y-108327000D02*
X137259000Y-108327000D01*
X136401857Y-108755571D02*
X136901857Y-107255571D01*
X137401857Y-108755571D01*
X138187571Y-108041285D02*
X138187571Y-108755571D01*
X137687571Y-107255571D02*
X138187571Y-108041285D01*
X138687571Y-107255571D01*
X132453285Y-111295571D02*
X132453285Y-109795571D01*
X132810428Y-109795571D01*
X133024714Y-109867000D01*
X133167571Y-110009857D01*
X133239000Y-110152714D01*
X133310428Y-110438428D01*
X133310428Y-110652714D01*
X133239000Y-110938428D01*
X133167571Y-111081285D01*
X133024714Y-111224142D01*
X132810428Y-111295571D01*
X132453285Y-111295571D01*
X134810428Y-111295571D02*
X134310428Y-110581285D01*
X133953285Y-111295571D02*
X133953285Y-109795571D01*
X134524714Y-109795571D01*
X134667571Y-109867000D01*
X134739000Y-109938428D01*
X134810428Y-110081285D01*
X134810428Y-110295571D01*
X134739000Y-110438428D01*
X134667571Y-110509857D01*
X134524714Y-110581285D01*
X133953285Y-110581285D01*
X135239000Y-109795571D02*
X135739000Y-111295571D01*
X136239000Y-109795571D01*
X127825714Y-99230571D02*
X127111428Y-99230571D01*
X127111428Y-97730571D01*
X128611428Y-97730571D02*
X128897142Y-97730571D01*
X129040000Y-97802000D01*
X129182857Y-97944857D01*
X129254285Y-98230571D01*
X129254285Y-98730571D01*
X129182857Y-99016285D01*
X129040000Y-99159142D01*
X128897142Y-99230571D01*
X128611428Y-99230571D01*
X128468571Y-99159142D01*
X128325714Y-99016285D01*
X128254285Y-98730571D01*
X128254285Y-98230571D01*
X128325714Y-97944857D01*
X128468571Y-97802000D01*
X128611428Y-97730571D01*
X129825714Y-98802000D02*
X130540000Y-98802000D01*
X129682857Y-99230571D02*
X130182857Y-97730571D01*
X130682857Y-99230571D01*
X131182857Y-99230571D02*
X131182857Y-97730571D01*
X131540000Y-97730571D01*
X131754285Y-97802000D01*
X131897142Y-97944857D01*
X131968571Y-98087714D01*
X132040000Y-98373428D01*
X132040000Y-98587714D01*
X131968571Y-98873428D01*
X131897142Y-99016285D01*
X131754285Y-99159142D01*
X131540000Y-99230571D01*
X131182857Y-99230571D01*
X121320857Y-98444857D02*
X121535142Y-98516285D01*
X121606571Y-98587714D01*
X121678000Y-98730571D01*
X121678000Y-98944857D01*
X121606571Y-99087714D01*
X121535142Y-99159142D01*
X121392285Y-99230571D01*
X120820857Y-99230571D01*
X120820857Y-97730571D01*
X121320857Y-97730571D01*
X121463714Y-97802000D01*
X121535142Y-97873428D01*
X121606571Y-98016285D01*
X121606571Y-98159142D01*
X121535142Y-98302000D01*
X121463714Y-98373428D01*
X121320857Y-98444857D01*
X120820857Y-98444857D01*
X122249428Y-98802000D02*
X122963714Y-98802000D01*
X122106571Y-99230571D02*
X122606571Y-97730571D01*
X123106571Y-99230571D01*
X123392285Y-97730571D02*
X124249428Y-97730571D01*
X123820857Y-99230571D02*
X123820857Y-97730571D01*
X129297857Y-88785000D02*
X129155000Y-88713571D01*
X128940714Y-88713571D01*
X128726428Y-88785000D01*
X128583571Y-88927857D01*
X128512142Y-89070714D01*
X128440714Y-89356428D01*
X128440714Y-89570714D01*
X128512142Y-89856428D01*
X128583571Y-89999285D01*
X128726428Y-90142142D01*
X128940714Y-90213571D01*
X129083571Y-90213571D01*
X129297857Y-90142142D01*
X129369285Y-90070714D01*
X129369285Y-89570714D01*
X129083571Y-89570714D01*
X122947857Y-88785000D02*
X122805000Y-88713571D01*
X122590714Y-88713571D01*
X122376428Y-88785000D01*
X122233571Y-88927857D01*
X122162142Y-89070714D01*
X122090714Y-89356428D01*
X122090714Y-89570714D01*
X122162142Y-89856428D01*
X122233571Y-89999285D01*
X122376428Y-90142142D01*
X122590714Y-90213571D01*
X122733571Y-90213571D01*
X122947857Y-90142142D01*
X123019285Y-90070714D01*
X123019285Y-89570714D01*
X122733571Y-89570714D01*
X128686571Y-113204000D02*
X128686571Y-113561142D01*
X126543714Y-113561142D01*
X126543714Y-113204000D01*
X126686571Y-112846857D02*
X126686571Y-111989714D01*
X128186571Y-112418285D02*
X126686571Y-112418285D01*
X128186571Y-111489714D02*
X126686571Y-111489714D01*
X126686571Y-110918285D01*
X126758000Y-110775428D01*
X126829428Y-110704000D01*
X126972285Y-110632571D01*
X127186571Y-110632571D01*
X127329428Y-110704000D01*
X127400857Y-110775428D01*
X127472285Y-110918285D01*
X127472285Y-111489714D01*
X128186571Y-109275428D02*
X128186571Y-109989714D01*
X126686571Y-109989714D01*
X126686571Y-108061142D02*
X126686571Y-108775428D01*
X127400857Y-108846857D01*
X127329428Y-108775428D01*
X127258000Y-108632571D01*
X127258000Y-108275428D01*
X127329428Y-108132571D01*
X127400857Y-108061142D01*
X127543714Y-107989714D01*
X127900857Y-107989714D01*
X128043714Y-108061142D01*
X128115142Y-108132571D01*
X128186571Y-108275428D01*
X128186571Y-108632571D01*
X128115142Y-108775428D01*
X128043714Y-108846857D01*
X128186571Y-106561142D02*
X128186571Y-107418285D01*
X128186571Y-106989714D02*
X126686571Y-106989714D01*
X126900857Y-107132571D01*
X127043714Y-107275428D01*
X127115142Y-107418285D01*
X128186571Y-105132571D02*
X128186571Y-105989714D01*
X128186571Y-105561142D02*
X126686571Y-105561142D01*
X126900857Y-105704000D01*
X127043714Y-105846857D01*
X127115142Y-105989714D01*
X128186571Y-103704000D02*
X128186571Y-104561142D01*
X128186571Y-104132571D02*
X126686571Y-104132571D01*
X126900857Y-104275428D01*
X127043714Y-104418285D01*
X127115142Y-104561142D01*
X128686571Y-103204000D02*
X128686571Y-102846857D01*
X126543714Y-102846857D01*
X126543714Y-103204000D01*
X93151971Y-112933085D02*
X93151971Y-113290228D01*
X91009114Y-113290228D01*
X91009114Y-112933085D01*
X91651971Y-112575942D02*
X91651971Y-112004514D01*
X92651971Y-112361657D02*
X91366257Y-112361657D01*
X91223400Y-112290228D01*
X91151971Y-112147371D01*
X91151971Y-112004514D01*
X92580542Y-110933085D02*
X92651971Y-111075942D01*
X92651971Y-111361657D01*
X92580542Y-111504514D01*
X92437685Y-111575942D01*
X91866257Y-111575942D01*
X91723400Y-111504514D01*
X91651971Y-111361657D01*
X91651971Y-111075942D01*
X91723400Y-110933085D01*
X91866257Y-110861657D01*
X92009114Y-110861657D01*
X92151971Y-111575942D01*
X92651971Y-109575942D02*
X91866257Y-109575942D01*
X91723400Y-109647371D01*
X91651971Y-109790228D01*
X91651971Y-110075942D01*
X91723400Y-110218800D01*
X92580542Y-109575942D02*
X92651971Y-109718800D01*
X92651971Y-110075942D01*
X92580542Y-110218800D01*
X92437685Y-110290228D01*
X92294828Y-110290228D01*
X92151971Y-110218800D01*
X92080542Y-110075942D01*
X92080542Y-109718800D01*
X92009114Y-109575942D01*
X91651971Y-109075942D02*
X91651971Y-108504514D01*
X91151971Y-108861657D02*
X92437685Y-108861657D01*
X92580542Y-108790228D01*
X92651971Y-108647371D01*
X92651971Y-108504514D01*
X92651971Y-108004514D02*
X91151971Y-108004514D01*
X92651971Y-107361657D02*
X91866257Y-107361657D01*
X91723400Y-107433085D01*
X91651971Y-107575942D01*
X91651971Y-107790228D01*
X91723400Y-107933085D01*
X91794828Y-108004514D01*
X92580542Y-106075942D02*
X92651971Y-106218800D01*
X92651971Y-106504514D01*
X92580542Y-106647371D01*
X92437685Y-106718800D01*
X91866257Y-106718800D01*
X91723400Y-106647371D01*
X91651971Y-106504514D01*
X91651971Y-106218800D01*
X91723400Y-106075942D01*
X91866257Y-106004514D01*
X92009114Y-106004514D01*
X92151971Y-106718800D01*
X92651971Y-105361657D02*
X91651971Y-105361657D01*
X91937685Y-105361657D02*
X91794828Y-105290228D01*
X91723400Y-105218800D01*
X91651971Y-105075942D01*
X91651971Y-104933085D01*
X92651971Y-103075942D02*
X92580542Y-103218800D01*
X92437685Y-103290228D01*
X91151971Y-103290228D01*
X92651971Y-102290228D02*
X92580542Y-102433085D01*
X92509114Y-102504514D01*
X92366257Y-102575942D01*
X91937685Y-102575942D01*
X91794828Y-102504514D01*
X91723400Y-102433085D01*
X91651971Y-102290228D01*
X91651971Y-102075942D01*
X91723400Y-101933085D01*
X91794828Y-101861657D01*
X91937685Y-101790228D01*
X92366257Y-101790228D01*
X92509114Y-101861657D01*
X92580542Y-101933085D01*
X92651971Y-102075942D01*
X92651971Y-102290228D01*
X92651971Y-101147371D02*
X91651971Y-101147371D01*
X91937685Y-101147371D02*
X91794828Y-101075942D01*
X91723400Y-101004514D01*
X91651971Y-100861657D01*
X91651971Y-100718800D01*
X92651971Y-99575942D02*
X91866257Y-99575942D01*
X91723400Y-99647371D01*
X91651971Y-99790228D01*
X91651971Y-100075942D01*
X91723400Y-100218800D01*
X92580542Y-99575942D02*
X92651971Y-99718800D01*
X92651971Y-100075942D01*
X92580542Y-100218800D01*
X92437685Y-100290228D01*
X92294828Y-100290228D01*
X92151971Y-100218800D01*
X92080542Y-100075942D01*
X92080542Y-99718800D01*
X92009114Y-99575942D01*
X93151971Y-99004514D02*
X93151971Y-98647371D01*
X91009114Y-98647371D01*
X91009114Y-99004514D01*
X119542571Y-103250285D02*
X119542571Y-103607428D01*
X117399714Y-103607428D01*
X117399714Y-103250285D01*
X118971142Y-102750285D02*
X119042571Y-102607428D01*
X119042571Y-102321714D01*
X118971142Y-102178857D01*
X118828285Y-102107428D01*
X118756857Y-102107428D01*
X118614000Y-102178857D01*
X118542571Y-102321714D01*
X118542571Y-102536000D01*
X118471142Y-102678857D01*
X118328285Y-102750285D01*
X118256857Y-102750285D01*
X118114000Y-102678857D01*
X118042571Y-102536000D01*
X118042571Y-102321714D01*
X118114000Y-102178857D01*
X119042571Y-101250285D02*
X118971142Y-101393142D01*
X118899714Y-101464571D01*
X118756857Y-101536000D01*
X118328285Y-101536000D01*
X118185428Y-101464571D01*
X118114000Y-101393142D01*
X118042571Y-101250285D01*
X118042571Y-101036000D01*
X118114000Y-100893142D01*
X118185428Y-100821714D01*
X118328285Y-100750285D01*
X118756857Y-100750285D01*
X118899714Y-100821714D01*
X118971142Y-100893142D01*
X119042571Y-101036000D01*
X119042571Y-101250285D01*
X119042571Y-99893142D02*
X118971142Y-100036000D01*
X118828285Y-100107428D01*
X117542571Y-100107428D01*
X119042571Y-98678857D02*
X118256857Y-98678857D01*
X118114000Y-98750285D01*
X118042571Y-98893142D01*
X118042571Y-99178857D01*
X118114000Y-99321714D01*
X118971142Y-98678857D02*
X119042571Y-98821714D01*
X119042571Y-99178857D01*
X118971142Y-99321714D01*
X118828285Y-99393142D01*
X118685428Y-99393142D01*
X118542571Y-99321714D01*
X118471142Y-99178857D01*
X118471142Y-98821714D01*
X118399714Y-98678857D01*
X119042571Y-97964571D02*
X118042571Y-97964571D01*
X118328285Y-97964571D02*
X118185428Y-97893142D01*
X118114000Y-97821714D01*
X118042571Y-97678857D01*
X118042571Y-97536000D01*
X119042571Y-95678857D02*
X118971142Y-95821714D01*
X118828285Y-95893142D01*
X117542571Y-95893142D01*
X119042571Y-95107428D02*
X118042571Y-95107428D01*
X117542571Y-95107428D02*
X117614000Y-95178857D01*
X117685428Y-95107428D01*
X117614000Y-95036000D01*
X117542571Y-95107428D01*
X117685428Y-95107428D01*
X118042571Y-94393142D02*
X119542571Y-94393142D01*
X118114000Y-94393142D02*
X118042571Y-94250285D01*
X118042571Y-93964571D01*
X118114000Y-93821714D01*
X118185428Y-93750285D01*
X118328285Y-93678857D01*
X118756857Y-93678857D01*
X118899714Y-93750285D01*
X118971142Y-93821714D01*
X119042571Y-93964571D01*
X119042571Y-94250285D01*
X118971142Y-94393142D01*
X119042571Y-92821714D02*
X118971142Y-92964571D01*
X118899714Y-93036000D01*
X118756857Y-93107428D01*
X118328285Y-93107428D01*
X118185428Y-93036000D01*
X118114000Y-92964571D01*
X118042571Y-92821714D01*
X118042571Y-92607428D01*
X118114000Y-92464571D01*
X118185428Y-92393142D01*
X118328285Y-92321714D01*
X118756857Y-92321714D01*
X118899714Y-92393142D01*
X118971142Y-92464571D01*
X119042571Y-92607428D01*
X119042571Y-92821714D01*
X119542571Y-91821714D02*
X119542571Y-91464571D01*
X117399714Y-91464571D01*
X117399714Y-91821714D01*
X129738571Y-123567000D02*
X130452857Y-123567000D01*
X129595714Y-123995571D02*
X130095714Y-122495571D01*
X130595714Y-123995571D01*
X131381428Y-122495571D02*
X131524285Y-122495571D01*
X131667142Y-122567000D01*
X131738571Y-122638428D01*
X131810000Y-122781285D01*
X131881428Y-123067000D01*
X131881428Y-123424142D01*
X131810000Y-123709857D01*
X131738571Y-123852714D01*
X131667142Y-123924142D01*
X131524285Y-123995571D01*
X131381428Y-123995571D01*
X131238571Y-123924142D01*
X131167142Y-123852714D01*
X131095714Y-123709857D01*
X131024285Y-123424142D01*
X131024285Y-123067000D01*
X131095714Y-122781285D01*
X131167142Y-122638428D01*
X131238571Y-122567000D01*
X131381428Y-122495571D01*
X128825857Y-128464571D02*
X129754428Y-128464571D01*
X129254428Y-129036000D01*
X129468714Y-129036000D01*
X129611571Y-129107428D01*
X129683000Y-129178857D01*
X129754428Y-129321714D01*
X129754428Y-129678857D01*
X129683000Y-129821714D01*
X129611571Y-129893142D01*
X129468714Y-129964571D01*
X129040142Y-129964571D01*
X128897285Y-129893142D01*
X128825857Y-129821714D01*
X130183000Y-128464571D02*
X130683000Y-129964571D01*
X131183000Y-128464571D01*
X131540142Y-128464571D02*
X132468714Y-128464571D01*
X131968714Y-129036000D01*
X132183000Y-129036000D01*
X132325857Y-129107428D01*
X132397285Y-129178857D01*
X132468714Y-129321714D01*
X132468714Y-129678857D01*
X132397285Y-129821714D01*
X132325857Y-129893142D01*
X132183000Y-129964571D01*
X131754428Y-129964571D01*
X131611571Y-129893142D01*
X131540142Y-129821714D01*
X130948857Y-125488000D02*
X130806000Y-125416571D01*
X130591714Y-125416571D01*
X130377428Y-125488000D01*
X130234571Y-125630857D01*
X130163142Y-125773714D01*
X130091714Y-126059428D01*
X130091714Y-126273714D01*
X130163142Y-126559428D01*
X130234571Y-126702285D01*
X130377428Y-126845142D01*
X130591714Y-126916571D01*
X130734571Y-126916571D01*
X130948857Y-126845142D01*
X131020285Y-126773714D01*
X131020285Y-126273714D01*
X130734571Y-126273714D01*
X129956857Y-142791571D02*
X129956857Y-141291571D01*
X130314000Y-141291571D01*
X130528285Y-141363000D01*
X130671142Y-141505857D01*
X130742571Y-141648714D01*
X130814000Y-141934428D01*
X130814000Y-142148714D01*
X130742571Y-142434428D01*
X130671142Y-142577285D01*
X130528285Y-142720142D01*
X130314000Y-142791571D01*
X129956857Y-142791571D01*
X132171142Y-141291571D02*
X131456857Y-141291571D01*
X131385428Y-142005857D01*
X131456857Y-141934428D01*
X131599714Y-141863000D01*
X131956857Y-141863000D01*
X132099714Y-141934428D01*
X132171142Y-142005857D01*
X132242571Y-142148714D01*
X132242571Y-142505857D01*
X132171142Y-142648714D01*
X132099714Y-142720142D01*
X131956857Y-142791571D01*
X131599714Y-142791571D01*
X131456857Y-142720142D01*
X131385428Y-142648714D01*
X129079857Y-138243571D02*
X130008428Y-138243571D01*
X129508428Y-138815000D01*
X129722714Y-138815000D01*
X129865571Y-138886428D01*
X129937000Y-138957857D01*
X130008428Y-139100714D01*
X130008428Y-139457857D01*
X129937000Y-139600714D01*
X129865571Y-139672142D01*
X129722714Y-139743571D01*
X129294142Y-139743571D01*
X129151285Y-139672142D01*
X129079857Y-139600714D01*
X130437000Y-138243571D02*
X130937000Y-139743571D01*
X131437000Y-138243571D01*
X131794142Y-138243571D02*
X132722714Y-138243571D01*
X132222714Y-138815000D01*
X132437000Y-138815000D01*
X132579857Y-138886428D01*
X132651285Y-138957857D01*
X132722714Y-139100714D01*
X132722714Y-139457857D01*
X132651285Y-139600714D01*
X132579857Y-139672142D01*
X132437000Y-139743571D01*
X132008428Y-139743571D01*
X131865571Y-139672142D01*
X131794142Y-139600714D01*
X130948857Y-135267000D02*
X130806000Y-135195571D01*
X130591714Y-135195571D01*
X130377428Y-135267000D01*
X130234571Y-135409857D01*
X130163142Y-135552714D01*
X130091714Y-135838428D01*
X130091714Y-136052714D01*
X130163142Y-136338428D01*
X130234571Y-136481285D01*
X130377428Y-136624142D01*
X130591714Y-136695571D01*
X130734571Y-136695571D01*
X130948857Y-136624142D01*
X131020285Y-136552714D01*
X131020285Y-136052714D01*
X130734571Y-136052714D01*
X136168285Y-90872571D02*
X136454000Y-90872571D01*
X136596857Y-90944000D01*
X136739714Y-91086857D01*
X136811142Y-91372571D01*
X136811142Y-91872571D01*
X136739714Y-92158285D01*
X136596857Y-92301142D01*
X136454000Y-92372571D01*
X136168285Y-92372571D01*
X136025428Y-92301142D01*
X135882571Y-92158285D01*
X135811142Y-91872571D01*
X135811142Y-91372571D01*
X135882571Y-91086857D01*
X136025428Y-90944000D01*
X136168285Y-90872571D01*
X137954000Y-91586857D02*
X137454000Y-91586857D01*
X137454000Y-92372571D02*
X137454000Y-90872571D01*
X138168285Y-90872571D01*
X139239714Y-91586857D02*
X138739714Y-91586857D01*
X138739714Y-92372571D02*
X138739714Y-90872571D01*
X139454000Y-90872571D01*
X141096857Y-90801142D02*
X139811142Y-92729714D01*
X141882571Y-90872571D02*
X142168285Y-90872571D01*
X142311142Y-90944000D01*
X142454000Y-91086857D01*
X142525428Y-91372571D01*
X142525428Y-91872571D01*
X142454000Y-92158285D01*
X142311142Y-92301142D01*
X142168285Y-92372571D01*
X141882571Y-92372571D01*
X141739714Y-92301142D01*
X141596857Y-92158285D01*
X141525428Y-91872571D01*
X141525428Y-91372571D01*
X141596857Y-91086857D01*
X141739714Y-90944000D01*
X141882571Y-90872571D01*
X143168285Y-92372571D02*
X143168285Y-90872571D01*
X144025428Y-92372571D01*
X144025428Y-90872571D01*
X295588571Y-114894285D02*
X297088571Y-114894285D01*
X295660000Y-114894285D02*
X295588571Y-114751428D01*
X295588571Y-114465714D01*
X295660000Y-114322857D01*
X295731428Y-114251428D01*
X295874285Y-114180000D01*
X296302857Y-114180000D01*
X296445714Y-114251428D01*
X296517142Y-114322857D01*
X296588571Y-114465714D01*
X296588571Y-114751428D01*
X296517142Y-114894285D01*
X295588571Y-113680000D02*
X296588571Y-113322857D01*
X295588571Y-112965714D01*
X296588571Y-112180000D02*
X296517142Y-112322857D01*
X296445714Y-112394285D01*
X296302857Y-112465714D01*
X295874285Y-112465714D01*
X295731428Y-112394285D01*
X295660000Y-112322857D01*
X295588571Y-112180000D01*
X295588571Y-111965714D01*
X295660000Y-111822857D01*
X295731428Y-111751428D01*
X295874285Y-111680000D01*
X296302857Y-111680000D01*
X296445714Y-111751428D01*
X296517142Y-111822857D01*
X296588571Y-111965714D01*
X296588571Y-112180000D01*
X296517142Y-111108571D02*
X296588571Y-110965714D01*
X296588571Y-110680000D01*
X296517142Y-110537142D01*
X296374285Y-110465714D01*
X296302857Y-110465714D01*
X296160000Y-110537142D01*
X296088571Y-110680000D01*
X296088571Y-110894285D01*
X296017142Y-111037142D01*
X295874285Y-111108571D01*
X295802857Y-111108571D01*
X295660000Y-111037142D01*
X295588571Y-110894285D01*
X295588571Y-110680000D01*
X295660000Y-110537142D01*
X296445714Y-109822857D02*
X296517142Y-109751428D01*
X296588571Y-109822857D01*
X296517142Y-109894285D01*
X296445714Y-109822857D01*
X296588571Y-109822857D01*
X296588571Y-108894285D02*
X296517142Y-109037142D01*
X296445714Y-109108571D01*
X296302857Y-109180000D01*
X295874285Y-109180000D01*
X295731428Y-109108571D01*
X295660000Y-109037142D01*
X295588571Y-108894285D01*
X295588571Y-108680000D01*
X295660000Y-108537142D01*
X295731428Y-108465714D01*
X295874285Y-108394285D01*
X296302857Y-108394285D01*
X296445714Y-108465714D01*
X296517142Y-108537142D01*
X296588571Y-108680000D01*
X296588571Y-108894285D01*
X296588571Y-107751428D02*
X295588571Y-107751428D01*
X295874285Y-107751428D02*
X295731428Y-107680000D01*
X295660000Y-107608571D01*
X295588571Y-107465714D01*
X295588571Y-107322857D01*
X295588571Y-106180000D02*
X296802857Y-106180000D01*
X296945714Y-106251428D01*
X297017142Y-106322857D01*
X297088571Y-106465714D01*
X297088571Y-106680000D01*
X297017142Y-106822857D01*
X296517142Y-106180000D02*
X296588571Y-106322857D01*
X296588571Y-106608571D01*
X296517142Y-106751428D01*
X296445714Y-106822857D01*
X296302857Y-106894285D01*
X295874285Y-106894285D01*
X295731428Y-106822857D01*
X295660000Y-106751428D01*
X295588571Y-106608571D01*
X295588571Y-106322857D01*
X295660000Y-106180000D01*
X295017142Y-104394285D02*
X296945714Y-105680000D01*
X296588571Y-103894285D02*
X295088571Y-103894285D01*
X296017142Y-103751428D02*
X296588571Y-103322857D01*
X295588571Y-103322857D02*
X296160000Y-103894285D01*
X295588571Y-102680000D02*
X296588571Y-102680000D01*
X295731428Y-102680000D02*
X295660000Y-102608571D01*
X295588571Y-102465714D01*
X295588571Y-102251428D01*
X295660000Y-102108571D01*
X295802857Y-102037142D01*
X296588571Y-102037142D01*
X295588571Y-100680000D02*
X296588571Y-100680000D01*
X295588571Y-101322857D02*
X296374285Y-101322857D01*
X296517142Y-101251428D01*
X296588571Y-101108571D01*
X296588571Y-100894285D01*
X296517142Y-100751428D01*
X296445714Y-100680000D01*
X295588571Y-100180000D02*
X295588571Y-99608571D01*
X295088571Y-99965714D02*
X296374285Y-99965714D01*
X296517142Y-99894285D01*
X296588571Y-99751428D01*
X296588571Y-99608571D01*
X296588571Y-99108571D02*
X295088571Y-99108571D01*
X296588571Y-98465714D02*
X295802857Y-98465714D01*
X295660000Y-98537142D01*
X295588571Y-98680000D01*
X295588571Y-98894285D01*
X295660000Y-99037142D01*
X295731428Y-99108571D01*
X76370571Y-153646571D02*
X74870571Y-153646571D01*
X76370571Y-152789428D02*
X75513428Y-153432285D01*
X74870571Y-152789428D02*
X75727714Y-153646571D01*
X75370571Y-152146571D02*
X76370571Y-152146571D01*
X75513428Y-152146571D02*
X75442000Y-152075142D01*
X75370571Y-151932285D01*
X75370571Y-151718000D01*
X75442000Y-151575142D01*
X75584857Y-151503714D01*
X76370571Y-151503714D01*
X75370571Y-150146571D02*
X76370571Y-150146571D01*
X75370571Y-150789428D02*
X76156285Y-150789428D01*
X76299142Y-150718000D01*
X76370571Y-150575142D01*
X76370571Y-150360857D01*
X76299142Y-150218000D01*
X76227714Y-150146571D01*
X75370571Y-149646571D02*
X75370571Y-149075142D01*
X74870571Y-149432285D02*
X76156285Y-149432285D01*
X76299142Y-149360857D01*
X76370571Y-149218000D01*
X76370571Y-149075142D01*
X76370571Y-148575142D02*
X74870571Y-148575142D01*
X76370571Y-147932285D02*
X75584857Y-147932285D01*
X75442000Y-148003714D01*
X75370571Y-148146571D01*
X75370571Y-148360857D01*
X75442000Y-148503714D01*
X75513428Y-148575142D01*
X76370571Y-145218000D02*
X75656285Y-145718000D01*
X76370571Y-146075142D02*
X74870571Y-146075142D01*
X74870571Y-145503714D01*
X74942000Y-145360857D01*
X75013428Y-145289428D01*
X75156285Y-145218000D01*
X75370571Y-145218000D01*
X75513428Y-145289428D01*
X75584857Y-145360857D01*
X75656285Y-145503714D01*
X75656285Y-146075142D01*
X76370571Y-143932285D02*
X75584857Y-143932285D01*
X75442000Y-144003714D01*
X75370571Y-144146571D01*
X75370571Y-144432285D01*
X75442000Y-144575142D01*
X76299142Y-143932285D02*
X76370571Y-144075142D01*
X76370571Y-144432285D01*
X76299142Y-144575142D01*
X76156285Y-144646571D01*
X76013428Y-144646571D01*
X75870571Y-144575142D01*
X75799142Y-144432285D01*
X75799142Y-144075142D01*
X75727714Y-143932285D01*
X75370571Y-143218000D02*
X76370571Y-143218000D01*
X75513428Y-143218000D02*
X75442000Y-143146571D01*
X75370571Y-143003714D01*
X75370571Y-142789428D01*
X75442000Y-142646571D01*
X75584857Y-142575142D01*
X76370571Y-142575142D01*
X76299142Y-141218000D02*
X76370571Y-141360857D01*
X76370571Y-141646571D01*
X76299142Y-141789428D01*
X76227714Y-141860857D01*
X76084857Y-141932285D01*
X75656285Y-141932285D01*
X75513428Y-141860857D01*
X75442000Y-141789428D01*
X75370571Y-141646571D01*
X75370571Y-141360857D01*
X75442000Y-141218000D01*
X76370571Y-140575142D02*
X74870571Y-140575142D01*
X76370571Y-139932285D02*
X75584857Y-139932285D01*
X75442000Y-140003714D01*
X75370571Y-140146571D01*
X75370571Y-140360857D01*
X75442000Y-140503714D01*
X75513428Y-140575142D01*
X76227714Y-139218000D02*
X76299142Y-139146571D01*
X76370571Y-139218000D01*
X76299142Y-139289428D01*
X76227714Y-139218000D01*
X76370571Y-139218000D01*
X75442000Y-139218000D02*
X75513428Y-139146571D01*
X75584857Y-139218000D01*
X75513428Y-139289428D01*
X75442000Y-139218000D01*
X75584857Y-139218000D01*
X76227714Y-136503714D02*
X76299142Y-136575142D01*
X76370571Y-136789428D01*
X76370571Y-136932285D01*
X76299142Y-137146571D01*
X76156285Y-137289428D01*
X76013428Y-137360857D01*
X75727714Y-137432285D01*
X75513428Y-137432285D01*
X75227714Y-137360857D01*
X75084857Y-137289428D01*
X74942000Y-137146571D01*
X74870571Y-136932285D01*
X74870571Y-136789428D01*
X74942000Y-136575142D01*
X75013428Y-136503714D01*
X75584857Y-135860857D02*
X75584857Y-135360857D01*
X76370571Y-135146571D02*
X76370571Y-135860857D01*
X74870571Y-135860857D01*
X74870571Y-135146571D01*
X76370571Y-133789428D02*
X76370571Y-134503714D01*
X74870571Y-134503714D01*
X76370571Y-132575142D02*
X76370571Y-133289428D01*
X74870571Y-133289428D01*
X74870571Y-132075142D02*
X76084857Y-132075142D01*
X76227714Y-132003714D01*
X76299142Y-131932285D01*
X76370571Y-131789428D01*
X76370571Y-131503714D01*
X76299142Y-131360857D01*
X76227714Y-131289428D01*
X76084857Y-131218000D01*
X74870571Y-131218000D01*
X76370571Y-129789428D02*
X76370571Y-130503714D01*
X74870571Y-130503714D01*
X75942000Y-129360857D02*
X75942000Y-128646571D01*
X76370571Y-129503714D02*
X74870571Y-129003714D01*
X76370571Y-128503714D01*
X76370571Y-127146571D02*
X75656285Y-127646571D01*
X76370571Y-128003714D02*
X74870571Y-128003714D01*
X74870571Y-127432285D01*
X74942000Y-127289428D01*
X75013428Y-127218000D01*
X75156285Y-127146571D01*
X75370571Y-127146571D01*
X75513428Y-127218000D01*
X75584857Y-127289428D01*
X75656285Y-127432285D01*
X75656285Y-128003714D01*
X74942000Y-124575142D02*
X74870571Y-124718000D01*
X74870571Y-124932285D01*
X74942000Y-125146571D01*
X75084857Y-125289428D01*
X75227714Y-125360857D01*
X75513428Y-125432285D01*
X75727714Y-125432285D01*
X76013428Y-125360857D01*
X76156285Y-125289428D01*
X76299142Y-125146571D01*
X76370571Y-124932285D01*
X76370571Y-124789428D01*
X76299142Y-124575142D01*
X76227714Y-124503714D01*
X75727714Y-124503714D01*
X75727714Y-124789428D01*
X75942000Y-123932285D02*
X75942000Y-123218000D01*
X76370571Y-124075142D02*
X74870571Y-123575142D01*
X76370571Y-123075142D01*
X74870571Y-122789428D02*
X74870571Y-121932285D01*
X76370571Y-122360857D02*
X74870571Y-122360857D01*
X75584857Y-121432285D02*
X75584857Y-120932285D01*
X76370571Y-120718000D02*
X76370571Y-121432285D01*
X74870571Y-121432285D01*
X74870571Y-120718000D01*
X74870571Y-120218000D02*
X76370571Y-119860857D01*
X75299142Y-119575142D01*
X76370571Y-119289428D01*
X74870571Y-118932285D01*
X75942000Y-118432285D02*
X75942000Y-117718000D01*
X76370571Y-118575142D02*
X74870571Y-118075142D01*
X76370571Y-117575142D01*
X75656285Y-116789428D02*
X76370571Y-116789428D01*
X74870571Y-117289428D02*
X75656285Y-116789428D01*
X74870571Y-116289428D01*
X75799142Y-114646571D02*
X75799142Y-113503714D01*
X76370571Y-114075142D02*
X75227714Y-114075142D01*
X75584857Y-111646571D02*
X75584857Y-111146571D01*
X76370571Y-110932285D02*
X76370571Y-111646571D01*
X74870571Y-111646571D01*
X74870571Y-110932285D01*
X76227714Y-109432285D02*
X76299142Y-109503714D01*
X76370571Y-109718000D01*
X76370571Y-109860857D01*
X76299142Y-110075142D01*
X76156285Y-110218000D01*
X76013428Y-110289428D01*
X75727714Y-110360857D01*
X75513428Y-110360857D01*
X75227714Y-110289428D01*
X75084857Y-110218000D01*
X74942000Y-110075142D01*
X74870571Y-109860857D01*
X74870571Y-109718000D01*
X74942000Y-109503714D01*
X75013428Y-109432285D01*
X75799142Y-108789428D02*
X75799142Y-107646571D01*
X74870571Y-106218000D02*
X74870571Y-106932285D01*
X75584857Y-107003714D01*
X75513428Y-106932285D01*
X75442000Y-106789428D01*
X75442000Y-106432285D01*
X75513428Y-106289428D01*
X75584857Y-106218000D01*
X75727714Y-106146571D01*
X76084857Y-106146571D01*
X76227714Y-106218000D01*
X76299142Y-106289428D01*
X76370571Y-106432285D01*
X76370571Y-106789428D01*
X76299142Y-106932285D01*
X76227714Y-107003714D01*
X76370571Y-103146571D02*
X76370571Y-103218000D01*
X76299142Y-103360857D01*
X76084857Y-103575142D01*
X75656285Y-103932285D01*
X75442000Y-104075142D01*
X75227714Y-104146571D01*
X75084857Y-104146571D01*
X74942000Y-104075142D01*
X74870571Y-103932285D01*
X74870571Y-103860857D01*
X74942000Y-103718000D01*
X75084857Y-103646571D01*
X75156285Y-103646571D01*
X75299142Y-103718000D01*
X75370571Y-103789428D01*
X75656285Y-104218000D01*
X75727714Y-104289428D01*
X75870571Y-104360857D01*
X76084857Y-104360857D01*
X76227714Y-104289428D01*
X76299142Y-104218000D01*
X76370571Y-104075142D01*
X76370571Y-103860857D01*
X76299142Y-103718000D01*
X76227714Y-103646571D01*
X75942000Y-103432285D01*
X75727714Y-103360857D01*
X75584857Y-103360857D01*
X74870571Y-101575142D02*
X74870571Y-100718000D01*
X76370571Y-101146571D02*
X74870571Y-101146571D01*
X76299142Y-99646571D02*
X76370571Y-99789428D01*
X76370571Y-100075142D01*
X76299142Y-100218000D01*
X76156285Y-100289428D01*
X75584857Y-100289428D01*
X75442000Y-100218000D01*
X75370571Y-100075142D01*
X75370571Y-99789428D01*
X75442000Y-99646571D01*
X75584857Y-99575142D01*
X75727714Y-99575142D01*
X75870571Y-100289428D01*
X76370571Y-98932285D02*
X75370571Y-98932285D01*
X75513428Y-98932285D02*
X75442000Y-98860857D01*
X75370571Y-98718000D01*
X75370571Y-98503714D01*
X75442000Y-98360857D01*
X75584857Y-98289428D01*
X76370571Y-98289428D01*
X75584857Y-98289428D02*
X75442000Y-98218000D01*
X75370571Y-98075142D01*
X75370571Y-97860857D01*
X75442000Y-97718000D01*
X75584857Y-97646571D01*
X76370571Y-97646571D01*
X75370571Y-96932285D02*
X76870571Y-96932285D01*
X75442000Y-96932285D02*
X75370571Y-96789428D01*
X75370571Y-96503714D01*
X75442000Y-96360857D01*
X75513428Y-96289428D01*
X75656285Y-96218000D01*
X76084857Y-96218000D01*
X76227714Y-96289428D01*
X76299142Y-96360857D01*
X76370571Y-96503714D01*
X76370571Y-96789428D01*
X76299142Y-96932285D01*
D11*
G04 #@! TO.C,R_Delay1*
X123130000Y-106426000D02*
X125790000Y-106426000D01*
X123130000Y-106426000D02*
X123130000Y-109026000D01*
X123130000Y-109026000D02*
X125790000Y-109026000D01*
X125790000Y-106426000D02*
X125790000Y-109026000D01*
X125790000Y-103826000D02*
X125790000Y-105156000D01*
X124460000Y-103826000D02*
X125790000Y-103826000D01*
G04 #@! TO.C,U4*
X128845000Y-104140000D02*
X131505000Y-104140000D01*
X128845000Y-104140000D02*
X128845000Y-114360000D01*
X128845000Y-114360000D02*
X131505000Y-114360000D01*
X131505000Y-104140000D02*
X131505000Y-114360000D01*
X131505000Y-101540000D02*
X131505000Y-102870000D01*
X130175000Y-101540000D02*
X131505000Y-101540000D01*
G04 #@! TO.C,1-Wire1*
X125730000Y-134687000D02*
X127060000Y-134687000D01*
X127060000Y-134687000D02*
X127060000Y-136017000D01*
X127060000Y-137287000D02*
X127060000Y-142427000D01*
X124400000Y-142427000D02*
X127060000Y-142427000D01*
X124400000Y-137287000D02*
X124400000Y-142427000D01*
X124400000Y-137287000D02*
X127060000Y-137287000D01*
G04 #@! TO.C,EC-5*
X124400000Y-124587000D02*
X127060000Y-124587000D01*
X124400000Y-124587000D02*
X124400000Y-129727000D01*
X124400000Y-129727000D02*
X127060000Y-129727000D01*
X127060000Y-124587000D02*
X127060000Y-129727000D01*
X127060000Y-121987000D02*
X127060000Y-123317000D01*
X125730000Y-121987000D02*
X127060000Y-121987000D01*
G04 #@! TO.C,J1*
X83753000Y-123190000D02*
X81093000Y-123190000D01*
X83753000Y-123190000D02*
X83753000Y-95190000D01*
X83753000Y-95190000D02*
X81093000Y-95190000D01*
X81093000Y-123190000D02*
X81093000Y-95190000D01*
X81093000Y-125790000D02*
X81093000Y-124460000D01*
X82423000Y-125790000D02*
X81093000Y-125790000D01*
G04 #@! TO.C,J2*
X104073000Y-133350000D02*
X101413000Y-133350000D01*
X104073000Y-133350000D02*
X104073000Y-95190000D01*
X104073000Y-95190000D02*
X101413000Y-95190000D01*
X101413000Y-133350000D02*
X101413000Y-95190000D01*
X101413000Y-135950000D02*
X101413000Y-134620000D01*
X102743000Y-135950000D02*
X101413000Y-135950000D01*
G04 #@! TO.C,RP1*
X114085500Y-139350500D02*
X113755500Y-139350500D01*
X113755500Y-139350500D02*
X113755500Y-132810500D01*
X113755500Y-132810500D02*
X114085500Y-132810500D01*
X116165500Y-139350500D02*
X116495500Y-139350500D01*
X116495500Y-139350500D02*
X116495500Y-132810500D01*
X116495500Y-132810500D02*
X116165500Y-132810500D01*
G04 #@! TO.C,J3*
X122872500Y-96453000D02*
X121542500Y-96453000D01*
X121542500Y-96453000D02*
X121542500Y-95123000D01*
X121542500Y-93853000D02*
X121542500Y-91253000D01*
X124202500Y-91253000D02*
X121542500Y-91253000D01*
X124202500Y-93853000D02*
X124202500Y-91253000D01*
X124202500Y-93853000D02*
X121542500Y-93853000D01*
G04 #@! TO.C,J4*
X130044500Y-93853000D02*
X127384500Y-93853000D01*
X130044500Y-93853000D02*
X130044500Y-91253000D01*
X130044500Y-91253000D02*
X127384500Y-91253000D01*
X127384500Y-93853000D02*
X127384500Y-91253000D01*
X127384500Y-96453000D02*
X127384500Y-95123000D01*
X128714500Y-96453000D02*
X127384500Y-96453000D01*
G04 #@! TO.C,J5*
X143697000Y-95123000D02*
X143697000Y-96453000D01*
X143697000Y-96453000D02*
X142367000Y-96453000D01*
X141097000Y-96453000D02*
X135957000Y-96453000D01*
X135957000Y-93793000D02*
X135957000Y-96453000D01*
X141097000Y-93793000D02*
X135957000Y-93793000D01*
X141097000Y-93793000D02*
X141097000Y-96453000D01*
G04 #@! TO.C,J6*
X116208500Y-147002500D02*
X118868500Y-147002500D01*
X116208500Y-147002500D02*
X116208500Y-152142500D01*
X116208500Y-152142500D02*
X118868500Y-152142500D01*
X118868500Y-147002500D02*
X118868500Y-152142500D01*
X118868500Y-144402500D02*
X118868500Y-145732500D01*
X117538500Y-144402500D02*
X118868500Y-144402500D01*
G04 #@! TO.C,J7*
X84201000Y-145919500D02*
X84201000Y-143259500D01*
X84201000Y-145919500D02*
X86801000Y-145919500D01*
X86801000Y-145919500D02*
X86801000Y-143259500D01*
X84201000Y-143259500D02*
X86801000Y-143259500D01*
X81601000Y-143259500D02*
X82931000Y-143259500D01*
X81601000Y-144589500D02*
X81601000Y-143259500D01*
G04 #@! TO.C,J8*
X141960000Y-144417000D02*
X141960000Y-144017000D01*
X141320000Y-144417000D02*
X141960000Y-144417000D01*
X138101000Y-136512000D02*
X138229000Y-136641000D01*
X135885000Y-134297000D02*
X135979000Y-134391000D01*
X138341000Y-136342000D02*
X138434000Y-136436000D01*
X136091000Y-134092000D02*
X136219000Y-134221000D01*
X138101000Y-140012000D02*
X138229000Y-140141000D01*
X135885000Y-137797000D02*
X135979000Y-137891000D01*
X138341000Y-139842000D02*
X138434000Y-139936000D01*
X136091000Y-137592000D02*
X136219000Y-137721000D01*
X134000000Y-133557000D02*
X141720000Y-133557000D01*
X134000000Y-144177000D02*
X141720000Y-144177000D01*
X141720000Y-144177000D02*
X141720000Y-133557000D01*
X134000000Y-144177000D02*
X134000000Y-133557000D01*
X140160000Y-144177000D02*
X140160000Y-133557000D01*
X141260000Y-144177000D02*
X141260000Y-133557000D01*
X138840000Y-135367000D02*
G75*
G03X138840000Y-135367000I-1680000J0D01*
G01*
X138840000Y-138867000D02*
G75*
G03X138840000Y-138867000I-1680000J0D01*
G01*
X138840099Y-142338326D02*
G75*
G02X138600000Y-143233000I-1680099J-28674D01*
G01*
X138049894Y-143792358D02*
G75*
G02X136294000Y-143807000I-889894J1425358D01*
G01*
X135734642Y-143256894D02*
G75*
G02X135720000Y-141501000I1425358J889894D01*
G01*
X136269807Y-140941495D02*
G75*
G02X138051000Y-140942000I890193J-1425505D01*
G01*
X138584721Y-141476736D02*
G75*
G02X138840000Y-142367000I-1424721J-890264D01*
G01*
G04 #@! TO.C,J9*
X138584721Y-128776736D02*
G75*
G02X138840000Y-129667000I-1424721J-890264D01*
G01*
X136269807Y-128241495D02*
G75*
G02X138051000Y-128242000I890193J-1425505D01*
G01*
X135734642Y-130556894D02*
G75*
G02X135720000Y-128801000I1425358J889894D01*
G01*
X138049894Y-131092358D02*
G75*
G02X136294000Y-131107000I-889894J1425358D01*
G01*
X138840099Y-129638326D02*
G75*
G02X138600000Y-130533000I-1680099J-28674D01*
G01*
X138840000Y-126167000D02*
G75*
G03X138840000Y-126167000I-1680000J0D01*
G01*
X138840000Y-122667000D02*
G75*
G03X138840000Y-122667000I-1680000J0D01*
G01*
X141260000Y-131477000D02*
X141260000Y-120857000D01*
X140160000Y-131477000D02*
X140160000Y-120857000D01*
X134000000Y-131477000D02*
X134000000Y-120857000D01*
X141720000Y-131477000D02*
X141720000Y-120857000D01*
X134000000Y-131477000D02*
X141720000Y-131477000D01*
X134000000Y-120857000D02*
X141720000Y-120857000D01*
X136091000Y-124892000D02*
X136219000Y-125021000D01*
X138341000Y-127142000D02*
X138434000Y-127236000D01*
X135885000Y-125097000D02*
X135979000Y-125191000D01*
X138101000Y-127312000D02*
X138229000Y-127441000D01*
X136091000Y-121392000D02*
X136219000Y-121521000D01*
X138341000Y-123642000D02*
X138434000Y-123736000D01*
X135885000Y-121597000D02*
X135979000Y-121691000D01*
X138101000Y-123812000D02*
X138229000Y-123941000D01*
X141320000Y-131717000D02*
X141960000Y-131717000D01*
X141960000Y-131717000D02*
X141960000Y-131317000D01*
G04 #@! TO.C,U1*
X122428000Y-155769000D02*
X122428000Y-158429000D01*
X122428000Y-155769000D02*
X94428000Y-155769000D01*
X94428000Y-155769000D02*
X94428000Y-158429000D01*
X122428000Y-158429000D02*
X94428000Y-158429000D01*
X125028000Y-158429000D02*
X123698000Y-158429000D01*
X125028000Y-157099000D02*
X125028000Y-158429000D01*
G04 #@! TO.C,RD1*
X117130500Y-108490000D02*
X114390500Y-108490000D01*
X114390500Y-108490000D02*
X114390500Y-115030000D01*
X114390500Y-115030000D02*
X117130500Y-115030000D01*
X117130500Y-115030000D02*
X117130500Y-108490000D01*
X115760500Y-107720000D02*
X115760500Y-108490000D01*
X115760500Y-115800000D02*
X115760500Y-115030000D01*
G04 #@! TO.C,RD2*
X119443500Y-107720000D02*
X119443500Y-108490000D01*
X119443500Y-115800000D02*
X119443500Y-115030000D01*
X118073500Y-108490000D02*
X118073500Y-115030000D01*
X120813500Y-108490000D02*
X118073500Y-108490000D01*
X120813500Y-115030000D02*
X120813500Y-108490000D01*
X118073500Y-115030000D02*
X120813500Y-115030000D01*
G04 #@! TO.C,J11*
X105724000Y-80264000D02*
X103064000Y-80264000D01*
X105724000Y-80264000D02*
X105724000Y-77664000D01*
X105724000Y-77664000D02*
X103064000Y-77664000D01*
X103064000Y-80264000D02*
X103064000Y-77664000D01*
X103064000Y-82864000D02*
X103064000Y-81534000D01*
X104394000Y-82864000D02*
X103064000Y-82864000D01*
G04 #@! TO.C,J12*
X123190000Y-82737000D02*
X121860000Y-82737000D01*
X121860000Y-82737000D02*
X121860000Y-81407000D01*
X121860000Y-80137000D02*
X121860000Y-77537000D01*
X124520000Y-77537000D02*
X121860000Y-77537000D01*
X124520000Y-80137000D02*
X124520000Y-77537000D01*
X124520000Y-80137000D02*
X121860000Y-80137000D01*
G04 #@! TO.C,alligator1*
X135146000Y-74321000D02*
X134746000Y-74321000D01*
X135146000Y-74961000D02*
X135146000Y-74321000D01*
X130741000Y-78180000D02*
X130870000Y-78052000D01*
X128526000Y-80396000D02*
X128620000Y-80302000D01*
X130571000Y-77940000D02*
X130665000Y-77847000D01*
X128321000Y-80190000D02*
X128450000Y-80062000D01*
X127786000Y-82281000D02*
X127786000Y-74561000D01*
X134906000Y-82281000D02*
X134906000Y-74561000D01*
X134906000Y-74561000D02*
X127786000Y-74561000D01*
X134906000Y-82281000D02*
X127786000Y-82281000D01*
X134906000Y-76121000D02*
X127786000Y-76121000D01*
X134906000Y-75021000D02*
X127786000Y-75021000D01*
X131276000Y-79121000D02*
G75*
G03X131276000Y-79121000I-1680000J0D01*
G01*
X133067326Y-77440901D02*
G75*
G02X133962000Y-77681000I28674J-1680099D01*
G01*
X134521358Y-78231106D02*
G75*
G02X134536000Y-79987000I-1425358J-889894D01*
G01*
X133985894Y-80546358D02*
G75*
G02X132230000Y-80561000I-889894J1425358D01*
G01*
X131670495Y-80011193D02*
G75*
G02X131671000Y-78230000I1425505J890193D01*
G01*
X132205736Y-77696279D02*
G75*
G02X133096000Y-77441000I890264J-1424721D01*
G01*
G04 #@! TO.C,dc_jack1*
X97280736Y-77442279D02*
G75*
G02X98171000Y-77187000I890264J-1424721D01*
G01*
X96745495Y-79757193D02*
G75*
G02X96746000Y-77976000I1425505J890193D01*
G01*
X99060894Y-80292358D02*
G75*
G02X97305000Y-80307000I-889894J1425358D01*
G01*
X99596358Y-77977106D02*
G75*
G02X99611000Y-79733000I-1425358J-889894D01*
G01*
X98142326Y-77186901D02*
G75*
G02X99037000Y-77427000I28674J-1680099D01*
G01*
X96351000Y-78867000D02*
G75*
G03X96351000Y-78867000I-1680000J0D01*
G01*
X99981000Y-74767000D02*
X92861000Y-74767000D01*
X99981000Y-75867000D02*
X92861000Y-75867000D01*
X99981000Y-82027000D02*
X92861000Y-82027000D01*
X99981000Y-74307000D02*
X92861000Y-74307000D01*
X99981000Y-82027000D02*
X99981000Y-74307000D01*
X92861000Y-82027000D02*
X92861000Y-74307000D01*
X93396000Y-79936000D02*
X93525000Y-79808000D01*
X95646000Y-77686000D02*
X95740000Y-77593000D01*
X93601000Y-80142000D02*
X93695000Y-80048000D01*
X95816000Y-77926000D02*
X95945000Y-77798000D01*
X100221000Y-74707000D02*
X100221000Y-74067000D01*
X100221000Y-74067000D02*
X99821000Y-74067000D01*
G04 #@! TO.C,vlx1*
X115062000Y-83506000D02*
X115062000Y-86166000D01*
X115062000Y-83506000D02*
X109922000Y-83506000D01*
X109922000Y-83506000D02*
X109922000Y-86166000D01*
X115062000Y-86166000D02*
X109922000Y-86166000D01*
X117662000Y-86166000D02*
X116332000Y-86166000D01*
X117662000Y-84836000D02*
X117662000Y-86166000D01*
G04 #@! TO.C,RE1*
X147447000Y-114403000D02*
X147447000Y-113633000D01*
X147447000Y-106323000D02*
X147447000Y-107093000D01*
X148817000Y-113633000D02*
X148817000Y-107093000D01*
X146077000Y-113633000D02*
X148817000Y-113633000D01*
X146077000Y-107093000D02*
X146077000Y-113633000D01*
X148817000Y-107093000D02*
X146077000Y-107093000D01*
G04 #@! TO.C,RE2*
X140616000Y-110331000D02*
X143356000Y-110331000D01*
X143356000Y-110331000D02*
X143356000Y-103791000D01*
X143356000Y-103791000D02*
X140616000Y-103791000D01*
X140616000Y-103791000D02*
X140616000Y-110331000D01*
X141986000Y-111101000D02*
X141986000Y-110331000D01*
X141986000Y-103021000D02*
X141986000Y-103791000D01*
G04 #@! TO.C,R_Delay1*
D12*
X121888571Y-102306380D02*
X121555238Y-101830190D01*
X121317142Y-102306380D02*
X121317142Y-101306380D01*
X121698095Y-101306380D01*
X121793333Y-101354000D01*
X121840952Y-101401619D01*
X121888571Y-101496857D01*
X121888571Y-101639714D01*
X121840952Y-101734952D01*
X121793333Y-101782571D01*
X121698095Y-101830190D01*
X121317142Y-101830190D01*
X122079047Y-102401619D02*
X122840952Y-102401619D01*
X123079047Y-102306380D02*
X123079047Y-101306380D01*
X123317142Y-101306380D01*
X123460000Y-101354000D01*
X123555238Y-101449238D01*
X123602857Y-101544476D01*
X123650476Y-101734952D01*
X123650476Y-101877809D01*
X123602857Y-102068285D01*
X123555238Y-102163523D01*
X123460000Y-102258761D01*
X123317142Y-102306380D01*
X123079047Y-102306380D01*
X124460000Y-102258761D02*
X124364761Y-102306380D01*
X124174285Y-102306380D01*
X124079047Y-102258761D01*
X124031428Y-102163523D01*
X124031428Y-101782571D01*
X124079047Y-101687333D01*
X124174285Y-101639714D01*
X124364761Y-101639714D01*
X124460000Y-101687333D01*
X124507619Y-101782571D01*
X124507619Y-101877809D01*
X124031428Y-101973047D01*
X125079047Y-102306380D02*
X124983809Y-102258761D01*
X124936190Y-102163523D01*
X124936190Y-101306380D01*
X125888571Y-102306380D02*
X125888571Y-101782571D01*
X125840952Y-101687333D01*
X125745714Y-101639714D01*
X125555238Y-101639714D01*
X125460000Y-101687333D01*
X125888571Y-102258761D02*
X125793333Y-102306380D01*
X125555238Y-102306380D01*
X125460000Y-102258761D01*
X125412380Y-102163523D01*
X125412380Y-102068285D01*
X125460000Y-101973047D01*
X125555238Y-101925428D01*
X125793333Y-101925428D01*
X125888571Y-101877809D01*
X126269523Y-101639714D02*
X126507619Y-102306380D01*
X126745714Y-101639714D02*
X126507619Y-102306380D01*
X126412380Y-102544476D01*
X126364761Y-102592095D01*
X126269523Y-102639714D01*
X127650476Y-102306380D02*
X127079047Y-102306380D01*
X127364761Y-102306380D02*
X127364761Y-101306380D01*
X127269523Y-101449238D01*
X127174285Y-101544476D01*
X127079047Y-101592095D01*
G04 #@! TO.C,U4*
X129413095Y-115403380D02*
X129413095Y-116212904D01*
X129460714Y-116308142D01*
X129508333Y-116355761D01*
X129603571Y-116403380D01*
X129794047Y-116403380D01*
X129889285Y-116355761D01*
X129936904Y-116308142D01*
X129984523Y-116212904D01*
X129984523Y-115403380D01*
X130889285Y-115736714D02*
X130889285Y-116403380D01*
X130651190Y-115355761D02*
X130413095Y-116070047D01*
X131032142Y-116070047D01*
G04 #@! TO.C,1-Wire1*
X123642380Y-140914142D02*
X123642380Y-141485571D01*
X123642380Y-141199857D02*
X122642380Y-141199857D01*
X122785238Y-141295095D01*
X122880476Y-141390333D01*
X122928095Y-141485571D01*
X123261428Y-140485571D02*
X123261428Y-139723666D01*
X122642380Y-139342714D02*
X123642380Y-139104619D01*
X122928095Y-138914142D01*
X123642380Y-138723666D01*
X122642380Y-138485571D01*
X123642380Y-138104619D02*
X122975714Y-138104619D01*
X122642380Y-138104619D02*
X122690000Y-138152238D01*
X122737619Y-138104619D01*
X122690000Y-138057000D01*
X122642380Y-138104619D01*
X122737619Y-138104619D01*
X123642380Y-137628428D02*
X122975714Y-137628428D01*
X123166190Y-137628428D02*
X123070952Y-137580809D01*
X123023333Y-137533190D01*
X122975714Y-137437952D01*
X122975714Y-137342714D01*
X123594761Y-136628428D02*
X123642380Y-136723666D01*
X123642380Y-136914142D01*
X123594761Y-137009380D01*
X123499523Y-137057000D01*
X123118571Y-137057000D01*
X123023333Y-137009380D01*
X122975714Y-136914142D01*
X122975714Y-136723666D01*
X123023333Y-136628428D01*
X123118571Y-136580809D01*
X123213809Y-136580809D01*
X123309047Y-137057000D01*
X123642380Y-135628428D02*
X123642380Y-136199857D01*
X123642380Y-135914142D02*
X122642380Y-135914142D01*
X122785238Y-136009380D01*
X122880476Y-136104619D01*
X122928095Y-136199857D01*
G04 #@! TO.C,EC-5*
X123118571Y-127666523D02*
X123118571Y-127333190D01*
X123642380Y-127190333D02*
X123642380Y-127666523D01*
X122642380Y-127666523D01*
X122642380Y-127190333D01*
X123547142Y-126190333D02*
X123594761Y-126237952D01*
X123642380Y-126380809D01*
X123642380Y-126476047D01*
X123594761Y-126618904D01*
X123499523Y-126714142D01*
X123404285Y-126761761D01*
X123213809Y-126809380D01*
X123070952Y-126809380D01*
X122880476Y-126761761D01*
X122785238Y-126714142D01*
X122690000Y-126618904D01*
X122642380Y-126476047D01*
X122642380Y-126380809D01*
X122690000Y-126237952D01*
X122737619Y-126190333D01*
X123261428Y-125761761D02*
X123261428Y-124999857D01*
X122642380Y-124047476D02*
X122642380Y-124523666D01*
X123118571Y-124571285D01*
X123070952Y-124523666D01*
X123023333Y-124428428D01*
X123023333Y-124190333D01*
X123070952Y-124095095D01*
X123118571Y-124047476D01*
X123213809Y-123999857D01*
X123451904Y-123999857D01*
X123547142Y-124047476D01*
X123594761Y-124095095D01*
X123642380Y-124190333D01*
X123642380Y-124428428D01*
X123594761Y-124523666D01*
X123547142Y-124571285D01*
G04 #@! TO.C,J1*
X82089666Y-126682380D02*
X82089666Y-127396666D01*
X82042047Y-127539523D01*
X81946809Y-127634761D01*
X81803952Y-127682380D01*
X81708714Y-127682380D01*
X83089666Y-127682380D02*
X82518238Y-127682380D01*
X82803952Y-127682380D02*
X82803952Y-126682380D01*
X82708714Y-126825238D01*
X82613476Y-126920476D01*
X82518238Y-126968095D01*
G04 #@! TO.C,J2*
X102409666Y-136842380D02*
X102409666Y-137556666D01*
X102362047Y-137699523D01*
X102266809Y-137794761D01*
X102123952Y-137842380D01*
X102028714Y-137842380D01*
X102838238Y-136937619D02*
X102885857Y-136890000D01*
X102981095Y-136842380D01*
X103219190Y-136842380D01*
X103314428Y-136890000D01*
X103362047Y-136937619D01*
X103409666Y-137032857D01*
X103409666Y-137128095D01*
X103362047Y-137270952D01*
X102790619Y-137842380D01*
X103409666Y-137842380D01*
G04 #@! TO.C,RP1*
X113207880Y-136747166D02*
X112731690Y-137080500D01*
X113207880Y-137318595D02*
X112207880Y-137318595D01*
X112207880Y-136937642D01*
X112255500Y-136842404D01*
X112303119Y-136794785D01*
X112398357Y-136747166D01*
X112541214Y-136747166D01*
X112636452Y-136794785D01*
X112684071Y-136842404D01*
X112731690Y-136937642D01*
X112731690Y-137318595D01*
X113207880Y-136318595D02*
X112207880Y-136318595D01*
X112207880Y-135937642D01*
X112255500Y-135842404D01*
X112303119Y-135794785D01*
X112398357Y-135747166D01*
X112541214Y-135747166D01*
X112636452Y-135794785D01*
X112684071Y-135842404D01*
X112731690Y-135937642D01*
X112731690Y-136318595D01*
X113207880Y-134794785D02*
X113207880Y-135366214D01*
X113207880Y-135080500D02*
X112207880Y-135080500D01*
X112350738Y-135175738D01*
X112445976Y-135270976D01*
X112493595Y-135366214D01*
G04 #@! TO.C,J3*
X119046666Y-92797380D02*
X119046666Y-93511666D01*
X118999047Y-93654523D01*
X118903809Y-93749761D01*
X118760952Y-93797380D01*
X118665714Y-93797380D01*
X119427619Y-92797380D02*
X120046666Y-92797380D01*
X119713333Y-93178333D01*
X119856190Y-93178333D01*
X119951428Y-93225952D01*
X119999047Y-93273571D01*
X120046666Y-93368809D01*
X120046666Y-93606904D01*
X119999047Y-93702142D01*
X119951428Y-93749761D01*
X119856190Y-93797380D01*
X119570476Y-93797380D01*
X119475238Y-93749761D01*
X119427619Y-93702142D01*
G04 #@! TO.C,J4*
X131111666Y-93432380D02*
X131111666Y-94146666D01*
X131064047Y-94289523D01*
X130968809Y-94384761D01*
X130825952Y-94432380D01*
X130730714Y-94432380D01*
X132016428Y-93765714D02*
X132016428Y-94432380D01*
X131778333Y-93384761D02*
X131540238Y-94099047D01*
X132159285Y-94099047D01*
G04 #@! TO.C,J5*
X144589380Y-95456333D02*
X145303666Y-95456333D01*
X145446523Y-95503952D01*
X145541761Y-95599190D01*
X145589380Y-95742047D01*
X145589380Y-95837285D01*
X144589380Y-94503952D02*
X144589380Y-94980142D01*
X145065571Y-95027761D01*
X145017952Y-94980142D01*
X144970333Y-94884904D01*
X144970333Y-94646809D01*
X145017952Y-94551571D01*
X145065571Y-94503952D01*
X145160809Y-94456333D01*
X145398904Y-94456333D01*
X145494142Y-94503952D01*
X145541761Y-94551571D01*
X145589380Y-94646809D01*
X145589380Y-94884904D01*
X145541761Y-94980142D01*
X145494142Y-95027761D01*
G04 #@! TO.C,J6*
X117205166Y-142414880D02*
X117205166Y-143129166D01*
X117157547Y-143272023D01*
X117062309Y-143367261D01*
X116919452Y-143414880D01*
X116824214Y-143414880D01*
X118109928Y-142414880D02*
X117919452Y-142414880D01*
X117824214Y-142462500D01*
X117776595Y-142510119D01*
X117681357Y-142652976D01*
X117633738Y-142843452D01*
X117633738Y-143224404D01*
X117681357Y-143319642D01*
X117728976Y-143367261D01*
X117824214Y-143414880D01*
X118014690Y-143414880D01*
X118109928Y-143367261D01*
X118157547Y-143319642D01*
X118205166Y-143224404D01*
X118205166Y-142986309D01*
X118157547Y-142891071D01*
X118109928Y-142843452D01*
X118014690Y-142795833D01*
X117824214Y-142795833D01*
X117728976Y-142843452D01*
X117681357Y-142891071D01*
X117633738Y-142986309D01*
G04 #@! TO.C,J7*
X79613380Y-144922833D02*
X80327666Y-144922833D01*
X80470523Y-144970452D01*
X80565761Y-145065690D01*
X80613380Y-145208547D01*
X80613380Y-145303785D01*
X79613380Y-144541880D02*
X79613380Y-143875214D01*
X80613380Y-144303785D01*
G04 #@! TO.C,J8*
X137080666Y-145629380D02*
X137080666Y-146343666D01*
X137033047Y-146486523D01*
X136937809Y-146581761D01*
X136794952Y-146629380D01*
X136699714Y-146629380D01*
X137699714Y-146057952D02*
X137604476Y-146010333D01*
X137556857Y-145962714D01*
X137509238Y-145867476D01*
X137509238Y-145819857D01*
X137556857Y-145724619D01*
X137604476Y-145677000D01*
X137699714Y-145629380D01*
X137890190Y-145629380D01*
X137985428Y-145677000D01*
X138033047Y-145724619D01*
X138080666Y-145819857D01*
X138080666Y-145867476D01*
X138033047Y-145962714D01*
X137985428Y-146010333D01*
X137890190Y-146057952D01*
X137699714Y-146057952D01*
X137604476Y-146105571D01*
X137556857Y-146153190D01*
X137509238Y-146248428D01*
X137509238Y-146438904D01*
X137556857Y-146534142D01*
X137604476Y-146581761D01*
X137699714Y-146629380D01*
X137890190Y-146629380D01*
X137985428Y-146581761D01*
X138033047Y-146534142D01*
X138080666Y-146438904D01*
X138080666Y-146248428D01*
X138033047Y-146153190D01*
X137985428Y-146105571D01*
X137890190Y-146057952D01*
G04 #@! TO.C,J9*
X137334666Y-118832380D02*
X137334666Y-119546666D01*
X137287047Y-119689523D01*
X137191809Y-119784761D01*
X137048952Y-119832380D01*
X136953714Y-119832380D01*
X137858476Y-119832380D02*
X138048952Y-119832380D01*
X138144190Y-119784761D01*
X138191809Y-119737142D01*
X138287047Y-119594285D01*
X138334666Y-119403809D01*
X138334666Y-119022857D01*
X138287047Y-118927619D01*
X138239428Y-118880000D01*
X138144190Y-118832380D01*
X137953714Y-118832380D01*
X137858476Y-118880000D01*
X137810857Y-118927619D01*
X137763238Y-119022857D01*
X137763238Y-119260952D01*
X137810857Y-119356190D01*
X137858476Y-119403809D01*
X137953714Y-119451428D01*
X138144190Y-119451428D01*
X138239428Y-119403809D01*
X138287047Y-119356190D01*
X138334666Y-119260952D01*
G04 #@! TO.C,U1*
X125920380Y-157860904D02*
X126729904Y-157860904D01*
X126825142Y-157813285D01*
X126872761Y-157765666D01*
X126920380Y-157670428D01*
X126920380Y-157479952D01*
X126872761Y-157384714D01*
X126825142Y-157337095D01*
X126729904Y-157289476D01*
X125920380Y-157289476D01*
X126920380Y-156289476D02*
X126920380Y-156860904D01*
X126920380Y-156575190D02*
X125920380Y-156575190D01*
X126063238Y-156670428D01*
X126158476Y-156765666D01*
X126206095Y-156860904D01*
G04 #@! TO.C,RD1*
X115157333Y-119832380D02*
X114824000Y-119356190D01*
X114585904Y-119832380D02*
X114585904Y-118832380D01*
X114966857Y-118832380D01*
X115062095Y-118880000D01*
X115109714Y-118927619D01*
X115157333Y-119022857D01*
X115157333Y-119165714D01*
X115109714Y-119260952D01*
X115062095Y-119308571D01*
X114966857Y-119356190D01*
X114585904Y-119356190D01*
X115585904Y-119832380D02*
X115585904Y-118832380D01*
X115824000Y-118832380D01*
X115966857Y-118880000D01*
X116062095Y-118975238D01*
X116109714Y-119070476D01*
X116157333Y-119260952D01*
X116157333Y-119403809D01*
X116109714Y-119594285D01*
X116062095Y-119689523D01*
X115966857Y-119784761D01*
X115824000Y-119832380D01*
X115585904Y-119832380D01*
X117109714Y-119832380D02*
X116538285Y-119832380D01*
X116824000Y-119832380D02*
X116824000Y-118832380D01*
X116728761Y-118975238D01*
X116633523Y-119070476D01*
X116538285Y-119118095D01*
G04 #@! TO.C,RD2*
X118713333Y-119832380D02*
X118380000Y-119356190D01*
X118141904Y-119832380D02*
X118141904Y-118832380D01*
X118522857Y-118832380D01*
X118618095Y-118880000D01*
X118665714Y-118927619D01*
X118713333Y-119022857D01*
X118713333Y-119165714D01*
X118665714Y-119260952D01*
X118618095Y-119308571D01*
X118522857Y-119356190D01*
X118141904Y-119356190D01*
X119141904Y-119832380D02*
X119141904Y-118832380D01*
X119380000Y-118832380D01*
X119522857Y-118880000D01*
X119618095Y-118975238D01*
X119665714Y-119070476D01*
X119713333Y-119260952D01*
X119713333Y-119403809D01*
X119665714Y-119594285D01*
X119618095Y-119689523D01*
X119522857Y-119784761D01*
X119380000Y-119832380D01*
X119141904Y-119832380D01*
X120094285Y-118927619D02*
X120141904Y-118880000D01*
X120237142Y-118832380D01*
X120475238Y-118832380D01*
X120570476Y-118880000D01*
X120618095Y-118927619D01*
X120665714Y-119022857D01*
X120665714Y-119118095D01*
X120618095Y-119260952D01*
X120046666Y-119832380D01*
X120665714Y-119832380D01*
G04 #@! TO.C,J11*
X106640380Y-80819523D02*
X107354666Y-80819523D01*
X107497523Y-80867142D01*
X107592761Y-80962380D01*
X107640380Y-81105238D01*
X107640380Y-81200476D01*
X107640380Y-79819523D02*
X107640380Y-80390952D01*
X107640380Y-80105238D02*
X106640380Y-80105238D01*
X106783238Y-80200476D01*
X106878476Y-80295714D01*
X106926095Y-80390952D01*
X107640380Y-78867142D02*
X107640380Y-79438571D01*
X107640380Y-79152857D02*
X106640380Y-79152857D01*
X106783238Y-79248095D01*
X106878476Y-79343333D01*
X106926095Y-79438571D01*
G04 #@! TO.C,J12*
X119848380Y-80565523D02*
X120562666Y-80565523D01*
X120705523Y-80613142D01*
X120800761Y-80708380D01*
X120848380Y-80851238D01*
X120848380Y-80946476D01*
X120848380Y-79565523D02*
X120848380Y-80136952D01*
X120848380Y-79851238D02*
X119848380Y-79851238D01*
X119991238Y-79946476D01*
X120086476Y-80041714D01*
X120134095Y-80136952D01*
X119943619Y-79184571D02*
X119896000Y-79136952D01*
X119848380Y-79041714D01*
X119848380Y-78803619D01*
X119896000Y-78708380D01*
X119943619Y-78660761D01*
X120038857Y-78613142D01*
X120134095Y-78613142D01*
X120276952Y-78660761D01*
X120848380Y-79232190D01*
X120848380Y-78613142D01*
G04 #@! TO.C,alligator1*
X137104380Y-81716190D02*
X136580571Y-81716190D01*
X136485333Y-81763809D01*
X136437714Y-81859047D01*
X136437714Y-82049523D01*
X136485333Y-82144761D01*
X137056761Y-81716190D02*
X137104380Y-81811428D01*
X137104380Y-82049523D01*
X137056761Y-82144761D01*
X136961523Y-82192380D01*
X136866285Y-82192380D01*
X136771047Y-82144761D01*
X136723428Y-82049523D01*
X136723428Y-81811428D01*
X136675809Y-81716190D01*
X137104380Y-81097142D02*
X137056761Y-81192380D01*
X136961523Y-81240000D01*
X136104380Y-81240000D01*
X137104380Y-80573333D02*
X137056761Y-80668571D01*
X136961523Y-80716190D01*
X136104380Y-80716190D01*
X137104380Y-80192380D02*
X136437714Y-80192380D01*
X136104380Y-80192380D02*
X136152000Y-80240000D01*
X136199619Y-80192380D01*
X136152000Y-80144761D01*
X136104380Y-80192380D01*
X136199619Y-80192380D01*
X136437714Y-79287619D02*
X137247238Y-79287619D01*
X137342476Y-79335238D01*
X137390095Y-79382857D01*
X137437714Y-79478095D01*
X137437714Y-79620952D01*
X137390095Y-79716190D01*
X137056761Y-79287619D02*
X137104380Y-79382857D01*
X137104380Y-79573333D01*
X137056761Y-79668571D01*
X137009142Y-79716190D01*
X136913904Y-79763809D01*
X136628190Y-79763809D01*
X136532952Y-79716190D01*
X136485333Y-79668571D01*
X136437714Y-79573333D01*
X136437714Y-79382857D01*
X136485333Y-79287619D01*
X137104380Y-78382857D02*
X136580571Y-78382857D01*
X136485333Y-78430476D01*
X136437714Y-78525714D01*
X136437714Y-78716190D01*
X136485333Y-78811428D01*
X137056761Y-78382857D02*
X137104380Y-78478095D01*
X137104380Y-78716190D01*
X137056761Y-78811428D01*
X136961523Y-78859047D01*
X136866285Y-78859047D01*
X136771047Y-78811428D01*
X136723428Y-78716190D01*
X136723428Y-78478095D01*
X136675809Y-78382857D01*
X136437714Y-78049523D02*
X136437714Y-77668571D01*
X136104380Y-77906666D02*
X136961523Y-77906666D01*
X137056761Y-77859047D01*
X137104380Y-77763809D01*
X137104380Y-77668571D01*
X137104380Y-77192380D02*
X137056761Y-77287619D01*
X137009142Y-77335238D01*
X136913904Y-77382857D01*
X136628190Y-77382857D01*
X136532952Y-77335238D01*
X136485333Y-77287619D01*
X136437714Y-77192380D01*
X136437714Y-77049523D01*
X136485333Y-76954285D01*
X136532952Y-76906666D01*
X136628190Y-76859047D01*
X136913904Y-76859047D01*
X137009142Y-76906666D01*
X137056761Y-76954285D01*
X137104380Y-77049523D01*
X137104380Y-77192380D01*
X137104380Y-76430476D02*
X136437714Y-76430476D01*
X136628190Y-76430476D02*
X136532952Y-76382857D01*
X136485333Y-76335238D01*
X136437714Y-76240000D01*
X136437714Y-76144761D01*
X137104380Y-75287619D02*
X137104380Y-75859047D01*
X137104380Y-75573333D02*
X136104380Y-75573333D01*
X136247238Y-75668571D01*
X136342476Y-75763809D01*
X136390095Y-75859047D01*
G04 #@! TO.C,dc_jack1*
X91638380Y-80319238D02*
X90638380Y-80319238D01*
X91590761Y-80319238D02*
X91638380Y-80414476D01*
X91638380Y-80604952D01*
X91590761Y-80700190D01*
X91543142Y-80747809D01*
X91447904Y-80795428D01*
X91162190Y-80795428D01*
X91066952Y-80747809D01*
X91019333Y-80700190D01*
X90971714Y-80604952D01*
X90971714Y-80414476D01*
X91019333Y-80319238D01*
X91590761Y-79414476D02*
X91638380Y-79509714D01*
X91638380Y-79700190D01*
X91590761Y-79795428D01*
X91543142Y-79843047D01*
X91447904Y-79890666D01*
X91162190Y-79890666D01*
X91066952Y-79843047D01*
X91019333Y-79795428D01*
X90971714Y-79700190D01*
X90971714Y-79509714D01*
X91019333Y-79414476D01*
X91733619Y-79224000D02*
X91733619Y-78462095D01*
X90971714Y-78224000D02*
X91828857Y-78224000D01*
X91924095Y-78271619D01*
X91971714Y-78366857D01*
X91971714Y-78414476D01*
X90638380Y-78224000D02*
X90686000Y-78271619D01*
X90733619Y-78224000D01*
X90686000Y-78176380D01*
X90638380Y-78224000D01*
X90733619Y-78224000D01*
X91638380Y-77319238D02*
X91114571Y-77319238D01*
X91019333Y-77366857D01*
X90971714Y-77462095D01*
X90971714Y-77652571D01*
X91019333Y-77747809D01*
X91590761Y-77319238D02*
X91638380Y-77414476D01*
X91638380Y-77652571D01*
X91590761Y-77747809D01*
X91495523Y-77795428D01*
X91400285Y-77795428D01*
X91305047Y-77747809D01*
X91257428Y-77652571D01*
X91257428Y-77414476D01*
X91209809Y-77319238D01*
X91590761Y-76414476D02*
X91638380Y-76509714D01*
X91638380Y-76700190D01*
X91590761Y-76795428D01*
X91543142Y-76843047D01*
X91447904Y-76890666D01*
X91162190Y-76890666D01*
X91066952Y-76843047D01*
X91019333Y-76795428D01*
X90971714Y-76700190D01*
X90971714Y-76509714D01*
X91019333Y-76414476D01*
X91638380Y-75985904D02*
X90638380Y-75985904D01*
X91257428Y-75890666D02*
X91638380Y-75604952D01*
X90971714Y-75604952D02*
X91352666Y-75985904D01*
X91638380Y-74652571D02*
X91638380Y-75224000D01*
X91638380Y-74938285D02*
X90638380Y-74938285D01*
X90781238Y-75033523D01*
X90876476Y-75128761D01*
X90924095Y-75224000D01*
G04 #@! TO.C,vlx1*
X112665047Y-87796714D02*
X112903142Y-88463380D01*
X113141238Y-87796714D01*
X113665047Y-88463380D02*
X113569809Y-88415761D01*
X113522190Y-88320523D01*
X113522190Y-87463380D01*
X113950761Y-88463380D02*
X114474571Y-87796714D01*
X113950761Y-87796714D02*
X114474571Y-88463380D01*
X115379333Y-88463380D02*
X114807904Y-88463380D01*
X115093619Y-88463380D02*
X115093619Y-87463380D01*
X114998380Y-87606238D01*
X114903142Y-87701476D01*
X114807904Y-87749095D01*
G04 #@! TO.C,RE1*
X150269380Y-110982047D02*
X149793190Y-111315380D01*
X150269380Y-111553476D02*
X149269380Y-111553476D01*
X149269380Y-111172523D01*
X149317000Y-111077285D01*
X149364619Y-111029666D01*
X149459857Y-110982047D01*
X149602714Y-110982047D01*
X149697952Y-111029666D01*
X149745571Y-111077285D01*
X149793190Y-111172523D01*
X149793190Y-111553476D01*
X149745571Y-110553476D02*
X149745571Y-110220142D01*
X150269380Y-110077285D02*
X150269380Y-110553476D01*
X149269380Y-110553476D01*
X149269380Y-110077285D01*
X150269380Y-109124904D02*
X150269380Y-109696333D01*
X150269380Y-109410619D02*
X149269380Y-109410619D01*
X149412238Y-109505857D01*
X149507476Y-109601095D01*
X149555095Y-109696333D01*
G04 #@! TO.C,RE2*
X144978380Y-107553047D02*
X144502190Y-107886380D01*
X144978380Y-108124476D02*
X143978380Y-108124476D01*
X143978380Y-107743523D01*
X144026000Y-107648285D01*
X144073619Y-107600666D01*
X144168857Y-107553047D01*
X144311714Y-107553047D01*
X144406952Y-107600666D01*
X144454571Y-107648285D01*
X144502190Y-107743523D01*
X144502190Y-108124476D01*
X144454571Y-107124476D02*
X144454571Y-106791142D01*
X144978380Y-106648285D02*
X144978380Y-107124476D01*
X143978380Y-107124476D01*
X143978380Y-106648285D01*
X144073619Y-106267333D02*
X144026000Y-106219714D01*
X143978380Y-106124476D01*
X143978380Y-105886380D01*
X144026000Y-105791142D01*
X144073619Y-105743523D01*
X144168857Y-105695904D01*
X144264095Y-105695904D01*
X144406952Y-105743523D01*
X144978380Y-106314952D01*
X144978380Y-105695904D01*
G04 #@! TD*
M02*
