G04 #@! TF.GenerationSoftware,KiCad,Pcbnew,5.0.2-bee76a0~70~ubuntu18.04.1*
G04 #@! TF.CreationDate,2019-07-25T22:31:23-04:00*
G04 #@! TF.ProjectId,knuth-gateway,6b6e7574-682d-4676-9174-657761792e6b,rev?*
G04 #@! TF.SameCoordinates,Original*
G04 #@! TF.FileFunction,Legend,Top*
G04 #@! TF.FilePolarity,Positive*
%FSLAX46Y46*%
G04 Gerber Fmt 4.6, Leading zero omitted, Abs format (unit mm)*
G04 Created by KiCad (PCBNEW 5.0.2-bee76a0~70~ubuntu18.04.1) date Thu 25 Jul 2019 10:31:23 PM EDT*
%MOMM*%
%LPD*%
G01*
G04 APERTURE LIST*
%ADD10C,0.300000*%
%ADD11C,0.120000*%
%ADD12C,0.150000*%
G04 APERTURE END LIST*
D10*
X255294285Y-65726571D02*
X255580000Y-65726571D01*
X255722857Y-65798000D01*
X255865714Y-65940857D01*
X255937142Y-66226571D01*
X255937142Y-66726571D01*
X255865714Y-67012285D01*
X255722857Y-67155142D01*
X255580000Y-67226571D01*
X255294285Y-67226571D01*
X255151428Y-67155142D01*
X255008571Y-67012285D01*
X254937142Y-66726571D01*
X254937142Y-66226571D01*
X255008571Y-65940857D01*
X255151428Y-65798000D01*
X255294285Y-65726571D01*
X256580000Y-67226571D02*
X256580000Y-65726571D01*
X257437142Y-67226571D01*
X257437142Y-65726571D01*
X259222857Y-65655142D02*
X257937142Y-67583714D01*
X260008571Y-65726571D02*
X260294285Y-65726571D01*
X260437142Y-65798000D01*
X260580000Y-65940857D01*
X260651428Y-66226571D01*
X260651428Y-66726571D01*
X260580000Y-67012285D01*
X260437142Y-67155142D01*
X260294285Y-67226571D01*
X260008571Y-67226571D01*
X259865714Y-67155142D01*
X259722857Y-67012285D01*
X259651428Y-66726571D01*
X259651428Y-66226571D01*
X259722857Y-65940857D01*
X259865714Y-65798000D01*
X260008571Y-65726571D01*
X261794285Y-66440857D02*
X261294285Y-66440857D01*
X261294285Y-67226571D02*
X261294285Y-65726571D01*
X262008571Y-65726571D01*
X263080000Y-66440857D02*
X262580000Y-66440857D01*
X262580000Y-67226571D02*
X262580000Y-65726571D01*
X263294285Y-65726571D01*
X267648571Y-112354285D02*
X269148571Y-112354285D01*
X267720000Y-112354285D02*
X267648571Y-112211428D01*
X267648571Y-111925714D01*
X267720000Y-111782857D01*
X267791428Y-111711428D01*
X267934285Y-111640000D01*
X268362857Y-111640000D01*
X268505714Y-111711428D01*
X268577142Y-111782857D01*
X268648571Y-111925714D01*
X268648571Y-112211428D01*
X268577142Y-112354285D01*
X267648571Y-111140000D02*
X268648571Y-110782857D01*
X267648571Y-110425714D01*
X268648571Y-109640000D02*
X268577142Y-109782857D01*
X268505714Y-109854285D01*
X268362857Y-109925714D01*
X267934285Y-109925714D01*
X267791428Y-109854285D01*
X267720000Y-109782857D01*
X267648571Y-109640000D01*
X267648571Y-109425714D01*
X267720000Y-109282857D01*
X267791428Y-109211428D01*
X267934285Y-109140000D01*
X268362857Y-109140000D01*
X268505714Y-109211428D01*
X268577142Y-109282857D01*
X268648571Y-109425714D01*
X268648571Y-109640000D01*
X268577142Y-108568571D02*
X268648571Y-108425714D01*
X268648571Y-108140000D01*
X268577142Y-107997142D01*
X268434285Y-107925714D01*
X268362857Y-107925714D01*
X268220000Y-107997142D01*
X268148571Y-108140000D01*
X268148571Y-108354285D01*
X268077142Y-108497142D01*
X267934285Y-108568571D01*
X267862857Y-108568571D01*
X267720000Y-108497142D01*
X267648571Y-108354285D01*
X267648571Y-108140000D01*
X267720000Y-107997142D01*
X268505714Y-107282857D02*
X268577142Y-107211428D01*
X268648571Y-107282857D01*
X268577142Y-107354285D01*
X268505714Y-107282857D01*
X268648571Y-107282857D01*
X268648571Y-106354285D02*
X268577142Y-106497142D01*
X268505714Y-106568571D01*
X268362857Y-106640000D01*
X267934285Y-106640000D01*
X267791428Y-106568571D01*
X267720000Y-106497142D01*
X267648571Y-106354285D01*
X267648571Y-106140000D01*
X267720000Y-105997142D01*
X267791428Y-105925714D01*
X267934285Y-105854285D01*
X268362857Y-105854285D01*
X268505714Y-105925714D01*
X268577142Y-105997142D01*
X268648571Y-106140000D01*
X268648571Y-106354285D01*
X268648571Y-105211428D02*
X267648571Y-105211428D01*
X267934285Y-105211428D02*
X267791428Y-105140000D01*
X267720000Y-105068571D01*
X267648571Y-104925714D01*
X267648571Y-104782857D01*
X267648571Y-103640000D02*
X268862857Y-103640000D01*
X269005714Y-103711428D01*
X269077142Y-103782857D01*
X269148571Y-103925714D01*
X269148571Y-104140000D01*
X269077142Y-104282857D01*
X268577142Y-103640000D02*
X268648571Y-103782857D01*
X268648571Y-104068571D01*
X268577142Y-104211428D01*
X268505714Y-104282857D01*
X268362857Y-104354285D01*
X267934285Y-104354285D01*
X267791428Y-104282857D01*
X267720000Y-104211428D01*
X267648571Y-104068571D01*
X267648571Y-103782857D01*
X267720000Y-103640000D01*
X267077142Y-101854285D02*
X269005714Y-103140000D01*
X268648571Y-101354285D02*
X267148571Y-101354285D01*
X268077142Y-101211428D02*
X268648571Y-100782857D01*
X267648571Y-100782857D02*
X268220000Y-101354285D01*
X267648571Y-100140000D02*
X268648571Y-100140000D01*
X267791428Y-100140000D02*
X267720000Y-100068571D01*
X267648571Y-99925714D01*
X267648571Y-99711428D01*
X267720000Y-99568571D01*
X267862857Y-99497142D01*
X268648571Y-99497142D01*
X267648571Y-98140000D02*
X268648571Y-98140000D01*
X267648571Y-98782857D02*
X268434285Y-98782857D01*
X268577142Y-98711428D01*
X268648571Y-98568571D01*
X268648571Y-98354285D01*
X268577142Y-98211428D01*
X268505714Y-98140000D01*
X267648571Y-97640000D02*
X267648571Y-97068571D01*
X267148571Y-97425714D02*
X268434285Y-97425714D01*
X268577142Y-97354285D01*
X268648571Y-97211428D01*
X268648571Y-97068571D01*
X268648571Y-96568571D02*
X267148571Y-96568571D01*
X268648571Y-95925714D02*
X267862857Y-95925714D01*
X267720000Y-95997142D01*
X267648571Y-96140000D01*
X267648571Y-96354285D01*
X267720000Y-96497142D01*
X267791428Y-96568571D01*
X212768571Y-102181428D02*
X211268571Y-102181428D01*
X212768571Y-101324285D02*
X211911428Y-101967142D01*
X211268571Y-101324285D02*
X212125714Y-102181428D01*
X211768571Y-100681428D02*
X212768571Y-100681428D01*
X211911428Y-100681428D02*
X211840000Y-100610000D01*
X211768571Y-100467142D01*
X211768571Y-100252857D01*
X211840000Y-100110000D01*
X211982857Y-100038571D01*
X212768571Y-100038571D01*
X211768571Y-98681428D02*
X212768571Y-98681428D01*
X211768571Y-99324285D02*
X212554285Y-99324285D01*
X212697142Y-99252857D01*
X212768571Y-99110000D01*
X212768571Y-98895714D01*
X212697142Y-98752857D01*
X212625714Y-98681428D01*
X211768571Y-98181428D02*
X211768571Y-97610000D01*
X211268571Y-97967142D02*
X212554285Y-97967142D01*
X212697142Y-97895714D01*
X212768571Y-97752857D01*
X212768571Y-97610000D01*
X212768571Y-97110000D02*
X211268571Y-97110000D01*
X212768571Y-96467142D02*
X211982857Y-96467142D01*
X211840000Y-96538571D01*
X211768571Y-96681428D01*
X211768571Y-96895714D01*
X211840000Y-97038571D01*
X211911428Y-97110000D01*
X212768571Y-93752857D02*
X212054285Y-94252857D01*
X212768571Y-94610000D02*
X211268571Y-94610000D01*
X211268571Y-94038571D01*
X211340000Y-93895714D01*
X211411428Y-93824285D01*
X211554285Y-93752857D01*
X211768571Y-93752857D01*
X211911428Y-93824285D01*
X211982857Y-93895714D01*
X212054285Y-94038571D01*
X212054285Y-94610000D01*
X212768571Y-92467142D02*
X211982857Y-92467142D01*
X211840000Y-92538571D01*
X211768571Y-92681428D01*
X211768571Y-92967142D01*
X211840000Y-93110000D01*
X212697142Y-92467142D02*
X212768571Y-92610000D01*
X212768571Y-92967142D01*
X212697142Y-93110000D01*
X212554285Y-93181428D01*
X212411428Y-93181428D01*
X212268571Y-93110000D01*
X212197142Y-92967142D01*
X212197142Y-92610000D01*
X212125714Y-92467142D01*
X211768571Y-91752857D02*
X212768571Y-91752857D01*
X211911428Y-91752857D02*
X211840000Y-91681428D01*
X211768571Y-91538571D01*
X211768571Y-91324285D01*
X211840000Y-91181428D01*
X211982857Y-91110000D01*
X212768571Y-91110000D01*
X212697142Y-89752857D02*
X212768571Y-89895714D01*
X212768571Y-90181428D01*
X212697142Y-90324285D01*
X212625714Y-90395714D01*
X212482857Y-90467142D01*
X212054285Y-90467142D01*
X211911428Y-90395714D01*
X211840000Y-90324285D01*
X211768571Y-90181428D01*
X211768571Y-89895714D01*
X211840000Y-89752857D01*
X212768571Y-89110000D02*
X211268571Y-89110000D01*
X212768571Y-88467142D02*
X211982857Y-88467142D01*
X211840000Y-88538571D01*
X211768571Y-88681428D01*
X211768571Y-88895714D01*
X211840000Y-89038571D01*
X211911428Y-89110000D01*
X212625714Y-87752857D02*
X212697142Y-87681428D01*
X212768571Y-87752857D01*
X212697142Y-87824285D01*
X212625714Y-87752857D01*
X212768571Y-87752857D01*
X211840000Y-87752857D02*
X211911428Y-87681428D01*
X211982857Y-87752857D01*
X211911428Y-87824285D01*
X211840000Y-87752857D01*
X211982857Y-87752857D01*
X211982857Y-85895714D02*
X211982857Y-85395714D01*
X212768571Y-85181428D02*
X212768571Y-85895714D01*
X211268571Y-85895714D01*
X211268571Y-85181428D01*
X212625714Y-83681428D02*
X212697142Y-83752857D01*
X212768571Y-83967142D01*
X212768571Y-84110000D01*
X212697142Y-84324285D01*
X212554285Y-84467142D01*
X212411428Y-84538571D01*
X212125714Y-84610000D01*
X211911428Y-84610000D01*
X211625714Y-84538571D01*
X211482857Y-84467142D01*
X211340000Y-84324285D01*
X211268571Y-84110000D01*
X211268571Y-83967142D01*
X211340000Y-83752857D01*
X211411428Y-83681428D01*
X212197142Y-83038571D02*
X212197142Y-81895714D01*
X211268571Y-80467142D02*
X211268571Y-81181428D01*
X211982857Y-81252857D01*
X211911428Y-81181428D01*
X211840000Y-81038571D01*
X211840000Y-80681428D01*
X211911428Y-80538571D01*
X211982857Y-80467142D01*
X212125714Y-80395714D01*
X212482857Y-80395714D01*
X212625714Y-80467142D01*
X212697142Y-80538571D01*
X212768571Y-80681428D01*
X212768571Y-81038571D01*
X212697142Y-81181428D01*
X212625714Y-81252857D01*
X212768571Y-77395714D02*
X212768571Y-77467142D01*
X212697142Y-77610000D01*
X212482857Y-77824285D01*
X212054285Y-78181428D01*
X211840000Y-78324285D01*
X211625714Y-78395714D01*
X211482857Y-78395714D01*
X211340000Y-78324285D01*
X211268571Y-78181428D01*
X211268571Y-78110000D01*
X211340000Y-77967142D01*
X211482857Y-77895714D01*
X211554285Y-77895714D01*
X211697142Y-77967142D01*
X211768571Y-78038571D01*
X212054285Y-78467142D01*
X212125714Y-78538571D01*
X212268571Y-78610000D01*
X212482857Y-78610000D01*
X212625714Y-78538571D01*
X212697142Y-78467142D01*
X212768571Y-78324285D01*
X212768571Y-78110000D01*
X212697142Y-77967142D01*
X212625714Y-77895714D01*
X212340000Y-77681428D01*
X212125714Y-77610000D01*
X211982857Y-77610000D01*
X211268571Y-75824285D02*
X211268571Y-74967142D01*
X212768571Y-75395714D02*
X211268571Y-75395714D01*
X212697142Y-73895714D02*
X212768571Y-74038571D01*
X212768571Y-74324285D01*
X212697142Y-74467142D01*
X212554285Y-74538571D01*
X211982857Y-74538571D01*
X211840000Y-74467142D01*
X211768571Y-74324285D01*
X211768571Y-74038571D01*
X211840000Y-73895714D01*
X211982857Y-73824285D01*
X212125714Y-73824285D01*
X212268571Y-74538571D01*
X212768571Y-73181428D02*
X211768571Y-73181428D01*
X211911428Y-73181428D02*
X211840000Y-73110000D01*
X211768571Y-72967142D01*
X211768571Y-72752857D01*
X211840000Y-72610000D01*
X211982857Y-72538571D01*
X212768571Y-72538571D01*
X211982857Y-72538571D02*
X211840000Y-72467142D01*
X211768571Y-72324285D01*
X211768571Y-72110000D01*
X211840000Y-71967142D01*
X211982857Y-71895714D01*
X212768571Y-71895714D01*
X211768571Y-71181428D02*
X213268571Y-71181428D01*
X211840000Y-71181428D02*
X211768571Y-71038571D01*
X211768571Y-70752857D01*
X211840000Y-70610000D01*
X211911428Y-70538571D01*
X212054285Y-70467142D01*
X212482857Y-70467142D01*
X212625714Y-70538571D01*
X212697142Y-70610000D01*
X212768571Y-70752857D01*
X212768571Y-71038571D01*
X212697142Y-71181428D01*
D11*
G04 #@! TO.C,R_Delay1*
X245050000Y-82550000D02*
X247710000Y-82550000D01*
X245050000Y-82550000D02*
X245050000Y-85150000D01*
X245050000Y-85150000D02*
X247710000Y-85150000D01*
X247710000Y-82550000D02*
X247710000Y-85150000D01*
X247710000Y-79950000D02*
X247710000Y-81280000D01*
X246380000Y-79950000D02*
X247710000Y-79950000D01*
G04 #@! TO.C,U4*
X251400000Y-80010000D02*
X254060000Y-80010000D01*
X251400000Y-80010000D02*
X251400000Y-90230000D01*
X251400000Y-90230000D02*
X254060000Y-90230000D01*
X254060000Y-80010000D02*
X254060000Y-90230000D01*
X254060000Y-77410000D02*
X254060000Y-78740000D01*
X252730000Y-77410000D02*
X254060000Y-77410000D01*
G04 #@! TO.C,U5*
X247650000Y-54550000D02*
X247650000Y-57210000D01*
X247650000Y-54550000D02*
X239970000Y-54550000D01*
X239970000Y-54550000D02*
X239970000Y-57210000D01*
X247650000Y-57210000D02*
X239970000Y-57210000D01*
X250250000Y-57210000D02*
X248920000Y-57210000D01*
X250250000Y-55880000D02*
X250250000Y-57210000D01*
G04 #@! TO.C,1-Wire1*
X252730000Y-106620000D02*
X254060000Y-106620000D01*
X254060000Y-106620000D02*
X254060000Y-107950000D01*
X254060000Y-109220000D02*
X254060000Y-114360000D01*
X251400000Y-114360000D02*
X254060000Y-114360000D01*
X251400000Y-109220000D02*
X251400000Y-114360000D01*
X251400000Y-109220000D02*
X254060000Y-109220000D01*
G04 #@! TO.C,EC-5*
X251400000Y-97790000D02*
X254060000Y-97790000D01*
X251400000Y-97790000D02*
X251400000Y-102930000D01*
X251400000Y-102930000D02*
X254060000Y-102930000D01*
X254060000Y-97790000D02*
X254060000Y-102930000D01*
X254060000Y-95190000D02*
X254060000Y-96520000D01*
X252730000Y-95190000D02*
X254060000Y-95190000D01*
G04 #@! TO.C,J1*
X219770000Y-101600000D02*
X217110000Y-101600000D01*
X219770000Y-101600000D02*
X219770000Y-73600000D01*
X219770000Y-73600000D02*
X217110000Y-73600000D01*
X217110000Y-101600000D02*
X217110000Y-73600000D01*
X217110000Y-104200000D02*
X217110000Y-102870000D01*
X218440000Y-104200000D02*
X217110000Y-104200000D01*
G04 #@! TO.C,J2*
X240090000Y-111760000D02*
X237430000Y-111760000D01*
X240090000Y-111760000D02*
X240090000Y-73600000D01*
X240090000Y-73600000D02*
X237430000Y-73600000D01*
X237430000Y-111760000D02*
X237430000Y-73600000D01*
X237430000Y-114360000D02*
X237430000Y-113030000D01*
X238760000Y-114360000D02*
X237430000Y-114360000D01*
G04 #@! TO.C,switch1*
X260350000Y-68520000D02*
X260350000Y-71180000D01*
X260350000Y-68520000D02*
X255210000Y-68520000D01*
X255210000Y-68520000D02*
X255210000Y-71180000D01*
X260350000Y-71180000D02*
X255210000Y-71180000D01*
X262950000Y-71180000D02*
X261620000Y-71180000D01*
X262950000Y-69850000D02*
X262950000Y-71180000D01*
G04 #@! TO.C,R1*
X246480000Y-107950000D02*
G75*
G03X246480000Y-107950000I-1370000J0D01*
G01*
X245110000Y-109320000D02*
X245110000Y-111930000D01*
G04 #@! TO.C,R_Delay1*
D12*
X243657380Y-85121428D02*
X243181190Y-85454761D01*
X243657380Y-85692857D02*
X242657380Y-85692857D01*
X242657380Y-85311904D01*
X242705000Y-85216666D01*
X242752619Y-85169047D01*
X242847857Y-85121428D01*
X242990714Y-85121428D01*
X243085952Y-85169047D01*
X243133571Y-85216666D01*
X243181190Y-85311904D01*
X243181190Y-85692857D01*
X243752619Y-84930952D02*
X243752619Y-84169047D01*
X243657380Y-83930952D02*
X242657380Y-83930952D01*
X242657380Y-83692857D01*
X242705000Y-83550000D01*
X242800238Y-83454761D01*
X242895476Y-83407142D01*
X243085952Y-83359523D01*
X243228809Y-83359523D01*
X243419285Y-83407142D01*
X243514523Y-83454761D01*
X243609761Y-83550000D01*
X243657380Y-83692857D01*
X243657380Y-83930952D01*
X243609761Y-82550000D02*
X243657380Y-82645238D01*
X243657380Y-82835714D01*
X243609761Y-82930952D01*
X243514523Y-82978571D01*
X243133571Y-82978571D01*
X243038333Y-82930952D01*
X242990714Y-82835714D01*
X242990714Y-82645238D01*
X243038333Y-82550000D01*
X243133571Y-82502380D01*
X243228809Y-82502380D01*
X243324047Y-82978571D01*
X243657380Y-81930952D02*
X243609761Y-82026190D01*
X243514523Y-82073809D01*
X242657380Y-82073809D01*
X243657380Y-81121428D02*
X243133571Y-81121428D01*
X243038333Y-81169047D01*
X242990714Y-81264285D01*
X242990714Y-81454761D01*
X243038333Y-81550000D01*
X243609761Y-81121428D02*
X243657380Y-81216666D01*
X243657380Y-81454761D01*
X243609761Y-81550000D01*
X243514523Y-81597619D01*
X243419285Y-81597619D01*
X243324047Y-81550000D01*
X243276428Y-81454761D01*
X243276428Y-81216666D01*
X243228809Y-81121428D01*
X242990714Y-80740476D02*
X243657380Y-80502380D01*
X242990714Y-80264285D02*
X243657380Y-80502380D01*
X243895476Y-80597619D01*
X243943095Y-80645238D01*
X243990714Y-80740476D01*
X243657380Y-79359523D02*
X243657380Y-79930952D01*
X243657380Y-79645238D02*
X242657380Y-79645238D01*
X242800238Y-79740476D01*
X242895476Y-79835714D01*
X242943095Y-79930952D01*
G04 #@! TO.C,U4*
X251968095Y-75422380D02*
X251968095Y-76231904D01*
X252015714Y-76327142D01*
X252063333Y-76374761D01*
X252158571Y-76422380D01*
X252349047Y-76422380D01*
X252444285Y-76374761D01*
X252491904Y-76327142D01*
X252539523Y-76231904D01*
X252539523Y-75422380D01*
X253444285Y-75755714D02*
X253444285Y-76422380D01*
X253206190Y-75374761D02*
X252968095Y-76089047D01*
X253587142Y-76089047D01*
G04 #@! TO.C,U5*
X251142380Y-56641904D02*
X251951904Y-56641904D01*
X252047142Y-56594285D01*
X252094761Y-56546666D01*
X252142380Y-56451428D01*
X252142380Y-56260952D01*
X252094761Y-56165714D01*
X252047142Y-56118095D01*
X251951904Y-56070476D01*
X251142380Y-56070476D01*
X251142380Y-55118095D02*
X251142380Y-55594285D01*
X251618571Y-55641904D01*
X251570952Y-55594285D01*
X251523333Y-55499047D01*
X251523333Y-55260952D01*
X251570952Y-55165714D01*
X251618571Y-55118095D01*
X251713809Y-55070476D01*
X251951904Y-55070476D01*
X252047142Y-55118095D01*
X252094761Y-55165714D01*
X252142380Y-55260952D01*
X252142380Y-55499047D01*
X252094761Y-55594285D01*
X252047142Y-55641904D01*
G04 #@! TO.C,1-Wire1*
X256992380Y-112847142D02*
X256992380Y-113418571D01*
X256992380Y-113132857D02*
X255992380Y-113132857D01*
X256135238Y-113228095D01*
X256230476Y-113323333D01*
X256278095Y-113418571D01*
X256611428Y-112418571D02*
X256611428Y-111656666D01*
X255992380Y-111275714D02*
X256992380Y-111037619D01*
X256278095Y-110847142D01*
X256992380Y-110656666D01*
X255992380Y-110418571D01*
X256992380Y-110037619D02*
X256325714Y-110037619D01*
X255992380Y-110037619D02*
X256040000Y-110085238D01*
X256087619Y-110037619D01*
X256040000Y-109990000D01*
X255992380Y-110037619D01*
X256087619Y-110037619D01*
X256992380Y-109561428D02*
X256325714Y-109561428D01*
X256516190Y-109561428D02*
X256420952Y-109513809D01*
X256373333Y-109466190D01*
X256325714Y-109370952D01*
X256325714Y-109275714D01*
X256944761Y-108561428D02*
X256992380Y-108656666D01*
X256992380Y-108847142D01*
X256944761Y-108942380D01*
X256849523Y-108990000D01*
X256468571Y-108990000D01*
X256373333Y-108942380D01*
X256325714Y-108847142D01*
X256325714Y-108656666D01*
X256373333Y-108561428D01*
X256468571Y-108513809D01*
X256563809Y-108513809D01*
X256659047Y-108990000D01*
X256992380Y-107561428D02*
X256992380Y-108132857D01*
X256992380Y-107847142D02*
X255992380Y-107847142D01*
X256135238Y-107942380D01*
X256230476Y-108037619D01*
X256278095Y-108132857D01*
G04 #@! TO.C,EC-5*
X256468571Y-100869523D02*
X256468571Y-100536190D01*
X256992380Y-100393333D02*
X256992380Y-100869523D01*
X255992380Y-100869523D01*
X255992380Y-100393333D01*
X256897142Y-99393333D02*
X256944761Y-99440952D01*
X256992380Y-99583809D01*
X256992380Y-99679047D01*
X256944761Y-99821904D01*
X256849523Y-99917142D01*
X256754285Y-99964761D01*
X256563809Y-100012380D01*
X256420952Y-100012380D01*
X256230476Y-99964761D01*
X256135238Y-99917142D01*
X256040000Y-99821904D01*
X255992380Y-99679047D01*
X255992380Y-99583809D01*
X256040000Y-99440952D01*
X256087619Y-99393333D01*
X256611428Y-98964761D02*
X256611428Y-98202857D01*
X255992380Y-97250476D02*
X255992380Y-97726666D01*
X256468571Y-97774285D01*
X256420952Y-97726666D01*
X256373333Y-97631428D01*
X256373333Y-97393333D01*
X256420952Y-97298095D01*
X256468571Y-97250476D01*
X256563809Y-97202857D01*
X256801904Y-97202857D01*
X256897142Y-97250476D01*
X256944761Y-97298095D01*
X256992380Y-97393333D01*
X256992380Y-97631428D01*
X256944761Y-97726666D01*
X256897142Y-97774285D01*
G04 #@! TO.C,J1*
X218106666Y-105092380D02*
X218106666Y-105806666D01*
X218059047Y-105949523D01*
X217963809Y-106044761D01*
X217820952Y-106092380D01*
X217725714Y-106092380D01*
X219106666Y-106092380D02*
X218535238Y-106092380D01*
X218820952Y-106092380D02*
X218820952Y-105092380D01*
X218725714Y-105235238D01*
X218630476Y-105330476D01*
X218535238Y-105378095D01*
G04 #@! TO.C,J2*
X238426666Y-115252380D02*
X238426666Y-115966666D01*
X238379047Y-116109523D01*
X238283809Y-116204761D01*
X238140952Y-116252380D01*
X238045714Y-116252380D01*
X238855238Y-115347619D02*
X238902857Y-115300000D01*
X238998095Y-115252380D01*
X239236190Y-115252380D01*
X239331428Y-115300000D01*
X239379047Y-115347619D01*
X239426666Y-115442857D01*
X239426666Y-115538095D01*
X239379047Y-115680952D01*
X238807619Y-116252380D01*
X239426666Y-116252380D01*
G04 #@! TO.C,switch1*
X256460952Y-72794761D02*
X256556190Y-72842380D01*
X256746666Y-72842380D01*
X256841904Y-72794761D01*
X256889523Y-72699523D01*
X256889523Y-72651904D01*
X256841904Y-72556666D01*
X256746666Y-72509047D01*
X256603809Y-72509047D01*
X256508571Y-72461428D01*
X256460952Y-72366190D01*
X256460952Y-72318571D01*
X256508571Y-72223333D01*
X256603809Y-72175714D01*
X256746666Y-72175714D01*
X256841904Y-72223333D01*
X257222857Y-72175714D02*
X257413333Y-72842380D01*
X257603809Y-72366190D01*
X257794285Y-72842380D01*
X257984761Y-72175714D01*
X258365714Y-72842380D02*
X258365714Y-72175714D01*
X258365714Y-71842380D02*
X258318095Y-71890000D01*
X258365714Y-71937619D01*
X258413333Y-71890000D01*
X258365714Y-71842380D01*
X258365714Y-71937619D01*
X258699047Y-72175714D02*
X259080000Y-72175714D01*
X258841904Y-71842380D02*
X258841904Y-72699523D01*
X258889523Y-72794761D01*
X258984761Y-72842380D01*
X259080000Y-72842380D01*
X259841904Y-72794761D02*
X259746666Y-72842380D01*
X259556190Y-72842380D01*
X259460952Y-72794761D01*
X259413333Y-72747142D01*
X259365714Y-72651904D01*
X259365714Y-72366190D01*
X259413333Y-72270952D01*
X259460952Y-72223333D01*
X259556190Y-72175714D01*
X259746666Y-72175714D01*
X259841904Y-72223333D01*
X260270476Y-72842380D02*
X260270476Y-71842380D01*
X260699047Y-72842380D02*
X260699047Y-72318571D01*
X260651428Y-72223333D01*
X260556190Y-72175714D01*
X260413333Y-72175714D01*
X260318095Y-72223333D01*
X260270476Y-72270952D01*
X261699047Y-72842380D02*
X261127619Y-72842380D01*
X261413333Y-72842380D02*
X261413333Y-71842380D01*
X261318095Y-71985238D01*
X261222857Y-72080476D01*
X261127619Y-72128095D01*
G04 #@! TO.C,R1*
X247932380Y-110656666D02*
X247456190Y-110990000D01*
X247932380Y-111228095D02*
X246932380Y-111228095D01*
X246932380Y-110847142D01*
X246980000Y-110751904D01*
X247027619Y-110704285D01*
X247122857Y-110656666D01*
X247265714Y-110656666D01*
X247360952Y-110704285D01*
X247408571Y-110751904D01*
X247456190Y-110847142D01*
X247456190Y-111228095D01*
X247932380Y-109704285D02*
X247932380Y-110275714D01*
X247932380Y-109990000D02*
X246932380Y-109990000D01*
X247075238Y-110085238D01*
X247170476Y-110180476D01*
X247218095Y-110275714D01*
G04 #@! TD*
M02*
