G04 #@! TF.GenerationSoftware,KiCad,Pcbnew,5.0.0-fee4fd1~65~ubuntu17.10.1*
G04 #@! TF.CreationDate,2019-07-02T16:19:39-04:00*
G04 #@! TF.ProjectId,knuth-gateway,6B6E7574682D676174657761792E6B69,rev?*
G04 #@! TF.SameCoordinates,Original*
G04 #@! TF.FileFunction,Legend,Top*
G04 #@! TF.FilePolarity,Positive*
%FSLAX46Y46*%
G04 Gerber Fmt 4.6, Leading zero omitted, Abs format (unit mm)*
G04 Created by KiCad (PCBNEW 5.0.0-fee4fd1~65~ubuntu17.10.1) date Tue Jul  2 16:19:39 2019*
%MOMM*%
%LPD*%
G01*
G04 APERTURE LIST*
%ADD10C,0.300000*%
%ADD11C,0.120000*%
%ADD12C,0.150000*%
G04 APERTURE END LIST*
D10*
X210860714Y-58733571D02*
X210860714Y-60233571D01*
X210860714Y-58805000D02*
X211003571Y-58733571D01*
X211289285Y-58733571D01*
X211432142Y-58805000D01*
X211503571Y-58876428D01*
X211575000Y-59019285D01*
X211575000Y-59447857D01*
X211503571Y-59590714D01*
X211432142Y-59662142D01*
X211289285Y-59733571D01*
X211003571Y-59733571D01*
X210860714Y-59662142D01*
X212075000Y-58733571D02*
X212432142Y-59733571D01*
X212789285Y-58733571D01*
X213575000Y-59733571D02*
X213432142Y-59662142D01*
X213360714Y-59590714D01*
X213289285Y-59447857D01*
X213289285Y-59019285D01*
X213360714Y-58876428D01*
X213432142Y-58805000D01*
X213575000Y-58733571D01*
X213789285Y-58733571D01*
X213932142Y-58805000D01*
X214003571Y-58876428D01*
X214075000Y-59019285D01*
X214075000Y-59447857D01*
X214003571Y-59590714D01*
X213932142Y-59662142D01*
X213789285Y-59733571D01*
X213575000Y-59733571D01*
X214646428Y-59662142D02*
X214789285Y-59733571D01*
X215075000Y-59733571D01*
X215217857Y-59662142D01*
X215289285Y-59519285D01*
X215289285Y-59447857D01*
X215217857Y-59305000D01*
X215075000Y-59233571D01*
X214860714Y-59233571D01*
X214717857Y-59162142D01*
X214646428Y-59019285D01*
X214646428Y-58947857D01*
X214717857Y-58805000D01*
X214860714Y-58733571D01*
X215075000Y-58733571D01*
X215217857Y-58805000D01*
X215932142Y-59590714D02*
X216003571Y-59662142D01*
X215932142Y-59733571D01*
X215860714Y-59662142D01*
X215932142Y-59590714D01*
X215932142Y-59733571D01*
X216860714Y-59733571D02*
X216717857Y-59662142D01*
X216646428Y-59590714D01*
X216575000Y-59447857D01*
X216575000Y-59019285D01*
X216646428Y-58876428D01*
X216717857Y-58805000D01*
X216860714Y-58733571D01*
X217075000Y-58733571D01*
X217217857Y-58805000D01*
X217289285Y-58876428D01*
X217360714Y-59019285D01*
X217360714Y-59447857D01*
X217289285Y-59590714D01*
X217217857Y-59662142D01*
X217075000Y-59733571D01*
X216860714Y-59733571D01*
X218003571Y-59733571D02*
X218003571Y-58733571D01*
X218003571Y-59019285D02*
X218075000Y-58876428D01*
X218146428Y-58805000D01*
X218289285Y-58733571D01*
X218432142Y-58733571D01*
X219575000Y-58733571D02*
X219575000Y-59947857D01*
X219503571Y-60090714D01*
X219432142Y-60162142D01*
X219289285Y-60233571D01*
X219075000Y-60233571D01*
X218932142Y-60162142D01*
X219575000Y-59662142D02*
X219432142Y-59733571D01*
X219146428Y-59733571D01*
X219003571Y-59662142D01*
X218932142Y-59590714D01*
X218860714Y-59447857D01*
X218860714Y-59019285D01*
X218932142Y-58876428D01*
X219003571Y-58805000D01*
X219146428Y-58733571D01*
X219432142Y-58733571D01*
X219575000Y-58805000D01*
X221360714Y-58162142D02*
X220075000Y-60090714D01*
X221860714Y-59733571D02*
X221860714Y-58233571D01*
X222003571Y-59162142D02*
X222432142Y-59733571D01*
X222432142Y-58733571D02*
X221860714Y-59305000D01*
X223075000Y-58733571D02*
X223075000Y-59733571D01*
X223075000Y-58876428D02*
X223146428Y-58805000D01*
X223289285Y-58733571D01*
X223503571Y-58733571D01*
X223646428Y-58805000D01*
X223717857Y-58947857D01*
X223717857Y-59733571D01*
X225075000Y-58733571D02*
X225075000Y-59733571D01*
X224432142Y-58733571D02*
X224432142Y-59519285D01*
X224503571Y-59662142D01*
X224646428Y-59733571D01*
X224860714Y-59733571D01*
X225003571Y-59662142D01*
X225075000Y-59590714D01*
X225575000Y-58733571D02*
X226146428Y-58733571D01*
X225789285Y-58233571D02*
X225789285Y-59519285D01*
X225860714Y-59662142D01*
X226003571Y-59733571D01*
X226146428Y-59733571D01*
X226646428Y-59733571D02*
X226646428Y-58233571D01*
X227289285Y-59733571D02*
X227289285Y-58947857D01*
X227217857Y-58805000D01*
X227075000Y-58733571D01*
X226860714Y-58733571D01*
X226717857Y-58805000D01*
X226646428Y-58876428D01*
X273728571Y-96339285D02*
X272228571Y-96339285D01*
X273728571Y-95482142D02*
X272871428Y-96125000D01*
X272228571Y-95482142D02*
X273085714Y-96339285D01*
X272728571Y-94839285D02*
X273728571Y-94839285D01*
X272871428Y-94839285D02*
X272800000Y-94767857D01*
X272728571Y-94625000D01*
X272728571Y-94410714D01*
X272800000Y-94267857D01*
X272942857Y-94196428D01*
X273728571Y-94196428D01*
X272728571Y-92839285D02*
X273728571Y-92839285D01*
X272728571Y-93482142D02*
X273514285Y-93482142D01*
X273657142Y-93410714D01*
X273728571Y-93267857D01*
X273728571Y-93053571D01*
X273657142Y-92910714D01*
X273585714Y-92839285D01*
X272728571Y-92339285D02*
X272728571Y-91767857D01*
X272228571Y-92125000D02*
X273514285Y-92125000D01*
X273657142Y-92053571D01*
X273728571Y-91910714D01*
X273728571Y-91767857D01*
X273728571Y-91267857D02*
X272228571Y-91267857D01*
X273728571Y-90625000D02*
X272942857Y-90625000D01*
X272800000Y-90696428D01*
X272728571Y-90839285D01*
X272728571Y-91053571D01*
X272800000Y-91196428D01*
X272871428Y-91267857D01*
X273728571Y-87910714D02*
X273014285Y-88410714D01*
X273728571Y-88767857D02*
X272228571Y-88767857D01*
X272228571Y-88196428D01*
X272300000Y-88053571D01*
X272371428Y-87982142D01*
X272514285Y-87910714D01*
X272728571Y-87910714D01*
X272871428Y-87982142D01*
X272942857Y-88053571D01*
X273014285Y-88196428D01*
X273014285Y-88767857D01*
X273728571Y-86625000D02*
X272942857Y-86625000D01*
X272800000Y-86696428D01*
X272728571Y-86839285D01*
X272728571Y-87125000D01*
X272800000Y-87267857D01*
X273657142Y-86625000D02*
X273728571Y-86767857D01*
X273728571Y-87125000D01*
X273657142Y-87267857D01*
X273514285Y-87339285D01*
X273371428Y-87339285D01*
X273228571Y-87267857D01*
X273157142Y-87125000D01*
X273157142Y-86767857D01*
X273085714Y-86625000D01*
X272728571Y-85910714D02*
X273728571Y-85910714D01*
X272871428Y-85910714D02*
X272800000Y-85839285D01*
X272728571Y-85696428D01*
X272728571Y-85482142D01*
X272800000Y-85339285D01*
X272942857Y-85267857D01*
X273728571Y-85267857D01*
X273657142Y-83910714D02*
X273728571Y-84053571D01*
X273728571Y-84339285D01*
X273657142Y-84482142D01*
X273585714Y-84553571D01*
X273442857Y-84625000D01*
X273014285Y-84625000D01*
X272871428Y-84553571D01*
X272800000Y-84482142D01*
X272728571Y-84339285D01*
X272728571Y-84053571D01*
X272800000Y-83910714D01*
X273728571Y-83267857D02*
X272228571Y-83267857D01*
X273728571Y-82625000D02*
X272942857Y-82625000D01*
X272800000Y-82696428D01*
X272728571Y-82839285D01*
X272728571Y-83053571D01*
X272800000Y-83196428D01*
X272871428Y-83267857D01*
X273585714Y-81910714D02*
X273657142Y-81839285D01*
X273728571Y-81910714D01*
X273657142Y-81982142D01*
X273585714Y-81910714D01*
X273728571Y-81910714D01*
X272800000Y-81910714D02*
X272871428Y-81839285D01*
X272942857Y-81910714D01*
X272871428Y-81982142D01*
X272800000Y-81910714D01*
X272942857Y-81910714D01*
X273585714Y-79196428D02*
X273657142Y-79267857D01*
X273728571Y-79482142D01*
X273728571Y-79625000D01*
X273657142Y-79839285D01*
X273514285Y-79982142D01*
X273371428Y-80053571D01*
X273085714Y-80125000D01*
X272871428Y-80125000D01*
X272585714Y-80053571D01*
X272442857Y-79982142D01*
X272300000Y-79839285D01*
X272228571Y-79625000D01*
X272228571Y-79482142D01*
X272300000Y-79267857D01*
X272371428Y-79196428D01*
X273657142Y-77982142D02*
X273728571Y-78125000D01*
X273728571Y-78410714D01*
X273657142Y-78553571D01*
X273514285Y-78625000D01*
X272942857Y-78625000D01*
X272800000Y-78553571D01*
X272728571Y-78410714D01*
X272728571Y-78125000D01*
X272800000Y-77982142D01*
X272942857Y-77910714D01*
X273085714Y-77910714D01*
X273228571Y-78625000D01*
X273728571Y-77053571D02*
X273657142Y-77196428D01*
X273514285Y-77267857D01*
X272228571Y-77267857D01*
X273728571Y-76267857D02*
X273657142Y-76410714D01*
X273514285Y-76482142D01*
X272228571Y-76482142D01*
X272728571Y-75053571D02*
X273728571Y-75053571D01*
X272728571Y-75696428D02*
X273514285Y-75696428D01*
X273657142Y-75625000D01*
X273728571Y-75482142D01*
X273728571Y-75267857D01*
X273657142Y-75125000D01*
X273585714Y-75053571D01*
X273728571Y-74125000D02*
X273657142Y-74267857D01*
X273514285Y-74339285D01*
X272228571Y-74339285D01*
X273728571Y-72910714D02*
X272942857Y-72910714D01*
X272800000Y-72982142D01*
X272728571Y-73125000D01*
X272728571Y-73410714D01*
X272800000Y-73553571D01*
X273657142Y-72910714D02*
X273728571Y-73053571D01*
X273728571Y-73410714D01*
X273657142Y-73553571D01*
X273514285Y-73625000D01*
X273371428Y-73625000D01*
X273228571Y-73553571D01*
X273157142Y-73410714D01*
X273157142Y-73053571D01*
X273085714Y-72910714D01*
X273728571Y-72196428D02*
X272728571Y-72196428D01*
X273014285Y-72196428D02*
X272871428Y-72125000D01*
X272800000Y-72053571D01*
X272728571Y-71910714D01*
X272728571Y-71767857D01*
X273300000Y-70196428D02*
X273300000Y-69482142D01*
X273728571Y-70339285D02*
X272228571Y-69839285D01*
X273728571Y-69339285D01*
X273728571Y-68196428D02*
X272228571Y-68196428D01*
X273657142Y-68196428D02*
X273728571Y-68339285D01*
X273728571Y-68625000D01*
X273657142Y-68767857D01*
X273585714Y-68839285D01*
X273442857Y-68910714D01*
X273014285Y-68910714D01*
X272871428Y-68839285D01*
X272800000Y-68767857D01*
X272728571Y-68625000D01*
X272728571Y-68339285D01*
X272800000Y-68196428D01*
X273728571Y-66839285D02*
X272942857Y-66839285D01*
X272800000Y-66910714D01*
X272728571Y-67053571D01*
X272728571Y-67339285D01*
X272800000Y-67482142D01*
X273657142Y-66839285D02*
X273728571Y-66982142D01*
X273728571Y-67339285D01*
X273657142Y-67482142D01*
X273514285Y-67553571D01*
X273371428Y-67553571D01*
X273228571Y-67482142D01*
X273157142Y-67339285D01*
X273157142Y-66982142D01*
X273085714Y-66839285D01*
X272728571Y-66125000D02*
X274228571Y-66125000D01*
X272800000Y-66125000D02*
X272728571Y-65982142D01*
X272728571Y-65696428D01*
X272800000Y-65553571D01*
X272871428Y-65482142D01*
X273014285Y-65410714D01*
X273442857Y-65410714D01*
X273585714Y-65482142D01*
X273657142Y-65553571D01*
X273728571Y-65696428D01*
X273728571Y-65982142D01*
X273657142Y-66125000D01*
X272728571Y-64982142D02*
X272728571Y-64410714D01*
X272228571Y-64767857D02*
X273514285Y-64767857D01*
X273657142Y-64696428D01*
X273728571Y-64553571D01*
X273728571Y-64410714D01*
X273657142Y-63339285D02*
X273728571Y-63482142D01*
X273728571Y-63767857D01*
X273657142Y-63910714D01*
X273514285Y-63982142D01*
X272942857Y-63982142D01*
X272800000Y-63910714D01*
X272728571Y-63767857D01*
X272728571Y-63482142D01*
X272800000Y-63339285D01*
X272942857Y-63267857D01*
X273085714Y-63267857D01*
X273228571Y-63982142D01*
X273728571Y-62625000D02*
X272728571Y-62625000D01*
X273014285Y-62625000D02*
X272871428Y-62553571D01*
X272800000Y-62482142D01*
X272728571Y-62339285D01*
X272728571Y-62196428D01*
D11*
G04 #@! TO.C,J_DC_6.5V+_IN1*
X252670000Y-78740000D02*
X255330000Y-78740000D01*
X252670000Y-78740000D02*
X252670000Y-81340000D01*
X252670000Y-81340000D02*
X255330000Y-81340000D01*
X255330000Y-78740000D02*
X255330000Y-81340000D01*
X255330000Y-76140000D02*
X255330000Y-77470000D01*
X254000000Y-76140000D02*
X255330000Y-76140000D01*
G04 #@! TO.C,J_DC_6V_IN1*
X254000000Y-72450000D02*
X252670000Y-72450000D01*
X252670000Y-72450000D02*
X252670000Y-71120000D01*
X252670000Y-69850000D02*
X252670000Y-67250000D01*
X255330000Y-67250000D02*
X252670000Y-67250000D01*
X255330000Y-69850000D02*
X255330000Y-67250000D01*
X255330000Y-69850000D02*
X252670000Y-69850000D01*
G04 #@! TO.C,R1*
X230670000Y-92430000D02*
X230670000Y-88590000D01*
X232510000Y-92430000D02*
X232510000Y-88590000D01*
G04 #@! TO.C,R2*
X239110000Y-75580000D02*
X239110000Y-71740000D01*
X240950000Y-75580000D02*
X240950000Y-71740000D01*
G04 #@! TO.C,R3*
X240620000Y-88000000D02*
X244460000Y-88000000D01*
X240620000Y-86160000D02*
X244460000Y-86160000D01*
G04 #@! TO.C,R_Delay1*
X247490000Y-92070000D02*
X250150000Y-92070000D01*
X247490000Y-92070000D02*
X247490000Y-94670000D01*
X247490000Y-94670000D02*
X250150000Y-94670000D01*
X250150000Y-92070000D02*
X250150000Y-94670000D01*
X250150000Y-89470000D02*
X250150000Y-90800000D01*
X248820000Y-89470000D02*
X250150000Y-89470000D01*
G04 #@! TO.C,U1*
X231140000Y-109280000D02*
X231140000Y-106620000D01*
X231140000Y-109280000D02*
X269300000Y-109280000D01*
X269300000Y-109280000D02*
X269300000Y-106620000D01*
X231140000Y-106620000D02*
X269300000Y-106620000D01*
X228540000Y-106620000D02*
X229870000Y-106620000D01*
X228540000Y-107950000D02*
X228540000Y-106620000D01*
G04 #@! TO.C,U2*
X219710000Y-108010000D02*
X218380000Y-108010000D01*
X218380000Y-108010000D02*
X218380000Y-106680000D01*
X218380000Y-105410000D02*
X218380000Y-67250000D01*
X221040000Y-67250000D02*
X218380000Y-67250000D01*
X221040000Y-105410000D02*
X221040000Y-67250000D01*
X221040000Y-105410000D02*
X218380000Y-105410000D01*
G04 #@! TO.C,U3*
X229266529Y-72475865D02*
X231926529Y-72475865D01*
X229266529Y-72475865D02*
X229266529Y-77615865D01*
X229266529Y-77615865D02*
X231926529Y-77615865D01*
X231926529Y-72475865D02*
X231926529Y-77615865D01*
X231926529Y-69875865D02*
X231926529Y-71205865D01*
X230596529Y-69875865D02*
X231926529Y-69875865D01*
G04 #@! TO.C,U4*
X252670000Y-90170000D02*
X255330000Y-90170000D01*
X252670000Y-90170000D02*
X252670000Y-100390000D01*
X252670000Y-100390000D02*
X255330000Y-100390000D01*
X255330000Y-90170000D02*
X255330000Y-100390000D01*
X255330000Y-87570000D02*
X255330000Y-88900000D01*
X254000000Y-87570000D02*
X255330000Y-87570000D01*
G04 #@! TO.C,U5*
X247710000Y-77470000D02*
X245050000Y-77470000D01*
X247710000Y-77470000D02*
X247710000Y-69790000D01*
X247710000Y-69790000D02*
X245050000Y-69790000D01*
X245050000Y-77470000D02*
X245050000Y-69790000D01*
X245050000Y-80070000D02*
X245050000Y-78740000D01*
X246380000Y-80070000D02*
X245050000Y-80070000D01*
G04 #@! TO.C,U7*
X238760000Y-62290000D02*
X238760000Y-59630000D01*
X238760000Y-62290000D02*
X256600000Y-62290000D01*
X256600000Y-62290000D02*
X256600000Y-59630000D01*
X238760000Y-59630000D02*
X256600000Y-59630000D01*
X236160000Y-59630000D02*
X237490000Y-59630000D01*
X236160000Y-60960000D02*
X236160000Y-59630000D01*
G04 #@! TO.C,Q1*
X233380000Y-82320000D02*
X233380000Y-85920000D01*
X233391522Y-82281522D02*
G75*
G02X237830000Y-84120000I1838478J-1838478D01*
G01*
X233391522Y-85958478D02*
G75*
G03X237830000Y-84120000I1838478J1838478D01*
G01*
G04 #@! TO.C,J1*
X215960000Y-105410000D02*
X213300000Y-105410000D01*
X215960000Y-105410000D02*
X215960000Y-67250000D01*
X215960000Y-67250000D02*
X213300000Y-67250000D01*
X213300000Y-105410000D02*
X213300000Y-67250000D01*
X213300000Y-108010000D02*
X213300000Y-106680000D01*
X214630000Y-108010000D02*
X213300000Y-108010000D01*
G04 #@! TO.C,Q2*
X239180000Y-96071000D02*
X237670000Y-96071000D01*
X239180000Y-92370000D02*
X237670000Y-92370000D01*
X237670000Y-89100000D02*
X237670000Y-99340000D01*
X239180000Y-99340000D02*
X234539000Y-99340000D01*
X239180000Y-89100000D02*
X234539000Y-89100000D01*
X234539000Y-89100000D02*
X234539000Y-99340000D01*
X239180000Y-89100000D02*
X239180000Y-99340000D01*
G04 #@! TO.C,J_DC_6.5V+_IN1*
D12*
X256778809Y-78192380D02*
X256778809Y-78906666D01*
X256731190Y-79049523D01*
X256635952Y-79144761D01*
X256493095Y-79192380D01*
X256397857Y-79192380D01*
X257016904Y-79287619D02*
X257778809Y-79287619D01*
X258016904Y-79192380D02*
X258016904Y-78192380D01*
X258255000Y-78192380D01*
X258397857Y-78240000D01*
X258493095Y-78335238D01*
X258540714Y-78430476D01*
X258588333Y-78620952D01*
X258588333Y-78763809D01*
X258540714Y-78954285D01*
X258493095Y-79049523D01*
X258397857Y-79144761D01*
X258255000Y-79192380D01*
X258016904Y-79192380D01*
X259588333Y-79097142D02*
X259540714Y-79144761D01*
X259397857Y-79192380D01*
X259302619Y-79192380D01*
X259159761Y-79144761D01*
X259064523Y-79049523D01*
X259016904Y-78954285D01*
X258969285Y-78763809D01*
X258969285Y-78620952D01*
X259016904Y-78430476D01*
X259064523Y-78335238D01*
X259159761Y-78240000D01*
X259302619Y-78192380D01*
X259397857Y-78192380D01*
X259540714Y-78240000D01*
X259588333Y-78287619D01*
X259778809Y-79287619D02*
X260540714Y-79287619D01*
X261207380Y-78192380D02*
X261016904Y-78192380D01*
X260921666Y-78240000D01*
X260874047Y-78287619D01*
X260778809Y-78430476D01*
X260731190Y-78620952D01*
X260731190Y-79001904D01*
X260778809Y-79097142D01*
X260826428Y-79144761D01*
X260921666Y-79192380D01*
X261112142Y-79192380D01*
X261207380Y-79144761D01*
X261255000Y-79097142D01*
X261302619Y-79001904D01*
X261302619Y-78763809D01*
X261255000Y-78668571D01*
X261207380Y-78620952D01*
X261112142Y-78573333D01*
X260921666Y-78573333D01*
X260826428Y-78620952D01*
X260778809Y-78668571D01*
X260731190Y-78763809D01*
X261731190Y-79097142D02*
X261778809Y-79144761D01*
X261731190Y-79192380D01*
X261683571Y-79144761D01*
X261731190Y-79097142D01*
X261731190Y-79192380D01*
X262683571Y-78192380D02*
X262207380Y-78192380D01*
X262159761Y-78668571D01*
X262207380Y-78620952D01*
X262302619Y-78573333D01*
X262540714Y-78573333D01*
X262635952Y-78620952D01*
X262683571Y-78668571D01*
X262731190Y-78763809D01*
X262731190Y-79001904D01*
X262683571Y-79097142D01*
X262635952Y-79144761D01*
X262540714Y-79192380D01*
X262302619Y-79192380D01*
X262207380Y-79144761D01*
X262159761Y-79097142D01*
X263016904Y-78192380D02*
X263350238Y-79192380D01*
X263683571Y-78192380D01*
X264016904Y-78811428D02*
X264778809Y-78811428D01*
X264397857Y-79192380D02*
X264397857Y-78430476D01*
X265016904Y-79287619D02*
X265778809Y-79287619D01*
X266016904Y-79192380D02*
X266016904Y-78192380D01*
X266493095Y-79192380D02*
X266493095Y-78192380D01*
X267064523Y-79192380D01*
X267064523Y-78192380D01*
X268064523Y-79192380D02*
X267493095Y-79192380D01*
X267778809Y-79192380D02*
X267778809Y-78192380D01*
X267683571Y-78335238D01*
X267588333Y-78430476D01*
X267493095Y-78478095D01*
G04 #@! TO.C,J_DC_6V_IN1*
X256842142Y-69302380D02*
X256842142Y-70016666D01*
X256794523Y-70159523D01*
X256699285Y-70254761D01*
X256556428Y-70302380D01*
X256461190Y-70302380D01*
X257080238Y-70397619D02*
X257842142Y-70397619D01*
X258080238Y-70302380D02*
X258080238Y-69302380D01*
X258318333Y-69302380D01*
X258461190Y-69350000D01*
X258556428Y-69445238D01*
X258604047Y-69540476D01*
X258651666Y-69730952D01*
X258651666Y-69873809D01*
X258604047Y-70064285D01*
X258556428Y-70159523D01*
X258461190Y-70254761D01*
X258318333Y-70302380D01*
X258080238Y-70302380D01*
X259651666Y-70207142D02*
X259604047Y-70254761D01*
X259461190Y-70302380D01*
X259365952Y-70302380D01*
X259223095Y-70254761D01*
X259127857Y-70159523D01*
X259080238Y-70064285D01*
X259032619Y-69873809D01*
X259032619Y-69730952D01*
X259080238Y-69540476D01*
X259127857Y-69445238D01*
X259223095Y-69350000D01*
X259365952Y-69302380D01*
X259461190Y-69302380D01*
X259604047Y-69350000D01*
X259651666Y-69397619D01*
X259842142Y-70397619D02*
X260604047Y-70397619D01*
X261270714Y-69302380D02*
X261080238Y-69302380D01*
X260985000Y-69350000D01*
X260937380Y-69397619D01*
X260842142Y-69540476D01*
X260794523Y-69730952D01*
X260794523Y-70111904D01*
X260842142Y-70207142D01*
X260889761Y-70254761D01*
X260985000Y-70302380D01*
X261175476Y-70302380D01*
X261270714Y-70254761D01*
X261318333Y-70207142D01*
X261365952Y-70111904D01*
X261365952Y-69873809D01*
X261318333Y-69778571D01*
X261270714Y-69730952D01*
X261175476Y-69683333D01*
X260985000Y-69683333D01*
X260889761Y-69730952D01*
X260842142Y-69778571D01*
X260794523Y-69873809D01*
X261651666Y-69302380D02*
X261985000Y-70302380D01*
X262318333Y-69302380D01*
X262413571Y-70397619D02*
X263175476Y-70397619D01*
X263413571Y-70302380D02*
X263413571Y-69302380D01*
X263889761Y-70302380D02*
X263889761Y-69302380D01*
X264461190Y-70302380D01*
X264461190Y-69302380D01*
X265461190Y-70302380D02*
X264889761Y-70302380D01*
X265175476Y-70302380D02*
X265175476Y-69302380D01*
X265080238Y-69445238D01*
X264985000Y-69540476D01*
X264889761Y-69588095D01*
G04 #@! TO.C,R1*
X233947380Y-90676666D02*
X233471190Y-91010000D01*
X233947380Y-91248095D02*
X232947380Y-91248095D01*
X232947380Y-90867142D01*
X232995000Y-90771904D01*
X233042619Y-90724285D01*
X233137857Y-90676666D01*
X233280714Y-90676666D01*
X233375952Y-90724285D01*
X233423571Y-90771904D01*
X233471190Y-90867142D01*
X233471190Y-91248095D01*
X233947380Y-89724285D02*
X233947380Y-90295714D01*
X233947380Y-90010000D02*
X232947380Y-90010000D01*
X233090238Y-90105238D01*
X233185476Y-90200476D01*
X233233095Y-90295714D01*
G04 #@! TO.C,R2*
X238562380Y-73826666D02*
X238086190Y-74160000D01*
X238562380Y-74398095D02*
X237562380Y-74398095D01*
X237562380Y-74017142D01*
X237610000Y-73921904D01*
X237657619Y-73874285D01*
X237752857Y-73826666D01*
X237895714Y-73826666D01*
X237990952Y-73874285D01*
X238038571Y-73921904D01*
X238086190Y-74017142D01*
X238086190Y-74398095D01*
X237657619Y-73445714D02*
X237610000Y-73398095D01*
X237562380Y-73302857D01*
X237562380Y-73064761D01*
X237610000Y-72969523D01*
X237657619Y-72921904D01*
X237752857Y-72874285D01*
X237848095Y-72874285D01*
X237990952Y-72921904D01*
X238562380Y-73493333D01*
X238562380Y-72874285D01*
G04 #@! TO.C,R3*
X242373333Y-85612380D02*
X242040000Y-85136190D01*
X241801904Y-85612380D02*
X241801904Y-84612380D01*
X242182857Y-84612380D01*
X242278095Y-84660000D01*
X242325714Y-84707619D01*
X242373333Y-84802857D01*
X242373333Y-84945714D01*
X242325714Y-85040952D01*
X242278095Y-85088571D01*
X242182857Y-85136190D01*
X241801904Y-85136190D01*
X242706666Y-84612380D02*
X243325714Y-84612380D01*
X242992380Y-84993333D01*
X243135238Y-84993333D01*
X243230476Y-85040952D01*
X243278095Y-85088571D01*
X243325714Y-85183809D01*
X243325714Y-85421904D01*
X243278095Y-85517142D01*
X243230476Y-85564761D01*
X243135238Y-85612380D01*
X242849523Y-85612380D01*
X242754285Y-85564761D01*
X242706666Y-85517142D01*
G04 #@! TO.C,R_Delay1*
X246097380Y-96546428D02*
X245621190Y-96879761D01*
X246097380Y-97117857D02*
X245097380Y-97117857D01*
X245097380Y-96736904D01*
X245145000Y-96641666D01*
X245192619Y-96594047D01*
X245287857Y-96546428D01*
X245430714Y-96546428D01*
X245525952Y-96594047D01*
X245573571Y-96641666D01*
X245621190Y-96736904D01*
X245621190Y-97117857D01*
X246192619Y-96355952D02*
X246192619Y-95594047D01*
X246097380Y-95355952D02*
X245097380Y-95355952D01*
X245097380Y-95117857D01*
X245145000Y-94975000D01*
X245240238Y-94879761D01*
X245335476Y-94832142D01*
X245525952Y-94784523D01*
X245668809Y-94784523D01*
X245859285Y-94832142D01*
X245954523Y-94879761D01*
X246049761Y-94975000D01*
X246097380Y-95117857D01*
X246097380Y-95355952D01*
X246049761Y-93975000D02*
X246097380Y-94070238D01*
X246097380Y-94260714D01*
X246049761Y-94355952D01*
X245954523Y-94403571D01*
X245573571Y-94403571D01*
X245478333Y-94355952D01*
X245430714Y-94260714D01*
X245430714Y-94070238D01*
X245478333Y-93975000D01*
X245573571Y-93927380D01*
X245668809Y-93927380D01*
X245764047Y-94403571D01*
X246097380Y-93355952D02*
X246049761Y-93451190D01*
X245954523Y-93498809D01*
X245097380Y-93498809D01*
X246097380Y-92546428D02*
X245573571Y-92546428D01*
X245478333Y-92594047D01*
X245430714Y-92689285D01*
X245430714Y-92879761D01*
X245478333Y-92975000D01*
X246049761Y-92546428D02*
X246097380Y-92641666D01*
X246097380Y-92879761D01*
X246049761Y-92975000D01*
X245954523Y-93022619D01*
X245859285Y-93022619D01*
X245764047Y-92975000D01*
X245716428Y-92879761D01*
X245716428Y-92641666D01*
X245668809Y-92546428D01*
X245430714Y-92165476D02*
X246097380Y-91927380D01*
X245430714Y-91689285D02*
X246097380Y-91927380D01*
X246335476Y-92022619D01*
X246383095Y-92070238D01*
X246430714Y-92165476D01*
X246097380Y-90784523D02*
X246097380Y-91355952D01*
X246097380Y-91070238D02*
X245097380Y-91070238D01*
X245240238Y-91165476D01*
X245335476Y-91260714D01*
X245383095Y-91355952D01*
G04 #@! TO.C,U1*
X226552380Y-108711904D02*
X227361904Y-108711904D01*
X227457142Y-108664285D01*
X227504761Y-108616666D01*
X227552380Y-108521428D01*
X227552380Y-108330952D01*
X227504761Y-108235714D01*
X227457142Y-108188095D01*
X227361904Y-108140476D01*
X226552380Y-108140476D01*
X227552380Y-107140476D02*
X227552380Y-107711904D01*
X227552380Y-107426190D02*
X226552380Y-107426190D01*
X226695238Y-107521428D01*
X226790476Y-107616666D01*
X226838095Y-107711904D01*
G04 #@! TO.C,U2*
X218948095Y-108902380D02*
X218948095Y-109711904D01*
X218995714Y-109807142D01*
X219043333Y-109854761D01*
X219138571Y-109902380D01*
X219329047Y-109902380D01*
X219424285Y-109854761D01*
X219471904Y-109807142D01*
X219519523Y-109711904D01*
X219519523Y-108902380D01*
X219948095Y-108997619D02*
X219995714Y-108950000D01*
X220090952Y-108902380D01*
X220329047Y-108902380D01*
X220424285Y-108950000D01*
X220471904Y-108997619D01*
X220519523Y-109092857D01*
X220519523Y-109188095D01*
X220471904Y-109330952D01*
X219900476Y-109902380D01*
X220519523Y-109902380D01*
G04 #@! TO.C,U3*
X229834624Y-67888245D02*
X229834624Y-68697769D01*
X229882243Y-68793007D01*
X229929862Y-68840626D01*
X230025100Y-68888245D01*
X230215576Y-68888245D01*
X230310814Y-68840626D01*
X230358433Y-68793007D01*
X230406052Y-68697769D01*
X230406052Y-67888245D01*
X230787005Y-67888245D02*
X231406052Y-67888245D01*
X231072719Y-68269198D01*
X231215576Y-68269198D01*
X231310814Y-68316817D01*
X231358433Y-68364436D01*
X231406052Y-68459674D01*
X231406052Y-68697769D01*
X231358433Y-68793007D01*
X231310814Y-68840626D01*
X231215576Y-68888245D01*
X230929862Y-68888245D01*
X230834624Y-68840626D01*
X230787005Y-68793007D01*
G04 #@! TO.C,U4*
X253238095Y-85582380D02*
X253238095Y-86391904D01*
X253285714Y-86487142D01*
X253333333Y-86534761D01*
X253428571Y-86582380D01*
X253619047Y-86582380D01*
X253714285Y-86534761D01*
X253761904Y-86487142D01*
X253809523Y-86391904D01*
X253809523Y-85582380D01*
X254714285Y-85915714D02*
X254714285Y-86582380D01*
X254476190Y-85534761D02*
X254238095Y-86249047D01*
X254857142Y-86249047D01*
G04 #@! TO.C,U5*
X245618095Y-80962380D02*
X245618095Y-81771904D01*
X245665714Y-81867142D01*
X245713333Y-81914761D01*
X245808571Y-81962380D01*
X245999047Y-81962380D01*
X246094285Y-81914761D01*
X246141904Y-81867142D01*
X246189523Y-81771904D01*
X246189523Y-80962380D01*
X247141904Y-80962380D02*
X246665714Y-80962380D01*
X246618095Y-81438571D01*
X246665714Y-81390952D01*
X246760952Y-81343333D01*
X246999047Y-81343333D01*
X247094285Y-81390952D01*
X247141904Y-81438571D01*
X247189523Y-81533809D01*
X247189523Y-81771904D01*
X247141904Y-81867142D01*
X247094285Y-81914761D01*
X246999047Y-81962380D01*
X246760952Y-81962380D01*
X246665714Y-81914761D01*
X246618095Y-81867142D01*
G04 #@! TO.C,U7*
X234172380Y-61721904D02*
X234981904Y-61721904D01*
X235077142Y-61674285D01*
X235124761Y-61626666D01*
X235172380Y-61531428D01*
X235172380Y-61340952D01*
X235124761Y-61245714D01*
X235077142Y-61198095D01*
X234981904Y-61150476D01*
X234172380Y-61150476D01*
X234172380Y-60769523D02*
X234172380Y-60102857D01*
X235172380Y-60531428D01*
G04 #@! TO.C,Q1*
X239337619Y-84215238D02*
X239290000Y-84310476D01*
X239194761Y-84405714D01*
X239051904Y-84548571D01*
X239004285Y-84643809D01*
X239004285Y-84739047D01*
X239242380Y-84691428D02*
X239194761Y-84786666D01*
X239099523Y-84881904D01*
X238909047Y-84929523D01*
X238575714Y-84929523D01*
X238385238Y-84881904D01*
X238290000Y-84786666D01*
X238242380Y-84691428D01*
X238242380Y-84500952D01*
X238290000Y-84405714D01*
X238385238Y-84310476D01*
X238575714Y-84262857D01*
X238909047Y-84262857D01*
X239099523Y-84310476D01*
X239194761Y-84405714D01*
X239242380Y-84500952D01*
X239242380Y-84691428D01*
X239242380Y-83310476D02*
X239242380Y-83881904D01*
X239242380Y-83596190D02*
X238242380Y-83596190D01*
X238385238Y-83691428D01*
X238480476Y-83786666D01*
X238528095Y-83881904D01*
G04 #@! TO.C,J1*
X214296666Y-108902380D02*
X214296666Y-109616666D01*
X214249047Y-109759523D01*
X214153809Y-109854761D01*
X214010952Y-109902380D01*
X213915714Y-109902380D01*
X215296666Y-109902380D02*
X214725238Y-109902380D01*
X215010952Y-109902380D02*
X215010952Y-108902380D01*
X214915714Y-109045238D01*
X214820476Y-109140476D01*
X214725238Y-109188095D01*
G04 #@! TO.C,Q2*
X240727619Y-94315238D02*
X240680000Y-94410476D01*
X240584761Y-94505714D01*
X240441904Y-94648571D01*
X240394285Y-94743809D01*
X240394285Y-94839047D01*
X240632380Y-94791428D02*
X240584761Y-94886666D01*
X240489523Y-94981904D01*
X240299047Y-95029523D01*
X239965714Y-95029523D01*
X239775238Y-94981904D01*
X239680000Y-94886666D01*
X239632380Y-94791428D01*
X239632380Y-94600952D01*
X239680000Y-94505714D01*
X239775238Y-94410476D01*
X239965714Y-94362857D01*
X240299047Y-94362857D01*
X240489523Y-94410476D01*
X240584761Y-94505714D01*
X240632380Y-94600952D01*
X240632380Y-94791428D01*
X239727619Y-93981904D02*
X239680000Y-93934285D01*
X239632380Y-93839047D01*
X239632380Y-93600952D01*
X239680000Y-93505714D01*
X239727619Y-93458095D01*
X239822857Y-93410476D01*
X239918095Y-93410476D01*
X240060952Y-93458095D01*
X240632380Y-94029523D01*
X240632380Y-93410476D01*
G04 #@! TD*
M02*
