G04 #@! TF.GenerationSoftware,KiCad,Pcbnew,5.0.2-bee76a0~70~ubuntu18.04.1*
G04 #@! TF.CreationDate,2019-07-21T13:39:32-04:00*
G04 #@! TF.ProjectId,knuth-gateway,6b6e7574-682d-4676-9174-657761792e6b,rev?*
G04 #@! TF.SameCoordinates,Original*
G04 #@! TF.FileFunction,Soldermask,Bot*
G04 #@! TF.FilePolarity,Negative*
%FSLAX46Y46*%
G04 Gerber Fmt 4.6, Leading zero omitted, Abs format (unit mm)*
G04 Created by KiCad (PCBNEW 5.0.2-bee76a0~70~ubuntu18.04.1) date Sun 21 Jul 2019 01:39:32 PM EDT*
%MOMM*%
%LPD*%
G01*
G04 APERTURE LIST*
%ADD10C,0.100000*%
G04 APERTURE END LIST*
D10*
G36*
X258711000Y-108851000D02*
X256909000Y-108851000D01*
X256909000Y-107049000D01*
X258711000Y-107049000D01*
X258711000Y-108851000D01*
X258711000Y-108851000D01*
G37*
G36*
X255380442Y-107055518D02*
X255446627Y-107062037D01*
X255559853Y-107096384D01*
X255616467Y-107113557D01*
X255755087Y-107187652D01*
X255772991Y-107197222D01*
X255808729Y-107226552D01*
X255910186Y-107309814D01*
X255993448Y-107411271D01*
X256022778Y-107447009D01*
X256022779Y-107447011D01*
X256106443Y-107603533D01*
X256106443Y-107603534D01*
X256157963Y-107773373D01*
X256175359Y-107950000D01*
X256157963Y-108126627D01*
X256123616Y-108239853D01*
X256106443Y-108296467D01*
X256032348Y-108435087D01*
X256022778Y-108452991D01*
X255993448Y-108488729D01*
X255910186Y-108590186D01*
X255808729Y-108673448D01*
X255772991Y-108702778D01*
X255772989Y-108702779D01*
X255616467Y-108786443D01*
X255559853Y-108803616D01*
X255446627Y-108837963D01*
X255380442Y-108844482D01*
X255314260Y-108851000D01*
X255225740Y-108851000D01*
X255159558Y-108844482D01*
X255093373Y-108837963D01*
X254980147Y-108803616D01*
X254923533Y-108786443D01*
X254767011Y-108702779D01*
X254767009Y-108702778D01*
X254731271Y-108673448D01*
X254629814Y-108590186D01*
X254546552Y-108488729D01*
X254517222Y-108452991D01*
X254507652Y-108435087D01*
X254433557Y-108296467D01*
X254416384Y-108239853D01*
X254382037Y-108126627D01*
X254364641Y-107950000D01*
X254382037Y-107773373D01*
X254433557Y-107603534D01*
X254433557Y-107603533D01*
X254517221Y-107447011D01*
X254517222Y-107447009D01*
X254546552Y-107411271D01*
X254629814Y-107309814D01*
X254731271Y-107226552D01*
X254767009Y-107197222D01*
X254784913Y-107187652D01*
X254923533Y-107113557D01*
X254980147Y-107096384D01*
X255093373Y-107062037D01*
X255159558Y-107055518D01*
X255225740Y-107049000D01*
X255314260Y-107049000D01*
X255380442Y-107055518D01*
X255380442Y-107055518D01*
G37*
G36*
X229980442Y-107055518D02*
X230046627Y-107062037D01*
X230159853Y-107096384D01*
X230216467Y-107113557D01*
X230355087Y-107187652D01*
X230372991Y-107197222D01*
X230408729Y-107226552D01*
X230510186Y-107309814D01*
X230593448Y-107411271D01*
X230622778Y-107447009D01*
X230622779Y-107447011D01*
X230706443Y-107603533D01*
X230706443Y-107603534D01*
X230757963Y-107773373D01*
X230775359Y-107950000D01*
X230757963Y-108126627D01*
X230723616Y-108239853D01*
X230706443Y-108296467D01*
X230632348Y-108435087D01*
X230622778Y-108452991D01*
X230593448Y-108488729D01*
X230510186Y-108590186D01*
X230408729Y-108673448D01*
X230372991Y-108702778D01*
X230372989Y-108702779D01*
X230216467Y-108786443D01*
X230159853Y-108803616D01*
X230046627Y-108837963D01*
X229980442Y-108844482D01*
X229914260Y-108851000D01*
X229825740Y-108851000D01*
X229759558Y-108844482D01*
X229693373Y-108837963D01*
X229580147Y-108803616D01*
X229523533Y-108786443D01*
X229367011Y-108702779D01*
X229367009Y-108702778D01*
X229331271Y-108673448D01*
X229229814Y-108590186D01*
X229146552Y-108488729D01*
X229117222Y-108452991D01*
X229107652Y-108435087D01*
X229033557Y-108296467D01*
X229016384Y-108239853D01*
X228982037Y-108126627D01*
X228964641Y-107950000D01*
X228982037Y-107773373D01*
X229033557Y-107603534D01*
X229033557Y-107603533D01*
X229117221Y-107447011D01*
X229117222Y-107447009D01*
X229146552Y-107411271D01*
X229229814Y-107309814D01*
X229331271Y-107226552D01*
X229367009Y-107197222D01*
X229384913Y-107187652D01*
X229523533Y-107113557D01*
X229580147Y-107096384D01*
X229693373Y-107062037D01*
X229759558Y-107055518D01*
X229825740Y-107049000D01*
X229914260Y-107049000D01*
X229980442Y-107055518D01*
X229980442Y-107055518D01*
G37*
G36*
X232520442Y-107055518D02*
X232586627Y-107062037D01*
X232699853Y-107096384D01*
X232756467Y-107113557D01*
X232895087Y-107187652D01*
X232912991Y-107197222D01*
X232948729Y-107226552D01*
X233050186Y-107309814D01*
X233133448Y-107411271D01*
X233162778Y-107447009D01*
X233162779Y-107447011D01*
X233246443Y-107603533D01*
X233246443Y-107603534D01*
X233297963Y-107773373D01*
X233315359Y-107950000D01*
X233297963Y-108126627D01*
X233263616Y-108239853D01*
X233246443Y-108296467D01*
X233172348Y-108435087D01*
X233162778Y-108452991D01*
X233133448Y-108488729D01*
X233050186Y-108590186D01*
X232948729Y-108673448D01*
X232912991Y-108702778D01*
X232912989Y-108702779D01*
X232756467Y-108786443D01*
X232699853Y-108803616D01*
X232586627Y-108837963D01*
X232520442Y-108844482D01*
X232454260Y-108851000D01*
X232365740Y-108851000D01*
X232299558Y-108844482D01*
X232233373Y-108837963D01*
X232120147Y-108803616D01*
X232063533Y-108786443D01*
X231907011Y-108702779D01*
X231907009Y-108702778D01*
X231871271Y-108673448D01*
X231769814Y-108590186D01*
X231686552Y-108488729D01*
X231657222Y-108452991D01*
X231647652Y-108435087D01*
X231573557Y-108296467D01*
X231556384Y-108239853D01*
X231522037Y-108126627D01*
X231504641Y-107950000D01*
X231522037Y-107773373D01*
X231573557Y-107603534D01*
X231573557Y-107603533D01*
X231657221Y-107447011D01*
X231657222Y-107447009D01*
X231686552Y-107411271D01*
X231769814Y-107309814D01*
X231871271Y-107226552D01*
X231907009Y-107197222D01*
X231924913Y-107187652D01*
X232063533Y-107113557D01*
X232120147Y-107096384D01*
X232233373Y-107062037D01*
X232299558Y-107055518D01*
X232365740Y-107049000D01*
X232454260Y-107049000D01*
X232520442Y-107055518D01*
X232520442Y-107055518D01*
G37*
G36*
X235060442Y-107055518D02*
X235126627Y-107062037D01*
X235239853Y-107096384D01*
X235296467Y-107113557D01*
X235435087Y-107187652D01*
X235452991Y-107197222D01*
X235488729Y-107226552D01*
X235590186Y-107309814D01*
X235673448Y-107411271D01*
X235702778Y-107447009D01*
X235702779Y-107447011D01*
X235786443Y-107603533D01*
X235786443Y-107603534D01*
X235837963Y-107773373D01*
X235855359Y-107950000D01*
X235837963Y-108126627D01*
X235803616Y-108239853D01*
X235786443Y-108296467D01*
X235712348Y-108435087D01*
X235702778Y-108452991D01*
X235673448Y-108488729D01*
X235590186Y-108590186D01*
X235488729Y-108673448D01*
X235452991Y-108702778D01*
X235452989Y-108702779D01*
X235296467Y-108786443D01*
X235239853Y-108803616D01*
X235126627Y-108837963D01*
X235060442Y-108844482D01*
X234994260Y-108851000D01*
X234905740Y-108851000D01*
X234839558Y-108844482D01*
X234773373Y-108837963D01*
X234660147Y-108803616D01*
X234603533Y-108786443D01*
X234447011Y-108702779D01*
X234447009Y-108702778D01*
X234411271Y-108673448D01*
X234309814Y-108590186D01*
X234226552Y-108488729D01*
X234197222Y-108452991D01*
X234187652Y-108435087D01*
X234113557Y-108296467D01*
X234096384Y-108239853D01*
X234062037Y-108126627D01*
X234044641Y-107950000D01*
X234062037Y-107773373D01*
X234113557Y-107603534D01*
X234113557Y-107603533D01*
X234197221Y-107447011D01*
X234197222Y-107447009D01*
X234226552Y-107411271D01*
X234309814Y-107309814D01*
X234411271Y-107226552D01*
X234447009Y-107197222D01*
X234464913Y-107187652D01*
X234603533Y-107113557D01*
X234660147Y-107096384D01*
X234773373Y-107062037D01*
X234839558Y-107055518D01*
X234905740Y-107049000D01*
X234994260Y-107049000D01*
X235060442Y-107055518D01*
X235060442Y-107055518D01*
G37*
G36*
X237600442Y-107055518D02*
X237666627Y-107062037D01*
X237779853Y-107096384D01*
X237836467Y-107113557D01*
X237975087Y-107187652D01*
X237992991Y-107197222D01*
X238028729Y-107226552D01*
X238130186Y-107309814D01*
X238213448Y-107411271D01*
X238242778Y-107447009D01*
X238242779Y-107447011D01*
X238326443Y-107603533D01*
X238326443Y-107603534D01*
X238377963Y-107773373D01*
X238395359Y-107950000D01*
X238377963Y-108126627D01*
X238343616Y-108239853D01*
X238326443Y-108296467D01*
X238252348Y-108435087D01*
X238242778Y-108452991D01*
X238213448Y-108488729D01*
X238130186Y-108590186D01*
X238028729Y-108673448D01*
X237992991Y-108702778D01*
X237992989Y-108702779D01*
X237836467Y-108786443D01*
X237779853Y-108803616D01*
X237666627Y-108837963D01*
X237600442Y-108844482D01*
X237534260Y-108851000D01*
X237445740Y-108851000D01*
X237379558Y-108844482D01*
X237313373Y-108837963D01*
X237200147Y-108803616D01*
X237143533Y-108786443D01*
X236987011Y-108702779D01*
X236987009Y-108702778D01*
X236951271Y-108673448D01*
X236849814Y-108590186D01*
X236766552Y-108488729D01*
X236737222Y-108452991D01*
X236727652Y-108435087D01*
X236653557Y-108296467D01*
X236636384Y-108239853D01*
X236602037Y-108126627D01*
X236584641Y-107950000D01*
X236602037Y-107773373D01*
X236653557Y-107603534D01*
X236653557Y-107603533D01*
X236737221Y-107447011D01*
X236737222Y-107447009D01*
X236766552Y-107411271D01*
X236849814Y-107309814D01*
X236951271Y-107226552D01*
X236987009Y-107197222D01*
X237004913Y-107187652D01*
X237143533Y-107113557D01*
X237200147Y-107096384D01*
X237313373Y-107062037D01*
X237379558Y-107055518D01*
X237445740Y-107049000D01*
X237534260Y-107049000D01*
X237600442Y-107055518D01*
X237600442Y-107055518D01*
G37*
G36*
X240140442Y-107055518D02*
X240206627Y-107062037D01*
X240319853Y-107096384D01*
X240376467Y-107113557D01*
X240515087Y-107187652D01*
X240532991Y-107197222D01*
X240568729Y-107226552D01*
X240670186Y-107309814D01*
X240753448Y-107411271D01*
X240782778Y-107447009D01*
X240782779Y-107447011D01*
X240866443Y-107603533D01*
X240866443Y-107603534D01*
X240917963Y-107773373D01*
X240935359Y-107950000D01*
X240917963Y-108126627D01*
X240883616Y-108239853D01*
X240866443Y-108296467D01*
X240792348Y-108435087D01*
X240782778Y-108452991D01*
X240753448Y-108488729D01*
X240670186Y-108590186D01*
X240568729Y-108673448D01*
X240532991Y-108702778D01*
X240532989Y-108702779D01*
X240376467Y-108786443D01*
X240319853Y-108803616D01*
X240206627Y-108837963D01*
X240140442Y-108844482D01*
X240074260Y-108851000D01*
X239985740Y-108851000D01*
X239919558Y-108844482D01*
X239853373Y-108837963D01*
X239740147Y-108803616D01*
X239683533Y-108786443D01*
X239527011Y-108702779D01*
X239527009Y-108702778D01*
X239491271Y-108673448D01*
X239389814Y-108590186D01*
X239306552Y-108488729D01*
X239277222Y-108452991D01*
X239267652Y-108435087D01*
X239193557Y-108296467D01*
X239176384Y-108239853D01*
X239142037Y-108126627D01*
X239124641Y-107950000D01*
X239142037Y-107773373D01*
X239193557Y-107603534D01*
X239193557Y-107603533D01*
X239277221Y-107447011D01*
X239277222Y-107447009D01*
X239306552Y-107411271D01*
X239389814Y-107309814D01*
X239491271Y-107226552D01*
X239527009Y-107197222D01*
X239544913Y-107187652D01*
X239683533Y-107113557D01*
X239740147Y-107096384D01*
X239853373Y-107062037D01*
X239919558Y-107055518D01*
X239985740Y-107049000D01*
X240074260Y-107049000D01*
X240140442Y-107055518D01*
X240140442Y-107055518D01*
G37*
G36*
X245220442Y-107055518D02*
X245286627Y-107062037D01*
X245399853Y-107096384D01*
X245456467Y-107113557D01*
X245595087Y-107187652D01*
X245612991Y-107197222D01*
X245648729Y-107226552D01*
X245750186Y-107309814D01*
X245833448Y-107411271D01*
X245862778Y-107447009D01*
X245862779Y-107447011D01*
X245946443Y-107603533D01*
X245946443Y-107603534D01*
X245997963Y-107773373D01*
X246015359Y-107950000D01*
X245997963Y-108126627D01*
X245963616Y-108239853D01*
X245946443Y-108296467D01*
X245872348Y-108435087D01*
X245862778Y-108452991D01*
X245833448Y-108488729D01*
X245750186Y-108590186D01*
X245648729Y-108673448D01*
X245612991Y-108702778D01*
X245612989Y-108702779D01*
X245456467Y-108786443D01*
X245399853Y-108803616D01*
X245286627Y-108837963D01*
X245220442Y-108844482D01*
X245154260Y-108851000D01*
X245065740Y-108851000D01*
X244999558Y-108844482D01*
X244933373Y-108837963D01*
X244820147Y-108803616D01*
X244763533Y-108786443D01*
X244607011Y-108702779D01*
X244607009Y-108702778D01*
X244571271Y-108673448D01*
X244469814Y-108590186D01*
X244386552Y-108488729D01*
X244357222Y-108452991D01*
X244347652Y-108435087D01*
X244273557Y-108296467D01*
X244256384Y-108239853D01*
X244222037Y-108126627D01*
X244204641Y-107950000D01*
X244222037Y-107773373D01*
X244273557Y-107603534D01*
X244273557Y-107603533D01*
X244357221Y-107447011D01*
X244357222Y-107447009D01*
X244386552Y-107411271D01*
X244469814Y-107309814D01*
X244571271Y-107226552D01*
X244607009Y-107197222D01*
X244624913Y-107187652D01*
X244763533Y-107113557D01*
X244820147Y-107096384D01*
X244933373Y-107062037D01*
X244999558Y-107055518D01*
X245065740Y-107049000D01*
X245154260Y-107049000D01*
X245220442Y-107055518D01*
X245220442Y-107055518D01*
G37*
G36*
X247760442Y-107055518D02*
X247826627Y-107062037D01*
X247939853Y-107096384D01*
X247996467Y-107113557D01*
X248135087Y-107187652D01*
X248152991Y-107197222D01*
X248188729Y-107226552D01*
X248290186Y-107309814D01*
X248373448Y-107411271D01*
X248402778Y-107447009D01*
X248402779Y-107447011D01*
X248486443Y-107603533D01*
X248486443Y-107603534D01*
X248537963Y-107773373D01*
X248555359Y-107950000D01*
X248537963Y-108126627D01*
X248503616Y-108239853D01*
X248486443Y-108296467D01*
X248412348Y-108435087D01*
X248402778Y-108452991D01*
X248373448Y-108488729D01*
X248290186Y-108590186D01*
X248188729Y-108673448D01*
X248152991Y-108702778D01*
X248152989Y-108702779D01*
X247996467Y-108786443D01*
X247939853Y-108803616D01*
X247826627Y-108837963D01*
X247760442Y-108844482D01*
X247694260Y-108851000D01*
X247605740Y-108851000D01*
X247539558Y-108844482D01*
X247473373Y-108837963D01*
X247360147Y-108803616D01*
X247303533Y-108786443D01*
X247147011Y-108702779D01*
X247147009Y-108702778D01*
X247111271Y-108673448D01*
X247009814Y-108590186D01*
X246926552Y-108488729D01*
X246897222Y-108452991D01*
X246887652Y-108435087D01*
X246813557Y-108296467D01*
X246796384Y-108239853D01*
X246762037Y-108126627D01*
X246744641Y-107950000D01*
X246762037Y-107773373D01*
X246813557Y-107603534D01*
X246813557Y-107603533D01*
X246897221Y-107447011D01*
X246897222Y-107447009D01*
X246926552Y-107411271D01*
X247009814Y-107309814D01*
X247111271Y-107226552D01*
X247147009Y-107197222D01*
X247164913Y-107187652D01*
X247303533Y-107113557D01*
X247360147Y-107096384D01*
X247473373Y-107062037D01*
X247539558Y-107055518D01*
X247605740Y-107049000D01*
X247694260Y-107049000D01*
X247760442Y-107055518D01*
X247760442Y-107055518D01*
G37*
G36*
X250300442Y-107055518D02*
X250366627Y-107062037D01*
X250479853Y-107096384D01*
X250536467Y-107113557D01*
X250675087Y-107187652D01*
X250692991Y-107197222D01*
X250728729Y-107226552D01*
X250830186Y-107309814D01*
X250913448Y-107411271D01*
X250942778Y-107447009D01*
X250942779Y-107447011D01*
X251026443Y-107603533D01*
X251026443Y-107603534D01*
X251077963Y-107773373D01*
X251095359Y-107950000D01*
X251077963Y-108126627D01*
X251043616Y-108239853D01*
X251026443Y-108296467D01*
X250952348Y-108435087D01*
X250942778Y-108452991D01*
X250913448Y-108488729D01*
X250830186Y-108590186D01*
X250728729Y-108673448D01*
X250692991Y-108702778D01*
X250692989Y-108702779D01*
X250536467Y-108786443D01*
X250479853Y-108803616D01*
X250366627Y-108837963D01*
X250300442Y-108844482D01*
X250234260Y-108851000D01*
X250145740Y-108851000D01*
X250079558Y-108844482D01*
X250013373Y-108837963D01*
X249900147Y-108803616D01*
X249843533Y-108786443D01*
X249687011Y-108702779D01*
X249687009Y-108702778D01*
X249651271Y-108673448D01*
X249549814Y-108590186D01*
X249466552Y-108488729D01*
X249437222Y-108452991D01*
X249427652Y-108435087D01*
X249353557Y-108296467D01*
X249336384Y-108239853D01*
X249302037Y-108126627D01*
X249284641Y-107950000D01*
X249302037Y-107773373D01*
X249353557Y-107603534D01*
X249353557Y-107603533D01*
X249437221Y-107447011D01*
X249437222Y-107447009D01*
X249466552Y-107411271D01*
X249549814Y-107309814D01*
X249651271Y-107226552D01*
X249687009Y-107197222D01*
X249704913Y-107187652D01*
X249843533Y-107113557D01*
X249900147Y-107096384D01*
X250013373Y-107062037D01*
X250079558Y-107055518D01*
X250145740Y-107049000D01*
X250234260Y-107049000D01*
X250300442Y-107055518D01*
X250300442Y-107055518D01*
G37*
G36*
X252840442Y-107055518D02*
X252906627Y-107062037D01*
X253019853Y-107096384D01*
X253076467Y-107113557D01*
X253215087Y-107187652D01*
X253232991Y-107197222D01*
X253268729Y-107226552D01*
X253370186Y-107309814D01*
X253453448Y-107411271D01*
X253482778Y-107447009D01*
X253482779Y-107447011D01*
X253566443Y-107603533D01*
X253566443Y-107603534D01*
X253617963Y-107773373D01*
X253635359Y-107950000D01*
X253617963Y-108126627D01*
X253583616Y-108239853D01*
X253566443Y-108296467D01*
X253492348Y-108435087D01*
X253482778Y-108452991D01*
X253453448Y-108488729D01*
X253370186Y-108590186D01*
X253268729Y-108673448D01*
X253232991Y-108702778D01*
X253232989Y-108702779D01*
X253076467Y-108786443D01*
X253019853Y-108803616D01*
X252906627Y-108837963D01*
X252840442Y-108844482D01*
X252774260Y-108851000D01*
X252685740Y-108851000D01*
X252619558Y-108844482D01*
X252553373Y-108837963D01*
X252440147Y-108803616D01*
X252383533Y-108786443D01*
X252227011Y-108702779D01*
X252227009Y-108702778D01*
X252191271Y-108673448D01*
X252089814Y-108590186D01*
X252006552Y-108488729D01*
X251977222Y-108452991D01*
X251967652Y-108435087D01*
X251893557Y-108296467D01*
X251876384Y-108239853D01*
X251842037Y-108126627D01*
X251824641Y-107950000D01*
X251842037Y-107773373D01*
X251893557Y-107603534D01*
X251893557Y-107603533D01*
X251977221Y-107447011D01*
X251977222Y-107447009D01*
X252006552Y-107411271D01*
X252089814Y-107309814D01*
X252191271Y-107226552D01*
X252227009Y-107197222D01*
X252244913Y-107187652D01*
X252383533Y-107113557D01*
X252440147Y-107096384D01*
X252553373Y-107062037D01*
X252619558Y-107055518D01*
X252685740Y-107049000D01*
X252774260Y-107049000D01*
X252840442Y-107055518D01*
X252840442Y-107055518D01*
G37*
G36*
X242680442Y-107055518D02*
X242746627Y-107062037D01*
X242859853Y-107096384D01*
X242916467Y-107113557D01*
X243055087Y-107187652D01*
X243072991Y-107197222D01*
X243108729Y-107226552D01*
X243210186Y-107309814D01*
X243293448Y-107411271D01*
X243322778Y-107447009D01*
X243322779Y-107447011D01*
X243406443Y-107603533D01*
X243406443Y-107603534D01*
X243457963Y-107773373D01*
X243475359Y-107950000D01*
X243457963Y-108126627D01*
X243423616Y-108239853D01*
X243406443Y-108296467D01*
X243332348Y-108435087D01*
X243322778Y-108452991D01*
X243293448Y-108488729D01*
X243210186Y-108590186D01*
X243108729Y-108673448D01*
X243072991Y-108702778D01*
X243072989Y-108702779D01*
X242916467Y-108786443D01*
X242859853Y-108803616D01*
X242746627Y-108837963D01*
X242680442Y-108844482D01*
X242614260Y-108851000D01*
X242525740Y-108851000D01*
X242459558Y-108844482D01*
X242393373Y-108837963D01*
X242280147Y-108803616D01*
X242223533Y-108786443D01*
X242067011Y-108702779D01*
X242067009Y-108702778D01*
X242031271Y-108673448D01*
X241929814Y-108590186D01*
X241846552Y-108488729D01*
X241817222Y-108452991D01*
X241807652Y-108435087D01*
X241733557Y-108296467D01*
X241716384Y-108239853D01*
X241682037Y-108126627D01*
X241664641Y-107950000D01*
X241682037Y-107773373D01*
X241733557Y-107603534D01*
X241733557Y-107603533D01*
X241817221Y-107447011D01*
X241817222Y-107447009D01*
X241846552Y-107411271D01*
X241929814Y-107309814D01*
X242031271Y-107226552D01*
X242067009Y-107197222D01*
X242084913Y-107187652D01*
X242223533Y-107113557D01*
X242280147Y-107096384D01*
X242393373Y-107062037D01*
X242459558Y-107055518D01*
X242525740Y-107049000D01*
X242614260Y-107049000D01*
X242680442Y-107055518D01*
X242680442Y-107055518D01*
G37*
G36*
X215531000Y-107581000D02*
X213729000Y-107581000D01*
X213729000Y-105779000D01*
X215531000Y-105779000D01*
X215531000Y-107581000D01*
X215531000Y-107581000D01*
G37*
G36*
X220611000Y-107581000D02*
X218809000Y-107581000D01*
X218809000Y-105779000D01*
X220611000Y-105779000D01*
X220611000Y-107581000D01*
X220611000Y-107581000D01*
G37*
G36*
X214740443Y-103245519D02*
X214806627Y-103252037D01*
X214919853Y-103286384D01*
X214976467Y-103303557D01*
X215115087Y-103377652D01*
X215132991Y-103387222D01*
X215168729Y-103416552D01*
X215270186Y-103499814D01*
X215353448Y-103601271D01*
X215382778Y-103637009D01*
X215382779Y-103637011D01*
X215466443Y-103793533D01*
X215466443Y-103793534D01*
X215517963Y-103963373D01*
X215535359Y-104140000D01*
X215517963Y-104316627D01*
X215483616Y-104429853D01*
X215466443Y-104486467D01*
X215392348Y-104625087D01*
X215382778Y-104642991D01*
X215353448Y-104678729D01*
X215270186Y-104780186D01*
X215168729Y-104863448D01*
X215132991Y-104892778D01*
X215132989Y-104892779D01*
X214976467Y-104976443D01*
X214919853Y-104993616D01*
X214806627Y-105027963D01*
X214740442Y-105034482D01*
X214674260Y-105041000D01*
X214585740Y-105041000D01*
X214519557Y-105034481D01*
X214453373Y-105027963D01*
X214340147Y-104993616D01*
X214283533Y-104976443D01*
X214127011Y-104892779D01*
X214127009Y-104892778D01*
X214091271Y-104863448D01*
X213989814Y-104780186D01*
X213906552Y-104678729D01*
X213877222Y-104642991D01*
X213867652Y-104625087D01*
X213793557Y-104486467D01*
X213776384Y-104429853D01*
X213742037Y-104316627D01*
X213724641Y-104140000D01*
X213742037Y-103963373D01*
X213793557Y-103793534D01*
X213793557Y-103793533D01*
X213877221Y-103637011D01*
X213877222Y-103637009D01*
X213906552Y-103601271D01*
X213989814Y-103499814D01*
X214091271Y-103416552D01*
X214127009Y-103387222D01*
X214144913Y-103377652D01*
X214283533Y-103303557D01*
X214340147Y-103286384D01*
X214453373Y-103252037D01*
X214519558Y-103245518D01*
X214585740Y-103239000D01*
X214674260Y-103239000D01*
X214740443Y-103245519D01*
X214740443Y-103245519D01*
G37*
G36*
X219820443Y-103245519D02*
X219886627Y-103252037D01*
X219999853Y-103286384D01*
X220056467Y-103303557D01*
X220195087Y-103377652D01*
X220212991Y-103387222D01*
X220248729Y-103416552D01*
X220350186Y-103499814D01*
X220433448Y-103601271D01*
X220462778Y-103637009D01*
X220462779Y-103637011D01*
X220546443Y-103793533D01*
X220546443Y-103793534D01*
X220597963Y-103963373D01*
X220615359Y-104140000D01*
X220597963Y-104316627D01*
X220563616Y-104429853D01*
X220546443Y-104486467D01*
X220472348Y-104625087D01*
X220462778Y-104642991D01*
X220433448Y-104678729D01*
X220350186Y-104780186D01*
X220248729Y-104863448D01*
X220212991Y-104892778D01*
X220212989Y-104892779D01*
X220056467Y-104976443D01*
X219999853Y-104993616D01*
X219886627Y-105027963D01*
X219820442Y-105034482D01*
X219754260Y-105041000D01*
X219665740Y-105041000D01*
X219599557Y-105034481D01*
X219533373Y-105027963D01*
X219420147Y-104993616D01*
X219363533Y-104976443D01*
X219207011Y-104892779D01*
X219207009Y-104892778D01*
X219171271Y-104863448D01*
X219069814Y-104780186D01*
X218986552Y-104678729D01*
X218957222Y-104642991D01*
X218947652Y-104625087D01*
X218873557Y-104486467D01*
X218856384Y-104429853D01*
X218822037Y-104316627D01*
X218804641Y-104140000D01*
X218822037Y-103963373D01*
X218873557Y-103793534D01*
X218873557Y-103793533D01*
X218957221Y-103637011D01*
X218957222Y-103637009D01*
X218986552Y-103601271D01*
X219069814Y-103499814D01*
X219171271Y-103416552D01*
X219207009Y-103387222D01*
X219224913Y-103377652D01*
X219363533Y-103303557D01*
X219420147Y-103286384D01*
X219533373Y-103252037D01*
X219599558Y-103245518D01*
X219665740Y-103239000D01*
X219754260Y-103239000D01*
X219820443Y-103245519D01*
X219820443Y-103245519D01*
G37*
G36*
X214740443Y-100705519D02*
X214806627Y-100712037D01*
X214919853Y-100746384D01*
X214976467Y-100763557D01*
X215115087Y-100837652D01*
X215132991Y-100847222D01*
X215168729Y-100876552D01*
X215270186Y-100959814D01*
X215353448Y-101061271D01*
X215382778Y-101097009D01*
X215382779Y-101097011D01*
X215466443Y-101253533D01*
X215466443Y-101253534D01*
X215517963Y-101423373D01*
X215535359Y-101600000D01*
X215517963Y-101776627D01*
X215483616Y-101889853D01*
X215466443Y-101946467D01*
X215392348Y-102085087D01*
X215382778Y-102102991D01*
X215353448Y-102138729D01*
X215270186Y-102240186D01*
X215168729Y-102323448D01*
X215132991Y-102352778D01*
X215132989Y-102352779D01*
X214976467Y-102436443D01*
X214919853Y-102453616D01*
X214806627Y-102487963D01*
X214740442Y-102494482D01*
X214674260Y-102501000D01*
X214585740Y-102501000D01*
X214519558Y-102494482D01*
X214453373Y-102487963D01*
X214340147Y-102453616D01*
X214283533Y-102436443D01*
X214127011Y-102352779D01*
X214127009Y-102352778D01*
X214091271Y-102323448D01*
X213989814Y-102240186D01*
X213906552Y-102138729D01*
X213877222Y-102102991D01*
X213867652Y-102085087D01*
X213793557Y-101946467D01*
X213776384Y-101889853D01*
X213742037Y-101776627D01*
X213724641Y-101600000D01*
X213742037Y-101423373D01*
X213793557Y-101253534D01*
X213793557Y-101253533D01*
X213877221Y-101097011D01*
X213877222Y-101097009D01*
X213906552Y-101061271D01*
X213989814Y-100959814D01*
X214091271Y-100876552D01*
X214127009Y-100847222D01*
X214144913Y-100837652D01*
X214283533Y-100763557D01*
X214340147Y-100746384D01*
X214453373Y-100712037D01*
X214519557Y-100705519D01*
X214585740Y-100699000D01*
X214674260Y-100699000D01*
X214740443Y-100705519D01*
X214740443Y-100705519D01*
G37*
G36*
X219820443Y-100705519D02*
X219886627Y-100712037D01*
X219999853Y-100746384D01*
X220056467Y-100763557D01*
X220195087Y-100837652D01*
X220212991Y-100847222D01*
X220248729Y-100876552D01*
X220350186Y-100959814D01*
X220433448Y-101061271D01*
X220462778Y-101097009D01*
X220462779Y-101097011D01*
X220546443Y-101253533D01*
X220546443Y-101253534D01*
X220597963Y-101423373D01*
X220615359Y-101600000D01*
X220597963Y-101776627D01*
X220563616Y-101889853D01*
X220546443Y-101946467D01*
X220472348Y-102085087D01*
X220462778Y-102102991D01*
X220433448Y-102138729D01*
X220350186Y-102240186D01*
X220248729Y-102323448D01*
X220212991Y-102352778D01*
X220212989Y-102352779D01*
X220056467Y-102436443D01*
X219999853Y-102453616D01*
X219886627Y-102487963D01*
X219820442Y-102494482D01*
X219754260Y-102501000D01*
X219665740Y-102501000D01*
X219599558Y-102494482D01*
X219533373Y-102487963D01*
X219420147Y-102453616D01*
X219363533Y-102436443D01*
X219207011Y-102352779D01*
X219207009Y-102352778D01*
X219171271Y-102323448D01*
X219069814Y-102240186D01*
X218986552Y-102138729D01*
X218957222Y-102102991D01*
X218947652Y-102085087D01*
X218873557Y-101946467D01*
X218856384Y-101889853D01*
X218822037Y-101776627D01*
X218804641Y-101600000D01*
X218822037Y-101423373D01*
X218873557Y-101253534D01*
X218873557Y-101253533D01*
X218957221Y-101097011D01*
X218957222Y-101097009D01*
X218986552Y-101061271D01*
X219069814Y-100959814D01*
X219171271Y-100876552D01*
X219207009Y-100847222D01*
X219224913Y-100837652D01*
X219363533Y-100763557D01*
X219420147Y-100746384D01*
X219533373Y-100712037D01*
X219599557Y-100705519D01*
X219665740Y-100699000D01*
X219754260Y-100699000D01*
X219820443Y-100705519D01*
X219820443Y-100705519D01*
G37*
G36*
X254110443Y-98165519D02*
X254176627Y-98172037D01*
X254289853Y-98206384D01*
X254346467Y-98223557D01*
X254485087Y-98297652D01*
X254502991Y-98307222D01*
X254538729Y-98336552D01*
X254640186Y-98419814D01*
X254723448Y-98521271D01*
X254752778Y-98557009D01*
X254752779Y-98557011D01*
X254836443Y-98713533D01*
X254836443Y-98713534D01*
X254887963Y-98883373D01*
X254905359Y-99060000D01*
X254887963Y-99236627D01*
X254853616Y-99349853D01*
X254836443Y-99406467D01*
X254762348Y-99545087D01*
X254752778Y-99562991D01*
X254723448Y-99598729D01*
X254640186Y-99700186D01*
X254538729Y-99783448D01*
X254502991Y-99812778D01*
X254502989Y-99812779D01*
X254346467Y-99896443D01*
X254289853Y-99913616D01*
X254176627Y-99947963D01*
X254110443Y-99954481D01*
X254044260Y-99961000D01*
X253955740Y-99961000D01*
X253889557Y-99954481D01*
X253823373Y-99947963D01*
X253710147Y-99913616D01*
X253653533Y-99896443D01*
X253497011Y-99812779D01*
X253497009Y-99812778D01*
X253461271Y-99783448D01*
X253359814Y-99700186D01*
X253276552Y-99598729D01*
X253247222Y-99562991D01*
X253237652Y-99545087D01*
X253163557Y-99406467D01*
X253146384Y-99349853D01*
X253112037Y-99236627D01*
X253094641Y-99060000D01*
X253112037Y-98883373D01*
X253163557Y-98713534D01*
X253163557Y-98713533D01*
X253247221Y-98557011D01*
X253247222Y-98557009D01*
X253276552Y-98521271D01*
X253359814Y-98419814D01*
X253461271Y-98336552D01*
X253497009Y-98307222D01*
X253514913Y-98297652D01*
X253653533Y-98223557D01*
X253710147Y-98206384D01*
X253823373Y-98172037D01*
X253889557Y-98165519D01*
X253955740Y-98159000D01*
X254044260Y-98159000D01*
X254110443Y-98165519D01*
X254110443Y-98165519D01*
G37*
G36*
X214740443Y-98165519D02*
X214806627Y-98172037D01*
X214919853Y-98206384D01*
X214976467Y-98223557D01*
X215115087Y-98297652D01*
X215132991Y-98307222D01*
X215168729Y-98336552D01*
X215270186Y-98419814D01*
X215353448Y-98521271D01*
X215382778Y-98557009D01*
X215382779Y-98557011D01*
X215466443Y-98713533D01*
X215466443Y-98713534D01*
X215517963Y-98883373D01*
X215535359Y-99060000D01*
X215517963Y-99236627D01*
X215483616Y-99349853D01*
X215466443Y-99406467D01*
X215392348Y-99545087D01*
X215382778Y-99562991D01*
X215353448Y-99598729D01*
X215270186Y-99700186D01*
X215168729Y-99783448D01*
X215132991Y-99812778D01*
X215132989Y-99812779D01*
X214976467Y-99896443D01*
X214919853Y-99913616D01*
X214806627Y-99947963D01*
X214740443Y-99954481D01*
X214674260Y-99961000D01*
X214585740Y-99961000D01*
X214519557Y-99954481D01*
X214453373Y-99947963D01*
X214340147Y-99913616D01*
X214283533Y-99896443D01*
X214127011Y-99812779D01*
X214127009Y-99812778D01*
X214091271Y-99783448D01*
X213989814Y-99700186D01*
X213906552Y-99598729D01*
X213877222Y-99562991D01*
X213867652Y-99545087D01*
X213793557Y-99406467D01*
X213776384Y-99349853D01*
X213742037Y-99236627D01*
X213724641Y-99060000D01*
X213742037Y-98883373D01*
X213793557Y-98713534D01*
X213793557Y-98713533D01*
X213877221Y-98557011D01*
X213877222Y-98557009D01*
X213906552Y-98521271D01*
X213989814Y-98419814D01*
X214091271Y-98336552D01*
X214127009Y-98307222D01*
X214144913Y-98297652D01*
X214283533Y-98223557D01*
X214340147Y-98206384D01*
X214453373Y-98172037D01*
X214519557Y-98165519D01*
X214585740Y-98159000D01*
X214674260Y-98159000D01*
X214740443Y-98165519D01*
X214740443Y-98165519D01*
G37*
G36*
X219820443Y-98165519D02*
X219886627Y-98172037D01*
X219999853Y-98206384D01*
X220056467Y-98223557D01*
X220195087Y-98297652D01*
X220212991Y-98307222D01*
X220248729Y-98336552D01*
X220350186Y-98419814D01*
X220433448Y-98521271D01*
X220462778Y-98557009D01*
X220462779Y-98557011D01*
X220546443Y-98713533D01*
X220546443Y-98713534D01*
X220597963Y-98883373D01*
X220615359Y-99060000D01*
X220597963Y-99236627D01*
X220563616Y-99349853D01*
X220546443Y-99406467D01*
X220472348Y-99545087D01*
X220462778Y-99562991D01*
X220433448Y-99598729D01*
X220350186Y-99700186D01*
X220248729Y-99783448D01*
X220212991Y-99812778D01*
X220212989Y-99812779D01*
X220056467Y-99896443D01*
X219999853Y-99913616D01*
X219886627Y-99947963D01*
X219820443Y-99954481D01*
X219754260Y-99961000D01*
X219665740Y-99961000D01*
X219599557Y-99954481D01*
X219533373Y-99947963D01*
X219420147Y-99913616D01*
X219363533Y-99896443D01*
X219207011Y-99812779D01*
X219207009Y-99812778D01*
X219171271Y-99783448D01*
X219069814Y-99700186D01*
X218986552Y-99598729D01*
X218957222Y-99562991D01*
X218947652Y-99545087D01*
X218873557Y-99406467D01*
X218856384Y-99349853D01*
X218822037Y-99236627D01*
X218804641Y-99060000D01*
X218822037Y-98883373D01*
X218873557Y-98713534D01*
X218873557Y-98713533D01*
X218957221Y-98557011D01*
X218957222Y-98557009D01*
X218986552Y-98521271D01*
X219069814Y-98419814D01*
X219171271Y-98336552D01*
X219207009Y-98307222D01*
X219224913Y-98297652D01*
X219363533Y-98223557D01*
X219420147Y-98206384D01*
X219533373Y-98172037D01*
X219599557Y-98165519D01*
X219665740Y-98159000D01*
X219754260Y-98159000D01*
X219820443Y-98165519D01*
X219820443Y-98165519D01*
G37*
G36*
X236746425Y-95822760D02*
X236746428Y-95822761D01*
X236746429Y-95822761D01*
X236925693Y-95877140D01*
X236925695Y-95877141D01*
X237090905Y-95965448D01*
X237235712Y-96084288D01*
X237354552Y-96229095D01*
X237442859Y-96394305D01*
X237497240Y-96573575D01*
X237515601Y-96760000D01*
X237497240Y-96946425D01*
X237442859Y-97125695D01*
X237354552Y-97290905D01*
X237235712Y-97435712D01*
X237090905Y-97554552D01*
X237090903Y-97554553D01*
X236925693Y-97642860D01*
X236746429Y-97697239D01*
X236746428Y-97697239D01*
X236746425Y-97697240D01*
X236606718Y-97711000D01*
X236513282Y-97711000D01*
X236373575Y-97697240D01*
X236373572Y-97697239D01*
X236373571Y-97697239D01*
X236194307Y-97642860D01*
X236029097Y-97554553D01*
X236029095Y-97554552D01*
X235884288Y-97435712D01*
X235765448Y-97290905D01*
X235677141Y-97125695D01*
X235622760Y-96946425D01*
X235604399Y-96760000D01*
X235622760Y-96573575D01*
X235677141Y-96394305D01*
X235765448Y-96229095D01*
X235884288Y-96084288D01*
X236029095Y-95965448D01*
X236194305Y-95877141D01*
X236194307Y-95877140D01*
X236373571Y-95822761D01*
X236373572Y-95822761D01*
X236373575Y-95822760D01*
X236513282Y-95809000D01*
X236606718Y-95809000D01*
X236746425Y-95822760D01*
X236746425Y-95822760D01*
G37*
G36*
X214740442Y-95625518D02*
X214806627Y-95632037D01*
X214919853Y-95666384D01*
X214976467Y-95683557D01*
X215115087Y-95757652D01*
X215132991Y-95767222D01*
X215168729Y-95796552D01*
X215270186Y-95879814D01*
X215340462Y-95965447D01*
X215382778Y-96017009D01*
X215382779Y-96017011D01*
X215466443Y-96173533D01*
X215466443Y-96173534D01*
X215517963Y-96343373D01*
X215535359Y-96520000D01*
X215517963Y-96696627D01*
X215498739Y-96760000D01*
X215466443Y-96866467D01*
X215423704Y-96946425D01*
X215382778Y-97022991D01*
X215353448Y-97058729D01*
X215270186Y-97160186D01*
X215168729Y-97243448D01*
X215132991Y-97272778D01*
X215132989Y-97272779D01*
X214976467Y-97356443D01*
X214919853Y-97373616D01*
X214806627Y-97407963D01*
X214740442Y-97414482D01*
X214674260Y-97421000D01*
X214585740Y-97421000D01*
X214519558Y-97414482D01*
X214453373Y-97407963D01*
X214340147Y-97373616D01*
X214283533Y-97356443D01*
X214127011Y-97272779D01*
X214127009Y-97272778D01*
X214091271Y-97243448D01*
X213989814Y-97160186D01*
X213906552Y-97058729D01*
X213877222Y-97022991D01*
X213836296Y-96946425D01*
X213793557Y-96866467D01*
X213761261Y-96760000D01*
X213742037Y-96696627D01*
X213724641Y-96520000D01*
X213742037Y-96343373D01*
X213793557Y-96173534D01*
X213793557Y-96173533D01*
X213877221Y-96017011D01*
X213877222Y-96017009D01*
X213919538Y-95965447D01*
X213989814Y-95879814D01*
X214091271Y-95796552D01*
X214127009Y-95767222D01*
X214144913Y-95757652D01*
X214283533Y-95683557D01*
X214340147Y-95666384D01*
X214453373Y-95632037D01*
X214519558Y-95625518D01*
X214585740Y-95619000D01*
X214674260Y-95619000D01*
X214740442Y-95625518D01*
X214740442Y-95625518D01*
G37*
G36*
X219820442Y-95625518D02*
X219886627Y-95632037D01*
X219999853Y-95666384D01*
X220056467Y-95683557D01*
X220195087Y-95757652D01*
X220212991Y-95767222D01*
X220248729Y-95796552D01*
X220350186Y-95879814D01*
X220420462Y-95965447D01*
X220462778Y-96017009D01*
X220462779Y-96017011D01*
X220546443Y-96173533D01*
X220546443Y-96173534D01*
X220597963Y-96343373D01*
X220615359Y-96520000D01*
X220597963Y-96696627D01*
X220578739Y-96760000D01*
X220546443Y-96866467D01*
X220503704Y-96946425D01*
X220462778Y-97022991D01*
X220433448Y-97058729D01*
X220350186Y-97160186D01*
X220248729Y-97243448D01*
X220212991Y-97272778D01*
X220212989Y-97272779D01*
X220056467Y-97356443D01*
X219999853Y-97373616D01*
X219886627Y-97407963D01*
X219820442Y-97414482D01*
X219754260Y-97421000D01*
X219665740Y-97421000D01*
X219599558Y-97414482D01*
X219533373Y-97407963D01*
X219420147Y-97373616D01*
X219363533Y-97356443D01*
X219207011Y-97272779D01*
X219207009Y-97272778D01*
X219171271Y-97243448D01*
X219069814Y-97160186D01*
X218986552Y-97058729D01*
X218957222Y-97022991D01*
X218916296Y-96946425D01*
X218873557Y-96866467D01*
X218841261Y-96760000D01*
X218822037Y-96696627D01*
X218804641Y-96520000D01*
X218822037Y-96343373D01*
X218873557Y-96173534D01*
X218873557Y-96173533D01*
X218957221Y-96017011D01*
X218957222Y-96017009D01*
X218999538Y-95965447D01*
X219069814Y-95879814D01*
X219171271Y-95796552D01*
X219207009Y-95767222D01*
X219224913Y-95757652D01*
X219363533Y-95683557D01*
X219420147Y-95666384D01*
X219533373Y-95632037D01*
X219599558Y-95625518D01*
X219665740Y-95619000D01*
X219754260Y-95619000D01*
X219820442Y-95625518D01*
X219820442Y-95625518D01*
G37*
G36*
X254110442Y-95625518D02*
X254176627Y-95632037D01*
X254289853Y-95666384D01*
X254346467Y-95683557D01*
X254485087Y-95757652D01*
X254502991Y-95767222D01*
X254538729Y-95796552D01*
X254640186Y-95879814D01*
X254710462Y-95965447D01*
X254752778Y-96017009D01*
X254752779Y-96017011D01*
X254836443Y-96173533D01*
X254836443Y-96173534D01*
X254887963Y-96343373D01*
X254905359Y-96520000D01*
X254887963Y-96696627D01*
X254868739Y-96760000D01*
X254836443Y-96866467D01*
X254793704Y-96946425D01*
X254752778Y-97022991D01*
X254723448Y-97058729D01*
X254640186Y-97160186D01*
X254538729Y-97243448D01*
X254502991Y-97272778D01*
X254502989Y-97272779D01*
X254346467Y-97356443D01*
X254289853Y-97373616D01*
X254176627Y-97407963D01*
X254110442Y-97414482D01*
X254044260Y-97421000D01*
X253955740Y-97421000D01*
X253889558Y-97414482D01*
X253823373Y-97407963D01*
X253710147Y-97373616D01*
X253653533Y-97356443D01*
X253497011Y-97272779D01*
X253497009Y-97272778D01*
X253461271Y-97243448D01*
X253359814Y-97160186D01*
X253276552Y-97058729D01*
X253247222Y-97022991D01*
X253206296Y-96946425D01*
X253163557Y-96866467D01*
X253131261Y-96760000D01*
X253112037Y-96696627D01*
X253094641Y-96520000D01*
X253112037Y-96343373D01*
X253163557Y-96173534D01*
X253163557Y-96173533D01*
X253247221Y-96017011D01*
X253247222Y-96017009D01*
X253289538Y-95965447D01*
X253359814Y-95879814D01*
X253461271Y-95796552D01*
X253497009Y-95767222D01*
X253514913Y-95757652D01*
X253653533Y-95683557D01*
X253710147Y-95666384D01*
X253823373Y-95632037D01*
X253889558Y-95625518D01*
X253955740Y-95619000D01*
X254044260Y-95619000D01*
X254110442Y-95625518D01*
X254110442Y-95625518D01*
G37*
G36*
X236746425Y-93282760D02*
X236746428Y-93282761D01*
X236746429Y-93282761D01*
X236925693Y-93337140D01*
X236925695Y-93337141D01*
X237090905Y-93425448D01*
X237235712Y-93544288D01*
X237354552Y-93689095D01*
X237442859Y-93854305D01*
X237442860Y-93854307D01*
X237481045Y-93980186D01*
X237497240Y-94033575D01*
X237515601Y-94220000D01*
X237497240Y-94406425D01*
X237442859Y-94585695D01*
X237354552Y-94750905D01*
X237235712Y-94895712D01*
X237090905Y-95014552D01*
X237090903Y-95014553D01*
X236925693Y-95102860D01*
X236746429Y-95157239D01*
X236746428Y-95157239D01*
X236746425Y-95157240D01*
X236606718Y-95171000D01*
X236513282Y-95171000D01*
X236373575Y-95157240D01*
X236373572Y-95157239D01*
X236373571Y-95157239D01*
X236194307Y-95102860D01*
X236029097Y-95014553D01*
X236029095Y-95014552D01*
X235884288Y-94895712D01*
X235765448Y-94750905D01*
X235677141Y-94585695D01*
X235622760Y-94406425D01*
X235604399Y-94220000D01*
X235622760Y-94033575D01*
X235638955Y-93980186D01*
X235677140Y-93854307D01*
X235677141Y-93854305D01*
X235765448Y-93689095D01*
X235884288Y-93544288D01*
X236029095Y-93425448D01*
X236194305Y-93337141D01*
X236194307Y-93337140D01*
X236373571Y-93282761D01*
X236373572Y-93282761D01*
X236373575Y-93282760D01*
X236513282Y-93269000D01*
X236606718Y-93269000D01*
X236746425Y-93282760D01*
X236746425Y-93282760D01*
G37*
G36*
X254110443Y-93085519D02*
X254176627Y-93092037D01*
X254281886Y-93123967D01*
X254346467Y-93143557D01*
X254383543Y-93163375D01*
X254502991Y-93227222D01*
X254538729Y-93256552D01*
X254640186Y-93339814D01*
X254710462Y-93425447D01*
X254752778Y-93477009D01*
X254752779Y-93477011D01*
X254836443Y-93633533D01*
X254836443Y-93633534D01*
X254887963Y-93803373D01*
X254905359Y-93980000D01*
X254887963Y-94156627D01*
X254862369Y-94241000D01*
X254836443Y-94326467D01*
X254793704Y-94406425D01*
X254752778Y-94482991D01*
X254723448Y-94518729D01*
X254640186Y-94620186D01*
X254538729Y-94703448D01*
X254502991Y-94732778D01*
X254502989Y-94732779D01*
X254346467Y-94816443D01*
X254289853Y-94833616D01*
X254176627Y-94867963D01*
X254110443Y-94874481D01*
X254044260Y-94881000D01*
X253955740Y-94881000D01*
X253889557Y-94874481D01*
X253823373Y-94867963D01*
X253710147Y-94833616D01*
X253653533Y-94816443D01*
X253497011Y-94732779D01*
X253497009Y-94732778D01*
X253461271Y-94703448D01*
X253359814Y-94620186D01*
X253276552Y-94518729D01*
X253247222Y-94482991D01*
X253206296Y-94406425D01*
X253163557Y-94326467D01*
X253137631Y-94241000D01*
X253112037Y-94156627D01*
X253094641Y-93980000D01*
X253112037Y-93803373D01*
X253163557Y-93633534D01*
X253163557Y-93633533D01*
X253247221Y-93477011D01*
X253247222Y-93477009D01*
X253289538Y-93425447D01*
X253359814Y-93339814D01*
X253461271Y-93256552D01*
X253497009Y-93227222D01*
X253616457Y-93163375D01*
X253653533Y-93143557D01*
X253718114Y-93123967D01*
X253823373Y-93092037D01*
X253889557Y-93085519D01*
X253955740Y-93079000D01*
X254044260Y-93079000D01*
X254110443Y-93085519D01*
X254110443Y-93085519D01*
G37*
G36*
X214740443Y-93085519D02*
X214806627Y-93092037D01*
X214911886Y-93123967D01*
X214976467Y-93143557D01*
X215013543Y-93163375D01*
X215132991Y-93227222D01*
X215168729Y-93256552D01*
X215270186Y-93339814D01*
X215340462Y-93425447D01*
X215382778Y-93477009D01*
X215382779Y-93477011D01*
X215466443Y-93633533D01*
X215466443Y-93633534D01*
X215517963Y-93803373D01*
X215535359Y-93980000D01*
X215517963Y-94156627D01*
X215492369Y-94241000D01*
X215466443Y-94326467D01*
X215423704Y-94406425D01*
X215382778Y-94482991D01*
X215353448Y-94518729D01*
X215270186Y-94620186D01*
X215168729Y-94703448D01*
X215132991Y-94732778D01*
X215132989Y-94732779D01*
X214976467Y-94816443D01*
X214919853Y-94833616D01*
X214806627Y-94867963D01*
X214740443Y-94874481D01*
X214674260Y-94881000D01*
X214585740Y-94881000D01*
X214519557Y-94874481D01*
X214453373Y-94867963D01*
X214340147Y-94833616D01*
X214283533Y-94816443D01*
X214127011Y-94732779D01*
X214127009Y-94732778D01*
X214091271Y-94703448D01*
X213989814Y-94620186D01*
X213906552Y-94518729D01*
X213877222Y-94482991D01*
X213836296Y-94406425D01*
X213793557Y-94326467D01*
X213767631Y-94241000D01*
X213742037Y-94156627D01*
X213724641Y-93980000D01*
X213742037Y-93803373D01*
X213793557Y-93633534D01*
X213793557Y-93633533D01*
X213877221Y-93477011D01*
X213877222Y-93477009D01*
X213919538Y-93425447D01*
X213989814Y-93339814D01*
X214091271Y-93256552D01*
X214127009Y-93227222D01*
X214246457Y-93163375D01*
X214283533Y-93143557D01*
X214348114Y-93123967D01*
X214453373Y-93092037D01*
X214519557Y-93085519D01*
X214585740Y-93079000D01*
X214674260Y-93079000D01*
X214740443Y-93085519D01*
X214740443Y-93085519D01*
G37*
G36*
X219820443Y-93085519D02*
X219886627Y-93092037D01*
X219991886Y-93123967D01*
X220056467Y-93143557D01*
X220093543Y-93163375D01*
X220212991Y-93227222D01*
X220248729Y-93256552D01*
X220350186Y-93339814D01*
X220420462Y-93425447D01*
X220462778Y-93477009D01*
X220462779Y-93477011D01*
X220546443Y-93633533D01*
X220546443Y-93633534D01*
X220597963Y-93803373D01*
X220615359Y-93980000D01*
X220597963Y-94156627D01*
X220572369Y-94241000D01*
X220546443Y-94326467D01*
X220503704Y-94406425D01*
X220462778Y-94482991D01*
X220433448Y-94518729D01*
X220350186Y-94620186D01*
X220248729Y-94703448D01*
X220212991Y-94732778D01*
X220212989Y-94732779D01*
X220056467Y-94816443D01*
X219999853Y-94833616D01*
X219886627Y-94867963D01*
X219820443Y-94874481D01*
X219754260Y-94881000D01*
X219665740Y-94881000D01*
X219599557Y-94874481D01*
X219533373Y-94867963D01*
X219420147Y-94833616D01*
X219363533Y-94816443D01*
X219207011Y-94732779D01*
X219207009Y-94732778D01*
X219171271Y-94703448D01*
X219069814Y-94620186D01*
X218986552Y-94518729D01*
X218957222Y-94482991D01*
X218916296Y-94406425D01*
X218873557Y-94326467D01*
X218847631Y-94241000D01*
X218822037Y-94156627D01*
X218804641Y-93980000D01*
X218822037Y-93803373D01*
X218873557Y-93633534D01*
X218873557Y-93633533D01*
X218957221Y-93477011D01*
X218957222Y-93477009D01*
X218999538Y-93425447D01*
X219069814Y-93339814D01*
X219171271Y-93256552D01*
X219207009Y-93227222D01*
X219326457Y-93163375D01*
X219363533Y-93143557D01*
X219428114Y-93123967D01*
X219533373Y-93092037D01*
X219599557Y-93085519D01*
X219665740Y-93079000D01*
X219754260Y-93079000D01*
X219820443Y-93085519D01*
X219820443Y-93085519D01*
G37*
G36*
X248930442Y-92445518D02*
X248996627Y-92452037D01*
X249109853Y-92486384D01*
X249166467Y-92503557D01*
X249293132Y-92571262D01*
X249322991Y-92587222D01*
X249358729Y-92616552D01*
X249460186Y-92699814D01*
X249543448Y-92801271D01*
X249572778Y-92837009D01*
X249572779Y-92837011D01*
X249656443Y-92993533D01*
X249656443Y-92993534D01*
X249707963Y-93163373D01*
X249725359Y-93340000D01*
X249707963Y-93516627D01*
X249704290Y-93528735D01*
X249656443Y-93686467D01*
X249593953Y-93803375D01*
X249572778Y-93842991D01*
X249563491Y-93854307D01*
X249460186Y-93980186D01*
X249395130Y-94033575D01*
X249322991Y-94092778D01*
X249322989Y-94092779D01*
X249166467Y-94176443D01*
X249109853Y-94193616D01*
X248996627Y-94227963D01*
X248930443Y-94234481D01*
X248864260Y-94241000D01*
X248775740Y-94241000D01*
X248709557Y-94234481D01*
X248643373Y-94227963D01*
X248530147Y-94193616D01*
X248473533Y-94176443D01*
X248317011Y-94092779D01*
X248317009Y-94092778D01*
X248244870Y-94033575D01*
X248179814Y-93980186D01*
X248076509Y-93854307D01*
X248067222Y-93842991D01*
X248046047Y-93803375D01*
X247983557Y-93686467D01*
X247935710Y-93528735D01*
X247932037Y-93516627D01*
X247914641Y-93340000D01*
X247932037Y-93163373D01*
X247983557Y-92993534D01*
X247983557Y-92993533D01*
X248067221Y-92837011D01*
X248067222Y-92837009D01*
X248096552Y-92801271D01*
X248179814Y-92699814D01*
X248281271Y-92616552D01*
X248317009Y-92587222D01*
X248346868Y-92571262D01*
X248473533Y-92503557D01*
X248530147Y-92486384D01*
X248643373Y-92452037D01*
X248709558Y-92445518D01*
X248775740Y-92439000D01*
X248864260Y-92439000D01*
X248930442Y-92445518D01*
X248930442Y-92445518D01*
G37*
G36*
X231722004Y-92310544D02*
X231809059Y-92327860D01*
X231945732Y-92384472D01*
X231945733Y-92384473D01*
X232068738Y-92466662D01*
X232173338Y-92571262D01*
X232173340Y-92571265D01*
X232255528Y-92694268D01*
X232312140Y-92830941D01*
X232313347Y-92837011D01*
X232341000Y-92976031D01*
X232341000Y-93123969D01*
X232329456Y-93182004D01*
X232312140Y-93269059D01*
X232255528Y-93405732D01*
X232255527Y-93405733D01*
X232173338Y-93528738D01*
X232068738Y-93633338D01*
X232068735Y-93633340D01*
X231945732Y-93715528D01*
X231809059Y-93772140D01*
X231722004Y-93789456D01*
X231663969Y-93801000D01*
X231516031Y-93801000D01*
X231457996Y-93789456D01*
X231370941Y-93772140D01*
X231234268Y-93715528D01*
X231111265Y-93633340D01*
X231111262Y-93633338D01*
X231006662Y-93528738D01*
X230924473Y-93405733D01*
X230924472Y-93405732D01*
X230867860Y-93269059D01*
X230850544Y-93182004D01*
X230839000Y-93123969D01*
X230839000Y-92976031D01*
X230866653Y-92837011D01*
X230867860Y-92830941D01*
X230924472Y-92694268D01*
X231006660Y-92571265D01*
X231006662Y-92571262D01*
X231111262Y-92466662D01*
X231234267Y-92384473D01*
X231234268Y-92384472D01*
X231370941Y-92327860D01*
X231457996Y-92310544D01*
X231516031Y-92299000D01*
X231663969Y-92299000D01*
X231722004Y-92310544D01*
X231722004Y-92310544D01*
G37*
G36*
X237511000Y-92631000D02*
X235609000Y-92631000D01*
X235609000Y-90729000D01*
X237511000Y-90729000D01*
X237511000Y-92631000D01*
X237511000Y-92631000D01*
G37*
G36*
X254110443Y-90545519D02*
X254176627Y-90552037D01*
X254289853Y-90586384D01*
X254346467Y-90603557D01*
X254485087Y-90677652D01*
X254502991Y-90687222D01*
X254538729Y-90716552D01*
X254640186Y-90799814D01*
X254723448Y-90901271D01*
X254752778Y-90937009D01*
X254752779Y-90937011D01*
X254836443Y-91093533D01*
X254836443Y-91093534D01*
X254887963Y-91263373D01*
X254905359Y-91440000D01*
X254887963Y-91616627D01*
X254862369Y-91701000D01*
X254836443Y-91786467D01*
X254762348Y-91925087D01*
X254752778Y-91942991D01*
X254723448Y-91978729D01*
X254640186Y-92080186D01*
X254538729Y-92163448D01*
X254502991Y-92192778D01*
X254502989Y-92192779D01*
X254346467Y-92276443D01*
X254289853Y-92293616D01*
X254176627Y-92327963D01*
X254110443Y-92334481D01*
X254044260Y-92341000D01*
X253955740Y-92341000D01*
X253889557Y-92334481D01*
X253823373Y-92327963D01*
X253710147Y-92293616D01*
X253653533Y-92276443D01*
X253497011Y-92192779D01*
X253497009Y-92192778D01*
X253461271Y-92163448D01*
X253359814Y-92080186D01*
X253276552Y-91978729D01*
X253247222Y-91942991D01*
X253237652Y-91925087D01*
X253163557Y-91786467D01*
X253137631Y-91701000D01*
X253112037Y-91616627D01*
X253094641Y-91440000D01*
X253112037Y-91263373D01*
X253163557Y-91093534D01*
X253163557Y-91093533D01*
X253247221Y-90937011D01*
X253247222Y-90937009D01*
X253276552Y-90901271D01*
X253359814Y-90799814D01*
X253461271Y-90716552D01*
X253497009Y-90687222D01*
X253514913Y-90677652D01*
X253653533Y-90603557D01*
X253710147Y-90586384D01*
X253823373Y-90552037D01*
X253889558Y-90545518D01*
X253955740Y-90539000D01*
X254044260Y-90539000D01*
X254110443Y-90545519D01*
X254110443Y-90545519D01*
G37*
G36*
X214740443Y-90545519D02*
X214806627Y-90552037D01*
X214919853Y-90586384D01*
X214976467Y-90603557D01*
X215115087Y-90677652D01*
X215132991Y-90687222D01*
X215168729Y-90716552D01*
X215270186Y-90799814D01*
X215353448Y-90901271D01*
X215382778Y-90937009D01*
X215382779Y-90937011D01*
X215466443Y-91093533D01*
X215466443Y-91093534D01*
X215517963Y-91263373D01*
X215535359Y-91440000D01*
X215517963Y-91616627D01*
X215492369Y-91701000D01*
X215466443Y-91786467D01*
X215392348Y-91925087D01*
X215382778Y-91942991D01*
X215353448Y-91978729D01*
X215270186Y-92080186D01*
X215168729Y-92163448D01*
X215132991Y-92192778D01*
X215132989Y-92192779D01*
X214976467Y-92276443D01*
X214919853Y-92293616D01*
X214806627Y-92327963D01*
X214740443Y-92334481D01*
X214674260Y-92341000D01*
X214585740Y-92341000D01*
X214519557Y-92334481D01*
X214453373Y-92327963D01*
X214340147Y-92293616D01*
X214283533Y-92276443D01*
X214127011Y-92192779D01*
X214127009Y-92192778D01*
X214091271Y-92163448D01*
X213989814Y-92080186D01*
X213906552Y-91978729D01*
X213877222Y-91942991D01*
X213867652Y-91925087D01*
X213793557Y-91786467D01*
X213767631Y-91701000D01*
X213742037Y-91616627D01*
X213724641Y-91440000D01*
X213742037Y-91263373D01*
X213793557Y-91093534D01*
X213793557Y-91093533D01*
X213877221Y-90937011D01*
X213877222Y-90937009D01*
X213906552Y-90901271D01*
X213989814Y-90799814D01*
X214091271Y-90716552D01*
X214127009Y-90687222D01*
X214144913Y-90677652D01*
X214283533Y-90603557D01*
X214340147Y-90586384D01*
X214453373Y-90552037D01*
X214519558Y-90545518D01*
X214585740Y-90539000D01*
X214674260Y-90539000D01*
X214740443Y-90545519D01*
X214740443Y-90545519D01*
G37*
G36*
X219820443Y-90545519D02*
X219886627Y-90552037D01*
X219999853Y-90586384D01*
X220056467Y-90603557D01*
X220195087Y-90677652D01*
X220212991Y-90687222D01*
X220248729Y-90716552D01*
X220350186Y-90799814D01*
X220433448Y-90901271D01*
X220462778Y-90937009D01*
X220462779Y-90937011D01*
X220546443Y-91093533D01*
X220546443Y-91093534D01*
X220597963Y-91263373D01*
X220615359Y-91440000D01*
X220597963Y-91616627D01*
X220572369Y-91701000D01*
X220546443Y-91786467D01*
X220472348Y-91925087D01*
X220462778Y-91942991D01*
X220433448Y-91978729D01*
X220350186Y-92080186D01*
X220248729Y-92163448D01*
X220212991Y-92192778D01*
X220212989Y-92192779D01*
X220056467Y-92276443D01*
X219999853Y-92293616D01*
X219886627Y-92327963D01*
X219820443Y-92334481D01*
X219754260Y-92341000D01*
X219665740Y-92341000D01*
X219599557Y-92334481D01*
X219533373Y-92327963D01*
X219420147Y-92293616D01*
X219363533Y-92276443D01*
X219207011Y-92192779D01*
X219207009Y-92192778D01*
X219171271Y-92163448D01*
X219069814Y-92080186D01*
X218986552Y-91978729D01*
X218957222Y-91942991D01*
X218947652Y-91925087D01*
X218873557Y-91786467D01*
X218847631Y-91701000D01*
X218822037Y-91616627D01*
X218804641Y-91440000D01*
X218822037Y-91263373D01*
X218873557Y-91093534D01*
X218873557Y-91093533D01*
X218957221Y-90937011D01*
X218957222Y-90937009D01*
X218986552Y-90901271D01*
X219069814Y-90799814D01*
X219171271Y-90716552D01*
X219207009Y-90687222D01*
X219224913Y-90677652D01*
X219363533Y-90603557D01*
X219420147Y-90586384D01*
X219533373Y-90552037D01*
X219599558Y-90545518D01*
X219665740Y-90539000D01*
X219754260Y-90539000D01*
X219820443Y-90545519D01*
X219820443Y-90545519D01*
G37*
G36*
X249721000Y-91701000D02*
X247919000Y-91701000D01*
X247919000Y-89899000D01*
X249721000Y-89899000D01*
X249721000Y-91701000D01*
X249721000Y-91701000D01*
G37*
G36*
X214740443Y-88005519D02*
X214806627Y-88012037D01*
X214919853Y-88046384D01*
X214976467Y-88063557D01*
X215115087Y-88137652D01*
X215132991Y-88147222D01*
X215168729Y-88176552D01*
X215270186Y-88259814D01*
X215353448Y-88361271D01*
X215382778Y-88397009D01*
X215382779Y-88397011D01*
X215466443Y-88553533D01*
X215466443Y-88553534D01*
X215517963Y-88723373D01*
X215535359Y-88900000D01*
X215517963Y-89076627D01*
X215483616Y-89189853D01*
X215466443Y-89246467D01*
X215392348Y-89385087D01*
X215382778Y-89402991D01*
X215353448Y-89438729D01*
X215270186Y-89540186D01*
X215168729Y-89623448D01*
X215132991Y-89652778D01*
X215132989Y-89652779D01*
X214976467Y-89736443D01*
X214919853Y-89753616D01*
X214806627Y-89787963D01*
X214740443Y-89794481D01*
X214674260Y-89801000D01*
X214585740Y-89801000D01*
X214519557Y-89794481D01*
X214453373Y-89787963D01*
X214340147Y-89753616D01*
X214283533Y-89736443D01*
X214127011Y-89652779D01*
X214127009Y-89652778D01*
X214091271Y-89623448D01*
X213989814Y-89540186D01*
X213906552Y-89438729D01*
X213877222Y-89402991D01*
X213867652Y-89385087D01*
X213793557Y-89246467D01*
X213776384Y-89189853D01*
X213742037Y-89076627D01*
X213724641Y-88900000D01*
X213742037Y-88723373D01*
X213793557Y-88553534D01*
X213793557Y-88553533D01*
X213877221Y-88397011D01*
X213877222Y-88397009D01*
X213906552Y-88361271D01*
X213989814Y-88259814D01*
X214091271Y-88176552D01*
X214127009Y-88147222D01*
X214144913Y-88137652D01*
X214283533Y-88063557D01*
X214340147Y-88046384D01*
X214453373Y-88012037D01*
X214519558Y-88005518D01*
X214585740Y-87999000D01*
X214674260Y-87999000D01*
X214740443Y-88005519D01*
X214740443Y-88005519D01*
G37*
G36*
X254901000Y-89801000D02*
X253099000Y-89801000D01*
X253099000Y-87999000D01*
X254901000Y-87999000D01*
X254901000Y-89801000D01*
X254901000Y-89801000D01*
G37*
G36*
X219820443Y-88005519D02*
X219886627Y-88012037D01*
X219999853Y-88046384D01*
X220056467Y-88063557D01*
X220195087Y-88137652D01*
X220212991Y-88147222D01*
X220248729Y-88176552D01*
X220350186Y-88259814D01*
X220433448Y-88361271D01*
X220462778Y-88397009D01*
X220462779Y-88397011D01*
X220546443Y-88553533D01*
X220546443Y-88553534D01*
X220597963Y-88723373D01*
X220615359Y-88900000D01*
X220597963Y-89076627D01*
X220563616Y-89189853D01*
X220546443Y-89246467D01*
X220472348Y-89385087D01*
X220462778Y-89402991D01*
X220433448Y-89438729D01*
X220350186Y-89540186D01*
X220248729Y-89623448D01*
X220212991Y-89652778D01*
X220212989Y-89652779D01*
X220056467Y-89736443D01*
X219999853Y-89753616D01*
X219886627Y-89787963D01*
X219820443Y-89794481D01*
X219754260Y-89801000D01*
X219665740Y-89801000D01*
X219599557Y-89794481D01*
X219533373Y-89787963D01*
X219420147Y-89753616D01*
X219363533Y-89736443D01*
X219207011Y-89652779D01*
X219207009Y-89652778D01*
X219171271Y-89623448D01*
X219069814Y-89540186D01*
X218986552Y-89438729D01*
X218957222Y-89402991D01*
X218947652Y-89385087D01*
X218873557Y-89246467D01*
X218856384Y-89189853D01*
X218822037Y-89076627D01*
X218804641Y-88900000D01*
X218822037Y-88723373D01*
X218873557Y-88553534D01*
X218873557Y-88553533D01*
X218957221Y-88397011D01*
X218957222Y-88397009D01*
X218986552Y-88361271D01*
X219069814Y-88259814D01*
X219171271Y-88176552D01*
X219207009Y-88147222D01*
X219224913Y-88137652D01*
X219363533Y-88063557D01*
X219420147Y-88046384D01*
X219533373Y-88012037D01*
X219599558Y-88005518D01*
X219665740Y-87999000D01*
X219754260Y-87999000D01*
X219820443Y-88005519D01*
X219820443Y-88005519D01*
G37*
G36*
X231663665Y-87222622D02*
X231737222Y-87229867D01*
X231878786Y-87272810D01*
X232009252Y-87342546D01*
X232123606Y-87436394D01*
X232217454Y-87550748D01*
X232287190Y-87681214D01*
X232330133Y-87822778D01*
X232344633Y-87970000D01*
X232330133Y-88117222D01*
X232287190Y-88258786D01*
X232217454Y-88389252D01*
X232123606Y-88503606D01*
X232009252Y-88597454D01*
X231878786Y-88667190D01*
X231737222Y-88710133D01*
X231663665Y-88717378D01*
X231626888Y-88721000D01*
X231553112Y-88721000D01*
X231516335Y-88717378D01*
X231442778Y-88710133D01*
X231301214Y-88667190D01*
X231170748Y-88597454D01*
X231056394Y-88503606D01*
X230962546Y-88389252D01*
X230892810Y-88258786D01*
X230849867Y-88117222D01*
X230835367Y-87970000D01*
X230849867Y-87822778D01*
X230892810Y-87681214D01*
X230962546Y-87550748D01*
X231056394Y-87436394D01*
X231170748Y-87342546D01*
X231301214Y-87272810D01*
X231442778Y-87229867D01*
X231516335Y-87222622D01*
X231553112Y-87219000D01*
X231626888Y-87219000D01*
X231663665Y-87222622D01*
X231663665Y-87222622D01*
G37*
G36*
X235945643Y-86605781D02*
X236091415Y-86666162D01*
X236222611Y-86753824D01*
X236334176Y-86865389D01*
X236421838Y-86996585D01*
X236482219Y-87142357D01*
X236513000Y-87297107D01*
X236513000Y-87454893D01*
X236482219Y-87609643D01*
X236421838Y-87755415D01*
X236334176Y-87886611D01*
X236222611Y-87998176D01*
X236091415Y-88085838D01*
X235945643Y-88146219D01*
X235790893Y-88177000D01*
X235633107Y-88177000D01*
X235478357Y-88146219D01*
X235332585Y-88085838D01*
X235201389Y-87998176D01*
X235089824Y-87886611D01*
X235002162Y-87755415D01*
X234941781Y-87609643D01*
X234911000Y-87454893D01*
X234911000Y-87297107D01*
X234941781Y-87142357D01*
X235002162Y-86996585D01*
X235089824Y-86865389D01*
X235201389Y-86753824D01*
X235332585Y-86666162D01*
X235478357Y-86605781D01*
X235633107Y-86575000D01*
X235790893Y-86575000D01*
X235945643Y-86605781D01*
X235945643Y-86605781D01*
G37*
G36*
X245153665Y-86332622D02*
X245227222Y-86339867D01*
X245368786Y-86382810D01*
X245499252Y-86452546D01*
X245613606Y-86546394D01*
X245707454Y-86660748D01*
X245777190Y-86791214D01*
X245820133Y-86932778D01*
X245834633Y-87080000D01*
X245820133Y-87227222D01*
X245777190Y-87368786D01*
X245707454Y-87499252D01*
X245613606Y-87613606D01*
X245499252Y-87707454D01*
X245368786Y-87777190D01*
X245227222Y-87820133D01*
X245153665Y-87827378D01*
X245116888Y-87831000D01*
X245043112Y-87831000D01*
X245006335Y-87827378D01*
X244932778Y-87820133D01*
X244791214Y-87777190D01*
X244660748Y-87707454D01*
X244546394Y-87613606D01*
X244452546Y-87499252D01*
X244382810Y-87368786D01*
X244339867Y-87227222D01*
X244325367Y-87080000D01*
X244339867Y-86932778D01*
X244382810Y-86791214D01*
X244452546Y-86660748D01*
X244546394Y-86546394D01*
X244660748Y-86452546D01*
X244791214Y-86382810D01*
X244932778Y-86339867D01*
X245006335Y-86332622D01*
X245043112Y-86329000D01*
X245116888Y-86329000D01*
X245153665Y-86332622D01*
X245153665Y-86332622D01*
G37*
G36*
X240128600Y-86339867D02*
X240219059Y-86357860D01*
X240355732Y-86414472D01*
X240412715Y-86452547D01*
X240478738Y-86496662D01*
X240583338Y-86601262D01*
X240583340Y-86601265D01*
X240665528Y-86724268D01*
X240722140Y-86860941D01*
X240751000Y-87006033D01*
X240751000Y-87153967D01*
X240722140Y-87299059D01*
X240665528Y-87435732D01*
X240588677Y-87550747D01*
X240583338Y-87558738D01*
X240478738Y-87663338D01*
X240478735Y-87663340D01*
X240355732Y-87745528D01*
X240219059Y-87802140D01*
X240132004Y-87819456D01*
X240073969Y-87831000D01*
X239926031Y-87831000D01*
X239867996Y-87819456D01*
X239780941Y-87802140D01*
X239644268Y-87745528D01*
X239521265Y-87663340D01*
X239521262Y-87663338D01*
X239416662Y-87558738D01*
X239411323Y-87550747D01*
X239334472Y-87435732D01*
X239277860Y-87299059D01*
X239249000Y-87153967D01*
X239249000Y-87006033D01*
X239277860Y-86860941D01*
X239334472Y-86724268D01*
X239416660Y-86601265D01*
X239416662Y-86601262D01*
X239521262Y-86496662D01*
X239587285Y-86452547D01*
X239644268Y-86414472D01*
X239780941Y-86357860D01*
X239871400Y-86339867D01*
X239926031Y-86329000D01*
X240073969Y-86329000D01*
X240128600Y-86339867D01*
X240128600Y-86339867D01*
G37*
G36*
X219820442Y-85465518D02*
X219886627Y-85472037D01*
X219999853Y-85506384D01*
X220056467Y-85523557D01*
X220195087Y-85597652D01*
X220212991Y-85607222D01*
X220248729Y-85636552D01*
X220350186Y-85719814D01*
X220433448Y-85821271D01*
X220462778Y-85857009D01*
X220462779Y-85857011D01*
X220546443Y-86013533D01*
X220546443Y-86013534D01*
X220597963Y-86183373D01*
X220615359Y-86360000D01*
X220597963Y-86536627D01*
X220578356Y-86601262D01*
X220546443Y-86706467D01*
X220501144Y-86791214D01*
X220462778Y-86862991D01*
X220433448Y-86898729D01*
X220350186Y-87000186D01*
X220252931Y-87080000D01*
X220212991Y-87112778D01*
X220212989Y-87112779D01*
X220056467Y-87196443D01*
X219999853Y-87213616D01*
X219886627Y-87247963D01*
X219820442Y-87254482D01*
X219754260Y-87261000D01*
X219665740Y-87261000D01*
X219599558Y-87254482D01*
X219533373Y-87247963D01*
X219420147Y-87213616D01*
X219363533Y-87196443D01*
X219207011Y-87112779D01*
X219207009Y-87112778D01*
X219167069Y-87080000D01*
X219069814Y-87000186D01*
X218986552Y-86898729D01*
X218957222Y-86862991D01*
X218918856Y-86791214D01*
X218873557Y-86706467D01*
X218841644Y-86601262D01*
X218822037Y-86536627D01*
X218804641Y-86360000D01*
X218822037Y-86183373D01*
X218873557Y-86013534D01*
X218873557Y-86013533D01*
X218957221Y-85857011D01*
X218957222Y-85857009D01*
X218986552Y-85821271D01*
X219069814Y-85719814D01*
X219171271Y-85636552D01*
X219207009Y-85607222D01*
X219224913Y-85597652D01*
X219363533Y-85523557D01*
X219420147Y-85506384D01*
X219533373Y-85472037D01*
X219599558Y-85465518D01*
X219665740Y-85459000D01*
X219754260Y-85459000D01*
X219820442Y-85465518D01*
X219820442Y-85465518D01*
G37*
G36*
X214740442Y-85465518D02*
X214806627Y-85472037D01*
X214919853Y-85506384D01*
X214976467Y-85523557D01*
X215115087Y-85597652D01*
X215132991Y-85607222D01*
X215168729Y-85636552D01*
X215270186Y-85719814D01*
X215353448Y-85821271D01*
X215382778Y-85857009D01*
X215382779Y-85857011D01*
X215466443Y-86013533D01*
X215466443Y-86013534D01*
X215517963Y-86183373D01*
X215535359Y-86360000D01*
X215517963Y-86536627D01*
X215498356Y-86601262D01*
X215466443Y-86706467D01*
X215421144Y-86791214D01*
X215382778Y-86862991D01*
X215353448Y-86898729D01*
X215270186Y-87000186D01*
X215172931Y-87080000D01*
X215132991Y-87112778D01*
X215132989Y-87112779D01*
X214976467Y-87196443D01*
X214919853Y-87213616D01*
X214806627Y-87247963D01*
X214740442Y-87254482D01*
X214674260Y-87261000D01*
X214585740Y-87261000D01*
X214519558Y-87254482D01*
X214453373Y-87247963D01*
X214340147Y-87213616D01*
X214283533Y-87196443D01*
X214127011Y-87112779D01*
X214127009Y-87112778D01*
X214087069Y-87080000D01*
X213989814Y-87000186D01*
X213906552Y-86898729D01*
X213877222Y-86862991D01*
X213838856Y-86791214D01*
X213793557Y-86706467D01*
X213761644Y-86601262D01*
X213742037Y-86536627D01*
X213724641Y-86360000D01*
X213742037Y-86183373D01*
X213793557Y-86013534D01*
X213793557Y-86013533D01*
X213877221Y-85857011D01*
X213877222Y-85857009D01*
X213906552Y-85821271D01*
X213989814Y-85719814D01*
X214091271Y-85636552D01*
X214127009Y-85607222D01*
X214144913Y-85597652D01*
X214283533Y-85523557D01*
X214340147Y-85506384D01*
X214453373Y-85472037D01*
X214519558Y-85465518D01*
X214585740Y-85459000D01*
X214674260Y-85459000D01*
X214740442Y-85465518D01*
X214740442Y-85465518D01*
G37*
G36*
X238485643Y-84065781D02*
X238631415Y-84126162D01*
X238762611Y-84213824D01*
X238874176Y-84325389D01*
X238961838Y-84456585D01*
X239022219Y-84602357D01*
X239053000Y-84757107D01*
X239053000Y-84914893D01*
X239022219Y-85069643D01*
X238961838Y-85215415D01*
X238874176Y-85346611D01*
X238762611Y-85458176D01*
X238631415Y-85545838D01*
X238485643Y-85606219D01*
X238330893Y-85637000D01*
X238173107Y-85637000D01*
X238018357Y-85606219D01*
X237872585Y-85545838D01*
X237741389Y-85458176D01*
X237629824Y-85346611D01*
X237542162Y-85215415D01*
X237481781Y-85069643D01*
X237451000Y-84914893D01*
X237451000Y-84757107D01*
X237481781Y-84602357D01*
X237542162Y-84456585D01*
X237629824Y-84325389D01*
X237741389Y-84213824D01*
X237872585Y-84126162D01*
X238018357Y-84065781D01*
X238173107Y-84035000D01*
X238330893Y-84035000D01*
X238485643Y-84065781D01*
X238485643Y-84065781D01*
G37*
G36*
X219820443Y-82925519D02*
X219886627Y-82932037D01*
X219999853Y-82966384D01*
X220056467Y-82983557D01*
X220195087Y-83057652D01*
X220212991Y-83067222D01*
X220248729Y-83096552D01*
X220350186Y-83179814D01*
X220433448Y-83281271D01*
X220462778Y-83317009D01*
X220462779Y-83317011D01*
X220546443Y-83473533D01*
X220546443Y-83473534D01*
X220597963Y-83643373D01*
X220615359Y-83820000D01*
X220597963Y-83996627D01*
X220576985Y-84065781D01*
X220546443Y-84166467D01*
X220472348Y-84305087D01*
X220462778Y-84322991D01*
X220433448Y-84358729D01*
X220350186Y-84460186D01*
X220248729Y-84543448D01*
X220212991Y-84572778D01*
X220212989Y-84572779D01*
X220056467Y-84656443D01*
X219999853Y-84673616D01*
X219886627Y-84707963D01*
X219820442Y-84714482D01*
X219754260Y-84721000D01*
X219665740Y-84721000D01*
X219599557Y-84714481D01*
X219533373Y-84707963D01*
X219420147Y-84673616D01*
X219363533Y-84656443D01*
X219207011Y-84572779D01*
X219207009Y-84572778D01*
X219171271Y-84543448D01*
X219069814Y-84460186D01*
X218986552Y-84358729D01*
X218957222Y-84322991D01*
X218947652Y-84305087D01*
X218873557Y-84166467D01*
X218843015Y-84065781D01*
X218822037Y-83996627D01*
X218804641Y-83820000D01*
X218822037Y-83643373D01*
X218873557Y-83473534D01*
X218873557Y-83473533D01*
X218957221Y-83317011D01*
X218957222Y-83317009D01*
X218986552Y-83281271D01*
X219069814Y-83179814D01*
X219171271Y-83096552D01*
X219207009Y-83067222D01*
X219224913Y-83057652D01*
X219363533Y-82983557D01*
X219420147Y-82966384D01*
X219533373Y-82932037D01*
X219599557Y-82925519D01*
X219665740Y-82919000D01*
X219754260Y-82919000D01*
X219820443Y-82925519D01*
X219820443Y-82925519D01*
G37*
G36*
X214740443Y-82925519D02*
X214806627Y-82932037D01*
X214919853Y-82966384D01*
X214976467Y-82983557D01*
X215115087Y-83057652D01*
X215132991Y-83067222D01*
X215168729Y-83096552D01*
X215270186Y-83179814D01*
X215353448Y-83281271D01*
X215382778Y-83317009D01*
X215382779Y-83317011D01*
X215466443Y-83473533D01*
X215466443Y-83473534D01*
X215517963Y-83643373D01*
X215535359Y-83820000D01*
X215517963Y-83996627D01*
X215496985Y-84065781D01*
X215466443Y-84166467D01*
X215392348Y-84305087D01*
X215382778Y-84322991D01*
X215353448Y-84358729D01*
X215270186Y-84460186D01*
X215168729Y-84543448D01*
X215132991Y-84572778D01*
X215132989Y-84572779D01*
X214976467Y-84656443D01*
X214919853Y-84673616D01*
X214806627Y-84707963D01*
X214740442Y-84714482D01*
X214674260Y-84721000D01*
X214585740Y-84721000D01*
X214519557Y-84714481D01*
X214453373Y-84707963D01*
X214340147Y-84673616D01*
X214283533Y-84656443D01*
X214127011Y-84572779D01*
X214127009Y-84572778D01*
X214091271Y-84543448D01*
X213989814Y-84460186D01*
X213906552Y-84358729D01*
X213877222Y-84322991D01*
X213867652Y-84305087D01*
X213793557Y-84166467D01*
X213763015Y-84065781D01*
X213742037Y-83996627D01*
X213724641Y-83820000D01*
X213742037Y-83643373D01*
X213793557Y-83473534D01*
X213793557Y-83473533D01*
X213877221Y-83317011D01*
X213877222Y-83317009D01*
X213906552Y-83281271D01*
X213989814Y-83179814D01*
X214091271Y-83096552D01*
X214127009Y-83067222D01*
X214144913Y-83057652D01*
X214283533Y-82983557D01*
X214340147Y-82966384D01*
X214453373Y-82932037D01*
X214519557Y-82925519D01*
X214585740Y-82919000D01*
X214674260Y-82919000D01*
X214740443Y-82925519D01*
X214740443Y-82925519D01*
G37*
G36*
X236513000Y-83097000D02*
X234911000Y-83097000D01*
X234911000Y-81495000D01*
X236513000Y-81495000D01*
X236513000Y-83097000D01*
X236513000Y-83097000D01*
G37*
G36*
X219820442Y-80385518D02*
X219886627Y-80392037D01*
X219999853Y-80426384D01*
X220056467Y-80443557D01*
X220186363Y-80512989D01*
X220212991Y-80527222D01*
X220248729Y-80556552D01*
X220350186Y-80639814D01*
X220433448Y-80741271D01*
X220462778Y-80777009D01*
X220462779Y-80777011D01*
X220546443Y-80933533D01*
X220546443Y-80933534D01*
X220597963Y-81103373D01*
X220615359Y-81280000D01*
X220597963Y-81456627D01*
X220563616Y-81569853D01*
X220546443Y-81626467D01*
X220472348Y-81765087D01*
X220462778Y-81782991D01*
X220433448Y-81818729D01*
X220350186Y-81920186D01*
X220248729Y-82003448D01*
X220212991Y-82032778D01*
X220212989Y-82032779D01*
X220056467Y-82116443D01*
X219999853Y-82133616D01*
X219886627Y-82167963D01*
X219820443Y-82174481D01*
X219754260Y-82181000D01*
X219665740Y-82181000D01*
X219599557Y-82174481D01*
X219533373Y-82167963D01*
X219420147Y-82133616D01*
X219363533Y-82116443D01*
X219207011Y-82032779D01*
X219207009Y-82032778D01*
X219171271Y-82003448D01*
X219069814Y-81920186D01*
X218986552Y-81818729D01*
X218957222Y-81782991D01*
X218947652Y-81765087D01*
X218873557Y-81626467D01*
X218856384Y-81569853D01*
X218822037Y-81456627D01*
X218804641Y-81280000D01*
X218822037Y-81103373D01*
X218873557Y-80933534D01*
X218873557Y-80933533D01*
X218957221Y-80777011D01*
X218957222Y-80777009D01*
X218986552Y-80741271D01*
X219069814Y-80639814D01*
X219171271Y-80556552D01*
X219207009Y-80527222D01*
X219233637Y-80512989D01*
X219363533Y-80443557D01*
X219420147Y-80426384D01*
X219533373Y-80392037D01*
X219599558Y-80385518D01*
X219665740Y-80379000D01*
X219754260Y-80379000D01*
X219820442Y-80385518D01*
X219820442Y-80385518D01*
G37*
G36*
X214740442Y-80385518D02*
X214806627Y-80392037D01*
X214919853Y-80426384D01*
X214976467Y-80443557D01*
X215106363Y-80512989D01*
X215132991Y-80527222D01*
X215168729Y-80556552D01*
X215270186Y-80639814D01*
X215353448Y-80741271D01*
X215382778Y-80777009D01*
X215382779Y-80777011D01*
X215466443Y-80933533D01*
X215466443Y-80933534D01*
X215517963Y-81103373D01*
X215535359Y-81280000D01*
X215517963Y-81456627D01*
X215483616Y-81569853D01*
X215466443Y-81626467D01*
X215392348Y-81765087D01*
X215382778Y-81782991D01*
X215353448Y-81818729D01*
X215270186Y-81920186D01*
X215168729Y-82003448D01*
X215132991Y-82032778D01*
X215132989Y-82032779D01*
X214976467Y-82116443D01*
X214919853Y-82133616D01*
X214806627Y-82167963D01*
X214740443Y-82174481D01*
X214674260Y-82181000D01*
X214585740Y-82181000D01*
X214519557Y-82174481D01*
X214453373Y-82167963D01*
X214340147Y-82133616D01*
X214283533Y-82116443D01*
X214127011Y-82032779D01*
X214127009Y-82032778D01*
X214091271Y-82003448D01*
X213989814Y-81920186D01*
X213906552Y-81818729D01*
X213877222Y-81782991D01*
X213867652Y-81765087D01*
X213793557Y-81626467D01*
X213776384Y-81569853D01*
X213742037Y-81456627D01*
X213724641Y-81280000D01*
X213742037Y-81103373D01*
X213793557Y-80933534D01*
X213793557Y-80933533D01*
X213877221Y-80777011D01*
X213877222Y-80777009D01*
X213906552Y-80741271D01*
X213989814Y-80639814D01*
X214091271Y-80556552D01*
X214127009Y-80527222D01*
X214153637Y-80512989D01*
X214283533Y-80443557D01*
X214340147Y-80426384D01*
X214453373Y-80392037D01*
X214519558Y-80385518D01*
X214585740Y-80379000D01*
X214674260Y-80379000D01*
X214740442Y-80385518D01*
X214740442Y-80385518D01*
G37*
G36*
X254110443Y-79115519D02*
X254176627Y-79122037D01*
X254289853Y-79156384D01*
X254346467Y-79173557D01*
X254476363Y-79242989D01*
X254502991Y-79257222D01*
X254538729Y-79286552D01*
X254640186Y-79369814D01*
X254723448Y-79471271D01*
X254752778Y-79507009D01*
X254752779Y-79507011D01*
X254836443Y-79663533D01*
X254836443Y-79663534D01*
X254887963Y-79833373D01*
X254905359Y-80010000D01*
X254887963Y-80186627D01*
X254853616Y-80299853D01*
X254836443Y-80356467D01*
X254817430Y-80392037D01*
X254752778Y-80512991D01*
X254723448Y-80548729D01*
X254640186Y-80650186D01*
X254538729Y-80733448D01*
X254502991Y-80762778D01*
X254502989Y-80762779D01*
X254346467Y-80846443D01*
X254289853Y-80863616D01*
X254176627Y-80897963D01*
X254110442Y-80904482D01*
X254044260Y-80911000D01*
X253955740Y-80911000D01*
X253889558Y-80904482D01*
X253823373Y-80897963D01*
X253710147Y-80863616D01*
X253653533Y-80846443D01*
X253497011Y-80762779D01*
X253497009Y-80762778D01*
X253461271Y-80733448D01*
X253359814Y-80650186D01*
X253276552Y-80548729D01*
X253247222Y-80512991D01*
X253182570Y-80392037D01*
X253163557Y-80356467D01*
X253146384Y-80299853D01*
X253112037Y-80186627D01*
X253094641Y-80010000D01*
X253112037Y-79833373D01*
X253163557Y-79663534D01*
X253163557Y-79663533D01*
X253247221Y-79507011D01*
X253247222Y-79507009D01*
X253276552Y-79471271D01*
X253359814Y-79369814D01*
X253461271Y-79286552D01*
X253497009Y-79257222D01*
X253523637Y-79242989D01*
X253653533Y-79173557D01*
X253710147Y-79156384D01*
X253823373Y-79122037D01*
X253889557Y-79115519D01*
X253955740Y-79109000D01*
X254044260Y-79109000D01*
X254110443Y-79115519D01*
X254110443Y-79115519D01*
G37*
G36*
X247281000Y-79641000D02*
X245479000Y-79641000D01*
X245479000Y-77839000D01*
X247281000Y-77839000D01*
X247281000Y-79641000D01*
X247281000Y-79641000D01*
G37*
G36*
X214740443Y-77845519D02*
X214806627Y-77852037D01*
X214919853Y-77886384D01*
X214976467Y-77903557D01*
X215115087Y-77977652D01*
X215132991Y-77987222D01*
X215168729Y-78016552D01*
X215270186Y-78099814D01*
X215353448Y-78201271D01*
X215382778Y-78237009D01*
X215382779Y-78237011D01*
X215466443Y-78393533D01*
X215466443Y-78393534D01*
X215517963Y-78563373D01*
X215535359Y-78740000D01*
X215517963Y-78916627D01*
X215483616Y-79029853D01*
X215466443Y-79086467D01*
X215447430Y-79122037D01*
X215382778Y-79242991D01*
X215353448Y-79278729D01*
X215270186Y-79380186D01*
X215168729Y-79463448D01*
X215132991Y-79492778D01*
X215132989Y-79492779D01*
X214976467Y-79576443D01*
X214919853Y-79593616D01*
X214806627Y-79627963D01*
X214740442Y-79634482D01*
X214674260Y-79641000D01*
X214585740Y-79641000D01*
X214519558Y-79634482D01*
X214453373Y-79627963D01*
X214340147Y-79593616D01*
X214283533Y-79576443D01*
X214127011Y-79492779D01*
X214127009Y-79492778D01*
X214091271Y-79463448D01*
X213989814Y-79380186D01*
X213906552Y-79278729D01*
X213877222Y-79242991D01*
X213812570Y-79122037D01*
X213793557Y-79086467D01*
X213776384Y-79029853D01*
X213742037Y-78916627D01*
X213724641Y-78740000D01*
X213742037Y-78563373D01*
X213793557Y-78393534D01*
X213793557Y-78393533D01*
X213877221Y-78237011D01*
X213877222Y-78237009D01*
X213906552Y-78201271D01*
X213989814Y-78099814D01*
X214091271Y-78016552D01*
X214127009Y-77987222D01*
X214144913Y-77977652D01*
X214283533Y-77903557D01*
X214340147Y-77886384D01*
X214453373Y-77852037D01*
X214519557Y-77845519D01*
X214585740Y-77839000D01*
X214674260Y-77839000D01*
X214740443Y-77845519D01*
X214740443Y-77845519D01*
G37*
G36*
X219820443Y-77845519D02*
X219886627Y-77852037D01*
X219999853Y-77886384D01*
X220056467Y-77903557D01*
X220195087Y-77977652D01*
X220212991Y-77987222D01*
X220248729Y-78016552D01*
X220350186Y-78099814D01*
X220433448Y-78201271D01*
X220462778Y-78237009D01*
X220462779Y-78237011D01*
X220546443Y-78393533D01*
X220546443Y-78393534D01*
X220597963Y-78563373D01*
X220615359Y-78740000D01*
X220597963Y-78916627D01*
X220563616Y-79029853D01*
X220546443Y-79086467D01*
X220527430Y-79122037D01*
X220462778Y-79242991D01*
X220433448Y-79278729D01*
X220350186Y-79380186D01*
X220248729Y-79463448D01*
X220212991Y-79492778D01*
X220212989Y-79492779D01*
X220056467Y-79576443D01*
X219999853Y-79593616D01*
X219886627Y-79627963D01*
X219820442Y-79634482D01*
X219754260Y-79641000D01*
X219665740Y-79641000D01*
X219599558Y-79634482D01*
X219533373Y-79627963D01*
X219420147Y-79593616D01*
X219363533Y-79576443D01*
X219207011Y-79492779D01*
X219207009Y-79492778D01*
X219171271Y-79463448D01*
X219069814Y-79380186D01*
X218986552Y-79278729D01*
X218957222Y-79242991D01*
X218892570Y-79122037D01*
X218873557Y-79086467D01*
X218856384Y-79029853D01*
X218822037Y-78916627D01*
X218804641Y-78740000D01*
X218822037Y-78563373D01*
X218873557Y-78393534D01*
X218873557Y-78393533D01*
X218957221Y-78237011D01*
X218957222Y-78237009D01*
X218986552Y-78201271D01*
X219069814Y-78099814D01*
X219171271Y-78016552D01*
X219207009Y-77987222D01*
X219224913Y-77977652D01*
X219363533Y-77903557D01*
X219420147Y-77886384D01*
X219533373Y-77852037D01*
X219599557Y-77845519D01*
X219665740Y-77839000D01*
X219754260Y-77839000D01*
X219820443Y-77845519D01*
X219820443Y-77845519D01*
G37*
G36*
X254901000Y-78371000D02*
X253099000Y-78371000D01*
X253099000Y-76569000D01*
X254901000Y-76569000D01*
X254901000Y-78371000D01*
X254901000Y-78371000D01*
G37*
G36*
X230706972Y-75391384D02*
X230773156Y-75397902D01*
X230886382Y-75432249D01*
X230942996Y-75449422D01*
X231081616Y-75523517D01*
X231099520Y-75533087D01*
X231132087Y-75559814D01*
X231236715Y-75645679D01*
X231319977Y-75747136D01*
X231349307Y-75782874D01*
X231349308Y-75782876D01*
X231432972Y-75939398D01*
X231432972Y-75939399D01*
X231484492Y-76109238D01*
X231501888Y-76285865D01*
X231484492Y-76462492D01*
X231456208Y-76555732D01*
X231432972Y-76632332D01*
X231408167Y-76678738D01*
X231349307Y-76788856D01*
X231319977Y-76824594D01*
X231236715Y-76926051D01*
X231135258Y-77009313D01*
X231099520Y-77038643D01*
X231099518Y-77038644D01*
X230942996Y-77122308D01*
X230886382Y-77139481D01*
X230773156Y-77173828D01*
X230706971Y-77180347D01*
X230640789Y-77186865D01*
X230552269Y-77186865D01*
X230486087Y-77180347D01*
X230419902Y-77173828D01*
X230306676Y-77139481D01*
X230250062Y-77122308D01*
X230093540Y-77038644D01*
X230093538Y-77038643D01*
X230057800Y-77009313D01*
X229956343Y-76926051D01*
X229873081Y-76824594D01*
X229843751Y-76788856D01*
X229784891Y-76678738D01*
X229760086Y-76632332D01*
X229736850Y-76555732D01*
X229708566Y-76462492D01*
X229691170Y-76285865D01*
X229708566Y-76109238D01*
X229760086Y-75939399D01*
X229760086Y-75939398D01*
X229843750Y-75782876D01*
X229843751Y-75782874D01*
X229873081Y-75747136D01*
X229956343Y-75645679D01*
X230060971Y-75559814D01*
X230093538Y-75533087D01*
X230111442Y-75523517D01*
X230250062Y-75449422D01*
X230306676Y-75432249D01*
X230419902Y-75397902D01*
X230486086Y-75391384D01*
X230552269Y-75384865D01*
X230640789Y-75384865D01*
X230706972Y-75391384D01*
X230706972Y-75391384D01*
G37*
G36*
X219820442Y-75305518D02*
X219886627Y-75312037D01*
X219999853Y-75346384D01*
X220056467Y-75363557D01*
X220195087Y-75437652D01*
X220212991Y-75447222D01*
X220248729Y-75476552D01*
X220350186Y-75559814D01*
X220420653Y-75645680D01*
X220462778Y-75697009D01*
X220462779Y-75697011D01*
X220546443Y-75853533D01*
X220546443Y-75853534D01*
X220597963Y-76023373D01*
X220615359Y-76200000D01*
X220597963Y-76376627D01*
X220585092Y-76419056D01*
X220546443Y-76546467D01*
X220475743Y-76678735D01*
X220462778Y-76702991D01*
X220433448Y-76738729D01*
X220350186Y-76840186D01*
X220250323Y-76922140D01*
X220212991Y-76952778D01*
X220212989Y-76952779D01*
X220056467Y-77036443D01*
X219999853Y-77053616D01*
X219886627Y-77087963D01*
X219820442Y-77094482D01*
X219754260Y-77101000D01*
X219665740Y-77101000D01*
X219599558Y-77094482D01*
X219533373Y-77087963D01*
X219420147Y-77053616D01*
X219363533Y-77036443D01*
X219207011Y-76952779D01*
X219207009Y-76952778D01*
X219169677Y-76922140D01*
X219069814Y-76840186D01*
X218986552Y-76738729D01*
X218957222Y-76702991D01*
X218944257Y-76678735D01*
X218873557Y-76546467D01*
X218834908Y-76419056D01*
X218822037Y-76376627D01*
X218804641Y-76200000D01*
X218822037Y-76023373D01*
X218873557Y-75853534D01*
X218873557Y-75853533D01*
X218957221Y-75697011D01*
X218957222Y-75697009D01*
X218999347Y-75645680D01*
X219069814Y-75559814D01*
X219171271Y-75476552D01*
X219207009Y-75447222D01*
X219224913Y-75437652D01*
X219363533Y-75363557D01*
X219420147Y-75346384D01*
X219533373Y-75312037D01*
X219599558Y-75305518D01*
X219665740Y-75299000D01*
X219754260Y-75299000D01*
X219820442Y-75305518D01*
X219820442Y-75305518D01*
G37*
G36*
X246490442Y-75305518D02*
X246556627Y-75312037D01*
X246669853Y-75346384D01*
X246726467Y-75363557D01*
X246865087Y-75437652D01*
X246882991Y-75447222D01*
X246918729Y-75476552D01*
X247020186Y-75559814D01*
X247090653Y-75645680D01*
X247132778Y-75697009D01*
X247132779Y-75697011D01*
X247216443Y-75853533D01*
X247216443Y-75853534D01*
X247267963Y-76023373D01*
X247285359Y-76200000D01*
X247267963Y-76376627D01*
X247255092Y-76419056D01*
X247216443Y-76546467D01*
X247145743Y-76678735D01*
X247132778Y-76702991D01*
X247103448Y-76738729D01*
X247020186Y-76840186D01*
X246920323Y-76922140D01*
X246882991Y-76952778D01*
X246882989Y-76952779D01*
X246726467Y-77036443D01*
X246669853Y-77053616D01*
X246556627Y-77087963D01*
X246490442Y-77094482D01*
X246424260Y-77101000D01*
X246335740Y-77101000D01*
X246269558Y-77094482D01*
X246203373Y-77087963D01*
X246090147Y-77053616D01*
X246033533Y-77036443D01*
X245877011Y-76952779D01*
X245877009Y-76952778D01*
X245839677Y-76922140D01*
X245739814Y-76840186D01*
X245656552Y-76738729D01*
X245627222Y-76702991D01*
X245614257Y-76678735D01*
X245543557Y-76546467D01*
X245504908Y-76419056D01*
X245492037Y-76376627D01*
X245474641Y-76200000D01*
X245492037Y-76023373D01*
X245543557Y-75853534D01*
X245543557Y-75853533D01*
X245627221Y-75697011D01*
X245627222Y-75697009D01*
X245669347Y-75645680D01*
X245739814Y-75559814D01*
X245841271Y-75476552D01*
X245877009Y-75447222D01*
X245894913Y-75437652D01*
X246033533Y-75363557D01*
X246090147Y-75346384D01*
X246203373Y-75312037D01*
X246269558Y-75305518D01*
X246335740Y-75299000D01*
X246424260Y-75299000D01*
X246490442Y-75305518D01*
X246490442Y-75305518D01*
G37*
G36*
X214740442Y-75305518D02*
X214806627Y-75312037D01*
X214919853Y-75346384D01*
X214976467Y-75363557D01*
X215115087Y-75437652D01*
X215132991Y-75447222D01*
X215168729Y-75476552D01*
X215270186Y-75559814D01*
X215340653Y-75645680D01*
X215382778Y-75697009D01*
X215382779Y-75697011D01*
X215466443Y-75853533D01*
X215466443Y-75853534D01*
X215517963Y-76023373D01*
X215535359Y-76200000D01*
X215517963Y-76376627D01*
X215505092Y-76419056D01*
X215466443Y-76546467D01*
X215395743Y-76678735D01*
X215382778Y-76702991D01*
X215353448Y-76738729D01*
X215270186Y-76840186D01*
X215170323Y-76922140D01*
X215132991Y-76952778D01*
X215132989Y-76952779D01*
X214976467Y-77036443D01*
X214919853Y-77053616D01*
X214806627Y-77087963D01*
X214740442Y-77094482D01*
X214674260Y-77101000D01*
X214585740Y-77101000D01*
X214519558Y-77094482D01*
X214453373Y-77087963D01*
X214340147Y-77053616D01*
X214283533Y-77036443D01*
X214127011Y-76952779D01*
X214127009Y-76952778D01*
X214089677Y-76922140D01*
X213989814Y-76840186D01*
X213906552Y-76738729D01*
X213877222Y-76702991D01*
X213864257Y-76678735D01*
X213793557Y-76546467D01*
X213754908Y-76419056D01*
X213742037Y-76376627D01*
X213724641Y-76200000D01*
X213742037Y-76023373D01*
X213793557Y-75853534D01*
X213793557Y-75853533D01*
X213877221Y-75697011D01*
X213877222Y-75697009D01*
X213919347Y-75645680D01*
X213989814Y-75559814D01*
X214091271Y-75476552D01*
X214127009Y-75447222D01*
X214144913Y-75437652D01*
X214283533Y-75363557D01*
X214340147Y-75346384D01*
X214453373Y-75312037D01*
X214519558Y-75305518D01*
X214585740Y-75299000D01*
X214674260Y-75299000D01*
X214740442Y-75305518D01*
X214740442Y-75305518D01*
G37*
G36*
X240162004Y-75460544D02*
X240249059Y-75477860D01*
X240385732Y-75534472D01*
X240385733Y-75534473D01*
X240508738Y-75616662D01*
X240613338Y-75721262D01*
X240613340Y-75721265D01*
X240695528Y-75844268D01*
X240752140Y-75980941D01*
X240760580Y-76023373D01*
X240781000Y-76126031D01*
X240781000Y-76273969D01*
X240769456Y-76332004D01*
X240752140Y-76419059D01*
X240695528Y-76555732D01*
X240614446Y-76677079D01*
X240613338Y-76678738D01*
X240508738Y-76783338D01*
X240508735Y-76783340D01*
X240385732Y-76865528D01*
X240249059Y-76922140D01*
X240162004Y-76939456D01*
X240103969Y-76951000D01*
X239956031Y-76951000D01*
X239897996Y-76939456D01*
X239810941Y-76922140D01*
X239674268Y-76865528D01*
X239551265Y-76783340D01*
X239551262Y-76783338D01*
X239446662Y-76678738D01*
X239445554Y-76677079D01*
X239364472Y-76555732D01*
X239307860Y-76419059D01*
X239290544Y-76332004D01*
X239279000Y-76273969D01*
X239279000Y-76126031D01*
X239299420Y-76023373D01*
X239307860Y-75980941D01*
X239364472Y-75844268D01*
X239446660Y-75721265D01*
X239446662Y-75721262D01*
X239551262Y-75616662D01*
X239674267Y-75534473D01*
X239674268Y-75534472D01*
X239810941Y-75477860D01*
X239897996Y-75460544D01*
X239956031Y-75449000D01*
X240103969Y-75449000D01*
X240162004Y-75460544D01*
X240162004Y-75460544D01*
G37*
G36*
X230706972Y-72851384D02*
X230773156Y-72857902D01*
X230886382Y-72892249D01*
X230942996Y-72909422D01*
X231081616Y-72983517D01*
X231099520Y-72993087D01*
X231132087Y-73019814D01*
X231236715Y-73105679D01*
X231278841Y-73157011D01*
X231349307Y-73242874D01*
X231349308Y-73242876D01*
X231432972Y-73399398D01*
X231432972Y-73399399D01*
X231484492Y-73569238D01*
X231501888Y-73745865D01*
X231484492Y-73922492D01*
X231450145Y-74035718D01*
X231432972Y-74092332D01*
X231395204Y-74162989D01*
X231349307Y-74248856D01*
X231319977Y-74284594D01*
X231236715Y-74386051D01*
X231135258Y-74469313D01*
X231099520Y-74498643D01*
X231099518Y-74498644D01*
X230942996Y-74582308D01*
X230886382Y-74599481D01*
X230773156Y-74633828D01*
X230706972Y-74640346D01*
X230640789Y-74646865D01*
X230552269Y-74646865D01*
X230486086Y-74640346D01*
X230419902Y-74633828D01*
X230306676Y-74599481D01*
X230250062Y-74582308D01*
X230093540Y-74498644D01*
X230093538Y-74498643D01*
X230057800Y-74469313D01*
X229956343Y-74386051D01*
X229873081Y-74284594D01*
X229843751Y-74248856D01*
X229797854Y-74162989D01*
X229760086Y-74092332D01*
X229742913Y-74035718D01*
X229708566Y-73922492D01*
X229691170Y-73745865D01*
X229708566Y-73569238D01*
X229760086Y-73399399D01*
X229760086Y-73399398D01*
X229843750Y-73242876D01*
X229843751Y-73242874D01*
X229914217Y-73157011D01*
X229956343Y-73105679D01*
X230060971Y-73019814D01*
X230093538Y-72993087D01*
X230111442Y-72983517D01*
X230250062Y-72909422D01*
X230306676Y-72892249D01*
X230419902Y-72857902D01*
X230486086Y-72851384D01*
X230552269Y-72844865D01*
X230640789Y-72844865D01*
X230706972Y-72851384D01*
X230706972Y-72851384D01*
G37*
G36*
X246490442Y-72765518D02*
X246556627Y-72772037D01*
X246669853Y-72806384D01*
X246726467Y-72823557D01*
X246865087Y-72897652D01*
X246882991Y-72907222D01*
X246918729Y-72936552D01*
X247020186Y-73019814D01*
X247090653Y-73105680D01*
X247132778Y-73157009D01*
X247132779Y-73157011D01*
X247216443Y-73313533D01*
X247216443Y-73313534D01*
X247267963Y-73483373D01*
X247285359Y-73660000D01*
X247267963Y-73836627D01*
X247241917Y-73922490D01*
X247216443Y-74006467D01*
X247142348Y-74145087D01*
X247132778Y-74162991D01*
X247103448Y-74198729D01*
X247020186Y-74300186D01*
X246918729Y-74383448D01*
X246882991Y-74412778D01*
X246882989Y-74412779D01*
X246726467Y-74496443D01*
X246669853Y-74513616D01*
X246556627Y-74547963D01*
X246490442Y-74554482D01*
X246424260Y-74561000D01*
X246335740Y-74561000D01*
X246269558Y-74554482D01*
X246203373Y-74547963D01*
X246090147Y-74513616D01*
X246033533Y-74496443D01*
X245877011Y-74412779D01*
X245877009Y-74412778D01*
X245841271Y-74383448D01*
X245739814Y-74300186D01*
X245656552Y-74198729D01*
X245627222Y-74162991D01*
X245617652Y-74145087D01*
X245543557Y-74006467D01*
X245518083Y-73922490D01*
X245492037Y-73836627D01*
X245474641Y-73660000D01*
X245492037Y-73483373D01*
X245543557Y-73313534D01*
X245543557Y-73313533D01*
X245627221Y-73157011D01*
X245627222Y-73157009D01*
X245669347Y-73105680D01*
X245739814Y-73019814D01*
X245841271Y-72936552D01*
X245877009Y-72907222D01*
X245894913Y-72897652D01*
X246033533Y-72823557D01*
X246090147Y-72806384D01*
X246203373Y-72772037D01*
X246269558Y-72765518D01*
X246335740Y-72759000D01*
X246424260Y-72759000D01*
X246490442Y-72765518D01*
X246490442Y-72765518D01*
G37*
G36*
X214740442Y-72765518D02*
X214806627Y-72772037D01*
X214919853Y-72806384D01*
X214976467Y-72823557D01*
X215115087Y-72897652D01*
X215132991Y-72907222D01*
X215168729Y-72936552D01*
X215270186Y-73019814D01*
X215340653Y-73105680D01*
X215382778Y-73157009D01*
X215382779Y-73157011D01*
X215466443Y-73313533D01*
X215466443Y-73313534D01*
X215517963Y-73483373D01*
X215535359Y-73660000D01*
X215517963Y-73836627D01*
X215491917Y-73922490D01*
X215466443Y-74006467D01*
X215392348Y-74145087D01*
X215382778Y-74162991D01*
X215353448Y-74198729D01*
X215270186Y-74300186D01*
X215168729Y-74383448D01*
X215132991Y-74412778D01*
X215132989Y-74412779D01*
X214976467Y-74496443D01*
X214919853Y-74513616D01*
X214806627Y-74547963D01*
X214740442Y-74554482D01*
X214674260Y-74561000D01*
X214585740Y-74561000D01*
X214519558Y-74554482D01*
X214453373Y-74547963D01*
X214340147Y-74513616D01*
X214283533Y-74496443D01*
X214127011Y-74412779D01*
X214127009Y-74412778D01*
X214091271Y-74383448D01*
X213989814Y-74300186D01*
X213906552Y-74198729D01*
X213877222Y-74162991D01*
X213867652Y-74145087D01*
X213793557Y-74006467D01*
X213768083Y-73922490D01*
X213742037Y-73836627D01*
X213724641Y-73660000D01*
X213742037Y-73483373D01*
X213793557Y-73313534D01*
X213793557Y-73313533D01*
X213877221Y-73157011D01*
X213877222Y-73157009D01*
X213919347Y-73105680D01*
X213989814Y-73019814D01*
X214091271Y-72936552D01*
X214127009Y-72907222D01*
X214144913Y-72897652D01*
X214283533Y-72823557D01*
X214340147Y-72806384D01*
X214453373Y-72772037D01*
X214519558Y-72765518D01*
X214585740Y-72759000D01*
X214674260Y-72759000D01*
X214740442Y-72765518D01*
X214740442Y-72765518D01*
G37*
G36*
X219820442Y-72765518D02*
X219886627Y-72772037D01*
X219999853Y-72806384D01*
X220056467Y-72823557D01*
X220195087Y-72897652D01*
X220212991Y-72907222D01*
X220248729Y-72936552D01*
X220350186Y-73019814D01*
X220420653Y-73105680D01*
X220462778Y-73157009D01*
X220462779Y-73157011D01*
X220546443Y-73313533D01*
X220546443Y-73313534D01*
X220597963Y-73483373D01*
X220615359Y-73660000D01*
X220597963Y-73836627D01*
X220571917Y-73922490D01*
X220546443Y-74006467D01*
X220472348Y-74145087D01*
X220462778Y-74162991D01*
X220433448Y-74198729D01*
X220350186Y-74300186D01*
X220248729Y-74383448D01*
X220212991Y-74412778D01*
X220212989Y-74412779D01*
X220056467Y-74496443D01*
X219999853Y-74513616D01*
X219886627Y-74547963D01*
X219820442Y-74554482D01*
X219754260Y-74561000D01*
X219665740Y-74561000D01*
X219599558Y-74554482D01*
X219533373Y-74547963D01*
X219420147Y-74513616D01*
X219363533Y-74496443D01*
X219207011Y-74412779D01*
X219207009Y-74412778D01*
X219171271Y-74383448D01*
X219069814Y-74300186D01*
X218986552Y-74198729D01*
X218957222Y-74162991D01*
X218947652Y-74145087D01*
X218873557Y-74006467D01*
X218848083Y-73922490D01*
X218822037Y-73836627D01*
X218804641Y-73660000D01*
X218822037Y-73483373D01*
X218873557Y-73313534D01*
X218873557Y-73313533D01*
X218957221Y-73157011D01*
X218957222Y-73157009D01*
X218999347Y-73105680D01*
X219069814Y-73019814D01*
X219171271Y-72936552D01*
X219207009Y-72907222D01*
X219224913Y-72897652D01*
X219363533Y-72823557D01*
X219420147Y-72806384D01*
X219533373Y-72772037D01*
X219599558Y-72765518D01*
X219665740Y-72759000D01*
X219754260Y-72759000D01*
X219820442Y-72765518D01*
X219820442Y-72765518D01*
G37*
G36*
X231497529Y-72106865D02*
X229695529Y-72106865D01*
X229695529Y-70304865D01*
X231497529Y-70304865D01*
X231497529Y-72106865D01*
X231497529Y-72106865D01*
G37*
G36*
X219820442Y-70225518D02*
X219886627Y-70232037D01*
X219999853Y-70266384D01*
X220056467Y-70283557D01*
X220195087Y-70357652D01*
X220212991Y-70367222D01*
X220248729Y-70396552D01*
X220350186Y-70479814D01*
X220433448Y-70581271D01*
X220462778Y-70617009D01*
X220462779Y-70617011D01*
X220546443Y-70773533D01*
X220546443Y-70773534D01*
X220597963Y-70943373D01*
X220615359Y-71120000D01*
X220597963Y-71296627D01*
X220563940Y-71408786D01*
X220546443Y-71466467D01*
X220507538Y-71539252D01*
X220462778Y-71622991D01*
X220437653Y-71653606D01*
X220350186Y-71760186D01*
X220280725Y-71817190D01*
X220212991Y-71872778D01*
X220212989Y-71872779D01*
X220056467Y-71956443D01*
X219999853Y-71973616D01*
X219886627Y-72007963D01*
X219820443Y-72014481D01*
X219754260Y-72021000D01*
X219665740Y-72021000D01*
X219599557Y-72014481D01*
X219533373Y-72007963D01*
X219420147Y-71973616D01*
X219363533Y-71956443D01*
X219207011Y-71872779D01*
X219207009Y-71872778D01*
X219139275Y-71817190D01*
X219069814Y-71760186D01*
X218982347Y-71653606D01*
X218957222Y-71622991D01*
X218912462Y-71539252D01*
X218873557Y-71466467D01*
X218856060Y-71408786D01*
X218822037Y-71296627D01*
X218804641Y-71120000D01*
X218822037Y-70943373D01*
X218873557Y-70773534D01*
X218873557Y-70773533D01*
X218957221Y-70617011D01*
X218957222Y-70617009D01*
X218986552Y-70581271D01*
X219069814Y-70479814D01*
X219171271Y-70396552D01*
X219207009Y-70367222D01*
X219224913Y-70357652D01*
X219363533Y-70283557D01*
X219420147Y-70266384D01*
X219533373Y-70232037D01*
X219599558Y-70225518D01*
X219665740Y-70219000D01*
X219754260Y-70219000D01*
X219820442Y-70225518D01*
X219820442Y-70225518D01*
G37*
G36*
X254901000Y-72021000D02*
X253099000Y-72021000D01*
X253099000Y-70219000D01*
X254901000Y-70219000D01*
X254901000Y-72021000D01*
X254901000Y-72021000D01*
G37*
G36*
X214740442Y-70225518D02*
X214806627Y-70232037D01*
X214919853Y-70266384D01*
X214976467Y-70283557D01*
X215115087Y-70357652D01*
X215132991Y-70367222D01*
X215168729Y-70396552D01*
X215270186Y-70479814D01*
X215353448Y-70581271D01*
X215382778Y-70617009D01*
X215382779Y-70617011D01*
X215466443Y-70773533D01*
X215466443Y-70773534D01*
X215517963Y-70943373D01*
X215535359Y-71120000D01*
X215517963Y-71296627D01*
X215483940Y-71408786D01*
X215466443Y-71466467D01*
X215427538Y-71539252D01*
X215382778Y-71622991D01*
X215357653Y-71653606D01*
X215270186Y-71760186D01*
X215200725Y-71817190D01*
X215132991Y-71872778D01*
X215132989Y-71872779D01*
X214976467Y-71956443D01*
X214919853Y-71973616D01*
X214806627Y-72007963D01*
X214740443Y-72014481D01*
X214674260Y-72021000D01*
X214585740Y-72021000D01*
X214519557Y-72014481D01*
X214453373Y-72007963D01*
X214340147Y-71973616D01*
X214283533Y-71956443D01*
X214127011Y-71872779D01*
X214127009Y-71872778D01*
X214059275Y-71817190D01*
X213989814Y-71760186D01*
X213902347Y-71653606D01*
X213877222Y-71622991D01*
X213832462Y-71539252D01*
X213793557Y-71466467D01*
X213776060Y-71408786D01*
X213742037Y-71296627D01*
X213724641Y-71120000D01*
X213742037Y-70943373D01*
X213793557Y-70773534D01*
X213793557Y-70773533D01*
X213877221Y-70617011D01*
X213877222Y-70617009D01*
X213906552Y-70581271D01*
X213989814Y-70479814D01*
X214091271Y-70396552D01*
X214127009Y-70367222D01*
X214144913Y-70357652D01*
X214283533Y-70283557D01*
X214340147Y-70266384D01*
X214453373Y-70232037D01*
X214519558Y-70225518D01*
X214585740Y-70219000D01*
X214674260Y-70219000D01*
X214740442Y-70225518D01*
X214740442Y-70225518D01*
G37*
G36*
X246490442Y-70225518D02*
X246556627Y-70232037D01*
X246669853Y-70266384D01*
X246726467Y-70283557D01*
X246865087Y-70357652D01*
X246882991Y-70367222D01*
X246918729Y-70396552D01*
X247020186Y-70479814D01*
X247103448Y-70581271D01*
X247132778Y-70617009D01*
X247132779Y-70617011D01*
X247216443Y-70773533D01*
X247216443Y-70773534D01*
X247267963Y-70943373D01*
X247285359Y-71120000D01*
X247267963Y-71296627D01*
X247233940Y-71408786D01*
X247216443Y-71466467D01*
X247177538Y-71539252D01*
X247132778Y-71622991D01*
X247107653Y-71653606D01*
X247020186Y-71760186D01*
X246950725Y-71817190D01*
X246882991Y-71872778D01*
X246882989Y-71872779D01*
X246726467Y-71956443D01*
X246669853Y-71973616D01*
X246556627Y-72007963D01*
X246490443Y-72014481D01*
X246424260Y-72021000D01*
X246335740Y-72021000D01*
X246269557Y-72014481D01*
X246203373Y-72007963D01*
X246090147Y-71973616D01*
X246033533Y-71956443D01*
X245877011Y-71872779D01*
X245877009Y-71872778D01*
X245809275Y-71817190D01*
X245739814Y-71760186D01*
X245652347Y-71653606D01*
X245627222Y-71622991D01*
X245582462Y-71539252D01*
X245543557Y-71466467D01*
X245526060Y-71408786D01*
X245492037Y-71296627D01*
X245474641Y-71120000D01*
X245492037Y-70943373D01*
X245543557Y-70773534D01*
X245543557Y-70773533D01*
X245627221Y-70617011D01*
X245627222Y-70617009D01*
X245656552Y-70581271D01*
X245739814Y-70479814D01*
X245841271Y-70396552D01*
X245877009Y-70367222D01*
X245894913Y-70357652D01*
X246033533Y-70283557D01*
X246090147Y-70266384D01*
X246203373Y-70232037D01*
X246269558Y-70225518D01*
X246335740Y-70219000D01*
X246424260Y-70219000D01*
X246490442Y-70225518D01*
X246490442Y-70225518D01*
G37*
G36*
X240103665Y-70372622D02*
X240177222Y-70379867D01*
X240318786Y-70422810D01*
X240449252Y-70492546D01*
X240563606Y-70586394D01*
X240657454Y-70700748D01*
X240727190Y-70831214D01*
X240770133Y-70972778D01*
X240784633Y-71120000D01*
X240770133Y-71267222D01*
X240727190Y-71408786D01*
X240657454Y-71539252D01*
X240563606Y-71653606D01*
X240449252Y-71747454D01*
X240318786Y-71817190D01*
X240177222Y-71860133D01*
X240103665Y-71867378D01*
X240066888Y-71871000D01*
X239993112Y-71871000D01*
X239956335Y-71867378D01*
X239882778Y-71860133D01*
X239741214Y-71817190D01*
X239610748Y-71747454D01*
X239496394Y-71653606D01*
X239402546Y-71539252D01*
X239332810Y-71408786D01*
X239289867Y-71267222D01*
X239275367Y-71120000D01*
X239289867Y-70972778D01*
X239332810Y-70831214D01*
X239402546Y-70700748D01*
X239496394Y-70586394D01*
X239610748Y-70492546D01*
X239741214Y-70422810D01*
X239882778Y-70379867D01*
X239956335Y-70372622D01*
X239993112Y-70369000D01*
X240066888Y-70369000D01*
X240103665Y-70372622D01*
X240103665Y-70372622D01*
G37*
G36*
X254110443Y-67685519D02*
X254176627Y-67692037D01*
X254289853Y-67726384D01*
X254346467Y-67743557D01*
X254485087Y-67817652D01*
X254502991Y-67827222D01*
X254538729Y-67856552D01*
X254640186Y-67939814D01*
X254723448Y-68041271D01*
X254752778Y-68077009D01*
X254752779Y-68077011D01*
X254836443Y-68233533D01*
X254836443Y-68233534D01*
X254887963Y-68403373D01*
X254905359Y-68580000D01*
X254887963Y-68756627D01*
X254853616Y-68869853D01*
X254836443Y-68926467D01*
X254762348Y-69065087D01*
X254752778Y-69082991D01*
X254723448Y-69118729D01*
X254640186Y-69220186D01*
X254538729Y-69303448D01*
X254502991Y-69332778D01*
X254502989Y-69332779D01*
X254346467Y-69416443D01*
X254289853Y-69433616D01*
X254176627Y-69467963D01*
X254110442Y-69474482D01*
X254044260Y-69481000D01*
X253955740Y-69481000D01*
X253889558Y-69474482D01*
X253823373Y-69467963D01*
X253710147Y-69433616D01*
X253653533Y-69416443D01*
X253497011Y-69332779D01*
X253497009Y-69332778D01*
X253461271Y-69303448D01*
X253359814Y-69220186D01*
X253276552Y-69118729D01*
X253247222Y-69082991D01*
X253237652Y-69065087D01*
X253163557Y-68926467D01*
X253146384Y-68869853D01*
X253112037Y-68756627D01*
X253094641Y-68580000D01*
X253112037Y-68403373D01*
X253163557Y-68233534D01*
X253163557Y-68233533D01*
X253247221Y-68077011D01*
X253247222Y-68077009D01*
X253276552Y-68041271D01*
X253359814Y-67939814D01*
X253461271Y-67856552D01*
X253497009Y-67827222D01*
X253514913Y-67817652D01*
X253653533Y-67743557D01*
X253710147Y-67726384D01*
X253823373Y-67692037D01*
X253889557Y-67685519D01*
X253955740Y-67679000D01*
X254044260Y-67679000D01*
X254110443Y-67685519D01*
X254110443Y-67685519D01*
G37*
G36*
X214740443Y-67685519D02*
X214806627Y-67692037D01*
X214919853Y-67726384D01*
X214976467Y-67743557D01*
X215115087Y-67817652D01*
X215132991Y-67827222D01*
X215168729Y-67856552D01*
X215270186Y-67939814D01*
X215353448Y-68041271D01*
X215382778Y-68077009D01*
X215382779Y-68077011D01*
X215466443Y-68233533D01*
X215466443Y-68233534D01*
X215517963Y-68403373D01*
X215535359Y-68580000D01*
X215517963Y-68756627D01*
X215483616Y-68869853D01*
X215466443Y-68926467D01*
X215392348Y-69065087D01*
X215382778Y-69082991D01*
X215353448Y-69118729D01*
X215270186Y-69220186D01*
X215168729Y-69303448D01*
X215132991Y-69332778D01*
X215132989Y-69332779D01*
X214976467Y-69416443D01*
X214919853Y-69433616D01*
X214806627Y-69467963D01*
X214740442Y-69474482D01*
X214674260Y-69481000D01*
X214585740Y-69481000D01*
X214519558Y-69474482D01*
X214453373Y-69467963D01*
X214340147Y-69433616D01*
X214283533Y-69416443D01*
X214127011Y-69332779D01*
X214127009Y-69332778D01*
X214091271Y-69303448D01*
X213989814Y-69220186D01*
X213906552Y-69118729D01*
X213877222Y-69082991D01*
X213867652Y-69065087D01*
X213793557Y-68926467D01*
X213776384Y-68869853D01*
X213742037Y-68756627D01*
X213724641Y-68580000D01*
X213742037Y-68403373D01*
X213793557Y-68233534D01*
X213793557Y-68233533D01*
X213877221Y-68077011D01*
X213877222Y-68077009D01*
X213906552Y-68041271D01*
X213989814Y-67939814D01*
X214091271Y-67856552D01*
X214127009Y-67827222D01*
X214144913Y-67817652D01*
X214283533Y-67743557D01*
X214340147Y-67726384D01*
X214453373Y-67692037D01*
X214519557Y-67685519D01*
X214585740Y-67679000D01*
X214674260Y-67679000D01*
X214740443Y-67685519D01*
X214740443Y-67685519D01*
G37*
G36*
X219820443Y-67685519D02*
X219886627Y-67692037D01*
X219999853Y-67726384D01*
X220056467Y-67743557D01*
X220195087Y-67817652D01*
X220212991Y-67827222D01*
X220248729Y-67856552D01*
X220350186Y-67939814D01*
X220433448Y-68041271D01*
X220462778Y-68077009D01*
X220462779Y-68077011D01*
X220546443Y-68233533D01*
X220546443Y-68233534D01*
X220597963Y-68403373D01*
X220615359Y-68580000D01*
X220597963Y-68756627D01*
X220563616Y-68869853D01*
X220546443Y-68926467D01*
X220472348Y-69065087D01*
X220462778Y-69082991D01*
X220433448Y-69118729D01*
X220350186Y-69220186D01*
X220248729Y-69303448D01*
X220212991Y-69332778D01*
X220212989Y-69332779D01*
X220056467Y-69416443D01*
X219999853Y-69433616D01*
X219886627Y-69467963D01*
X219820442Y-69474482D01*
X219754260Y-69481000D01*
X219665740Y-69481000D01*
X219599558Y-69474482D01*
X219533373Y-69467963D01*
X219420147Y-69433616D01*
X219363533Y-69416443D01*
X219207011Y-69332779D01*
X219207009Y-69332778D01*
X219171271Y-69303448D01*
X219069814Y-69220186D01*
X218986552Y-69118729D01*
X218957222Y-69082991D01*
X218947652Y-69065087D01*
X218873557Y-68926467D01*
X218856384Y-68869853D01*
X218822037Y-68756627D01*
X218804641Y-68580000D01*
X218822037Y-68403373D01*
X218873557Y-68233534D01*
X218873557Y-68233533D01*
X218957221Y-68077011D01*
X218957222Y-68077009D01*
X218986552Y-68041271D01*
X219069814Y-67939814D01*
X219171271Y-67856552D01*
X219207009Y-67827222D01*
X219224913Y-67817652D01*
X219363533Y-67743557D01*
X219420147Y-67726384D01*
X219533373Y-67692037D01*
X219599557Y-67685519D01*
X219665740Y-67679000D01*
X219754260Y-67679000D01*
X219820443Y-67685519D01*
X219820443Y-67685519D01*
G37*
G36*
X249030442Y-60065518D02*
X249096627Y-60072037D01*
X249209853Y-60106384D01*
X249266467Y-60123557D01*
X249405087Y-60197652D01*
X249422991Y-60207222D01*
X249458729Y-60236552D01*
X249560186Y-60319814D01*
X249643448Y-60421271D01*
X249672778Y-60457009D01*
X249672779Y-60457011D01*
X249756443Y-60613533D01*
X249756443Y-60613534D01*
X249807963Y-60783373D01*
X249825359Y-60960000D01*
X249807963Y-61136627D01*
X249773616Y-61249853D01*
X249756443Y-61306467D01*
X249682348Y-61445087D01*
X249672778Y-61462991D01*
X249643448Y-61498729D01*
X249560186Y-61600186D01*
X249458729Y-61683448D01*
X249422991Y-61712778D01*
X249422989Y-61712779D01*
X249266467Y-61796443D01*
X249209853Y-61813616D01*
X249096627Y-61847963D01*
X249030443Y-61854481D01*
X248964260Y-61861000D01*
X248875740Y-61861000D01*
X248809557Y-61854481D01*
X248743373Y-61847963D01*
X248630147Y-61813616D01*
X248573533Y-61796443D01*
X248417011Y-61712779D01*
X248417009Y-61712778D01*
X248381271Y-61683448D01*
X248279814Y-61600186D01*
X248196552Y-61498729D01*
X248167222Y-61462991D01*
X248157652Y-61445087D01*
X248083557Y-61306467D01*
X248066384Y-61249853D01*
X248032037Y-61136627D01*
X248014641Y-60960000D01*
X248032037Y-60783373D01*
X248083557Y-60613534D01*
X248083557Y-60613533D01*
X248167221Y-60457011D01*
X248167222Y-60457009D01*
X248196552Y-60421271D01*
X248279814Y-60319814D01*
X248381271Y-60236552D01*
X248417009Y-60207222D01*
X248434913Y-60197652D01*
X248573533Y-60123557D01*
X248630147Y-60106384D01*
X248743373Y-60072037D01*
X248809558Y-60065518D01*
X248875740Y-60059000D01*
X248964260Y-60059000D01*
X249030442Y-60065518D01*
X249030442Y-60065518D01*
G37*
G36*
X256650442Y-60065518D02*
X256716627Y-60072037D01*
X256829853Y-60106384D01*
X256886467Y-60123557D01*
X257025087Y-60197652D01*
X257042991Y-60207222D01*
X257078729Y-60236552D01*
X257180186Y-60319814D01*
X257263448Y-60421271D01*
X257292778Y-60457009D01*
X257292779Y-60457011D01*
X257376443Y-60613533D01*
X257376443Y-60613534D01*
X257427963Y-60783373D01*
X257445359Y-60960000D01*
X257427963Y-61136627D01*
X257393616Y-61249853D01*
X257376443Y-61306467D01*
X257302348Y-61445087D01*
X257292778Y-61462991D01*
X257263448Y-61498729D01*
X257180186Y-61600186D01*
X257078729Y-61683448D01*
X257042991Y-61712778D01*
X257042989Y-61712779D01*
X256886467Y-61796443D01*
X256829853Y-61813616D01*
X256716627Y-61847963D01*
X256650443Y-61854481D01*
X256584260Y-61861000D01*
X256495740Y-61861000D01*
X256429557Y-61854481D01*
X256363373Y-61847963D01*
X256250147Y-61813616D01*
X256193533Y-61796443D01*
X256037011Y-61712779D01*
X256037009Y-61712778D01*
X256001271Y-61683448D01*
X255899814Y-61600186D01*
X255816552Y-61498729D01*
X255787222Y-61462991D01*
X255777652Y-61445087D01*
X255703557Y-61306467D01*
X255686384Y-61249853D01*
X255652037Y-61136627D01*
X255634641Y-60960000D01*
X255652037Y-60783373D01*
X255703557Y-60613534D01*
X255703557Y-60613533D01*
X255787221Y-60457011D01*
X255787222Y-60457009D01*
X255816552Y-60421271D01*
X255899814Y-60319814D01*
X256001271Y-60236552D01*
X256037009Y-60207222D01*
X256054913Y-60197652D01*
X256193533Y-60123557D01*
X256250147Y-60106384D01*
X256363373Y-60072037D01*
X256429558Y-60065518D01*
X256495740Y-60059000D01*
X256584260Y-60059000D01*
X256650442Y-60065518D01*
X256650442Y-60065518D01*
G37*
G36*
X254110442Y-60065518D02*
X254176627Y-60072037D01*
X254289853Y-60106384D01*
X254346467Y-60123557D01*
X254485087Y-60197652D01*
X254502991Y-60207222D01*
X254538729Y-60236552D01*
X254640186Y-60319814D01*
X254723448Y-60421271D01*
X254752778Y-60457009D01*
X254752779Y-60457011D01*
X254836443Y-60613533D01*
X254836443Y-60613534D01*
X254887963Y-60783373D01*
X254905359Y-60960000D01*
X254887963Y-61136627D01*
X254853616Y-61249853D01*
X254836443Y-61306467D01*
X254762348Y-61445087D01*
X254752778Y-61462991D01*
X254723448Y-61498729D01*
X254640186Y-61600186D01*
X254538729Y-61683448D01*
X254502991Y-61712778D01*
X254502989Y-61712779D01*
X254346467Y-61796443D01*
X254289853Y-61813616D01*
X254176627Y-61847963D01*
X254110443Y-61854481D01*
X254044260Y-61861000D01*
X253955740Y-61861000D01*
X253889557Y-61854481D01*
X253823373Y-61847963D01*
X253710147Y-61813616D01*
X253653533Y-61796443D01*
X253497011Y-61712779D01*
X253497009Y-61712778D01*
X253461271Y-61683448D01*
X253359814Y-61600186D01*
X253276552Y-61498729D01*
X253247222Y-61462991D01*
X253237652Y-61445087D01*
X253163557Y-61306467D01*
X253146384Y-61249853D01*
X253112037Y-61136627D01*
X253094641Y-60960000D01*
X253112037Y-60783373D01*
X253163557Y-60613534D01*
X253163557Y-60613533D01*
X253247221Y-60457011D01*
X253247222Y-60457009D01*
X253276552Y-60421271D01*
X253359814Y-60319814D01*
X253461271Y-60236552D01*
X253497009Y-60207222D01*
X253514913Y-60197652D01*
X253653533Y-60123557D01*
X253710147Y-60106384D01*
X253823373Y-60072037D01*
X253889558Y-60065518D01*
X253955740Y-60059000D01*
X254044260Y-60059000D01*
X254110442Y-60065518D01*
X254110442Y-60065518D01*
G37*
G36*
X241410442Y-60065518D02*
X241476627Y-60072037D01*
X241589853Y-60106384D01*
X241646467Y-60123557D01*
X241785087Y-60197652D01*
X241802991Y-60207222D01*
X241838729Y-60236552D01*
X241940186Y-60319814D01*
X242023448Y-60421271D01*
X242052778Y-60457009D01*
X242052779Y-60457011D01*
X242136443Y-60613533D01*
X242136443Y-60613534D01*
X242187963Y-60783373D01*
X242205359Y-60960000D01*
X242187963Y-61136627D01*
X242153616Y-61249853D01*
X242136443Y-61306467D01*
X242062348Y-61445087D01*
X242052778Y-61462991D01*
X242023448Y-61498729D01*
X241940186Y-61600186D01*
X241838729Y-61683448D01*
X241802991Y-61712778D01*
X241802989Y-61712779D01*
X241646467Y-61796443D01*
X241589853Y-61813616D01*
X241476627Y-61847963D01*
X241410443Y-61854481D01*
X241344260Y-61861000D01*
X241255740Y-61861000D01*
X241189557Y-61854481D01*
X241123373Y-61847963D01*
X241010147Y-61813616D01*
X240953533Y-61796443D01*
X240797011Y-61712779D01*
X240797009Y-61712778D01*
X240761271Y-61683448D01*
X240659814Y-61600186D01*
X240576552Y-61498729D01*
X240547222Y-61462991D01*
X240537652Y-61445087D01*
X240463557Y-61306467D01*
X240446384Y-61249853D01*
X240412037Y-61136627D01*
X240394641Y-60960000D01*
X240412037Y-60783373D01*
X240463557Y-60613534D01*
X240463557Y-60613533D01*
X240547221Y-60457011D01*
X240547222Y-60457009D01*
X240576552Y-60421271D01*
X240659814Y-60319814D01*
X240761271Y-60236552D01*
X240797009Y-60207222D01*
X240814913Y-60197652D01*
X240953533Y-60123557D01*
X241010147Y-60106384D01*
X241123373Y-60072037D01*
X241189558Y-60065518D01*
X241255740Y-60059000D01*
X241344260Y-60059000D01*
X241410442Y-60065518D01*
X241410442Y-60065518D01*
G37*
G36*
X243950442Y-60065518D02*
X244016627Y-60072037D01*
X244129853Y-60106384D01*
X244186467Y-60123557D01*
X244325087Y-60197652D01*
X244342991Y-60207222D01*
X244378729Y-60236552D01*
X244480186Y-60319814D01*
X244563448Y-60421271D01*
X244592778Y-60457009D01*
X244592779Y-60457011D01*
X244676443Y-60613533D01*
X244676443Y-60613534D01*
X244727963Y-60783373D01*
X244745359Y-60960000D01*
X244727963Y-61136627D01*
X244693616Y-61249853D01*
X244676443Y-61306467D01*
X244602348Y-61445087D01*
X244592778Y-61462991D01*
X244563448Y-61498729D01*
X244480186Y-61600186D01*
X244378729Y-61683448D01*
X244342991Y-61712778D01*
X244342989Y-61712779D01*
X244186467Y-61796443D01*
X244129853Y-61813616D01*
X244016627Y-61847963D01*
X243950443Y-61854481D01*
X243884260Y-61861000D01*
X243795740Y-61861000D01*
X243729557Y-61854481D01*
X243663373Y-61847963D01*
X243550147Y-61813616D01*
X243493533Y-61796443D01*
X243337011Y-61712779D01*
X243337009Y-61712778D01*
X243301271Y-61683448D01*
X243199814Y-61600186D01*
X243116552Y-61498729D01*
X243087222Y-61462991D01*
X243077652Y-61445087D01*
X243003557Y-61306467D01*
X242986384Y-61249853D01*
X242952037Y-61136627D01*
X242934641Y-60960000D01*
X242952037Y-60783373D01*
X243003557Y-60613534D01*
X243003557Y-60613533D01*
X243087221Y-60457011D01*
X243087222Y-60457009D01*
X243116552Y-60421271D01*
X243199814Y-60319814D01*
X243301271Y-60236552D01*
X243337009Y-60207222D01*
X243354913Y-60197652D01*
X243493533Y-60123557D01*
X243550147Y-60106384D01*
X243663373Y-60072037D01*
X243729558Y-60065518D01*
X243795740Y-60059000D01*
X243884260Y-60059000D01*
X243950442Y-60065518D01*
X243950442Y-60065518D01*
G37*
G36*
X246490442Y-60065518D02*
X246556627Y-60072037D01*
X246669853Y-60106384D01*
X246726467Y-60123557D01*
X246865087Y-60197652D01*
X246882991Y-60207222D01*
X246918729Y-60236552D01*
X247020186Y-60319814D01*
X247103448Y-60421271D01*
X247132778Y-60457009D01*
X247132779Y-60457011D01*
X247216443Y-60613533D01*
X247216443Y-60613534D01*
X247267963Y-60783373D01*
X247285359Y-60960000D01*
X247267963Y-61136627D01*
X247233616Y-61249853D01*
X247216443Y-61306467D01*
X247142348Y-61445087D01*
X247132778Y-61462991D01*
X247103448Y-61498729D01*
X247020186Y-61600186D01*
X246918729Y-61683448D01*
X246882991Y-61712778D01*
X246882989Y-61712779D01*
X246726467Y-61796443D01*
X246669853Y-61813616D01*
X246556627Y-61847963D01*
X246490443Y-61854481D01*
X246424260Y-61861000D01*
X246335740Y-61861000D01*
X246269557Y-61854481D01*
X246203373Y-61847963D01*
X246090147Y-61813616D01*
X246033533Y-61796443D01*
X245877011Y-61712779D01*
X245877009Y-61712778D01*
X245841271Y-61683448D01*
X245739814Y-61600186D01*
X245656552Y-61498729D01*
X245627222Y-61462991D01*
X245617652Y-61445087D01*
X245543557Y-61306467D01*
X245526384Y-61249853D01*
X245492037Y-61136627D01*
X245474641Y-60960000D01*
X245492037Y-60783373D01*
X245543557Y-60613534D01*
X245543557Y-60613533D01*
X245627221Y-60457011D01*
X245627222Y-60457009D01*
X245656552Y-60421271D01*
X245739814Y-60319814D01*
X245841271Y-60236552D01*
X245877009Y-60207222D01*
X245894913Y-60197652D01*
X246033533Y-60123557D01*
X246090147Y-60106384D01*
X246203373Y-60072037D01*
X246269558Y-60065518D01*
X246335740Y-60059000D01*
X246424260Y-60059000D01*
X246490442Y-60065518D01*
X246490442Y-60065518D01*
G37*
G36*
X251570442Y-60065518D02*
X251636627Y-60072037D01*
X251749853Y-60106384D01*
X251806467Y-60123557D01*
X251945087Y-60197652D01*
X251962991Y-60207222D01*
X251998729Y-60236552D01*
X252100186Y-60319814D01*
X252183448Y-60421271D01*
X252212778Y-60457009D01*
X252212779Y-60457011D01*
X252296443Y-60613533D01*
X252296443Y-60613534D01*
X252347963Y-60783373D01*
X252365359Y-60960000D01*
X252347963Y-61136627D01*
X252313616Y-61249853D01*
X252296443Y-61306467D01*
X252222348Y-61445087D01*
X252212778Y-61462991D01*
X252183448Y-61498729D01*
X252100186Y-61600186D01*
X251998729Y-61683448D01*
X251962991Y-61712778D01*
X251962989Y-61712779D01*
X251806467Y-61796443D01*
X251749853Y-61813616D01*
X251636627Y-61847963D01*
X251570443Y-61854481D01*
X251504260Y-61861000D01*
X251415740Y-61861000D01*
X251349557Y-61854481D01*
X251283373Y-61847963D01*
X251170147Y-61813616D01*
X251113533Y-61796443D01*
X250957011Y-61712779D01*
X250957009Y-61712778D01*
X250921271Y-61683448D01*
X250819814Y-61600186D01*
X250736552Y-61498729D01*
X250707222Y-61462991D01*
X250697652Y-61445087D01*
X250623557Y-61306467D01*
X250606384Y-61249853D01*
X250572037Y-61136627D01*
X250554641Y-60960000D01*
X250572037Y-60783373D01*
X250623557Y-60613534D01*
X250623557Y-60613533D01*
X250707221Y-60457011D01*
X250707222Y-60457009D01*
X250736552Y-60421271D01*
X250819814Y-60319814D01*
X250921271Y-60236552D01*
X250957009Y-60207222D01*
X250974913Y-60197652D01*
X251113533Y-60123557D01*
X251170147Y-60106384D01*
X251283373Y-60072037D01*
X251349558Y-60065518D01*
X251415740Y-60059000D01*
X251504260Y-60059000D01*
X251570442Y-60065518D01*
X251570442Y-60065518D01*
G37*
G36*
X239661000Y-61861000D02*
X237859000Y-61861000D01*
X237859000Y-60059000D01*
X239661000Y-60059000D01*
X239661000Y-61861000D01*
X239661000Y-61861000D01*
G37*
M02*
