G04 #@! TF.GenerationSoftware,KiCad,Pcbnew,5.0.2-bee76a0~70~ubuntu18.04.1*
G04 #@! TF.CreationDate,2019-07-21T13:39:32-04:00*
G04 #@! TF.ProjectId,knuth-gateway,6b6e7574-682d-4676-9174-657761792e6b,rev?*
G04 #@! TF.SameCoordinates,Original*
G04 #@! TF.FileFunction,Legend,Top*
G04 #@! TF.FilePolarity,Positive*
%FSLAX46Y46*%
G04 Gerber Fmt 4.6, Leading zero omitted, Abs format (unit mm)*
G04 Created by KiCad (PCBNEW 5.0.2-bee76a0~70~ubuntu18.04.1) date Sun 21 Jul 2019 01:39:32 PM EDT*
%MOMM*%
%LPD*%
G01*
G04 APERTURE LIST*
%ADD10C,0.300000*%
%ADD11C,0.120000*%
%ADD12C,0.150000*%
G04 APERTURE END LIST*
D10*
X215305714Y-58098571D02*
X215305714Y-59598571D01*
X215305714Y-58170000D02*
X215448571Y-58098571D01*
X215734285Y-58098571D01*
X215877142Y-58170000D01*
X215948571Y-58241428D01*
X216020000Y-58384285D01*
X216020000Y-58812857D01*
X215948571Y-58955714D01*
X215877142Y-59027142D01*
X215734285Y-59098571D01*
X215448571Y-59098571D01*
X215305714Y-59027142D01*
X216520000Y-58098571D02*
X216877142Y-59098571D01*
X217234285Y-58098571D01*
X218020000Y-59098571D02*
X217877142Y-59027142D01*
X217805714Y-58955714D01*
X217734285Y-58812857D01*
X217734285Y-58384285D01*
X217805714Y-58241428D01*
X217877142Y-58170000D01*
X218020000Y-58098571D01*
X218234285Y-58098571D01*
X218377142Y-58170000D01*
X218448571Y-58241428D01*
X218520000Y-58384285D01*
X218520000Y-58812857D01*
X218448571Y-58955714D01*
X218377142Y-59027142D01*
X218234285Y-59098571D01*
X218020000Y-59098571D01*
X219091428Y-59027142D02*
X219234285Y-59098571D01*
X219520000Y-59098571D01*
X219662857Y-59027142D01*
X219734285Y-58884285D01*
X219734285Y-58812857D01*
X219662857Y-58670000D01*
X219520000Y-58598571D01*
X219305714Y-58598571D01*
X219162857Y-58527142D01*
X219091428Y-58384285D01*
X219091428Y-58312857D01*
X219162857Y-58170000D01*
X219305714Y-58098571D01*
X219520000Y-58098571D01*
X219662857Y-58170000D01*
X220377142Y-58955714D02*
X220448571Y-59027142D01*
X220377142Y-59098571D01*
X220305714Y-59027142D01*
X220377142Y-58955714D01*
X220377142Y-59098571D01*
X221305714Y-59098571D02*
X221162857Y-59027142D01*
X221091428Y-58955714D01*
X221020000Y-58812857D01*
X221020000Y-58384285D01*
X221091428Y-58241428D01*
X221162857Y-58170000D01*
X221305714Y-58098571D01*
X221520000Y-58098571D01*
X221662857Y-58170000D01*
X221734285Y-58241428D01*
X221805714Y-58384285D01*
X221805714Y-58812857D01*
X221734285Y-58955714D01*
X221662857Y-59027142D01*
X221520000Y-59098571D01*
X221305714Y-59098571D01*
X222448571Y-59098571D02*
X222448571Y-58098571D01*
X222448571Y-58384285D02*
X222520000Y-58241428D01*
X222591428Y-58170000D01*
X222734285Y-58098571D01*
X222877142Y-58098571D01*
X224020000Y-58098571D02*
X224020000Y-59312857D01*
X223948571Y-59455714D01*
X223877142Y-59527142D01*
X223734285Y-59598571D01*
X223520000Y-59598571D01*
X223377142Y-59527142D01*
X224020000Y-59027142D02*
X223877142Y-59098571D01*
X223591428Y-59098571D01*
X223448571Y-59027142D01*
X223377142Y-58955714D01*
X223305714Y-58812857D01*
X223305714Y-58384285D01*
X223377142Y-58241428D01*
X223448571Y-58170000D01*
X223591428Y-58098571D01*
X223877142Y-58098571D01*
X224020000Y-58170000D01*
X225805714Y-57527142D02*
X224520000Y-59455714D01*
X226305714Y-59098571D02*
X226305714Y-57598571D01*
X226448571Y-58527142D02*
X226877142Y-59098571D01*
X226877142Y-58098571D02*
X226305714Y-58670000D01*
X227520000Y-58098571D02*
X227520000Y-59098571D01*
X227520000Y-58241428D02*
X227591428Y-58170000D01*
X227734285Y-58098571D01*
X227948571Y-58098571D01*
X228091428Y-58170000D01*
X228162857Y-58312857D01*
X228162857Y-59098571D01*
X229520000Y-58098571D02*
X229520000Y-59098571D01*
X228877142Y-58098571D02*
X228877142Y-58884285D01*
X228948571Y-59027142D01*
X229091428Y-59098571D01*
X229305714Y-59098571D01*
X229448571Y-59027142D01*
X229520000Y-58955714D01*
X230020000Y-58098571D02*
X230591428Y-58098571D01*
X230234285Y-57598571D02*
X230234285Y-58884285D01*
X230305714Y-59027142D01*
X230448571Y-59098571D01*
X230591428Y-59098571D01*
X231091428Y-59098571D02*
X231091428Y-57598571D01*
X231734285Y-59098571D02*
X231734285Y-58312857D01*
X231662857Y-58170000D01*
X231520000Y-58098571D01*
X231305714Y-58098571D01*
X231162857Y-58170000D01*
X231091428Y-58241428D01*
X269918571Y-113484285D02*
X268418571Y-113484285D01*
X269918571Y-112627142D02*
X269061428Y-113270000D01*
X268418571Y-112627142D02*
X269275714Y-113484285D01*
X268918571Y-111984285D02*
X269918571Y-111984285D01*
X269061428Y-111984285D02*
X268990000Y-111912857D01*
X268918571Y-111770000D01*
X268918571Y-111555714D01*
X268990000Y-111412857D01*
X269132857Y-111341428D01*
X269918571Y-111341428D01*
X268918571Y-109984285D02*
X269918571Y-109984285D01*
X268918571Y-110627142D02*
X269704285Y-110627142D01*
X269847142Y-110555714D01*
X269918571Y-110412857D01*
X269918571Y-110198571D01*
X269847142Y-110055714D01*
X269775714Y-109984285D01*
X268918571Y-109484285D02*
X268918571Y-108912857D01*
X268418571Y-109270000D02*
X269704285Y-109270000D01*
X269847142Y-109198571D01*
X269918571Y-109055714D01*
X269918571Y-108912857D01*
X269918571Y-108412857D02*
X268418571Y-108412857D01*
X269918571Y-107770000D02*
X269132857Y-107770000D01*
X268990000Y-107841428D01*
X268918571Y-107984285D01*
X268918571Y-108198571D01*
X268990000Y-108341428D01*
X269061428Y-108412857D01*
X269918571Y-105055714D02*
X269204285Y-105555714D01*
X269918571Y-105912857D02*
X268418571Y-105912857D01*
X268418571Y-105341428D01*
X268490000Y-105198571D01*
X268561428Y-105127142D01*
X268704285Y-105055714D01*
X268918571Y-105055714D01*
X269061428Y-105127142D01*
X269132857Y-105198571D01*
X269204285Y-105341428D01*
X269204285Y-105912857D01*
X269918571Y-103770000D02*
X269132857Y-103770000D01*
X268990000Y-103841428D01*
X268918571Y-103984285D01*
X268918571Y-104270000D01*
X268990000Y-104412857D01*
X269847142Y-103770000D02*
X269918571Y-103912857D01*
X269918571Y-104270000D01*
X269847142Y-104412857D01*
X269704285Y-104484285D01*
X269561428Y-104484285D01*
X269418571Y-104412857D01*
X269347142Y-104270000D01*
X269347142Y-103912857D01*
X269275714Y-103770000D01*
X268918571Y-103055714D02*
X269918571Y-103055714D01*
X269061428Y-103055714D02*
X268990000Y-102984285D01*
X268918571Y-102841428D01*
X268918571Y-102627142D01*
X268990000Y-102484285D01*
X269132857Y-102412857D01*
X269918571Y-102412857D01*
X269847142Y-101055714D02*
X269918571Y-101198571D01*
X269918571Y-101484285D01*
X269847142Y-101627142D01*
X269775714Y-101698571D01*
X269632857Y-101770000D01*
X269204285Y-101770000D01*
X269061428Y-101698571D01*
X268990000Y-101627142D01*
X268918571Y-101484285D01*
X268918571Y-101198571D01*
X268990000Y-101055714D01*
X269918571Y-100412857D02*
X268418571Y-100412857D01*
X269918571Y-99770000D02*
X269132857Y-99770000D01*
X268990000Y-99841428D01*
X268918571Y-99984285D01*
X268918571Y-100198571D01*
X268990000Y-100341428D01*
X269061428Y-100412857D01*
X269775714Y-99055714D02*
X269847142Y-98984285D01*
X269918571Y-99055714D01*
X269847142Y-99127142D01*
X269775714Y-99055714D01*
X269918571Y-99055714D01*
X268990000Y-99055714D02*
X269061428Y-98984285D01*
X269132857Y-99055714D01*
X269061428Y-99127142D01*
X268990000Y-99055714D01*
X269132857Y-99055714D01*
X269775714Y-96341428D02*
X269847142Y-96412857D01*
X269918571Y-96627142D01*
X269918571Y-96770000D01*
X269847142Y-96984285D01*
X269704285Y-97127142D01*
X269561428Y-97198571D01*
X269275714Y-97270000D01*
X269061428Y-97270000D01*
X268775714Y-97198571D01*
X268632857Y-97127142D01*
X268490000Y-96984285D01*
X268418571Y-96770000D01*
X268418571Y-96627142D01*
X268490000Y-96412857D01*
X268561428Y-96341428D01*
X269847142Y-95127142D02*
X269918571Y-95270000D01*
X269918571Y-95555714D01*
X269847142Y-95698571D01*
X269704285Y-95770000D01*
X269132857Y-95770000D01*
X268990000Y-95698571D01*
X268918571Y-95555714D01*
X268918571Y-95270000D01*
X268990000Y-95127142D01*
X269132857Y-95055714D01*
X269275714Y-95055714D01*
X269418571Y-95770000D01*
X269918571Y-94198571D02*
X269847142Y-94341428D01*
X269704285Y-94412857D01*
X268418571Y-94412857D01*
X269918571Y-93412857D02*
X269847142Y-93555714D01*
X269704285Y-93627142D01*
X268418571Y-93627142D01*
X268918571Y-92198571D02*
X269918571Y-92198571D01*
X268918571Y-92841428D02*
X269704285Y-92841428D01*
X269847142Y-92770000D01*
X269918571Y-92627142D01*
X269918571Y-92412857D01*
X269847142Y-92270000D01*
X269775714Y-92198571D01*
X269918571Y-91270000D02*
X269847142Y-91412857D01*
X269704285Y-91484285D01*
X268418571Y-91484285D01*
X269918571Y-90055714D02*
X269132857Y-90055714D01*
X268990000Y-90127142D01*
X268918571Y-90270000D01*
X268918571Y-90555714D01*
X268990000Y-90698571D01*
X269847142Y-90055714D02*
X269918571Y-90198571D01*
X269918571Y-90555714D01*
X269847142Y-90698571D01*
X269704285Y-90770000D01*
X269561428Y-90770000D01*
X269418571Y-90698571D01*
X269347142Y-90555714D01*
X269347142Y-90198571D01*
X269275714Y-90055714D01*
X269918571Y-89341428D02*
X268918571Y-89341428D01*
X269204285Y-89341428D02*
X269061428Y-89270000D01*
X268990000Y-89198571D01*
X268918571Y-89055714D01*
X268918571Y-88912857D01*
X269490000Y-87341428D02*
X269490000Y-86627142D01*
X269918571Y-87484285D02*
X268418571Y-86984285D01*
X269918571Y-86484285D01*
X269918571Y-85341428D02*
X268418571Y-85341428D01*
X269847142Y-85341428D02*
X269918571Y-85484285D01*
X269918571Y-85770000D01*
X269847142Y-85912857D01*
X269775714Y-85984285D01*
X269632857Y-86055714D01*
X269204285Y-86055714D01*
X269061428Y-85984285D01*
X268990000Y-85912857D01*
X268918571Y-85770000D01*
X268918571Y-85484285D01*
X268990000Y-85341428D01*
X269918571Y-83984285D02*
X269132857Y-83984285D01*
X268990000Y-84055714D01*
X268918571Y-84198571D01*
X268918571Y-84484285D01*
X268990000Y-84627142D01*
X269847142Y-83984285D02*
X269918571Y-84127142D01*
X269918571Y-84484285D01*
X269847142Y-84627142D01*
X269704285Y-84698571D01*
X269561428Y-84698571D01*
X269418571Y-84627142D01*
X269347142Y-84484285D01*
X269347142Y-84127142D01*
X269275714Y-83984285D01*
X268918571Y-83270000D02*
X270418571Y-83270000D01*
X268990000Y-83270000D02*
X268918571Y-83127142D01*
X268918571Y-82841428D01*
X268990000Y-82698571D01*
X269061428Y-82627142D01*
X269204285Y-82555714D01*
X269632857Y-82555714D01*
X269775714Y-82627142D01*
X269847142Y-82698571D01*
X269918571Y-82841428D01*
X269918571Y-83127142D01*
X269847142Y-83270000D01*
X268918571Y-82127142D02*
X268918571Y-81555714D01*
X268418571Y-81912857D02*
X269704285Y-81912857D01*
X269847142Y-81841428D01*
X269918571Y-81698571D01*
X269918571Y-81555714D01*
X269847142Y-80484285D02*
X269918571Y-80627142D01*
X269918571Y-80912857D01*
X269847142Y-81055714D01*
X269704285Y-81127142D01*
X269132857Y-81127142D01*
X268990000Y-81055714D01*
X268918571Y-80912857D01*
X268918571Y-80627142D01*
X268990000Y-80484285D01*
X269132857Y-80412857D01*
X269275714Y-80412857D01*
X269418571Y-81127142D01*
X269918571Y-79770000D02*
X268918571Y-79770000D01*
X269204285Y-79770000D02*
X269061428Y-79698571D01*
X268990000Y-79627142D01*
X268918571Y-79484285D01*
X268918571Y-79341428D01*
D11*
G04 #@! TO.C,J_DC_6.5V+_IN1*
X252670000Y-78740000D02*
X255330000Y-78740000D01*
X252670000Y-78740000D02*
X252670000Y-81340000D01*
X252670000Y-81340000D02*
X255330000Y-81340000D01*
X255330000Y-78740000D02*
X255330000Y-81340000D01*
X255330000Y-76140000D02*
X255330000Y-77470000D01*
X254000000Y-76140000D02*
X255330000Y-76140000D01*
G04 #@! TO.C,J_DC_6V_IN1*
X254000000Y-72450000D02*
X252670000Y-72450000D01*
X252670000Y-72450000D02*
X252670000Y-71120000D01*
X252670000Y-69850000D02*
X252670000Y-67250000D01*
X255330000Y-67250000D02*
X252670000Y-67250000D01*
X255330000Y-69850000D02*
X255330000Y-67250000D01*
X255330000Y-69850000D02*
X252670000Y-69850000D01*
G04 #@! TO.C,R1*
X230670000Y-92430000D02*
X230670000Y-88590000D01*
X232510000Y-92430000D02*
X232510000Y-88590000D01*
G04 #@! TO.C,R2*
X239110000Y-75580000D02*
X239110000Y-71740000D01*
X240950000Y-75580000D02*
X240950000Y-71740000D01*
G04 #@! TO.C,R3*
X240620000Y-88000000D02*
X244460000Y-88000000D01*
X240620000Y-86160000D02*
X244460000Y-86160000D01*
G04 #@! TO.C,R_Delay1*
X247490000Y-92070000D02*
X250150000Y-92070000D01*
X247490000Y-92070000D02*
X247490000Y-94670000D01*
X247490000Y-94670000D02*
X250150000Y-94670000D01*
X250150000Y-92070000D02*
X250150000Y-94670000D01*
X250150000Y-89470000D02*
X250150000Y-90800000D01*
X248820000Y-89470000D02*
X250150000Y-89470000D01*
G04 #@! TO.C,U2*
X219710000Y-108010000D02*
X218380000Y-108010000D01*
X218380000Y-108010000D02*
X218380000Y-106680000D01*
X218380000Y-105410000D02*
X218380000Y-67250000D01*
X221040000Y-67250000D02*
X218380000Y-67250000D01*
X221040000Y-105410000D02*
X221040000Y-67250000D01*
X221040000Y-105410000D02*
X218380000Y-105410000D01*
G04 #@! TO.C,U3*
X229266529Y-72475865D02*
X231926529Y-72475865D01*
X229266529Y-72475865D02*
X229266529Y-77615865D01*
X229266529Y-77615865D02*
X231926529Y-77615865D01*
X231926529Y-72475865D02*
X231926529Y-77615865D01*
X231926529Y-69875865D02*
X231926529Y-71205865D01*
X230596529Y-69875865D02*
X231926529Y-69875865D01*
G04 #@! TO.C,U4*
X252670000Y-90170000D02*
X255330000Y-90170000D01*
X252670000Y-90170000D02*
X252670000Y-100390000D01*
X252670000Y-100390000D02*
X255330000Y-100390000D01*
X255330000Y-90170000D02*
X255330000Y-100390000D01*
X255330000Y-87570000D02*
X255330000Y-88900000D01*
X254000000Y-87570000D02*
X255330000Y-87570000D01*
G04 #@! TO.C,U5*
X247710000Y-77470000D02*
X245050000Y-77470000D01*
X247710000Y-77470000D02*
X247710000Y-69790000D01*
X247710000Y-69790000D02*
X245050000Y-69790000D01*
X245050000Y-77470000D02*
X245050000Y-69790000D01*
X245050000Y-80070000D02*
X245050000Y-78740000D01*
X246380000Y-80070000D02*
X245050000Y-80070000D01*
G04 #@! TO.C,J1*
X215960000Y-105410000D02*
X213300000Y-105410000D01*
X215960000Y-105410000D02*
X215960000Y-67250000D01*
X215960000Y-67250000D02*
X213300000Y-67250000D01*
X213300000Y-105410000D02*
X213300000Y-67250000D01*
X213300000Y-108010000D02*
X213300000Y-106680000D01*
X214630000Y-108010000D02*
X213300000Y-108010000D01*
G04 #@! TO.C,Q2*
X239180000Y-96071000D02*
X237670000Y-96071000D01*
X239180000Y-92370000D02*
X237670000Y-92370000D01*
X237670000Y-89100000D02*
X237670000Y-99340000D01*
X239180000Y-99340000D02*
X234539000Y-99340000D01*
X239180000Y-89100000D02*
X234539000Y-89100000D01*
X234539000Y-89100000D02*
X234539000Y-99340000D01*
X239180000Y-89100000D02*
X239180000Y-99340000D01*
G04 #@! TO.C,U6*
X240030000Y-62290000D02*
X240030000Y-59630000D01*
X240030000Y-62290000D02*
X257870000Y-62290000D01*
X257870000Y-62290000D02*
X257870000Y-59630000D01*
X240030000Y-59630000D02*
X257870000Y-59630000D01*
X237430000Y-59630000D02*
X238760000Y-59630000D01*
X237430000Y-60960000D02*
X237430000Y-59630000D01*
G04 #@! TO.C,U1*
X256540000Y-106620000D02*
X256540000Y-109280000D01*
X256540000Y-106620000D02*
X228540000Y-106620000D01*
X228540000Y-106620000D02*
X228540000Y-109280000D01*
X256540000Y-109280000D02*
X228540000Y-109280000D01*
X259140000Y-109280000D02*
X257810000Y-109280000D01*
X259140000Y-107950000D02*
X259140000Y-109280000D01*
G04 #@! TO.C,Q1*
X234012000Y-82896000D02*
X234012000Y-86746000D01*
X234589955Y-82513369D02*
G75*
G03X234012000Y-82896000I1122045J-2322631D01*
G01*
X236806786Y-82488225D02*
G75*
G02X238062000Y-83746000I-1094786J-2347775D01*
G01*
X236801513Y-87172463D02*
G75*
G03X238062000Y-85896000I-1089513J2336463D01*
G01*
X234599736Y-87138383D02*
G75*
G02X234012000Y-86746000I1112264J2302383D01*
G01*
G04 #@! TO.C,J_DC_6.5V+_IN1*
D12*
X256778809Y-78192380D02*
X256778809Y-78906666D01*
X256731190Y-79049523D01*
X256635952Y-79144761D01*
X256493095Y-79192380D01*
X256397857Y-79192380D01*
X257016904Y-79287619D02*
X257778809Y-79287619D01*
X258016904Y-79192380D02*
X258016904Y-78192380D01*
X258255000Y-78192380D01*
X258397857Y-78240000D01*
X258493095Y-78335238D01*
X258540714Y-78430476D01*
X258588333Y-78620952D01*
X258588333Y-78763809D01*
X258540714Y-78954285D01*
X258493095Y-79049523D01*
X258397857Y-79144761D01*
X258255000Y-79192380D01*
X258016904Y-79192380D01*
X259588333Y-79097142D02*
X259540714Y-79144761D01*
X259397857Y-79192380D01*
X259302619Y-79192380D01*
X259159761Y-79144761D01*
X259064523Y-79049523D01*
X259016904Y-78954285D01*
X258969285Y-78763809D01*
X258969285Y-78620952D01*
X259016904Y-78430476D01*
X259064523Y-78335238D01*
X259159761Y-78240000D01*
X259302619Y-78192380D01*
X259397857Y-78192380D01*
X259540714Y-78240000D01*
X259588333Y-78287619D01*
X259778809Y-79287619D02*
X260540714Y-79287619D01*
X261207380Y-78192380D02*
X261016904Y-78192380D01*
X260921666Y-78240000D01*
X260874047Y-78287619D01*
X260778809Y-78430476D01*
X260731190Y-78620952D01*
X260731190Y-79001904D01*
X260778809Y-79097142D01*
X260826428Y-79144761D01*
X260921666Y-79192380D01*
X261112142Y-79192380D01*
X261207380Y-79144761D01*
X261255000Y-79097142D01*
X261302619Y-79001904D01*
X261302619Y-78763809D01*
X261255000Y-78668571D01*
X261207380Y-78620952D01*
X261112142Y-78573333D01*
X260921666Y-78573333D01*
X260826428Y-78620952D01*
X260778809Y-78668571D01*
X260731190Y-78763809D01*
X261731190Y-79097142D02*
X261778809Y-79144761D01*
X261731190Y-79192380D01*
X261683571Y-79144761D01*
X261731190Y-79097142D01*
X261731190Y-79192380D01*
X262683571Y-78192380D02*
X262207380Y-78192380D01*
X262159761Y-78668571D01*
X262207380Y-78620952D01*
X262302619Y-78573333D01*
X262540714Y-78573333D01*
X262635952Y-78620952D01*
X262683571Y-78668571D01*
X262731190Y-78763809D01*
X262731190Y-79001904D01*
X262683571Y-79097142D01*
X262635952Y-79144761D01*
X262540714Y-79192380D01*
X262302619Y-79192380D01*
X262207380Y-79144761D01*
X262159761Y-79097142D01*
X263016904Y-78192380D02*
X263350238Y-79192380D01*
X263683571Y-78192380D01*
X264016904Y-78811428D02*
X264778809Y-78811428D01*
X264397857Y-79192380D02*
X264397857Y-78430476D01*
X265016904Y-79287619D02*
X265778809Y-79287619D01*
X266016904Y-79192380D02*
X266016904Y-78192380D01*
X266493095Y-79192380D02*
X266493095Y-78192380D01*
X267064523Y-79192380D01*
X267064523Y-78192380D01*
X268064523Y-79192380D02*
X267493095Y-79192380D01*
X267778809Y-79192380D02*
X267778809Y-78192380D01*
X267683571Y-78335238D01*
X267588333Y-78430476D01*
X267493095Y-78478095D01*
G04 #@! TO.C,J_DC_6V_IN1*
X256842142Y-69302380D02*
X256842142Y-70016666D01*
X256794523Y-70159523D01*
X256699285Y-70254761D01*
X256556428Y-70302380D01*
X256461190Y-70302380D01*
X257080238Y-70397619D02*
X257842142Y-70397619D01*
X258080238Y-70302380D02*
X258080238Y-69302380D01*
X258318333Y-69302380D01*
X258461190Y-69350000D01*
X258556428Y-69445238D01*
X258604047Y-69540476D01*
X258651666Y-69730952D01*
X258651666Y-69873809D01*
X258604047Y-70064285D01*
X258556428Y-70159523D01*
X258461190Y-70254761D01*
X258318333Y-70302380D01*
X258080238Y-70302380D01*
X259651666Y-70207142D02*
X259604047Y-70254761D01*
X259461190Y-70302380D01*
X259365952Y-70302380D01*
X259223095Y-70254761D01*
X259127857Y-70159523D01*
X259080238Y-70064285D01*
X259032619Y-69873809D01*
X259032619Y-69730952D01*
X259080238Y-69540476D01*
X259127857Y-69445238D01*
X259223095Y-69350000D01*
X259365952Y-69302380D01*
X259461190Y-69302380D01*
X259604047Y-69350000D01*
X259651666Y-69397619D01*
X259842142Y-70397619D02*
X260604047Y-70397619D01*
X261270714Y-69302380D02*
X261080238Y-69302380D01*
X260985000Y-69350000D01*
X260937380Y-69397619D01*
X260842142Y-69540476D01*
X260794523Y-69730952D01*
X260794523Y-70111904D01*
X260842142Y-70207142D01*
X260889761Y-70254761D01*
X260985000Y-70302380D01*
X261175476Y-70302380D01*
X261270714Y-70254761D01*
X261318333Y-70207142D01*
X261365952Y-70111904D01*
X261365952Y-69873809D01*
X261318333Y-69778571D01*
X261270714Y-69730952D01*
X261175476Y-69683333D01*
X260985000Y-69683333D01*
X260889761Y-69730952D01*
X260842142Y-69778571D01*
X260794523Y-69873809D01*
X261651666Y-69302380D02*
X261985000Y-70302380D01*
X262318333Y-69302380D01*
X262413571Y-70397619D02*
X263175476Y-70397619D01*
X263413571Y-70302380D02*
X263413571Y-69302380D01*
X263889761Y-70302380D02*
X263889761Y-69302380D01*
X264461190Y-70302380D01*
X264461190Y-69302380D01*
X265461190Y-70302380D02*
X264889761Y-70302380D01*
X265175476Y-70302380D02*
X265175476Y-69302380D01*
X265080238Y-69445238D01*
X264985000Y-69540476D01*
X264889761Y-69588095D01*
G04 #@! TO.C,R1*
X233947380Y-90676666D02*
X233471190Y-91010000D01*
X233947380Y-91248095D02*
X232947380Y-91248095D01*
X232947380Y-90867142D01*
X232995000Y-90771904D01*
X233042619Y-90724285D01*
X233137857Y-90676666D01*
X233280714Y-90676666D01*
X233375952Y-90724285D01*
X233423571Y-90771904D01*
X233471190Y-90867142D01*
X233471190Y-91248095D01*
X233947380Y-89724285D02*
X233947380Y-90295714D01*
X233947380Y-90010000D02*
X232947380Y-90010000D01*
X233090238Y-90105238D01*
X233185476Y-90200476D01*
X233233095Y-90295714D01*
G04 #@! TO.C,R2*
X238562380Y-73826666D02*
X238086190Y-74160000D01*
X238562380Y-74398095D02*
X237562380Y-74398095D01*
X237562380Y-74017142D01*
X237610000Y-73921904D01*
X237657619Y-73874285D01*
X237752857Y-73826666D01*
X237895714Y-73826666D01*
X237990952Y-73874285D01*
X238038571Y-73921904D01*
X238086190Y-74017142D01*
X238086190Y-74398095D01*
X237657619Y-73445714D02*
X237610000Y-73398095D01*
X237562380Y-73302857D01*
X237562380Y-73064761D01*
X237610000Y-72969523D01*
X237657619Y-72921904D01*
X237752857Y-72874285D01*
X237848095Y-72874285D01*
X237990952Y-72921904D01*
X238562380Y-73493333D01*
X238562380Y-72874285D01*
G04 #@! TO.C,R3*
X242373333Y-85612380D02*
X242040000Y-85136190D01*
X241801904Y-85612380D02*
X241801904Y-84612380D01*
X242182857Y-84612380D01*
X242278095Y-84660000D01*
X242325714Y-84707619D01*
X242373333Y-84802857D01*
X242373333Y-84945714D01*
X242325714Y-85040952D01*
X242278095Y-85088571D01*
X242182857Y-85136190D01*
X241801904Y-85136190D01*
X242706666Y-84612380D02*
X243325714Y-84612380D01*
X242992380Y-84993333D01*
X243135238Y-84993333D01*
X243230476Y-85040952D01*
X243278095Y-85088571D01*
X243325714Y-85183809D01*
X243325714Y-85421904D01*
X243278095Y-85517142D01*
X243230476Y-85564761D01*
X243135238Y-85612380D01*
X242849523Y-85612380D01*
X242754285Y-85564761D01*
X242706666Y-85517142D01*
G04 #@! TO.C,R_Delay1*
X246097380Y-96546428D02*
X245621190Y-96879761D01*
X246097380Y-97117857D02*
X245097380Y-97117857D01*
X245097380Y-96736904D01*
X245145000Y-96641666D01*
X245192619Y-96594047D01*
X245287857Y-96546428D01*
X245430714Y-96546428D01*
X245525952Y-96594047D01*
X245573571Y-96641666D01*
X245621190Y-96736904D01*
X245621190Y-97117857D01*
X246192619Y-96355952D02*
X246192619Y-95594047D01*
X246097380Y-95355952D02*
X245097380Y-95355952D01*
X245097380Y-95117857D01*
X245145000Y-94975000D01*
X245240238Y-94879761D01*
X245335476Y-94832142D01*
X245525952Y-94784523D01*
X245668809Y-94784523D01*
X245859285Y-94832142D01*
X245954523Y-94879761D01*
X246049761Y-94975000D01*
X246097380Y-95117857D01*
X246097380Y-95355952D01*
X246049761Y-93975000D02*
X246097380Y-94070238D01*
X246097380Y-94260714D01*
X246049761Y-94355952D01*
X245954523Y-94403571D01*
X245573571Y-94403571D01*
X245478333Y-94355952D01*
X245430714Y-94260714D01*
X245430714Y-94070238D01*
X245478333Y-93975000D01*
X245573571Y-93927380D01*
X245668809Y-93927380D01*
X245764047Y-94403571D01*
X246097380Y-93355952D02*
X246049761Y-93451190D01*
X245954523Y-93498809D01*
X245097380Y-93498809D01*
X246097380Y-92546428D02*
X245573571Y-92546428D01*
X245478333Y-92594047D01*
X245430714Y-92689285D01*
X245430714Y-92879761D01*
X245478333Y-92975000D01*
X246049761Y-92546428D02*
X246097380Y-92641666D01*
X246097380Y-92879761D01*
X246049761Y-92975000D01*
X245954523Y-93022619D01*
X245859285Y-93022619D01*
X245764047Y-92975000D01*
X245716428Y-92879761D01*
X245716428Y-92641666D01*
X245668809Y-92546428D01*
X245430714Y-92165476D02*
X246097380Y-91927380D01*
X245430714Y-91689285D02*
X246097380Y-91927380D01*
X246335476Y-92022619D01*
X246383095Y-92070238D01*
X246430714Y-92165476D01*
X246097380Y-90784523D02*
X246097380Y-91355952D01*
X246097380Y-91070238D02*
X245097380Y-91070238D01*
X245240238Y-91165476D01*
X245335476Y-91260714D01*
X245383095Y-91355952D01*
G04 #@! TO.C,U2*
X218948095Y-108902380D02*
X218948095Y-109711904D01*
X218995714Y-109807142D01*
X219043333Y-109854761D01*
X219138571Y-109902380D01*
X219329047Y-109902380D01*
X219424285Y-109854761D01*
X219471904Y-109807142D01*
X219519523Y-109711904D01*
X219519523Y-108902380D01*
X219948095Y-108997619D02*
X219995714Y-108950000D01*
X220090952Y-108902380D01*
X220329047Y-108902380D01*
X220424285Y-108950000D01*
X220471904Y-108997619D01*
X220519523Y-109092857D01*
X220519523Y-109188095D01*
X220471904Y-109330952D01*
X219900476Y-109902380D01*
X220519523Y-109902380D01*
G04 #@! TO.C,U3*
X229834624Y-67888245D02*
X229834624Y-68697769D01*
X229882243Y-68793007D01*
X229929862Y-68840626D01*
X230025100Y-68888245D01*
X230215576Y-68888245D01*
X230310814Y-68840626D01*
X230358433Y-68793007D01*
X230406052Y-68697769D01*
X230406052Y-67888245D01*
X230787005Y-67888245D02*
X231406052Y-67888245D01*
X231072719Y-68269198D01*
X231215576Y-68269198D01*
X231310814Y-68316817D01*
X231358433Y-68364436D01*
X231406052Y-68459674D01*
X231406052Y-68697769D01*
X231358433Y-68793007D01*
X231310814Y-68840626D01*
X231215576Y-68888245D01*
X230929862Y-68888245D01*
X230834624Y-68840626D01*
X230787005Y-68793007D01*
G04 #@! TO.C,U4*
X253238095Y-85582380D02*
X253238095Y-86391904D01*
X253285714Y-86487142D01*
X253333333Y-86534761D01*
X253428571Y-86582380D01*
X253619047Y-86582380D01*
X253714285Y-86534761D01*
X253761904Y-86487142D01*
X253809523Y-86391904D01*
X253809523Y-85582380D01*
X254714285Y-85915714D02*
X254714285Y-86582380D01*
X254476190Y-85534761D02*
X254238095Y-86249047D01*
X254857142Y-86249047D01*
G04 #@! TO.C,U5*
X245618095Y-80962380D02*
X245618095Y-81771904D01*
X245665714Y-81867142D01*
X245713333Y-81914761D01*
X245808571Y-81962380D01*
X245999047Y-81962380D01*
X246094285Y-81914761D01*
X246141904Y-81867142D01*
X246189523Y-81771904D01*
X246189523Y-80962380D01*
X247141904Y-80962380D02*
X246665714Y-80962380D01*
X246618095Y-81438571D01*
X246665714Y-81390952D01*
X246760952Y-81343333D01*
X246999047Y-81343333D01*
X247094285Y-81390952D01*
X247141904Y-81438571D01*
X247189523Y-81533809D01*
X247189523Y-81771904D01*
X247141904Y-81867142D01*
X247094285Y-81914761D01*
X246999047Y-81962380D01*
X246760952Y-81962380D01*
X246665714Y-81914761D01*
X246618095Y-81867142D01*
G04 #@! TO.C,J1*
X214296666Y-108902380D02*
X214296666Y-109616666D01*
X214249047Y-109759523D01*
X214153809Y-109854761D01*
X214010952Y-109902380D01*
X213915714Y-109902380D01*
X215296666Y-109902380D02*
X214725238Y-109902380D01*
X215010952Y-109902380D02*
X215010952Y-108902380D01*
X214915714Y-109045238D01*
X214820476Y-109140476D01*
X214725238Y-109188095D01*
G04 #@! TO.C,Q2*
X240727619Y-94315238D02*
X240680000Y-94410476D01*
X240584761Y-94505714D01*
X240441904Y-94648571D01*
X240394285Y-94743809D01*
X240394285Y-94839047D01*
X240632380Y-94791428D02*
X240584761Y-94886666D01*
X240489523Y-94981904D01*
X240299047Y-95029523D01*
X239965714Y-95029523D01*
X239775238Y-94981904D01*
X239680000Y-94886666D01*
X239632380Y-94791428D01*
X239632380Y-94600952D01*
X239680000Y-94505714D01*
X239775238Y-94410476D01*
X239965714Y-94362857D01*
X240299047Y-94362857D01*
X240489523Y-94410476D01*
X240584761Y-94505714D01*
X240632380Y-94600952D01*
X240632380Y-94791428D01*
X239727619Y-93981904D02*
X239680000Y-93934285D01*
X239632380Y-93839047D01*
X239632380Y-93600952D01*
X239680000Y-93505714D01*
X239727619Y-93458095D01*
X239822857Y-93410476D01*
X239918095Y-93410476D01*
X240060952Y-93458095D01*
X240632380Y-94029523D01*
X240632380Y-93410476D01*
G04 #@! TO.C,U6*
X235442380Y-61721904D02*
X236251904Y-61721904D01*
X236347142Y-61674285D01*
X236394761Y-61626666D01*
X236442380Y-61531428D01*
X236442380Y-61340952D01*
X236394761Y-61245714D01*
X236347142Y-61198095D01*
X236251904Y-61150476D01*
X235442380Y-61150476D01*
X235442380Y-60245714D02*
X235442380Y-60436190D01*
X235490000Y-60531428D01*
X235537619Y-60579047D01*
X235680476Y-60674285D01*
X235870952Y-60721904D01*
X236251904Y-60721904D01*
X236347142Y-60674285D01*
X236394761Y-60626666D01*
X236442380Y-60531428D01*
X236442380Y-60340952D01*
X236394761Y-60245714D01*
X236347142Y-60198095D01*
X236251904Y-60150476D01*
X236013809Y-60150476D01*
X235918571Y-60198095D01*
X235870952Y-60245714D01*
X235823333Y-60340952D01*
X235823333Y-60531428D01*
X235870952Y-60626666D01*
X235918571Y-60674285D01*
X236013809Y-60721904D01*
G04 #@! TO.C,U1*
X260032380Y-108711904D02*
X260841904Y-108711904D01*
X260937142Y-108664285D01*
X260984761Y-108616666D01*
X261032380Y-108521428D01*
X261032380Y-108330952D01*
X260984761Y-108235714D01*
X260937142Y-108188095D01*
X260841904Y-108140476D01*
X260032380Y-108140476D01*
X261032380Y-107140476D02*
X261032380Y-107711904D01*
X261032380Y-107426190D02*
X260032380Y-107426190D01*
X260175238Y-107521428D01*
X260270476Y-107616666D01*
X260318095Y-107711904D01*
G04 #@! TO.C,Q1*
X240409619Y-84941238D02*
X240362000Y-85036476D01*
X240266761Y-85131714D01*
X240123904Y-85274571D01*
X240076285Y-85369809D01*
X240076285Y-85465047D01*
X240314380Y-85417428D02*
X240266761Y-85512666D01*
X240171523Y-85607904D01*
X239981047Y-85655523D01*
X239647714Y-85655523D01*
X239457238Y-85607904D01*
X239362000Y-85512666D01*
X239314380Y-85417428D01*
X239314380Y-85226952D01*
X239362000Y-85131714D01*
X239457238Y-85036476D01*
X239647714Y-84988857D01*
X239981047Y-84988857D01*
X240171523Y-85036476D01*
X240266761Y-85131714D01*
X240314380Y-85226952D01*
X240314380Y-85417428D01*
X240314380Y-84036476D02*
X240314380Y-84607904D01*
X240314380Y-84322190D02*
X239314380Y-84322190D01*
X239457238Y-84417428D01*
X239552476Y-84512666D01*
X239600095Y-84607904D01*
G04 #@! TD*
M02*
