G04 #@! TF.GenerationSoftware,KiCad,Pcbnew,5.0.2-bee76a0~70~ubuntu18.04.1*
G04 #@! TF.CreationDate,2019-07-28T20:14:29-04:00*
G04 #@! TF.ProjectId,knuth-gateway,6b6e7574-682d-4676-9174-657761792e6b,rev?*
G04 #@! TF.SameCoordinates,Original*
G04 #@! TF.FileFunction,Legend,Top*
G04 #@! TF.FilePolarity,Positive*
%FSLAX46Y46*%
G04 Gerber Fmt 4.6, Leading zero omitted, Abs format (unit mm)*
G04 Created by KiCad (PCBNEW 5.0.2-bee76a0~70~ubuntu18.04.1) date Sun 28 Jul 2019 08:14:29 PM EDT*
%MOMM*%
%LPD*%
G01*
G04 APERTURE LIST*
%ADD10C,0.300000*%
%ADD11C,0.120000*%
%ADD12C,0.150000*%
G04 APERTURE END LIST*
D10*
X132485142Y-113962571D02*
X132485142Y-112462571D01*
X132842285Y-112462571D01*
X133056571Y-112534000D01*
X133199428Y-112676857D01*
X133270857Y-112819714D01*
X133342285Y-113105428D01*
X133342285Y-113319714D01*
X133270857Y-113605428D01*
X133199428Y-113748285D01*
X133056571Y-113891142D01*
X132842285Y-113962571D01*
X132485142Y-113962571D01*
X134270857Y-112462571D02*
X134556571Y-112462571D01*
X134699428Y-112534000D01*
X134842285Y-112676857D01*
X134913714Y-112962571D01*
X134913714Y-113462571D01*
X134842285Y-113748285D01*
X134699428Y-113891142D01*
X134556571Y-113962571D01*
X134270857Y-113962571D01*
X134128000Y-113891142D01*
X133985142Y-113748285D01*
X133913714Y-113462571D01*
X133913714Y-112962571D01*
X133985142Y-112676857D01*
X134128000Y-112534000D01*
X134270857Y-112462571D01*
X135556571Y-113962571D02*
X135556571Y-112462571D01*
X136413714Y-113962571D01*
X136413714Y-112462571D01*
X137128000Y-113176857D02*
X137628000Y-113176857D01*
X137842285Y-113962571D02*
X137128000Y-113962571D01*
X137128000Y-112462571D01*
X137842285Y-112462571D01*
X144569571Y-141688000D02*
X144569571Y-142545142D01*
X144569571Y-142116571D02*
X143069571Y-142116571D01*
X143283857Y-142259428D01*
X143426714Y-142402285D01*
X143498142Y-142545142D01*
X143998142Y-141045142D02*
X143998142Y-139902285D01*
X143569571Y-139330857D02*
X144569571Y-139045142D01*
X143855285Y-138759428D01*
X144569571Y-138473714D01*
X143569571Y-138188000D01*
X144569571Y-137616571D02*
X143569571Y-137616571D01*
X143069571Y-137616571D02*
X143141000Y-137688000D01*
X143212428Y-137616571D01*
X143141000Y-137545142D01*
X143069571Y-137616571D01*
X143212428Y-137616571D01*
X144569571Y-136902285D02*
X143569571Y-136902285D01*
X143855285Y-136902285D02*
X143712428Y-136830857D01*
X143641000Y-136759428D01*
X143569571Y-136616571D01*
X143569571Y-136473714D01*
X144498142Y-135402285D02*
X144569571Y-135545142D01*
X144569571Y-135830857D01*
X144498142Y-135973714D01*
X144355285Y-136045142D01*
X143783857Y-136045142D01*
X143641000Y-135973714D01*
X143569571Y-135830857D01*
X143569571Y-135545142D01*
X143641000Y-135402285D01*
X143783857Y-135330857D01*
X143926714Y-135330857D01*
X144069571Y-136045142D01*
X144291857Y-128825285D02*
X144291857Y-128325285D01*
X145077571Y-128111000D02*
X145077571Y-128825285D01*
X143577571Y-128825285D01*
X143577571Y-128111000D01*
X144934714Y-126611000D02*
X145006142Y-126682428D01*
X145077571Y-126896714D01*
X145077571Y-127039571D01*
X145006142Y-127253857D01*
X144863285Y-127396714D01*
X144720428Y-127468142D01*
X144434714Y-127539571D01*
X144220428Y-127539571D01*
X143934714Y-127468142D01*
X143791857Y-127396714D01*
X143649000Y-127253857D01*
X143577571Y-127039571D01*
X143577571Y-126896714D01*
X143649000Y-126682428D01*
X143720428Y-126611000D01*
X144506142Y-125968142D02*
X144506142Y-124825285D01*
X143577571Y-123396714D02*
X143577571Y-124111000D01*
X144291857Y-124182428D01*
X144220428Y-124111000D01*
X144149000Y-123968142D01*
X144149000Y-123611000D01*
X144220428Y-123468142D01*
X144291857Y-123396714D01*
X144434714Y-123325285D01*
X144791857Y-123325285D01*
X144934714Y-123396714D01*
X145006142Y-123468142D01*
X145077571Y-123611000D01*
X145077571Y-123968142D01*
X145006142Y-124111000D01*
X144934714Y-124182428D01*
X86276571Y-149443142D02*
X84776571Y-149443142D01*
X84776571Y-148871714D01*
X84848000Y-148728857D01*
X84919428Y-148657428D01*
X85062285Y-148586000D01*
X85276571Y-148586000D01*
X85419428Y-148657428D01*
X85490857Y-148728857D01*
X85562285Y-148871714D01*
X85562285Y-149443142D01*
X86205142Y-148014571D02*
X86276571Y-147800285D01*
X86276571Y-147443142D01*
X86205142Y-147300285D01*
X86133714Y-147228857D01*
X85990857Y-147157428D01*
X85848000Y-147157428D01*
X85705142Y-147228857D01*
X85633714Y-147300285D01*
X85562285Y-147443142D01*
X85490857Y-147728857D01*
X85419428Y-147871714D01*
X85348000Y-147943142D01*
X85205142Y-148014571D01*
X85062285Y-148014571D01*
X84919428Y-147943142D01*
X84848000Y-147871714D01*
X84776571Y-147728857D01*
X84776571Y-147371714D01*
X84848000Y-147157428D01*
X102556571Y-162178857D02*
X102556571Y-161321714D01*
X104056571Y-161750285D02*
X102556571Y-161750285D01*
X102556571Y-160964571D02*
X104056571Y-159964571D01*
X102556571Y-159964571D02*
X104056571Y-160964571D01*
X83482571Y-150665428D02*
X81982571Y-150665428D01*
X81982571Y-150308285D01*
X82054000Y-150094000D01*
X82196857Y-149951142D01*
X82339714Y-149879714D01*
X82625428Y-149808285D01*
X82839714Y-149808285D01*
X83125428Y-149879714D01*
X83268285Y-149951142D01*
X83411142Y-150094000D01*
X83482571Y-150308285D01*
X83482571Y-150665428D01*
X83482571Y-148379714D02*
X83482571Y-149236857D01*
X83482571Y-148808285D02*
X81982571Y-148808285D01*
X82196857Y-148951142D01*
X82339714Y-149094000D01*
X82411142Y-149236857D01*
X83482571Y-146951142D02*
X83482571Y-147808285D01*
X83482571Y-147379714D02*
X81982571Y-147379714D01*
X82196857Y-147522571D01*
X82339714Y-147665428D01*
X82411142Y-147808285D01*
X101770571Y-161286000D02*
X101056285Y-161786000D01*
X101770571Y-162143142D02*
X100270571Y-162143142D01*
X100270571Y-161571714D01*
X100342000Y-161428857D01*
X100413428Y-161357428D01*
X100556285Y-161286000D01*
X100770571Y-161286000D01*
X100913428Y-161357428D01*
X100984857Y-161428857D01*
X101056285Y-161571714D01*
X101056285Y-162143142D01*
X100270571Y-160786000D02*
X101770571Y-159786000D01*
X100270571Y-159786000D02*
X101770571Y-160786000D01*
X111676571Y-162143142D02*
X110176571Y-162143142D01*
X110176571Y-161571714D01*
X110248000Y-161428857D01*
X110319428Y-161357428D01*
X110462285Y-161286000D01*
X110676571Y-161286000D01*
X110819428Y-161357428D01*
X110890857Y-161428857D01*
X110962285Y-161571714D01*
X110962285Y-162143142D01*
X111605142Y-160714571D02*
X111676571Y-160500285D01*
X111676571Y-160143142D01*
X111605142Y-160000285D01*
X111533714Y-159928857D01*
X111390857Y-159857428D01*
X111248000Y-159857428D01*
X111105142Y-159928857D01*
X111033714Y-160000285D01*
X110962285Y-160143142D01*
X110890857Y-160428857D01*
X110819428Y-160571714D01*
X110748000Y-160643142D01*
X110605142Y-160714571D01*
X110462285Y-160714571D01*
X110319428Y-160643142D01*
X110248000Y-160571714D01*
X110176571Y-160428857D01*
X110176571Y-160071714D01*
X110248000Y-159857428D01*
X109136571Y-162750285D02*
X107636571Y-162750285D01*
X109136571Y-161893142D02*
X108279428Y-162536000D01*
X107636571Y-161893142D02*
X108493714Y-162750285D01*
X108350857Y-161250285D02*
X108350857Y-160750285D01*
X109136571Y-160536000D02*
X109136571Y-161250285D01*
X107636571Y-161250285D01*
X107636571Y-160536000D01*
X108422285Y-159607428D02*
X109136571Y-159607428D01*
X107636571Y-160107428D02*
X108422285Y-159607428D01*
X107636571Y-159107428D01*
X120408000Y-162178857D02*
X120336571Y-162321714D01*
X120336571Y-162536000D01*
X120408000Y-162750285D01*
X120550857Y-162893142D01*
X120693714Y-162964571D01*
X120979428Y-163036000D01*
X121193714Y-163036000D01*
X121479428Y-162964571D01*
X121622285Y-162893142D01*
X121765142Y-162750285D01*
X121836571Y-162536000D01*
X121836571Y-162393142D01*
X121765142Y-162178857D01*
X121693714Y-162107428D01*
X121193714Y-162107428D01*
X121193714Y-162393142D01*
X121836571Y-161464571D02*
X120336571Y-161464571D01*
X121836571Y-160607428D01*
X120336571Y-160607428D01*
X121836571Y-159893142D02*
X120336571Y-159893142D01*
X120336571Y-159536000D01*
X120408000Y-159321714D01*
X120550857Y-159178857D01*
X120693714Y-159107428D01*
X120979428Y-159036000D01*
X121193714Y-159036000D01*
X121479428Y-159107428D01*
X121622285Y-159178857D01*
X121765142Y-159321714D01*
X121836571Y-159536000D01*
X121836571Y-159893142D01*
X123590857Y-161889142D02*
X123662285Y-161674857D01*
X123733714Y-161603428D01*
X123876571Y-161532000D01*
X124090857Y-161532000D01*
X124233714Y-161603428D01*
X124305142Y-161674857D01*
X124376571Y-161817714D01*
X124376571Y-162389142D01*
X122876571Y-162389142D01*
X122876571Y-161889142D01*
X122948000Y-161746285D01*
X123019428Y-161674857D01*
X123162285Y-161603428D01*
X123305142Y-161603428D01*
X123448000Y-161674857D01*
X123519428Y-161746285D01*
X123590857Y-161889142D01*
X123590857Y-162389142D01*
X123948000Y-160960571D02*
X123948000Y-160246285D01*
X124376571Y-161103428D02*
X122876571Y-160603428D01*
X124376571Y-160103428D01*
X122876571Y-159817714D02*
X122876571Y-158960571D01*
X124376571Y-159389142D02*
X122876571Y-159389142D01*
X94936571Y-162932857D02*
X96436571Y-162432857D01*
X94936571Y-161932857D01*
X96436571Y-161432857D02*
X94936571Y-161432857D01*
X94936571Y-160432857D02*
X94936571Y-160147142D01*
X95008000Y-160004285D01*
X95150857Y-159861428D01*
X95436571Y-159790000D01*
X95936571Y-159790000D01*
X96222285Y-159861428D01*
X96365142Y-160004285D01*
X96436571Y-160147142D01*
X96436571Y-160432857D01*
X96365142Y-160575714D01*
X96222285Y-160718571D01*
X95936571Y-160790000D01*
X95436571Y-160790000D01*
X95150857Y-160718571D01*
X95008000Y-160575714D01*
X94936571Y-160432857D01*
X120332714Y-151681571D02*
X120332714Y-150181571D01*
X121189857Y-151681571D02*
X120547000Y-150824428D01*
X121189857Y-150181571D02*
X120332714Y-151038714D01*
X121832714Y-150895857D02*
X122332714Y-150895857D01*
X122547000Y-151681571D02*
X121832714Y-151681571D01*
X121832714Y-150181571D01*
X122547000Y-150181571D01*
X123475571Y-150967285D02*
X123475571Y-151681571D01*
X122975571Y-150181571D02*
X123475571Y-150967285D01*
X123975571Y-150181571D01*
X120904142Y-147713000D02*
X120761285Y-147641571D01*
X120547000Y-147641571D01*
X120332714Y-147713000D01*
X120189857Y-147855857D01*
X120118428Y-147998714D01*
X120047000Y-148284428D01*
X120047000Y-148498714D01*
X120118428Y-148784428D01*
X120189857Y-148927285D01*
X120332714Y-149070142D01*
X120547000Y-149141571D01*
X120689857Y-149141571D01*
X120904142Y-149070142D01*
X120975571Y-148998714D01*
X120975571Y-148498714D01*
X120689857Y-148498714D01*
X121618428Y-149141571D02*
X121618428Y-147641571D01*
X122475571Y-149141571D01*
X122475571Y-147641571D01*
X123189857Y-149141571D02*
X123189857Y-147641571D01*
X123547000Y-147641571D01*
X123761285Y-147713000D01*
X123904142Y-147855857D01*
X123975571Y-147998714D01*
X124047000Y-148284428D01*
X124047000Y-148498714D01*
X123975571Y-148784428D01*
X123904142Y-148927285D01*
X123761285Y-149070142D01*
X123547000Y-149141571D01*
X123189857Y-149141571D01*
X120225571Y-146601571D02*
X120225571Y-145101571D01*
X120582714Y-145101571D01*
X120797000Y-145173000D01*
X120939857Y-145315857D01*
X121011285Y-145458714D01*
X121082714Y-145744428D01*
X121082714Y-145958714D01*
X121011285Y-146244428D01*
X120939857Y-146387285D01*
X120797000Y-146530142D01*
X120582714Y-146601571D01*
X120225571Y-146601571D01*
X122511285Y-146601571D02*
X121654142Y-146601571D01*
X122082714Y-146601571D02*
X122082714Y-145101571D01*
X121939857Y-145315857D01*
X121797000Y-145458714D01*
X121654142Y-145530142D01*
X123082714Y-145244428D02*
X123154142Y-145173000D01*
X123297000Y-145101571D01*
X123654142Y-145101571D01*
X123797000Y-145173000D01*
X123868428Y-145244428D01*
X123939857Y-145387285D01*
X123939857Y-145530142D01*
X123868428Y-145744428D01*
X123011285Y-146601571D01*
X123939857Y-146601571D01*
X132342142Y-101921571D02*
X132842142Y-103421571D01*
X133342142Y-101921571D01*
X133842142Y-103421571D02*
X133842142Y-101921571D01*
X134556428Y-103421571D02*
X134556428Y-101921571D01*
X135413571Y-103421571D01*
X135413571Y-101921571D01*
X133350142Y-104533000D02*
X133207285Y-104461571D01*
X132993000Y-104461571D01*
X132778714Y-104533000D01*
X132635857Y-104675857D01*
X132564428Y-104818714D01*
X132493000Y-105104428D01*
X132493000Y-105318714D01*
X132564428Y-105604428D01*
X132635857Y-105747285D01*
X132778714Y-105890142D01*
X132993000Y-105961571D01*
X133135857Y-105961571D01*
X133350142Y-105890142D01*
X133421571Y-105818714D01*
X133421571Y-105318714D01*
X133135857Y-105318714D01*
X134064428Y-105961571D02*
X134064428Y-104461571D01*
X134921571Y-105961571D01*
X134921571Y-104461571D01*
X135635857Y-105961571D02*
X135635857Y-104461571D01*
X135993000Y-104461571D01*
X136207285Y-104533000D01*
X136350142Y-104675857D01*
X136421571Y-104818714D01*
X136493000Y-105104428D01*
X136493000Y-105318714D01*
X136421571Y-105604428D01*
X136350142Y-105747285D01*
X136207285Y-105890142D01*
X135993000Y-105961571D01*
X135635857Y-105961571D01*
X132544714Y-108755571D02*
X132544714Y-107255571D01*
X132901857Y-107255571D01*
X133116142Y-107327000D01*
X133259000Y-107469857D01*
X133330428Y-107612714D01*
X133401857Y-107898428D01*
X133401857Y-108112714D01*
X133330428Y-108398428D01*
X133259000Y-108541285D01*
X133116142Y-108684142D01*
X132901857Y-108755571D01*
X132544714Y-108755571D01*
X134044714Y-107969857D02*
X134544714Y-107969857D01*
X134759000Y-108755571D02*
X134044714Y-108755571D01*
X134044714Y-107255571D01*
X134759000Y-107255571D01*
X136116142Y-108755571D02*
X135401857Y-108755571D01*
X135401857Y-107255571D01*
X136544714Y-108327000D02*
X137259000Y-108327000D01*
X136401857Y-108755571D02*
X136901857Y-107255571D01*
X137401857Y-108755571D01*
X138187571Y-108041285D02*
X138187571Y-108755571D01*
X137687571Y-107255571D02*
X138187571Y-108041285D01*
X138687571Y-107255571D01*
X132453285Y-111295571D02*
X132453285Y-109795571D01*
X132810428Y-109795571D01*
X133024714Y-109867000D01*
X133167571Y-110009857D01*
X133239000Y-110152714D01*
X133310428Y-110438428D01*
X133310428Y-110652714D01*
X133239000Y-110938428D01*
X133167571Y-111081285D01*
X133024714Y-111224142D01*
X132810428Y-111295571D01*
X132453285Y-111295571D01*
X134810428Y-111295571D02*
X134310428Y-110581285D01*
X133953285Y-111295571D02*
X133953285Y-109795571D01*
X134524714Y-109795571D01*
X134667571Y-109867000D01*
X134739000Y-109938428D01*
X134810428Y-110081285D01*
X134810428Y-110295571D01*
X134739000Y-110438428D01*
X134667571Y-110509857D01*
X134524714Y-110581285D01*
X133953285Y-110581285D01*
X135239000Y-109795571D02*
X135739000Y-111295571D01*
X136239000Y-109795571D01*
X127825714Y-99230571D02*
X127111428Y-99230571D01*
X127111428Y-97730571D01*
X128611428Y-97730571D02*
X128897142Y-97730571D01*
X129040000Y-97802000D01*
X129182857Y-97944857D01*
X129254285Y-98230571D01*
X129254285Y-98730571D01*
X129182857Y-99016285D01*
X129040000Y-99159142D01*
X128897142Y-99230571D01*
X128611428Y-99230571D01*
X128468571Y-99159142D01*
X128325714Y-99016285D01*
X128254285Y-98730571D01*
X128254285Y-98230571D01*
X128325714Y-97944857D01*
X128468571Y-97802000D01*
X128611428Y-97730571D01*
X129825714Y-98802000D02*
X130540000Y-98802000D01*
X129682857Y-99230571D02*
X130182857Y-97730571D01*
X130682857Y-99230571D01*
X131182857Y-99230571D02*
X131182857Y-97730571D01*
X131540000Y-97730571D01*
X131754285Y-97802000D01*
X131897142Y-97944857D01*
X131968571Y-98087714D01*
X132040000Y-98373428D01*
X132040000Y-98587714D01*
X131968571Y-98873428D01*
X131897142Y-99016285D01*
X131754285Y-99159142D01*
X131540000Y-99230571D01*
X131182857Y-99230571D01*
X121320857Y-98444857D02*
X121535142Y-98516285D01*
X121606571Y-98587714D01*
X121678000Y-98730571D01*
X121678000Y-98944857D01*
X121606571Y-99087714D01*
X121535142Y-99159142D01*
X121392285Y-99230571D01*
X120820857Y-99230571D01*
X120820857Y-97730571D01*
X121320857Y-97730571D01*
X121463714Y-97802000D01*
X121535142Y-97873428D01*
X121606571Y-98016285D01*
X121606571Y-98159142D01*
X121535142Y-98302000D01*
X121463714Y-98373428D01*
X121320857Y-98444857D01*
X120820857Y-98444857D01*
X122249428Y-98802000D02*
X122963714Y-98802000D01*
X122106571Y-99230571D02*
X122606571Y-97730571D01*
X123106571Y-99230571D01*
X123392285Y-97730571D02*
X124249428Y-97730571D01*
X123820857Y-99230571D02*
X123820857Y-97730571D01*
X129297857Y-88785000D02*
X129155000Y-88713571D01*
X128940714Y-88713571D01*
X128726428Y-88785000D01*
X128583571Y-88927857D01*
X128512142Y-89070714D01*
X128440714Y-89356428D01*
X128440714Y-89570714D01*
X128512142Y-89856428D01*
X128583571Y-89999285D01*
X128726428Y-90142142D01*
X128940714Y-90213571D01*
X129083571Y-90213571D01*
X129297857Y-90142142D01*
X129369285Y-90070714D01*
X129369285Y-89570714D01*
X129083571Y-89570714D01*
X122947857Y-88785000D02*
X122805000Y-88713571D01*
X122590714Y-88713571D01*
X122376428Y-88785000D01*
X122233571Y-88927857D01*
X122162142Y-89070714D01*
X122090714Y-89356428D01*
X122090714Y-89570714D01*
X122162142Y-89856428D01*
X122233571Y-89999285D01*
X122376428Y-90142142D01*
X122590714Y-90213571D01*
X122733571Y-90213571D01*
X122947857Y-90142142D01*
X123019285Y-90070714D01*
X123019285Y-89570714D01*
X122733571Y-89570714D01*
X143037571Y-113356400D02*
X143037571Y-113713542D01*
X140894714Y-113713542D01*
X140894714Y-113356400D01*
X141037571Y-112999257D02*
X141037571Y-112142114D01*
X142537571Y-112570685D02*
X141037571Y-112570685D01*
X142537571Y-111642114D02*
X141037571Y-111642114D01*
X141037571Y-111070685D01*
X141109000Y-110927828D01*
X141180428Y-110856400D01*
X141323285Y-110784971D01*
X141537571Y-110784971D01*
X141680428Y-110856400D01*
X141751857Y-110927828D01*
X141823285Y-111070685D01*
X141823285Y-111642114D01*
X142537571Y-109427828D02*
X142537571Y-110142114D01*
X141037571Y-110142114D01*
X141037571Y-108213542D02*
X141037571Y-108927828D01*
X141751857Y-108999257D01*
X141680428Y-108927828D01*
X141609000Y-108784971D01*
X141609000Y-108427828D01*
X141680428Y-108284971D01*
X141751857Y-108213542D01*
X141894714Y-108142114D01*
X142251857Y-108142114D01*
X142394714Y-108213542D01*
X142466142Y-108284971D01*
X142537571Y-108427828D01*
X142537571Y-108784971D01*
X142466142Y-108927828D01*
X142394714Y-108999257D01*
X142537571Y-106713542D02*
X142537571Y-107570685D01*
X142537571Y-107142114D02*
X141037571Y-107142114D01*
X141251857Y-107284971D01*
X141394714Y-107427828D01*
X141466142Y-107570685D01*
X142537571Y-105284971D02*
X142537571Y-106142114D01*
X142537571Y-105713542D02*
X141037571Y-105713542D01*
X141251857Y-105856400D01*
X141394714Y-105999257D01*
X141466142Y-106142114D01*
X142537571Y-103856400D02*
X142537571Y-104713542D01*
X142537571Y-104284971D02*
X141037571Y-104284971D01*
X141251857Y-104427828D01*
X141394714Y-104570685D01*
X141466142Y-104713542D01*
X143037571Y-103356400D02*
X143037571Y-102999257D01*
X140894714Y-102999257D01*
X140894714Y-103356400D01*
X93151971Y-112933085D02*
X93151971Y-113290228D01*
X91009114Y-113290228D01*
X91009114Y-112933085D01*
X91651971Y-112575942D02*
X91651971Y-112004514D01*
X92651971Y-112361657D02*
X91366257Y-112361657D01*
X91223400Y-112290228D01*
X91151971Y-112147371D01*
X91151971Y-112004514D01*
X92580542Y-110933085D02*
X92651971Y-111075942D01*
X92651971Y-111361657D01*
X92580542Y-111504514D01*
X92437685Y-111575942D01*
X91866257Y-111575942D01*
X91723400Y-111504514D01*
X91651971Y-111361657D01*
X91651971Y-111075942D01*
X91723400Y-110933085D01*
X91866257Y-110861657D01*
X92009114Y-110861657D01*
X92151971Y-111575942D01*
X92651971Y-109575942D02*
X91866257Y-109575942D01*
X91723400Y-109647371D01*
X91651971Y-109790228D01*
X91651971Y-110075942D01*
X91723400Y-110218800D01*
X92580542Y-109575942D02*
X92651971Y-109718800D01*
X92651971Y-110075942D01*
X92580542Y-110218800D01*
X92437685Y-110290228D01*
X92294828Y-110290228D01*
X92151971Y-110218800D01*
X92080542Y-110075942D01*
X92080542Y-109718800D01*
X92009114Y-109575942D01*
X91651971Y-109075942D02*
X91651971Y-108504514D01*
X91151971Y-108861657D02*
X92437685Y-108861657D01*
X92580542Y-108790228D01*
X92651971Y-108647371D01*
X92651971Y-108504514D01*
X92651971Y-108004514D02*
X91151971Y-108004514D01*
X92651971Y-107361657D02*
X91866257Y-107361657D01*
X91723400Y-107433085D01*
X91651971Y-107575942D01*
X91651971Y-107790228D01*
X91723400Y-107933085D01*
X91794828Y-108004514D01*
X92580542Y-106075942D02*
X92651971Y-106218800D01*
X92651971Y-106504514D01*
X92580542Y-106647371D01*
X92437685Y-106718800D01*
X91866257Y-106718800D01*
X91723400Y-106647371D01*
X91651971Y-106504514D01*
X91651971Y-106218800D01*
X91723400Y-106075942D01*
X91866257Y-106004514D01*
X92009114Y-106004514D01*
X92151971Y-106718800D01*
X92651971Y-105361657D02*
X91651971Y-105361657D01*
X91937685Y-105361657D02*
X91794828Y-105290228D01*
X91723400Y-105218800D01*
X91651971Y-105075942D01*
X91651971Y-104933085D01*
X92651971Y-103075942D02*
X92580542Y-103218800D01*
X92437685Y-103290228D01*
X91151971Y-103290228D01*
X92651971Y-102290228D02*
X92580542Y-102433085D01*
X92509114Y-102504514D01*
X92366257Y-102575942D01*
X91937685Y-102575942D01*
X91794828Y-102504514D01*
X91723400Y-102433085D01*
X91651971Y-102290228D01*
X91651971Y-102075942D01*
X91723400Y-101933085D01*
X91794828Y-101861657D01*
X91937685Y-101790228D01*
X92366257Y-101790228D01*
X92509114Y-101861657D01*
X92580542Y-101933085D01*
X92651971Y-102075942D01*
X92651971Y-102290228D01*
X92651971Y-101147371D02*
X91651971Y-101147371D01*
X91937685Y-101147371D02*
X91794828Y-101075942D01*
X91723400Y-101004514D01*
X91651971Y-100861657D01*
X91651971Y-100718800D01*
X92651971Y-99575942D02*
X91866257Y-99575942D01*
X91723400Y-99647371D01*
X91651971Y-99790228D01*
X91651971Y-100075942D01*
X91723400Y-100218800D01*
X92580542Y-99575942D02*
X92651971Y-99718800D01*
X92651971Y-100075942D01*
X92580542Y-100218800D01*
X92437685Y-100290228D01*
X92294828Y-100290228D01*
X92151971Y-100218800D01*
X92080542Y-100075942D01*
X92080542Y-99718800D01*
X92009114Y-99575942D01*
X93151971Y-99004514D02*
X93151971Y-98647371D01*
X91009114Y-98647371D01*
X91009114Y-99004514D01*
X118999714Y-87157571D02*
X118642571Y-87157571D01*
X118642571Y-85014714D01*
X118999714Y-85014714D01*
X119499714Y-86586142D02*
X119642571Y-86657571D01*
X119928285Y-86657571D01*
X120071142Y-86586142D01*
X120142571Y-86443285D01*
X120142571Y-86371857D01*
X120071142Y-86229000D01*
X119928285Y-86157571D01*
X119714000Y-86157571D01*
X119571142Y-86086142D01*
X119499714Y-85943285D01*
X119499714Y-85871857D01*
X119571142Y-85729000D01*
X119714000Y-85657571D01*
X119928285Y-85657571D01*
X120071142Y-85729000D01*
X120999714Y-86657571D02*
X120856857Y-86586142D01*
X120785428Y-86514714D01*
X120714000Y-86371857D01*
X120714000Y-85943285D01*
X120785428Y-85800428D01*
X120856857Y-85729000D01*
X120999714Y-85657571D01*
X121214000Y-85657571D01*
X121356857Y-85729000D01*
X121428285Y-85800428D01*
X121499714Y-85943285D01*
X121499714Y-86371857D01*
X121428285Y-86514714D01*
X121356857Y-86586142D01*
X121214000Y-86657571D01*
X120999714Y-86657571D01*
X122356857Y-86657571D02*
X122214000Y-86586142D01*
X122142571Y-86443285D01*
X122142571Y-85157571D01*
X123571142Y-86657571D02*
X123571142Y-85871857D01*
X123499714Y-85729000D01*
X123356857Y-85657571D01*
X123071142Y-85657571D01*
X122928285Y-85729000D01*
X123571142Y-86586142D02*
X123428285Y-86657571D01*
X123071142Y-86657571D01*
X122928285Y-86586142D01*
X122856857Y-86443285D01*
X122856857Y-86300428D01*
X122928285Y-86157571D01*
X123071142Y-86086142D01*
X123428285Y-86086142D01*
X123571142Y-86014714D01*
X124285428Y-86657571D02*
X124285428Y-85657571D01*
X124285428Y-85943285D02*
X124356857Y-85800428D01*
X124428285Y-85729000D01*
X124571142Y-85657571D01*
X124714000Y-85657571D01*
X126571142Y-86657571D02*
X126428285Y-86586142D01*
X126356857Y-86443285D01*
X126356857Y-85157571D01*
X127142571Y-86657571D02*
X127142571Y-85657571D01*
X127142571Y-85157571D02*
X127071142Y-85229000D01*
X127142571Y-85300428D01*
X127214000Y-85229000D01*
X127142571Y-85157571D01*
X127142571Y-85300428D01*
X127856857Y-85657571D02*
X127856857Y-87157571D01*
X127856857Y-85729000D02*
X127999714Y-85657571D01*
X128285428Y-85657571D01*
X128428285Y-85729000D01*
X128499714Y-85800428D01*
X128571142Y-85943285D01*
X128571142Y-86371857D01*
X128499714Y-86514714D01*
X128428285Y-86586142D01*
X128285428Y-86657571D01*
X127999714Y-86657571D01*
X127856857Y-86586142D01*
X129428285Y-86657571D02*
X129285428Y-86586142D01*
X129214000Y-86514714D01*
X129142571Y-86371857D01*
X129142571Y-85943285D01*
X129214000Y-85800428D01*
X129285428Y-85729000D01*
X129428285Y-85657571D01*
X129642571Y-85657571D01*
X129785428Y-85729000D01*
X129856857Y-85800428D01*
X129928285Y-85943285D01*
X129928285Y-86371857D01*
X129856857Y-86514714D01*
X129785428Y-86586142D01*
X129642571Y-86657571D01*
X129428285Y-86657571D01*
X130428285Y-87157571D02*
X130785428Y-87157571D01*
X130785428Y-85014714D01*
X130428285Y-85014714D01*
X129738571Y-123567000D02*
X130452857Y-123567000D01*
X129595714Y-123995571D02*
X130095714Y-122495571D01*
X130595714Y-123995571D01*
X131381428Y-122495571D02*
X131524285Y-122495571D01*
X131667142Y-122567000D01*
X131738571Y-122638428D01*
X131810000Y-122781285D01*
X131881428Y-123067000D01*
X131881428Y-123424142D01*
X131810000Y-123709857D01*
X131738571Y-123852714D01*
X131667142Y-123924142D01*
X131524285Y-123995571D01*
X131381428Y-123995571D01*
X131238571Y-123924142D01*
X131167142Y-123852714D01*
X131095714Y-123709857D01*
X131024285Y-123424142D01*
X131024285Y-123067000D01*
X131095714Y-122781285D01*
X131167142Y-122638428D01*
X131238571Y-122567000D01*
X131381428Y-122495571D01*
X128825857Y-128464571D02*
X129754428Y-128464571D01*
X129254428Y-129036000D01*
X129468714Y-129036000D01*
X129611571Y-129107428D01*
X129683000Y-129178857D01*
X129754428Y-129321714D01*
X129754428Y-129678857D01*
X129683000Y-129821714D01*
X129611571Y-129893142D01*
X129468714Y-129964571D01*
X129040142Y-129964571D01*
X128897285Y-129893142D01*
X128825857Y-129821714D01*
X130183000Y-128464571D02*
X130683000Y-129964571D01*
X131183000Y-128464571D01*
X131540142Y-128464571D02*
X132468714Y-128464571D01*
X131968714Y-129036000D01*
X132183000Y-129036000D01*
X132325857Y-129107428D01*
X132397285Y-129178857D01*
X132468714Y-129321714D01*
X132468714Y-129678857D01*
X132397285Y-129821714D01*
X132325857Y-129893142D01*
X132183000Y-129964571D01*
X131754428Y-129964571D01*
X131611571Y-129893142D01*
X131540142Y-129821714D01*
X130948857Y-125488000D02*
X130806000Y-125416571D01*
X130591714Y-125416571D01*
X130377428Y-125488000D01*
X130234571Y-125630857D01*
X130163142Y-125773714D01*
X130091714Y-126059428D01*
X130091714Y-126273714D01*
X130163142Y-126559428D01*
X130234571Y-126702285D01*
X130377428Y-126845142D01*
X130591714Y-126916571D01*
X130734571Y-126916571D01*
X130948857Y-126845142D01*
X131020285Y-126773714D01*
X131020285Y-126273714D01*
X130734571Y-126273714D01*
X129956857Y-142791571D02*
X129956857Y-141291571D01*
X130314000Y-141291571D01*
X130528285Y-141363000D01*
X130671142Y-141505857D01*
X130742571Y-141648714D01*
X130814000Y-141934428D01*
X130814000Y-142148714D01*
X130742571Y-142434428D01*
X130671142Y-142577285D01*
X130528285Y-142720142D01*
X130314000Y-142791571D01*
X129956857Y-142791571D01*
X132171142Y-141291571D02*
X131456857Y-141291571D01*
X131385428Y-142005857D01*
X131456857Y-141934428D01*
X131599714Y-141863000D01*
X131956857Y-141863000D01*
X132099714Y-141934428D01*
X132171142Y-142005857D01*
X132242571Y-142148714D01*
X132242571Y-142505857D01*
X132171142Y-142648714D01*
X132099714Y-142720142D01*
X131956857Y-142791571D01*
X131599714Y-142791571D01*
X131456857Y-142720142D01*
X131385428Y-142648714D01*
X129079857Y-138243571D02*
X130008428Y-138243571D01*
X129508428Y-138815000D01*
X129722714Y-138815000D01*
X129865571Y-138886428D01*
X129937000Y-138957857D01*
X130008428Y-139100714D01*
X130008428Y-139457857D01*
X129937000Y-139600714D01*
X129865571Y-139672142D01*
X129722714Y-139743571D01*
X129294142Y-139743571D01*
X129151285Y-139672142D01*
X129079857Y-139600714D01*
X130437000Y-138243571D02*
X130937000Y-139743571D01*
X131437000Y-138243571D01*
X131794142Y-138243571D02*
X132722714Y-138243571D01*
X132222714Y-138815000D01*
X132437000Y-138815000D01*
X132579857Y-138886428D01*
X132651285Y-138957857D01*
X132722714Y-139100714D01*
X132722714Y-139457857D01*
X132651285Y-139600714D01*
X132579857Y-139672142D01*
X132437000Y-139743571D01*
X132008428Y-139743571D01*
X131865571Y-139672142D01*
X131794142Y-139600714D01*
X130948857Y-135267000D02*
X130806000Y-135195571D01*
X130591714Y-135195571D01*
X130377428Y-135267000D01*
X130234571Y-135409857D01*
X130163142Y-135552714D01*
X130091714Y-135838428D01*
X130091714Y-136052714D01*
X130163142Y-136338428D01*
X130234571Y-136481285D01*
X130377428Y-136624142D01*
X130591714Y-136695571D01*
X130734571Y-136695571D01*
X130948857Y-136624142D01*
X131020285Y-136552714D01*
X131020285Y-136052714D01*
X130734571Y-136052714D01*
X136168285Y-90872571D02*
X136454000Y-90872571D01*
X136596857Y-90944000D01*
X136739714Y-91086857D01*
X136811142Y-91372571D01*
X136811142Y-91872571D01*
X136739714Y-92158285D01*
X136596857Y-92301142D01*
X136454000Y-92372571D01*
X136168285Y-92372571D01*
X136025428Y-92301142D01*
X135882571Y-92158285D01*
X135811142Y-91872571D01*
X135811142Y-91372571D01*
X135882571Y-91086857D01*
X136025428Y-90944000D01*
X136168285Y-90872571D01*
X137954000Y-91586857D02*
X137454000Y-91586857D01*
X137454000Y-92372571D02*
X137454000Y-90872571D01*
X138168285Y-90872571D01*
X139239714Y-91586857D02*
X138739714Y-91586857D01*
X138739714Y-92372571D02*
X138739714Y-90872571D01*
X139454000Y-90872571D01*
X141096857Y-90801142D02*
X139811142Y-92729714D01*
X141882571Y-90872571D02*
X142168285Y-90872571D01*
X142311142Y-90944000D01*
X142454000Y-91086857D01*
X142525428Y-91372571D01*
X142525428Y-91872571D01*
X142454000Y-92158285D01*
X142311142Y-92301142D01*
X142168285Y-92372571D01*
X141882571Y-92372571D01*
X141739714Y-92301142D01*
X141596857Y-92158285D01*
X141525428Y-91872571D01*
X141525428Y-91372571D01*
X141596857Y-91086857D01*
X141739714Y-90944000D01*
X141882571Y-90872571D01*
X143168285Y-92372571D02*
X143168285Y-90872571D01*
X144025428Y-92372571D01*
X144025428Y-90872571D01*
X295588571Y-114894285D02*
X297088571Y-114894285D01*
X295660000Y-114894285D02*
X295588571Y-114751428D01*
X295588571Y-114465714D01*
X295660000Y-114322857D01*
X295731428Y-114251428D01*
X295874285Y-114180000D01*
X296302857Y-114180000D01*
X296445714Y-114251428D01*
X296517142Y-114322857D01*
X296588571Y-114465714D01*
X296588571Y-114751428D01*
X296517142Y-114894285D01*
X295588571Y-113680000D02*
X296588571Y-113322857D01*
X295588571Y-112965714D01*
X296588571Y-112180000D02*
X296517142Y-112322857D01*
X296445714Y-112394285D01*
X296302857Y-112465714D01*
X295874285Y-112465714D01*
X295731428Y-112394285D01*
X295660000Y-112322857D01*
X295588571Y-112180000D01*
X295588571Y-111965714D01*
X295660000Y-111822857D01*
X295731428Y-111751428D01*
X295874285Y-111680000D01*
X296302857Y-111680000D01*
X296445714Y-111751428D01*
X296517142Y-111822857D01*
X296588571Y-111965714D01*
X296588571Y-112180000D01*
X296517142Y-111108571D02*
X296588571Y-110965714D01*
X296588571Y-110680000D01*
X296517142Y-110537142D01*
X296374285Y-110465714D01*
X296302857Y-110465714D01*
X296160000Y-110537142D01*
X296088571Y-110680000D01*
X296088571Y-110894285D01*
X296017142Y-111037142D01*
X295874285Y-111108571D01*
X295802857Y-111108571D01*
X295660000Y-111037142D01*
X295588571Y-110894285D01*
X295588571Y-110680000D01*
X295660000Y-110537142D01*
X296445714Y-109822857D02*
X296517142Y-109751428D01*
X296588571Y-109822857D01*
X296517142Y-109894285D01*
X296445714Y-109822857D01*
X296588571Y-109822857D01*
X296588571Y-108894285D02*
X296517142Y-109037142D01*
X296445714Y-109108571D01*
X296302857Y-109180000D01*
X295874285Y-109180000D01*
X295731428Y-109108571D01*
X295660000Y-109037142D01*
X295588571Y-108894285D01*
X295588571Y-108680000D01*
X295660000Y-108537142D01*
X295731428Y-108465714D01*
X295874285Y-108394285D01*
X296302857Y-108394285D01*
X296445714Y-108465714D01*
X296517142Y-108537142D01*
X296588571Y-108680000D01*
X296588571Y-108894285D01*
X296588571Y-107751428D02*
X295588571Y-107751428D01*
X295874285Y-107751428D02*
X295731428Y-107680000D01*
X295660000Y-107608571D01*
X295588571Y-107465714D01*
X295588571Y-107322857D01*
X295588571Y-106180000D02*
X296802857Y-106180000D01*
X296945714Y-106251428D01*
X297017142Y-106322857D01*
X297088571Y-106465714D01*
X297088571Y-106680000D01*
X297017142Y-106822857D01*
X296517142Y-106180000D02*
X296588571Y-106322857D01*
X296588571Y-106608571D01*
X296517142Y-106751428D01*
X296445714Y-106822857D01*
X296302857Y-106894285D01*
X295874285Y-106894285D01*
X295731428Y-106822857D01*
X295660000Y-106751428D01*
X295588571Y-106608571D01*
X295588571Y-106322857D01*
X295660000Y-106180000D01*
X295017142Y-104394285D02*
X296945714Y-105680000D01*
X296588571Y-103894285D02*
X295088571Y-103894285D01*
X296017142Y-103751428D02*
X296588571Y-103322857D01*
X295588571Y-103322857D02*
X296160000Y-103894285D01*
X295588571Y-102680000D02*
X296588571Y-102680000D01*
X295731428Y-102680000D02*
X295660000Y-102608571D01*
X295588571Y-102465714D01*
X295588571Y-102251428D01*
X295660000Y-102108571D01*
X295802857Y-102037142D01*
X296588571Y-102037142D01*
X295588571Y-100680000D02*
X296588571Y-100680000D01*
X295588571Y-101322857D02*
X296374285Y-101322857D01*
X296517142Y-101251428D01*
X296588571Y-101108571D01*
X296588571Y-100894285D01*
X296517142Y-100751428D01*
X296445714Y-100680000D01*
X295588571Y-100180000D02*
X295588571Y-99608571D01*
X295088571Y-99965714D02*
X296374285Y-99965714D01*
X296517142Y-99894285D01*
X296588571Y-99751428D01*
X296588571Y-99608571D01*
X296588571Y-99108571D02*
X295088571Y-99108571D01*
X296588571Y-98465714D02*
X295802857Y-98465714D01*
X295660000Y-98537142D01*
X295588571Y-98680000D01*
X295588571Y-98894285D01*
X295660000Y-99037142D01*
X295731428Y-99108571D01*
X76370571Y-153646571D02*
X74870571Y-153646571D01*
X76370571Y-152789428D02*
X75513428Y-153432285D01*
X74870571Y-152789428D02*
X75727714Y-153646571D01*
X75370571Y-152146571D02*
X76370571Y-152146571D01*
X75513428Y-152146571D02*
X75442000Y-152075142D01*
X75370571Y-151932285D01*
X75370571Y-151718000D01*
X75442000Y-151575142D01*
X75584857Y-151503714D01*
X76370571Y-151503714D01*
X75370571Y-150146571D02*
X76370571Y-150146571D01*
X75370571Y-150789428D02*
X76156285Y-150789428D01*
X76299142Y-150718000D01*
X76370571Y-150575142D01*
X76370571Y-150360857D01*
X76299142Y-150218000D01*
X76227714Y-150146571D01*
X75370571Y-149646571D02*
X75370571Y-149075142D01*
X74870571Y-149432285D02*
X76156285Y-149432285D01*
X76299142Y-149360857D01*
X76370571Y-149218000D01*
X76370571Y-149075142D01*
X76370571Y-148575142D02*
X74870571Y-148575142D01*
X76370571Y-147932285D02*
X75584857Y-147932285D01*
X75442000Y-148003714D01*
X75370571Y-148146571D01*
X75370571Y-148360857D01*
X75442000Y-148503714D01*
X75513428Y-148575142D01*
X76370571Y-145218000D02*
X75656285Y-145718000D01*
X76370571Y-146075142D02*
X74870571Y-146075142D01*
X74870571Y-145503714D01*
X74942000Y-145360857D01*
X75013428Y-145289428D01*
X75156285Y-145218000D01*
X75370571Y-145218000D01*
X75513428Y-145289428D01*
X75584857Y-145360857D01*
X75656285Y-145503714D01*
X75656285Y-146075142D01*
X76370571Y-143932285D02*
X75584857Y-143932285D01*
X75442000Y-144003714D01*
X75370571Y-144146571D01*
X75370571Y-144432285D01*
X75442000Y-144575142D01*
X76299142Y-143932285D02*
X76370571Y-144075142D01*
X76370571Y-144432285D01*
X76299142Y-144575142D01*
X76156285Y-144646571D01*
X76013428Y-144646571D01*
X75870571Y-144575142D01*
X75799142Y-144432285D01*
X75799142Y-144075142D01*
X75727714Y-143932285D01*
X75370571Y-143218000D02*
X76370571Y-143218000D01*
X75513428Y-143218000D02*
X75442000Y-143146571D01*
X75370571Y-143003714D01*
X75370571Y-142789428D01*
X75442000Y-142646571D01*
X75584857Y-142575142D01*
X76370571Y-142575142D01*
X76299142Y-141218000D02*
X76370571Y-141360857D01*
X76370571Y-141646571D01*
X76299142Y-141789428D01*
X76227714Y-141860857D01*
X76084857Y-141932285D01*
X75656285Y-141932285D01*
X75513428Y-141860857D01*
X75442000Y-141789428D01*
X75370571Y-141646571D01*
X75370571Y-141360857D01*
X75442000Y-141218000D01*
X76370571Y-140575142D02*
X74870571Y-140575142D01*
X76370571Y-139932285D02*
X75584857Y-139932285D01*
X75442000Y-140003714D01*
X75370571Y-140146571D01*
X75370571Y-140360857D01*
X75442000Y-140503714D01*
X75513428Y-140575142D01*
X76227714Y-139218000D02*
X76299142Y-139146571D01*
X76370571Y-139218000D01*
X76299142Y-139289428D01*
X76227714Y-139218000D01*
X76370571Y-139218000D01*
X75442000Y-139218000D02*
X75513428Y-139146571D01*
X75584857Y-139218000D01*
X75513428Y-139289428D01*
X75442000Y-139218000D01*
X75584857Y-139218000D01*
X76227714Y-136503714D02*
X76299142Y-136575142D01*
X76370571Y-136789428D01*
X76370571Y-136932285D01*
X76299142Y-137146571D01*
X76156285Y-137289428D01*
X76013428Y-137360857D01*
X75727714Y-137432285D01*
X75513428Y-137432285D01*
X75227714Y-137360857D01*
X75084857Y-137289428D01*
X74942000Y-137146571D01*
X74870571Y-136932285D01*
X74870571Y-136789428D01*
X74942000Y-136575142D01*
X75013428Y-136503714D01*
X75584857Y-135860857D02*
X75584857Y-135360857D01*
X76370571Y-135146571D02*
X76370571Y-135860857D01*
X74870571Y-135860857D01*
X74870571Y-135146571D01*
X76370571Y-133789428D02*
X76370571Y-134503714D01*
X74870571Y-134503714D01*
X76370571Y-132575142D02*
X76370571Y-133289428D01*
X74870571Y-133289428D01*
X74870571Y-132075142D02*
X76084857Y-132075142D01*
X76227714Y-132003714D01*
X76299142Y-131932285D01*
X76370571Y-131789428D01*
X76370571Y-131503714D01*
X76299142Y-131360857D01*
X76227714Y-131289428D01*
X76084857Y-131218000D01*
X74870571Y-131218000D01*
X76370571Y-129789428D02*
X76370571Y-130503714D01*
X74870571Y-130503714D01*
X75942000Y-129360857D02*
X75942000Y-128646571D01*
X76370571Y-129503714D02*
X74870571Y-129003714D01*
X76370571Y-128503714D01*
X76370571Y-127146571D02*
X75656285Y-127646571D01*
X76370571Y-128003714D02*
X74870571Y-128003714D01*
X74870571Y-127432285D01*
X74942000Y-127289428D01*
X75013428Y-127218000D01*
X75156285Y-127146571D01*
X75370571Y-127146571D01*
X75513428Y-127218000D01*
X75584857Y-127289428D01*
X75656285Y-127432285D01*
X75656285Y-128003714D01*
X74942000Y-124575142D02*
X74870571Y-124718000D01*
X74870571Y-124932285D01*
X74942000Y-125146571D01*
X75084857Y-125289428D01*
X75227714Y-125360857D01*
X75513428Y-125432285D01*
X75727714Y-125432285D01*
X76013428Y-125360857D01*
X76156285Y-125289428D01*
X76299142Y-125146571D01*
X76370571Y-124932285D01*
X76370571Y-124789428D01*
X76299142Y-124575142D01*
X76227714Y-124503714D01*
X75727714Y-124503714D01*
X75727714Y-124789428D01*
X75942000Y-123932285D02*
X75942000Y-123218000D01*
X76370571Y-124075142D02*
X74870571Y-123575142D01*
X76370571Y-123075142D01*
X74870571Y-122789428D02*
X74870571Y-121932285D01*
X76370571Y-122360857D02*
X74870571Y-122360857D01*
X75584857Y-121432285D02*
X75584857Y-120932285D01*
X76370571Y-120718000D02*
X76370571Y-121432285D01*
X74870571Y-121432285D01*
X74870571Y-120718000D01*
X74870571Y-120218000D02*
X76370571Y-119860857D01*
X75299142Y-119575142D01*
X76370571Y-119289428D01*
X74870571Y-118932285D01*
X75942000Y-118432285D02*
X75942000Y-117718000D01*
X76370571Y-118575142D02*
X74870571Y-118075142D01*
X76370571Y-117575142D01*
X75656285Y-116789428D02*
X76370571Y-116789428D01*
X74870571Y-117289428D02*
X75656285Y-116789428D01*
X74870571Y-116289428D01*
X75799142Y-114646571D02*
X75799142Y-113503714D01*
X76370571Y-114075142D02*
X75227714Y-114075142D01*
X75584857Y-111646571D02*
X75584857Y-111146571D01*
X76370571Y-110932285D02*
X76370571Y-111646571D01*
X74870571Y-111646571D01*
X74870571Y-110932285D01*
X76227714Y-109432285D02*
X76299142Y-109503714D01*
X76370571Y-109718000D01*
X76370571Y-109860857D01*
X76299142Y-110075142D01*
X76156285Y-110218000D01*
X76013428Y-110289428D01*
X75727714Y-110360857D01*
X75513428Y-110360857D01*
X75227714Y-110289428D01*
X75084857Y-110218000D01*
X74942000Y-110075142D01*
X74870571Y-109860857D01*
X74870571Y-109718000D01*
X74942000Y-109503714D01*
X75013428Y-109432285D01*
X75799142Y-108789428D02*
X75799142Y-107646571D01*
X74870571Y-106218000D02*
X74870571Y-106932285D01*
X75584857Y-107003714D01*
X75513428Y-106932285D01*
X75442000Y-106789428D01*
X75442000Y-106432285D01*
X75513428Y-106289428D01*
X75584857Y-106218000D01*
X75727714Y-106146571D01*
X76084857Y-106146571D01*
X76227714Y-106218000D01*
X76299142Y-106289428D01*
X76370571Y-106432285D01*
X76370571Y-106789428D01*
X76299142Y-106932285D01*
X76227714Y-107003714D01*
X76370571Y-103146571D02*
X76370571Y-103218000D01*
X76299142Y-103360857D01*
X76084857Y-103575142D01*
X75656285Y-103932285D01*
X75442000Y-104075142D01*
X75227714Y-104146571D01*
X75084857Y-104146571D01*
X74942000Y-104075142D01*
X74870571Y-103932285D01*
X74870571Y-103860857D01*
X74942000Y-103718000D01*
X75084857Y-103646571D01*
X75156285Y-103646571D01*
X75299142Y-103718000D01*
X75370571Y-103789428D01*
X75656285Y-104218000D01*
X75727714Y-104289428D01*
X75870571Y-104360857D01*
X76084857Y-104360857D01*
X76227714Y-104289428D01*
X76299142Y-104218000D01*
X76370571Y-104075142D01*
X76370571Y-103860857D01*
X76299142Y-103718000D01*
X76227714Y-103646571D01*
X75942000Y-103432285D01*
X75727714Y-103360857D01*
X75584857Y-103360857D01*
X74870571Y-101575142D02*
X74870571Y-100718000D01*
X76370571Y-101146571D02*
X74870571Y-101146571D01*
X76299142Y-99646571D02*
X76370571Y-99789428D01*
X76370571Y-100075142D01*
X76299142Y-100218000D01*
X76156285Y-100289428D01*
X75584857Y-100289428D01*
X75442000Y-100218000D01*
X75370571Y-100075142D01*
X75370571Y-99789428D01*
X75442000Y-99646571D01*
X75584857Y-99575142D01*
X75727714Y-99575142D01*
X75870571Y-100289428D01*
X76370571Y-98932285D02*
X75370571Y-98932285D01*
X75513428Y-98932285D02*
X75442000Y-98860857D01*
X75370571Y-98718000D01*
X75370571Y-98503714D01*
X75442000Y-98360857D01*
X75584857Y-98289428D01*
X76370571Y-98289428D01*
X75584857Y-98289428D02*
X75442000Y-98218000D01*
X75370571Y-98075142D01*
X75370571Y-97860857D01*
X75442000Y-97718000D01*
X75584857Y-97646571D01*
X76370571Y-97646571D01*
X75370571Y-96932285D02*
X76870571Y-96932285D01*
X75442000Y-96932285D02*
X75370571Y-96789428D01*
X75370571Y-96503714D01*
X75442000Y-96360857D01*
X75513428Y-96289428D01*
X75656285Y-96218000D01*
X76084857Y-96218000D01*
X76227714Y-96289428D01*
X76299142Y-96360857D01*
X76370571Y-96503714D01*
X76370571Y-96789428D01*
X76299142Y-96932285D01*
D11*
G04 #@! TO.C,R_Delay1*
X123130000Y-106426000D02*
X125790000Y-106426000D01*
X123130000Y-106426000D02*
X123130000Y-109026000D01*
X123130000Y-109026000D02*
X125790000Y-109026000D01*
X125790000Y-106426000D02*
X125790000Y-109026000D01*
X125790000Y-103826000D02*
X125790000Y-105156000D01*
X124460000Y-103826000D02*
X125790000Y-103826000D01*
G04 #@! TO.C,U4*
X128845000Y-104140000D02*
X131505000Y-104140000D01*
X128845000Y-104140000D02*
X128845000Y-114360000D01*
X128845000Y-114360000D02*
X131505000Y-114360000D01*
X131505000Y-104140000D02*
X131505000Y-114360000D01*
X131505000Y-101540000D02*
X131505000Y-102870000D01*
X130175000Y-101540000D02*
X131505000Y-101540000D01*
G04 #@! TO.C,1-Wire1*
X125730000Y-134687000D02*
X127060000Y-134687000D01*
X127060000Y-134687000D02*
X127060000Y-136017000D01*
X127060000Y-137287000D02*
X127060000Y-142427000D01*
X124400000Y-142427000D02*
X127060000Y-142427000D01*
X124400000Y-137287000D02*
X124400000Y-142427000D01*
X124400000Y-137287000D02*
X127060000Y-137287000D01*
G04 #@! TO.C,EC-5*
X124400000Y-124587000D02*
X127060000Y-124587000D01*
X124400000Y-124587000D02*
X124400000Y-129727000D01*
X124400000Y-129727000D02*
X127060000Y-129727000D01*
X127060000Y-124587000D02*
X127060000Y-129727000D01*
X127060000Y-121987000D02*
X127060000Y-123317000D01*
X125730000Y-121987000D02*
X127060000Y-121987000D01*
G04 #@! TO.C,J1*
X83753000Y-123190000D02*
X81093000Y-123190000D01*
X83753000Y-123190000D02*
X83753000Y-95190000D01*
X83753000Y-95190000D02*
X81093000Y-95190000D01*
X81093000Y-123190000D02*
X81093000Y-95190000D01*
X81093000Y-125790000D02*
X81093000Y-124460000D01*
X82423000Y-125790000D02*
X81093000Y-125790000D01*
G04 #@! TO.C,J2*
X104073000Y-133350000D02*
X101413000Y-133350000D01*
X104073000Y-133350000D02*
X104073000Y-95190000D01*
X104073000Y-95190000D02*
X101413000Y-95190000D01*
X101413000Y-133350000D02*
X101413000Y-95190000D01*
X101413000Y-135950000D02*
X101413000Y-134620000D01*
X102743000Y-135950000D02*
X101413000Y-135950000D01*
G04 #@! TO.C,RP1*
X114085500Y-139350500D02*
X113755500Y-139350500D01*
X113755500Y-139350500D02*
X113755500Y-132810500D01*
X113755500Y-132810500D02*
X114085500Y-132810500D01*
X116165500Y-139350500D02*
X116495500Y-139350500D01*
X116495500Y-139350500D02*
X116495500Y-132810500D01*
X116495500Y-132810500D02*
X116165500Y-132810500D01*
G04 #@! TO.C,J3*
X122872500Y-96453000D02*
X121542500Y-96453000D01*
X121542500Y-96453000D02*
X121542500Y-95123000D01*
X121542500Y-93853000D02*
X121542500Y-91253000D01*
X124202500Y-91253000D02*
X121542500Y-91253000D01*
X124202500Y-93853000D02*
X124202500Y-91253000D01*
X124202500Y-93853000D02*
X121542500Y-93853000D01*
G04 #@! TO.C,J4*
X130044500Y-93853000D02*
X127384500Y-93853000D01*
X130044500Y-93853000D02*
X130044500Y-91253000D01*
X130044500Y-91253000D02*
X127384500Y-91253000D01*
X127384500Y-93853000D02*
X127384500Y-91253000D01*
X127384500Y-96453000D02*
X127384500Y-95123000D01*
X128714500Y-96453000D02*
X127384500Y-96453000D01*
G04 #@! TO.C,J5*
X143697000Y-95123000D02*
X143697000Y-96453000D01*
X143697000Y-96453000D02*
X142367000Y-96453000D01*
X141097000Y-96453000D02*
X135957000Y-96453000D01*
X135957000Y-93793000D02*
X135957000Y-96453000D01*
X141097000Y-93793000D02*
X135957000Y-93793000D01*
X141097000Y-93793000D02*
X141097000Y-96453000D01*
G04 #@! TO.C,J6*
X116208500Y-147002500D02*
X118868500Y-147002500D01*
X116208500Y-147002500D02*
X116208500Y-152142500D01*
X116208500Y-152142500D02*
X118868500Y-152142500D01*
X118868500Y-147002500D02*
X118868500Y-152142500D01*
X118868500Y-144402500D02*
X118868500Y-145732500D01*
X117538500Y-144402500D02*
X118868500Y-144402500D01*
G04 #@! TO.C,J7*
X84201000Y-145919500D02*
X84201000Y-143259500D01*
X84201000Y-145919500D02*
X86801000Y-145919500D01*
X86801000Y-145919500D02*
X86801000Y-143259500D01*
X84201000Y-143259500D02*
X86801000Y-143259500D01*
X81601000Y-143259500D02*
X82931000Y-143259500D01*
X81601000Y-144589500D02*
X81601000Y-143259500D01*
G04 #@! TO.C,J8*
X141960000Y-144417000D02*
X141960000Y-144017000D01*
X141320000Y-144417000D02*
X141960000Y-144417000D01*
X138101000Y-136512000D02*
X138229000Y-136641000D01*
X135885000Y-134297000D02*
X135979000Y-134391000D01*
X138341000Y-136342000D02*
X138434000Y-136436000D01*
X136091000Y-134092000D02*
X136219000Y-134221000D01*
X138101000Y-140012000D02*
X138229000Y-140141000D01*
X135885000Y-137797000D02*
X135979000Y-137891000D01*
X138341000Y-139842000D02*
X138434000Y-139936000D01*
X136091000Y-137592000D02*
X136219000Y-137721000D01*
X134000000Y-133557000D02*
X141720000Y-133557000D01*
X134000000Y-144177000D02*
X141720000Y-144177000D01*
X141720000Y-144177000D02*
X141720000Y-133557000D01*
X134000000Y-144177000D02*
X134000000Y-133557000D01*
X140160000Y-144177000D02*
X140160000Y-133557000D01*
X141260000Y-144177000D02*
X141260000Y-133557000D01*
X138840000Y-135367000D02*
G75*
G03X138840000Y-135367000I-1680000J0D01*
G01*
X138840000Y-138867000D02*
G75*
G03X138840000Y-138867000I-1680000J0D01*
G01*
X138840099Y-142338326D02*
G75*
G02X138600000Y-143233000I-1680099J-28674D01*
G01*
X138049894Y-143792358D02*
G75*
G02X136294000Y-143807000I-889894J1425358D01*
G01*
X135734642Y-143256894D02*
G75*
G02X135720000Y-141501000I1425358J889894D01*
G01*
X136269807Y-140941495D02*
G75*
G02X138051000Y-140942000I890193J-1425505D01*
G01*
X138584721Y-141476736D02*
G75*
G02X138840000Y-142367000I-1424721J-890264D01*
G01*
G04 #@! TO.C,J9*
X138584721Y-128776736D02*
G75*
G02X138840000Y-129667000I-1424721J-890264D01*
G01*
X136269807Y-128241495D02*
G75*
G02X138051000Y-128242000I890193J-1425505D01*
G01*
X135734642Y-130556894D02*
G75*
G02X135720000Y-128801000I1425358J889894D01*
G01*
X138049894Y-131092358D02*
G75*
G02X136294000Y-131107000I-889894J1425358D01*
G01*
X138840099Y-129638326D02*
G75*
G02X138600000Y-130533000I-1680099J-28674D01*
G01*
X138840000Y-126167000D02*
G75*
G03X138840000Y-126167000I-1680000J0D01*
G01*
X138840000Y-122667000D02*
G75*
G03X138840000Y-122667000I-1680000J0D01*
G01*
X141260000Y-131477000D02*
X141260000Y-120857000D01*
X140160000Y-131477000D02*
X140160000Y-120857000D01*
X134000000Y-131477000D02*
X134000000Y-120857000D01*
X141720000Y-131477000D02*
X141720000Y-120857000D01*
X134000000Y-131477000D02*
X141720000Y-131477000D01*
X134000000Y-120857000D02*
X141720000Y-120857000D01*
X136091000Y-124892000D02*
X136219000Y-125021000D01*
X138341000Y-127142000D02*
X138434000Y-127236000D01*
X135885000Y-125097000D02*
X135979000Y-125191000D01*
X138101000Y-127312000D02*
X138229000Y-127441000D01*
X136091000Y-121392000D02*
X136219000Y-121521000D01*
X138341000Y-123642000D02*
X138434000Y-123736000D01*
X135885000Y-121597000D02*
X135979000Y-121691000D01*
X138101000Y-123812000D02*
X138229000Y-123941000D01*
X141320000Y-131717000D02*
X141960000Y-131717000D01*
X141960000Y-131717000D02*
X141960000Y-131317000D01*
G04 #@! TO.C,U1*
X122428000Y-155769000D02*
X122428000Y-158429000D01*
X122428000Y-155769000D02*
X94428000Y-155769000D01*
X94428000Y-155769000D02*
X94428000Y-158429000D01*
X122428000Y-158429000D02*
X94428000Y-158429000D01*
X125028000Y-158429000D02*
X123698000Y-158429000D01*
X125028000Y-157099000D02*
X125028000Y-158429000D01*
G04 #@! TO.C,RD1*
X117130500Y-108490000D02*
X114390500Y-108490000D01*
X114390500Y-108490000D02*
X114390500Y-115030000D01*
X114390500Y-115030000D02*
X117130500Y-115030000D01*
X117130500Y-115030000D02*
X117130500Y-108490000D01*
X115760500Y-107720000D02*
X115760500Y-108490000D01*
X115760500Y-115800000D02*
X115760500Y-115030000D01*
G04 #@! TO.C,RD2*
X119443500Y-107720000D02*
X119443500Y-108490000D01*
X119443500Y-115800000D02*
X119443500Y-115030000D01*
X118073500Y-108490000D02*
X118073500Y-115030000D01*
X120813500Y-108490000D02*
X118073500Y-108490000D01*
X120813500Y-115030000D02*
X120813500Y-108490000D01*
X118073500Y-115030000D02*
X120813500Y-115030000D01*
G04 #@! TO.C,R_Delay1*
D12*
X121888571Y-102306380D02*
X121555238Y-101830190D01*
X121317142Y-102306380D02*
X121317142Y-101306380D01*
X121698095Y-101306380D01*
X121793333Y-101354000D01*
X121840952Y-101401619D01*
X121888571Y-101496857D01*
X121888571Y-101639714D01*
X121840952Y-101734952D01*
X121793333Y-101782571D01*
X121698095Y-101830190D01*
X121317142Y-101830190D01*
X122079047Y-102401619D02*
X122840952Y-102401619D01*
X123079047Y-102306380D02*
X123079047Y-101306380D01*
X123317142Y-101306380D01*
X123460000Y-101354000D01*
X123555238Y-101449238D01*
X123602857Y-101544476D01*
X123650476Y-101734952D01*
X123650476Y-101877809D01*
X123602857Y-102068285D01*
X123555238Y-102163523D01*
X123460000Y-102258761D01*
X123317142Y-102306380D01*
X123079047Y-102306380D01*
X124460000Y-102258761D02*
X124364761Y-102306380D01*
X124174285Y-102306380D01*
X124079047Y-102258761D01*
X124031428Y-102163523D01*
X124031428Y-101782571D01*
X124079047Y-101687333D01*
X124174285Y-101639714D01*
X124364761Y-101639714D01*
X124460000Y-101687333D01*
X124507619Y-101782571D01*
X124507619Y-101877809D01*
X124031428Y-101973047D01*
X125079047Y-102306380D02*
X124983809Y-102258761D01*
X124936190Y-102163523D01*
X124936190Y-101306380D01*
X125888571Y-102306380D02*
X125888571Y-101782571D01*
X125840952Y-101687333D01*
X125745714Y-101639714D01*
X125555238Y-101639714D01*
X125460000Y-101687333D01*
X125888571Y-102258761D02*
X125793333Y-102306380D01*
X125555238Y-102306380D01*
X125460000Y-102258761D01*
X125412380Y-102163523D01*
X125412380Y-102068285D01*
X125460000Y-101973047D01*
X125555238Y-101925428D01*
X125793333Y-101925428D01*
X125888571Y-101877809D01*
X126269523Y-101639714D02*
X126507619Y-102306380D01*
X126745714Y-101639714D02*
X126507619Y-102306380D01*
X126412380Y-102544476D01*
X126364761Y-102592095D01*
X126269523Y-102639714D01*
X127650476Y-102306380D02*
X127079047Y-102306380D01*
X127364761Y-102306380D02*
X127364761Y-101306380D01*
X127269523Y-101449238D01*
X127174285Y-101544476D01*
X127079047Y-101592095D01*
G04 #@! TO.C,U4*
X129413095Y-115403380D02*
X129413095Y-116212904D01*
X129460714Y-116308142D01*
X129508333Y-116355761D01*
X129603571Y-116403380D01*
X129794047Y-116403380D01*
X129889285Y-116355761D01*
X129936904Y-116308142D01*
X129984523Y-116212904D01*
X129984523Y-115403380D01*
X130889285Y-115736714D02*
X130889285Y-116403380D01*
X130651190Y-115355761D02*
X130413095Y-116070047D01*
X131032142Y-116070047D01*
G04 #@! TO.C,1-Wire1*
X123642380Y-140914142D02*
X123642380Y-141485571D01*
X123642380Y-141199857D02*
X122642380Y-141199857D01*
X122785238Y-141295095D01*
X122880476Y-141390333D01*
X122928095Y-141485571D01*
X123261428Y-140485571D02*
X123261428Y-139723666D01*
X122642380Y-139342714D02*
X123642380Y-139104619D01*
X122928095Y-138914142D01*
X123642380Y-138723666D01*
X122642380Y-138485571D01*
X123642380Y-138104619D02*
X122975714Y-138104619D01*
X122642380Y-138104619D02*
X122690000Y-138152238D01*
X122737619Y-138104619D01*
X122690000Y-138057000D01*
X122642380Y-138104619D01*
X122737619Y-138104619D01*
X123642380Y-137628428D02*
X122975714Y-137628428D01*
X123166190Y-137628428D02*
X123070952Y-137580809D01*
X123023333Y-137533190D01*
X122975714Y-137437952D01*
X122975714Y-137342714D01*
X123594761Y-136628428D02*
X123642380Y-136723666D01*
X123642380Y-136914142D01*
X123594761Y-137009380D01*
X123499523Y-137057000D01*
X123118571Y-137057000D01*
X123023333Y-137009380D01*
X122975714Y-136914142D01*
X122975714Y-136723666D01*
X123023333Y-136628428D01*
X123118571Y-136580809D01*
X123213809Y-136580809D01*
X123309047Y-137057000D01*
X123642380Y-135628428D02*
X123642380Y-136199857D01*
X123642380Y-135914142D02*
X122642380Y-135914142D01*
X122785238Y-136009380D01*
X122880476Y-136104619D01*
X122928095Y-136199857D01*
G04 #@! TO.C,EC-5*
X123118571Y-127666523D02*
X123118571Y-127333190D01*
X123642380Y-127190333D02*
X123642380Y-127666523D01*
X122642380Y-127666523D01*
X122642380Y-127190333D01*
X123547142Y-126190333D02*
X123594761Y-126237952D01*
X123642380Y-126380809D01*
X123642380Y-126476047D01*
X123594761Y-126618904D01*
X123499523Y-126714142D01*
X123404285Y-126761761D01*
X123213809Y-126809380D01*
X123070952Y-126809380D01*
X122880476Y-126761761D01*
X122785238Y-126714142D01*
X122690000Y-126618904D01*
X122642380Y-126476047D01*
X122642380Y-126380809D01*
X122690000Y-126237952D01*
X122737619Y-126190333D01*
X123261428Y-125761761D02*
X123261428Y-124999857D01*
X122642380Y-124047476D02*
X122642380Y-124523666D01*
X123118571Y-124571285D01*
X123070952Y-124523666D01*
X123023333Y-124428428D01*
X123023333Y-124190333D01*
X123070952Y-124095095D01*
X123118571Y-124047476D01*
X123213809Y-123999857D01*
X123451904Y-123999857D01*
X123547142Y-124047476D01*
X123594761Y-124095095D01*
X123642380Y-124190333D01*
X123642380Y-124428428D01*
X123594761Y-124523666D01*
X123547142Y-124571285D01*
G04 #@! TO.C,J1*
X82089666Y-126682380D02*
X82089666Y-127396666D01*
X82042047Y-127539523D01*
X81946809Y-127634761D01*
X81803952Y-127682380D01*
X81708714Y-127682380D01*
X83089666Y-127682380D02*
X82518238Y-127682380D01*
X82803952Y-127682380D02*
X82803952Y-126682380D01*
X82708714Y-126825238D01*
X82613476Y-126920476D01*
X82518238Y-126968095D01*
G04 #@! TO.C,J2*
X102409666Y-136842380D02*
X102409666Y-137556666D01*
X102362047Y-137699523D01*
X102266809Y-137794761D01*
X102123952Y-137842380D01*
X102028714Y-137842380D01*
X102838238Y-136937619D02*
X102885857Y-136890000D01*
X102981095Y-136842380D01*
X103219190Y-136842380D01*
X103314428Y-136890000D01*
X103362047Y-136937619D01*
X103409666Y-137032857D01*
X103409666Y-137128095D01*
X103362047Y-137270952D01*
X102790619Y-137842380D01*
X103409666Y-137842380D01*
G04 #@! TO.C,RP1*
X113207880Y-136747166D02*
X112731690Y-137080500D01*
X113207880Y-137318595D02*
X112207880Y-137318595D01*
X112207880Y-136937642D01*
X112255500Y-136842404D01*
X112303119Y-136794785D01*
X112398357Y-136747166D01*
X112541214Y-136747166D01*
X112636452Y-136794785D01*
X112684071Y-136842404D01*
X112731690Y-136937642D01*
X112731690Y-137318595D01*
X113207880Y-136318595D02*
X112207880Y-136318595D01*
X112207880Y-135937642D01*
X112255500Y-135842404D01*
X112303119Y-135794785D01*
X112398357Y-135747166D01*
X112541214Y-135747166D01*
X112636452Y-135794785D01*
X112684071Y-135842404D01*
X112731690Y-135937642D01*
X112731690Y-136318595D01*
X113207880Y-134794785D02*
X113207880Y-135366214D01*
X113207880Y-135080500D02*
X112207880Y-135080500D01*
X112350738Y-135175738D01*
X112445976Y-135270976D01*
X112493595Y-135366214D01*
G04 #@! TO.C,J3*
X119046666Y-92797380D02*
X119046666Y-93511666D01*
X118999047Y-93654523D01*
X118903809Y-93749761D01*
X118760952Y-93797380D01*
X118665714Y-93797380D01*
X119427619Y-92797380D02*
X120046666Y-92797380D01*
X119713333Y-93178333D01*
X119856190Y-93178333D01*
X119951428Y-93225952D01*
X119999047Y-93273571D01*
X120046666Y-93368809D01*
X120046666Y-93606904D01*
X119999047Y-93702142D01*
X119951428Y-93749761D01*
X119856190Y-93797380D01*
X119570476Y-93797380D01*
X119475238Y-93749761D01*
X119427619Y-93702142D01*
G04 #@! TO.C,J4*
X131111666Y-93432380D02*
X131111666Y-94146666D01*
X131064047Y-94289523D01*
X130968809Y-94384761D01*
X130825952Y-94432380D01*
X130730714Y-94432380D01*
X132016428Y-93765714D02*
X132016428Y-94432380D01*
X131778333Y-93384761D02*
X131540238Y-94099047D01*
X132159285Y-94099047D01*
G04 #@! TO.C,J5*
X144589380Y-95456333D02*
X145303666Y-95456333D01*
X145446523Y-95503952D01*
X145541761Y-95599190D01*
X145589380Y-95742047D01*
X145589380Y-95837285D01*
X144589380Y-94503952D02*
X144589380Y-94980142D01*
X145065571Y-95027761D01*
X145017952Y-94980142D01*
X144970333Y-94884904D01*
X144970333Y-94646809D01*
X145017952Y-94551571D01*
X145065571Y-94503952D01*
X145160809Y-94456333D01*
X145398904Y-94456333D01*
X145494142Y-94503952D01*
X145541761Y-94551571D01*
X145589380Y-94646809D01*
X145589380Y-94884904D01*
X145541761Y-94980142D01*
X145494142Y-95027761D01*
G04 #@! TO.C,J6*
X117205166Y-142414880D02*
X117205166Y-143129166D01*
X117157547Y-143272023D01*
X117062309Y-143367261D01*
X116919452Y-143414880D01*
X116824214Y-143414880D01*
X118109928Y-142414880D02*
X117919452Y-142414880D01*
X117824214Y-142462500D01*
X117776595Y-142510119D01*
X117681357Y-142652976D01*
X117633738Y-142843452D01*
X117633738Y-143224404D01*
X117681357Y-143319642D01*
X117728976Y-143367261D01*
X117824214Y-143414880D01*
X118014690Y-143414880D01*
X118109928Y-143367261D01*
X118157547Y-143319642D01*
X118205166Y-143224404D01*
X118205166Y-142986309D01*
X118157547Y-142891071D01*
X118109928Y-142843452D01*
X118014690Y-142795833D01*
X117824214Y-142795833D01*
X117728976Y-142843452D01*
X117681357Y-142891071D01*
X117633738Y-142986309D01*
G04 #@! TO.C,J7*
X79613380Y-144922833D02*
X80327666Y-144922833D01*
X80470523Y-144970452D01*
X80565761Y-145065690D01*
X80613380Y-145208547D01*
X80613380Y-145303785D01*
X79613380Y-144541880D02*
X79613380Y-143875214D01*
X80613380Y-144303785D01*
G04 #@! TO.C,J8*
X137080666Y-145629380D02*
X137080666Y-146343666D01*
X137033047Y-146486523D01*
X136937809Y-146581761D01*
X136794952Y-146629380D01*
X136699714Y-146629380D01*
X137699714Y-146057952D02*
X137604476Y-146010333D01*
X137556857Y-145962714D01*
X137509238Y-145867476D01*
X137509238Y-145819857D01*
X137556857Y-145724619D01*
X137604476Y-145677000D01*
X137699714Y-145629380D01*
X137890190Y-145629380D01*
X137985428Y-145677000D01*
X138033047Y-145724619D01*
X138080666Y-145819857D01*
X138080666Y-145867476D01*
X138033047Y-145962714D01*
X137985428Y-146010333D01*
X137890190Y-146057952D01*
X137699714Y-146057952D01*
X137604476Y-146105571D01*
X137556857Y-146153190D01*
X137509238Y-146248428D01*
X137509238Y-146438904D01*
X137556857Y-146534142D01*
X137604476Y-146581761D01*
X137699714Y-146629380D01*
X137890190Y-146629380D01*
X137985428Y-146581761D01*
X138033047Y-146534142D01*
X138080666Y-146438904D01*
X138080666Y-146248428D01*
X138033047Y-146153190D01*
X137985428Y-146105571D01*
X137890190Y-146057952D01*
G04 #@! TO.C,J9*
X137334666Y-118832380D02*
X137334666Y-119546666D01*
X137287047Y-119689523D01*
X137191809Y-119784761D01*
X137048952Y-119832380D01*
X136953714Y-119832380D01*
X137858476Y-119832380D02*
X138048952Y-119832380D01*
X138144190Y-119784761D01*
X138191809Y-119737142D01*
X138287047Y-119594285D01*
X138334666Y-119403809D01*
X138334666Y-119022857D01*
X138287047Y-118927619D01*
X138239428Y-118880000D01*
X138144190Y-118832380D01*
X137953714Y-118832380D01*
X137858476Y-118880000D01*
X137810857Y-118927619D01*
X137763238Y-119022857D01*
X137763238Y-119260952D01*
X137810857Y-119356190D01*
X137858476Y-119403809D01*
X137953714Y-119451428D01*
X138144190Y-119451428D01*
X138239428Y-119403809D01*
X138287047Y-119356190D01*
X138334666Y-119260952D01*
G04 #@! TO.C,U1*
X125920380Y-157860904D02*
X126729904Y-157860904D01*
X126825142Y-157813285D01*
X126872761Y-157765666D01*
X126920380Y-157670428D01*
X126920380Y-157479952D01*
X126872761Y-157384714D01*
X126825142Y-157337095D01*
X126729904Y-157289476D01*
X125920380Y-157289476D01*
X126920380Y-156289476D02*
X126920380Y-156860904D01*
X126920380Y-156575190D02*
X125920380Y-156575190D01*
X126063238Y-156670428D01*
X126158476Y-156765666D01*
X126206095Y-156860904D01*
G04 #@! TO.C,RD1*
X115157333Y-119832380D02*
X114824000Y-119356190D01*
X114585904Y-119832380D02*
X114585904Y-118832380D01*
X114966857Y-118832380D01*
X115062095Y-118880000D01*
X115109714Y-118927619D01*
X115157333Y-119022857D01*
X115157333Y-119165714D01*
X115109714Y-119260952D01*
X115062095Y-119308571D01*
X114966857Y-119356190D01*
X114585904Y-119356190D01*
X115585904Y-119832380D02*
X115585904Y-118832380D01*
X115824000Y-118832380D01*
X115966857Y-118880000D01*
X116062095Y-118975238D01*
X116109714Y-119070476D01*
X116157333Y-119260952D01*
X116157333Y-119403809D01*
X116109714Y-119594285D01*
X116062095Y-119689523D01*
X115966857Y-119784761D01*
X115824000Y-119832380D01*
X115585904Y-119832380D01*
X117109714Y-119832380D02*
X116538285Y-119832380D01*
X116824000Y-119832380D02*
X116824000Y-118832380D01*
X116728761Y-118975238D01*
X116633523Y-119070476D01*
X116538285Y-119118095D01*
G04 #@! TO.C,RD2*
X118713333Y-119832380D02*
X118380000Y-119356190D01*
X118141904Y-119832380D02*
X118141904Y-118832380D01*
X118522857Y-118832380D01*
X118618095Y-118880000D01*
X118665714Y-118927619D01*
X118713333Y-119022857D01*
X118713333Y-119165714D01*
X118665714Y-119260952D01*
X118618095Y-119308571D01*
X118522857Y-119356190D01*
X118141904Y-119356190D01*
X119141904Y-119832380D02*
X119141904Y-118832380D01*
X119380000Y-118832380D01*
X119522857Y-118880000D01*
X119618095Y-118975238D01*
X119665714Y-119070476D01*
X119713333Y-119260952D01*
X119713333Y-119403809D01*
X119665714Y-119594285D01*
X119618095Y-119689523D01*
X119522857Y-119784761D01*
X119380000Y-119832380D01*
X119141904Y-119832380D01*
X120094285Y-118927619D02*
X120141904Y-118880000D01*
X120237142Y-118832380D01*
X120475238Y-118832380D01*
X120570476Y-118880000D01*
X120618095Y-118927619D01*
X120665714Y-119022857D01*
X120665714Y-119118095D01*
X120618095Y-119260952D01*
X120046666Y-119832380D01*
X120665714Y-119832380D01*
G04 #@! TD*
M02*
