G04 #@! TF.GenerationSoftware,KiCad,Pcbnew,5.0.2-bee76a0~70~ubuntu18.04.1*
G04 #@! TF.CreationDate,2019-07-26T20:49:16-04:00*
G04 #@! TF.ProjectId,knuth-gateway,6b6e7574-682d-4676-9174-657761792e6b,rev?*
G04 #@! TF.SameCoordinates,Original*
G04 #@! TF.FileFunction,Soldermask,Bot*
G04 #@! TF.FilePolarity,Negative*
%FSLAX46Y46*%
G04 Gerber Fmt 4.6, Leading zero omitted, Abs format (unit mm)*
G04 Created by KiCad (PCBNEW 5.0.2-bee76a0~70~ubuntu18.04.1) date Fri 26 Jul 2019 08:49:16 PM EDT*
%MOMM*%
%LPD*%
G01*
G04 APERTURE LIST*
%ADD10C,0.100000*%
G04 APERTURE END LIST*
D10*
G36*
X252840442Y-115945518D02*
X252906627Y-115952037D01*
X253019853Y-115986384D01*
X253076467Y-116003557D01*
X253215087Y-116077652D01*
X253232991Y-116087222D01*
X253268729Y-116116552D01*
X253370186Y-116199814D01*
X253443227Y-116288816D01*
X253482778Y-116337009D01*
X253482779Y-116337011D01*
X253566443Y-116493533D01*
X253566443Y-116493534D01*
X253617963Y-116663373D01*
X253635359Y-116840000D01*
X253617963Y-117016627D01*
X253606019Y-117056000D01*
X253566443Y-117186467D01*
X253492348Y-117325087D01*
X253482778Y-117342991D01*
X253453448Y-117378729D01*
X253370186Y-117480186D01*
X253268729Y-117563448D01*
X253232991Y-117592778D01*
X253232989Y-117592779D01*
X253076467Y-117676443D01*
X253019853Y-117693616D01*
X252906627Y-117727963D01*
X252840442Y-117734482D01*
X252774260Y-117741000D01*
X252685740Y-117741000D01*
X252619558Y-117734482D01*
X252553373Y-117727963D01*
X252440147Y-117693616D01*
X252383533Y-117676443D01*
X252227011Y-117592779D01*
X252227009Y-117592778D01*
X252191271Y-117563448D01*
X252089814Y-117480186D01*
X252006552Y-117378729D01*
X251977222Y-117342991D01*
X251967652Y-117325087D01*
X251893557Y-117186467D01*
X251853981Y-117056000D01*
X251842037Y-117016627D01*
X251824641Y-116840000D01*
X251842037Y-116663373D01*
X251893557Y-116493534D01*
X251893557Y-116493533D01*
X251977221Y-116337011D01*
X251977222Y-116337009D01*
X252016773Y-116288816D01*
X252089814Y-116199814D01*
X252191271Y-116116552D01*
X252227009Y-116087222D01*
X252244913Y-116077652D01*
X252383533Y-116003557D01*
X252440147Y-115986384D01*
X252553373Y-115952037D01*
X252619558Y-115945518D01*
X252685740Y-115939000D01*
X252774260Y-115939000D01*
X252840442Y-115945518D01*
X252840442Y-115945518D01*
G37*
G36*
X245358228Y-115386703D02*
X245513100Y-115450853D01*
X245652481Y-115543985D01*
X245771015Y-115662519D01*
X245864147Y-115801900D01*
X245928297Y-115956772D01*
X245961000Y-116121184D01*
X245961000Y-116288816D01*
X245928297Y-116453228D01*
X245864147Y-116608100D01*
X245771015Y-116747481D01*
X245652481Y-116866015D01*
X245513100Y-116959147D01*
X245358228Y-117023297D01*
X245193816Y-117056000D01*
X245026184Y-117056000D01*
X244861772Y-117023297D01*
X244706900Y-116959147D01*
X244567519Y-116866015D01*
X244448985Y-116747481D01*
X244355853Y-116608100D01*
X244291703Y-116453228D01*
X244259000Y-116288816D01*
X244259000Y-116121184D01*
X244291703Y-115956772D01*
X244355853Y-115801900D01*
X244448985Y-115662519D01*
X244567519Y-115543985D01*
X244706900Y-115450853D01*
X244861772Y-115386703D01*
X245026184Y-115354000D01*
X245193816Y-115354000D01*
X245358228Y-115386703D01*
X245358228Y-115386703D01*
G37*
G36*
X252840443Y-113405519D02*
X252906627Y-113412037D01*
X253019853Y-113446384D01*
X253076467Y-113463557D01*
X253215087Y-113537652D01*
X253232991Y-113547222D01*
X253268729Y-113576552D01*
X253370186Y-113659814D01*
X253453448Y-113761271D01*
X253482778Y-113797009D01*
X253482779Y-113797011D01*
X253566443Y-113953533D01*
X253566443Y-113953534D01*
X253617963Y-114123373D01*
X253635359Y-114300000D01*
X253617963Y-114476627D01*
X253583616Y-114589853D01*
X253566443Y-114646467D01*
X253492348Y-114785087D01*
X253482778Y-114802991D01*
X253453448Y-114838729D01*
X253370186Y-114940186D01*
X253268729Y-115023448D01*
X253232991Y-115052778D01*
X253232989Y-115052779D01*
X253076467Y-115136443D01*
X253019853Y-115153616D01*
X252906627Y-115187963D01*
X252840442Y-115194482D01*
X252774260Y-115201000D01*
X252685740Y-115201000D01*
X252619558Y-115194482D01*
X252553373Y-115187963D01*
X252440147Y-115153616D01*
X252383533Y-115136443D01*
X252227011Y-115052779D01*
X252227009Y-115052778D01*
X252191271Y-115023448D01*
X252089814Y-114940186D01*
X252006552Y-114838729D01*
X251977222Y-114802991D01*
X251967652Y-114785087D01*
X251893557Y-114646467D01*
X251876384Y-114589853D01*
X251842037Y-114476627D01*
X251824641Y-114300000D01*
X251842037Y-114123373D01*
X251893557Y-113953534D01*
X251893557Y-113953533D01*
X251977221Y-113797011D01*
X251977222Y-113797009D01*
X252006552Y-113761271D01*
X252089814Y-113659814D01*
X252191271Y-113576552D01*
X252227009Y-113547222D01*
X252244913Y-113537652D01*
X252383533Y-113463557D01*
X252440147Y-113446384D01*
X252553373Y-113412037D01*
X252619557Y-113405519D01*
X252685740Y-113399000D01*
X252774260Y-113399000D01*
X252840443Y-113405519D01*
X252840443Y-113405519D01*
G37*
G36*
X239661000Y-113931000D02*
X237859000Y-113931000D01*
X237859000Y-112129000D01*
X239661000Y-112129000D01*
X239661000Y-113931000D01*
X239661000Y-113931000D01*
G37*
G36*
X253631000Y-112661000D02*
X251829000Y-112661000D01*
X251829000Y-110859000D01*
X253631000Y-110859000D01*
X253631000Y-112661000D01*
X253631000Y-112661000D01*
G37*
G36*
X238870442Y-109595518D02*
X238936627Y-109602037D01*
X239049853Y-109636384D01*
X239106467Y-109653557D01*
X239245087Y-109727652D01*
X239262991Y-109737222D01*
X239298729Y-109766552D01*
X239400186Y-109849814D01*
X239483448Y-109951271D01*
X239512778Y-109987009D01*
X239512779Y-109987011D01*
X239596443Y-110143533D01*
X239596443Y-110143534D01*
X239647963Y-110313373D01*
X239665359Y-110490000D01*
X239647963Y-110666627D01*
X239613616Y-110779853D01*
X239596443Y-110836467D01*
X239522348Y-110975087D01*
X239512778Y-110992991D01*
X239483448Y-111028729D01*
X239400186Y-111130186D01*
X239298729Y-111213448D01*
X239262991Y-111242778D01*
X239262989Y-111242779D01*
X239106467Y-111326443D01*
X239049853Y-111343616D01*
X238936627Y-111377963D01*
X238870443Y-111384481D01*
X238804260Y-111391000D01*
X238715740Y-111391000D01*
X238649557Y-111384481D01*
X238583373Y-111377963D01*
X238470147Y-111343616D01*
X238413533Y-111326443D01*
X238257011Y-111242779D01*
X238257009Y-111242778D01*
X238221271Y-111213448D01*
X238119814Y-111130186D01*
X238036552Y-111028729D01*
X238007222Y-110992991D01*
X237997652Y-110975087D01*
X237923557Y-110836467D01*
X237906384Y-110779853D01*
X237872037Y-110666627D01*
X237854641Y-110490000D01*
X237872037Y-110313373D01*
X237923557Y-110143534D01*
X237923557Y-110143533D01*
X238007221Y-109987011D01*
X238007222Y-109987009D01*
X238036552Y-109951271D01*
X238119814Y-109849814D01*
X238221271Y-109766552D01*
X238257009Y-109737222D01*
X238274913Y-109727652D01*
X238413533Y-109653557D01*
X238470147Y-109636384D01*
X238583373Y-109602037D01*
X238649558Y-109595518D01*
X238715740Y-109589000D01*
X238804260Y-109589000D01*
X238870442Y-109595518D01*
X238870442Y-109595518D01*
G37*
G36*
X245276821Y-107746313D02*
X245276824Y-107746314D01*
X245276825Y-107746314D01*
X245437239Y-107794975D01*
X245437241Y-107794976D01*
X245437244Y-107794977D01*
X245585078Y-107873995D01*
X245714659Y-107980341D01*
X245821005Y-108109922D01*
X245900023Y-108257756D01*
X245948687Y-108418179D01*
X245965117Y-108585000D01*
X245948687Y-108751821D01*
X245948686Y-108751824D01*
X245948686Y-108751825D01*
X245918602Y-108851000D01*
X245900023Y-108912244D01*
X245821005Y-109060078D01*
X245714659Y-109189659D01*
X245585078Y-109296005D01*
X245437244Y-109375023D01*
X245437241Y-109375024D01*
X245437239Y-109375025D01*
X245276825Y-109423686D01*
X245276824Y-109423686D01*
X245276821Y-109423687D01*
X245151804Y-109436000D01*
X245068196Y-109436000D01*
X244943179Y-109423687D01*
X244943176Y-109423686D01*
X244943175Y-109423686D01*
X244782761Y-109375025D01*
X244782759Y-109375024D01*
X244782756Y-109375023D01*
X244634922Y-109296005D01*
X244505341Y-109189659D01*
X244398995Y-109060078D01*
X244319977Y-108912244D01*
X244301399Y-108851000D01*
X244271314Y-108751825D01*
X244271314Y-108751824D01*
X244271313Y-108751821D01*
X244254883Y-108585000D01*
X244271313Y-108418179D01*
X244319977Y-108257756D01*
X244398995Y-108109922D01*
X244505341Y-107980341D01*
X244634922Y-107873995D01*
X244782756Y-107794977D01*
X244782759Y-107794976D01*
X244782761Y-107794975D01*
X244943175Y-107746314D01*
X244943176Y-107746314D01*
X244943179Y-107746313D01*
X245068196Y-107734000D01*
X245151804Y-107734000D01*
X245276821Y-107746313D01*
X245276821Y-107746313D01*
G37*
G36*
X238870442Y-107055518D02*
X238936627Y-107062037D01*
X239049853Y-107096384D01*
X239106467Y-107113557D01*
X239245087Y-107187652D01*
X239262991Y-107197222D01*
X239298729Y-107226552D01*
X239400186Y-107309814D01*
X239483448Y-107411271D01*
X239512778Y-107447009D01*
X239512779Y-107447011D01*
X239596443Y-107603533D01*
X239596443Y-107603534D01*
X239647963Y-107773373D01*
X239665359Y-107950000D01*
X239647963Y-108126627D01*
X239613616Y-108239853D01*
X239596443Y-108296467D01*
X239531388Y-108418175D01*
X239512778Y-108452991D01*
X239483448Y-108488729D01*
X239400186Y-108590186D01*
X239298729Y-108673448D01*
X239262991Y-108702778D01*
X239262989Y-108702779D01*
X239106467Y-108786443D01*
X239049853Y-108803616D01*
X238936627Y-108837963D01*
X238870442Y-108844482D01*
X238804260Y-108851000D01*
X238715740Y-108851000D01*
X238649558Y-108844482D01*
X238583373Y-108837963D01*
X238470147Y-108803616D01*
X238413533Y-108786443D01*
X238257011Y-108702779D01*
X238257009Y-108702778D01*
X238221271Y-108673448D01*
X238119814Y-108590186D01*
X238036552Y-108488729D01*
X238007222Y-108452991D01*
X237988612Y-108418175D01*
X237923557Y-108296467D01*
X237906384Y-108239853D01*
X237872037Y-108126627D01*
X237854641Y-107950000D01*
X237872037Y-107773373D01*
X237923557Y-107603534D01*
X237923557Y-107603533D01*
X238007221Y-107447011D01*
X238007222Y-107447009D01*
X238036552Y-107411271D01*
X238119814Y-107309814D01*
X238221271Y-107226552D01*
X238257009Y-107197222D01*
X238274913Y-107187652D01*
X238413533Y-107113557D01*
X238470147Y-107096384D01*
X238583373Y-107062037D01*
X238649558Y-107055518D01*
X238715740Y-107049000D01*
X238804260Y-107049000D01*
X238870442Y-107055518D01*
X238870442Y-107055518D01*
G37*
G36*
X238870443Y-104515519D02*
X238936627Y-104522037D01*
X239049853Y-104556384D01*
X239106467Y-104573557D01*
X239236363Y-104642989D01*
X239262991Y-104657222D01*
X239298729Y-104686552D01*
X239400186Y-104769814D01*
X239483448Y-104871271D01*
X239512778Y-104907009D01*
X239512779Y-104907011D01*
X239596443Y-105063533D01*
X239596443Y-105063534D01*
X239647963Y-105233373D01*
X239665359Y-105410000D01*
X239647963Y-105586627D01*
X239613616Y-105699853D01*
X239596443Y-105756467D01*
X239522348Y-105895087D01*
X239512778Y-105912991D01*
X239483448Y-105948729D01*
X239400186Y-106050186D01*
X239298729Y-106133448D01*
X239262991Y-106162778D01*
X239262989Y-106162779D01*
X239106467Y-106246443D01*
X239049853Y-106263616D01*
X238936627Y-106297963D01*
X238870442Y-106304482D01*
X238804260Y-106311000D01*
X238715740Y-106311000D01*
X238649558Y-106304482D01*
X238583373Y-106297963D01*
X238470147Y-106263616D01*
X238413533Y-106246443D01*
X238257011Y-106162779D01*
X238257009Y-106162778D01*
X238221271Y-106133448D01*
X238119814Y-106050186D01*
X238036552Y-105948729D01*
X238007222Y-105912991D01*
X237997652Y-105895087D01*
X237923557Y-105756467D01*
X237906384Y-105699853D01*
X237872037Y-105586627D01*
X237854641Y-105410000D01*
X237872037Y-105233373D01*
X237923557Y-105063534D01*
X237923557Y-105063533D01*
X238007221Y-104907011D01*
X238007222Y-104907009D01*
X238036552Y-104871271D01*
X238119814Y-104769814D01*
X238221271Y-104686552D01*
X238257009Y-104657222D01*
X238283637Y-104642989D01*
X238413533Y-104573557D01*
X238470147Y-104556384D01*
X238583373Y-104522037D01*
X238649557Y-104515519D01*
X238715740Y-104509000D01*
X238804260Y-104509000D01*
X238870443Y-104515519D01*
X238870443Y-104515519D01*
G37*
G36*
X252840443Y-103245519D02*
X252906627Y-103252037D01*
X253019853Y-103286384D01*
X253076467Y-103303557D01*
X253154146Y-103345078D01*
X253232991Y-103387222D01*
X253268729Y-103416552D01*
X253370186Y-103499814D01*
X253453448Y-103601271D01*
X253482778Y-103637009D01*
X253482779Y-103637011D01*
X253566443Y-103793533D01*
X253566443Y-103793534D01*
X253617963Y-103963373D01*
X253635359Y-104140000D01*
X253617963Y-104316627D01*
X253583616Y-104429853D01*
X253566443Y-104486467D01*
X253547430Y-104522037D01*
X253482778Y-104642991D01*
X253453448Y-104678729D01*
X253370186Y-104780186D01*
X253268729Y-104863448D01*
X253232991Y-104892778D01*
X253232989Y-104892779D01*
X253076467Y-104976443D01*
X253019853Y-104993616D01*
X252906627Y-105027963D01*
X252840442Y-105034482D01*
X252774260Y-105041000D01*
X252685740Y-105041000D01*
X252619557Y-105034481D01*
X252553373Y-105027963D01*
X252440147Y-104993616D01*
X252383533Y-104976443D01*
X252227011Y-104892779D01*
X252227009Y-104892778D01*
X252191271Y-104863448D01*
X252089814Y-104780186D01*
X252006552Y-104678729D01*
X251977222Y-104642991D01*
X251912570Y-104522037D01*
X251893557Y-104486467D01*
X251876384Y-104429853D01*
X251842037Y-104316627D01*
X251824641Y-104140000D01*
X251842037Y-103963373D01*
X251893557Y-103793534D01*
X251893557Y-103793533D01*
X251977221Y-103637011D01*
X251977222Y-103637009D01*
X252006552Y-103601271D01*
X252089814Y-103499814D01*
X252191271Y-103416552D01*
X252227009Y-103387222D01*
X252305854Y-103345078D01*
X252383533Y-103303557D01*
X252440147Y-103286384D01*
X252553373Y-103252037D01*
X252619558Y-103245518D01*
X252685740Y-103239000D01*
X252774260Y-103239000D01*
X252840443Y-103245519D01*
X252840443Y-103245519D01*
G37*
G36*
X219341000Y-103771000D02*
X217539000Y-103771000D01*
X217539000Y-101969000D01*
X219341000Y-101969000D01*
X219341000Y-103771000D01*
X219341000Y-103771000D01*
G37*
G36*
X238870442Y-101975518D02*
X238936627Y-101982037D01*
X239049853Y-102016384D01*
X239106467Y-102033557D01*
X239193311Y-102079977D01*
X239262991Y-102117222D01*
X239298729Y-102146552D01*
X239400186Y-102229814D01*
X239483448Y-102331271D01*
X239512778Y-102367009D01*
X239512779Y-102367011D01*
X239596443Y-102523533D01*
X239613616Y-102580147D01*
X239647963Y-102693373D01*
X239665359Y-102870000D01*
X239647963Y-103046627D01*
X239613616Y-103159853D01*
X239596443Y-103216467D01*
X239577430Y-103252037D01*
X239512778Y-103372991D01*
X239483448Y-103408729D01*
X239400186Y-103510186D01*
X239298729Y-103593448D01*
X239262991Y-103622778D01*
X239262989Y-103622779D01*
X239106467Y-103706443D01*
X239099069Y-103708687D01*
X238936627Y-103757963D01*
X238870443Y-103764481D01*
X238804260Y-103771000D01*
X238715740Y-103771000D01*
X238649557Y-103764481D01*
X238583373Y-103757963D01*
X238420931Y-103708687D01*
X238413533Y-103706443D01*
X238257011Y-103622779D01*
X238257009Y-103622778D01*
X238221271Y-103593448D01*
X238119814Y-103510186D01*
X238036552Y-103408729D01*
X238007222Y-103372991D01*
X237942570Y-103252037D01*
X237923557Y-103216467D01*
X237906384Y-103159853D01*
X237872037Y-103046627D01*
X237854641Y-102870000D01*
X237872037Y-102693373D01*
X237906384Y-102580147D01*
X237923557Y-102523533D01*
X238007221Y-102367011D01*
X238007222Y-102367009D01*
X238036552Y-102331271D01*
X238119814Y-102229814D01*
X238221271Y-102146552D01*
X238257009Y-102117222D01*
X238326689Y-102079977D01*
X238413533Y-102033557D01*
X238470147Y-102016384D01*
X238583373Y-101982037D01*
X238649558Y-101975518D01*
X238715740Y-101969000D01*
X238804260Y-101969000D01*
X238870442Y-101975518D01*
X238870442Y-101975518D01*
G37*
G36*
X245276821Y-102031313D02*
X245276824Y-102031314D01*
X245276825Y-102031314D01*
X245437239Y-102079975D01*
X245437241Y-102079976D01*
X245437244Y-102079977D01*
X245585078Y-102158995D01*
X245714659Y-102265341D01*
X245821005Y-102394922D01*
X245900023Y-102542756D01*
X245900024Y-102542759D01*
X245900025Y-102542761D01*
X245945713Y-102693375D01*
X245948687Y-102703179D01*
X245965117Y-102870000D01*
X245948687Y-103036821D01*
X245948686Y-103036824D01*
X245948686Y-103036825D01*
X245945713Y-103046627D01*
X245900023Y-103197244D01*
X245821005Y-103345078D01*
X245714659Y-103474659D01*
X245585078Y-103581005D01*
X245437244Y-103660023D01*
X245437241Y-103660024D01*
X245437239Y-103660025D01*
X245276825Y-103708686D01*
X245276824Y-103708686D01*
X245276821Y-103708687D01*
X245151804Y-103721000D01*
X245068196Y-103721000D01*
X244943179Y-103708687D01*
X244943176Y-103708686D01*
X244943175Y-103708686D01*
X244782761Y-103660025D01*
X244782759Y-103660024D01*
X244782756Y-103660023D01*
X244634922Y-103581005D01*
X244505341Y-103474659D01*
X244398995Y-103345078D01*
X244319977Y-103197244D01*
X244274288Y-103046627D01*
X244271314Y-103036825D01*
X244271314Y-103036824D01*
X244271313Y-103036821D01*
X244254883Y-102870000D01*
X244271313Y-102703179D01*
X244274287Y-102693375D01*
X244319975Y-102542761D01*
X244319976Y-102542759D01*
X244319977Y-102542756D01*
X244398995Y-102394922D01*
X244505341Y-102265341D01*
X244634922Y-102158995D01*
X244782756Y-102079977D01*
X244782759Y-102079976D01*
X244782761Y-102079975D01*
X244943175Y-102031314D01*
X244943176Y-102031314D01*
X244943179Y-102031313D01*
X245068196Y-102019000D01*
X245151804Y-102019000D01*
X245276821Y-102031313D01*
X245276821Y-102031313D01*
G37*
G36*
X252840443Y-100705519D02*
X252906627Y-100712037D01*
X253019853Y-100746384D01*
X253076467Y-100763557D01*
X253206363Y-100832989D01*
X253232991Y-100847222D01*
X253268729Y-100876552D01*
X253370186Y-100959814D01*
X253453448Y-101061271D01*
X253482778Y-101097009D01*
X253482779Y-101097011D01*
X253566443Y-101253533D01*
X253566443Y-101253534D01*
X253617963Y-101423373D01*
X253635359Y-101600000D01*
X253617963Y-101776627D01*
X253583616Y-101889853D01*
X253566443Y-101946467D01*
X253519892Y-102033557D01*
X253482778Y-102102991D01*
X253453448Y-102138729D01*
X253370186Y-102240186D01*
X253268729Y-102323448D01*
X253232991Y-102352778D01*
X253232989Y-102352779D01*
X253076467Y-102436443D01*
X253019853Y-102453616D01*
X252906627Y-102487963D01*
X252840442Y-102494482D01*
X252774260Y-102501000D01*
X252685740Y-102501000D01*
X252619558Y-102494482D01*
X252553373Y-102487963D01*
X252440147Y-102453616D01*
X252383533Y-102436443D01*
X252227011Y-102352779D01*
X252227009Y-102352778D01*
X252191271Y-102323448D01*
X252089814Y-102240186D01*
X252006552Y-102138729D01*
X251977222Y-102102991D01*
X251940108Y-102033557D01*
X251893557Y-101946467D01*
X251876384Y-101889853D01*
X251842037Y-101776627D01*
X251824641Y-101600000D01*
X251842037Y-101423373D01*
X251893557Y-101253534D01*
X251893557Y-101253533D01*
X251977221Y-101097011D01*
X251977222Y-101097009D01*
X252006552Y-101061271D01*
X252089814Y-100959814D01*
X252191271Y-100876552D01*
X252227009Y-100847222D01*
X252253637Y-100832989D01*
X252383533Y-100763557D01*
X252440147Y-100746384D01*
X252553373Y-100712037D01*
X252619557Y-100705519D01*
X252685740Y-100699000D01*
X252774260Y-100699000D01*
X252840443Y-100705519D01*
X252840443Y-100705519D01*
G37*
G36*
X218550443Y-99435519D02*
X218616627Y-99442037D01*
X218729853Y-99476384D01*
X218786467Y-99493557D01*
X218925087Y-99567652D01*
X218942991Y-99577222D01*
X218978729Y-99606552D01*
X219080186Y-99689814D01*
X219163448Y-99791271D01*
X219192778Y-99827009D01*
X219192779Y-99827011D01*
X219276443Y-99983533D01*
X219276443Y-99983534D01*
X219327963Y-100153373D01*
X219345359Y-100330000D01*
X219327963Y-100506627D01*
X219293616Y-100619853D01*
X219276443Y-100676467D01*
X219257430Y-100712037D01*
X219192778Y-100832991D01*
X219163448Y-100868729D01*
X219080186Y-100970186D01*
X218978729Y-101053448D01*
X218942991Y-101082778D01*
X218942989Y-101082779D01*
X218786467Y-101166443D01*
X218729853Y-101183616D01*
X218616627Y-101217963D01*
X218550443Y-101224481D01*
X218484260Y-101231000D01*
X218395740Y-101231000D01*
X218329558Y-101224482D01*
X218263373Y-101217963D01*
X218150147Y-101183616D01*
X218093533Y-101166443D01*
X217937011Y-101082779D01*
X217937009Y-101082778D01*
X217901271Y-101053448D01*
X217799814Y-100970186D01*
X217716552Y-100868729D01*
X217687222Y-100832991D01*
X217622570Y-100712037D01*
X217603557Y-100676467D01*
X217586384Y-100619853D01*
X217552037Y-100506627D01*
X217534641Y-100330000D01*
X217552037Y-100153373D01*
X217603557Y-99983534D01*
X217603557Y-99983533D01*
X217687221Y-99827011D01*
X217687222Y-99827009D01*
X217716552Y-99791271D01*
X217799814Y-99689814D01*
X217901271Y-99606552D01*
X217937009Y-99577222D01*
X217954913Y-99567652D01*
X218093533Y-99493557D01*
X218150147Y-99476384D01*
X218263373Y-99442037D01*
X218329558Y-99435518D01*
X218395740Y-99429000D01*
X218484260Y-99429000D01*
X218550443Y-99435519D01*
X218550443Y-99435519D01*
G37*
G36*
X238870443Y-99435519D02*
X238936627Y-99442037D01*
X239049853Y-99476384D01*
X239106467Y-99493557D01*
X239245087Y-99567652D01*
X239262991Y-99577222D01*
X239298729Y-99606552D01*
X239400186Y-99689814D01*
X239483448Y-99791271D01*
X239512778Y-99827009D01*
X239512779Y-99827011D01*
X239596443Y-99983533D01*
X239596443Y-99983534D01*
X239647963Y-100153373D01*
X239665359Y-100330000D01*
X239647963Y-100506627D01*
X239613616Y-100619853D01*
X239596443Y-100676467D01*
X239577430Y-100712037D01*
X239512778Y-100832991D01*
X239483448Y-100868729D01*
X239400186Y-100970186D01*
X239298729Y-101053448D01*
X239262991Y-101082778D01*
X239262989Y-101082779D01*
X239106467Y-101166443D01*
X239049853Y-101183616D01*
X238936627Y-101217963D01*
X238870443Y-101224481D01*
X238804260Y-101231000D01*
X238715740Y-101231000D01*
X238649558Y-101224482D01*
X238583373Y-101217963D01*
X238470147Y-101183616D01*
X238413533Y-101166443D01*
X238257011Y-101082779D01*
X238257009Y-101082778D01*
X238221271Y-101053448D01*
X238119814Y-100970186D01*
X238036552Y-100868729D01*
X238007222Y-100832991D01*
X237942570Y-100712037D01*
X237923557Y-100676467D01*
X237906384Y-100619853D01*
X237872037Y-100506627D01*
X237854641Y-100330000D01*
X237872037Y-100153373D01*
X237923557Y-99983534D01*
X237923557Y-99983533D01*
X238007221Y-99827011D01*
X238007222Y-99827009D01*
X238036552Y-99791271D01*
X238119814Y-99689814D01*
X238221271Y-99606552D01*
X238257009Y-99577222D01*
X238274913Y-99567652D01*
X238413533Y-99493557D01*
X238470147Y-99476384D01*
X238583373Y-99442037D01*
X238649558Y-99435518D01*
X238715740Y-99429000D01*
X238804260Y-99429000D01*
X238870443Y-99435519D01*
X238870443Y-99435519D01*
G37*
G36*
X253631000Y-99961000D02*
X251829000Y-99961000D01*
X251829000Y-98159000D01*
X253631000Y-98159000D01*
X253631000Y-99961000D01*
X253631000Y-99961000D01*
G37*
G36*
X218550442Y-96895518D02*
X218616627Y-96902037D01*
X218729853Y-96936384D01*
X218786467Y-96953557D01*
X218925087Y-97027652D01*
X218942991Y-97037222D01*
X218978729Y-97066552D01*
X219080186Y-97149814D01*
X219163448Y-97251271D01*
X219192778Y-97287009D01*
X219192779Y-97287011D01*
X219276443Y-97443533D01*
X219276443Y-97443534D01*
X219327963Y-97613373D01*
X219345359Y-97790000D01*
X219327963Y-97966627D01*
X219293616Y-98079853D01*
X219276443Y-98136467D01*
X219202348Y-98275087D01*
X219192778Y-98292991D01*
X219163448Y-98328729D01*
X219080186Y-98430186D01*
X218978729Y-98513448D01*
X218942991Y-98542778D01*
X218942989Y-98542779D01*
X218786467Y-98626443D01*
X218729853Y-98643616D01*
X218616627Y-98677963D01*
X218550442Y-98684482D01*
X218484260Y-98691000D01*
X218395740Y-98691000D01*
X218329558Y-98684482D01*
X218263373Y-98677963D01*
X218150147Y-98643616D01*
X218093533Y-98626443D01*
X217937011Y-98542779D01*
X217937009Y-98542778D01*
X217901271Y-98513448D01*
X217799814Y-98430186D01*
X217716552Y-98328729D01*
X217687222Y-98292991D01*
X217677652Y-98275087D01*
X217603557Y-98136467D01*
X217586384Y-98079853D01*
X217552037Y-97966627D01*
X217534641Y-97790000D01*
X217552037Y-97613373D01*
X217603557Y-97443534D01*
X217603557Y-97443533D01*
X217687221Y-97287011D01*
X217687222Y-97287009D01*
X217716552Y-97251271D01*
X217799814Y-97149814D01*
X217901271Y-97066552D01*
X217937009Y-97037222D01*
X217954913Y-97027652D01*
X218093533Y-96953557D01*
X218150147Y-96936384D01*
X218263373Y-96902037D01*
X218329558Y-96895518D01*
X218395740Y-96889000D01*
X218484260Y-96889000D01*
X218550442Y-96895518D01*
X218550442Y-96895518D01*
G37*
G36*
X238870442Y-96895518D02*
X238936627Y-96902037D01*
X239049853Y-96936384D01*
X239106467Y-96953557D01*
X239245087Y-97027652D01*
X239262991Y-97037222D01*
X239298729Y-97066552D01*
X239400186Y-97149814D01*
X239483448Y-97251271D01*
X239512778Y-97287009D01*
X239512779Y-97287011D01*
X239596443Y-97443533D01*
X239596443Y-97443534D01*
X239647963Y-97613373D01*
X239665359Y-97790000D01*
X239647963Y-97966627D01*
X239613616Y-98079853D01*
X239596443Y-98136467D01*
X239522348Y-98275087D01*
X239512778Y-98292991D01*
X239483448Y-98328729D01*
X239400186Y-98430186D01*
X239298729Y-98513448D01*
X239262991Y-98542778D01*
X239262989Y-98542779D01*
X239106467Y-98626443D01*
X239049853Y-98643616D01*
X238936627Y-98677963D01*
X238870442Y-98684482D01*
X238804260Y-98691000D01*
X238715740Y-98691000D01*
X238649558Y-98684482D01*
X238583373Y-98677963D01*
X238470147Y-98643616D01*
X238413533Y-98626443D01*
X238257011Y-98542779D01*
X238257009Y-98542778D01*
X238221271Y-98513448D01*
X238119814Y-98430186D01*
X238036552Y-98328729D01*
X238007222Y-98292991D01*
X237997652Y-98275087D01*
X237923557Y-98136467D01*
X237906384Y-98079853D01*
X237872037Y-97966627D01*
X237854641Y-97790000D01*
X237872037Y-97613373D01*
X237923557Y-97443534D01*
X237923557Y-97443533D01*
X238007221Y-97287011D01*
X238007222Y-97287009D01*
X238036552Y-97251271D01*
X238119814Y-97149814D01*
X238221271Y-97066552D01*
X238257009Y-97037222D01*
X238274913Y-97027652D01*
X238413533Y-96953557D01*
X238470147Y-96936384D01*
X238583373Y-96902037D01*
X238649558Y-96895518D01*
X238715740Y-96889000D01*
X238804260Y-96889000D01*
X238870442Y-96895518D01*
X238870442Y-96895518D01*
G37*
G36*
X218550442Y-94355518D02*
X218616627Y-94362037D01*
X218729853Y-94396384D01*
X218786467Y-94413557D01*
X218925087Y-94487652D01*
X218942991Y-94497222D01*
X218978729Y-94526552D01*
X219080186Y-94609814D01*
X219160369Y-94707519D01*
X219192778Y-94747009D01*
X219192779Y-94747011D01*
X219276443Y-94903533D01*
X219276443Y-94903534D01*
X219327963Y-95073373D01*
X219345359Y-95250000D01*
X219327963Y-95426627D01*
X219306243Y-95498228D01*
X219276443Y-95596467D01*
X219202348Y-95735087D01*
X219192778Y-95752991D01*
X219163448Y-95788729D01*
X219080186Y-95890186D01*
X218978729Y-95973448D01*
X218942991Y-96002778D01*
X218942989Y-96002779D01*
X218786467Y-96086443D01*
X218738478Y-96101000D01*
X218616627Y-96137963D01*
X218550443Y-96144481D01*
X218484260Y-96151000D01*
X218395740Y-96151000D01*
X218329558Y-96144482D01*
X218263373Y-96137963D01*
X218141522Y-96101000D01*
X218093533Y-96086443D01*
X217937011Y-96002779D01*
X217937009Y-96002778D01*
X217901271Y-95973448D01*
X217799814Y-95890186D01*
X217716552Y-95788729D01*
X217687222Y-95752991D01*
X217677652Y-95735087D01*
X217603557Y-95596467D01*
X217573757Y-95498228D01*
X217552037Y-95426627D01*
X217534641Y-95250000D01*
X217552037Y-95073373D01*
X217603557Y-94903534D01*
X217603557Y-94903533D01*
X217687221Y-94747011D01*
X217687222Y-94747009D01*
X217719631Y-94707519D01*
X217799814Y-94609814D01*
X217901271Y-94526552D01*
X217937009Y-94497222D01*
X217954913Y-94487652D01*
X218093533Y-94413557D01*
X218150147Y-94396384D01*
X218263373Y-94362037D01*
X218329557Y-94355519D01*
X218395740Y-94349000D01*
X218484260Y-94349000D01*
X218550442Y-94355518D01*
X218550442Y-94355518D01*
G37*
G36*
X238870442Y-94355518D02*
X238936627Y-94362037D01*
X239049853Y-94396384D01*
X239106467Y-94413557D01*
X239245087Y-94487652D01*
X239262991Y-94497222D01*
X239298729Y-94526552D01*
X239400186Y-94609814D01*
X239480369Y-94707519D01*
X239512778Y-94747009D01*
X239512779Y-94747011D01*
X239596443Y-94903533D01*
X239596443Y-94903534D01*
X239647963Y-95073373D01*
X239665359Y-95250000D01*
X239647963Y-95426627D01*
X239626243Y-95498228D01*
X239596443Y-95596467D01*
X239522348Y-95735087D01*
X239512778Y-95752991D01*
X239483448Y-95788729D01*
X239400186Y-95890186D01*
X239298729Y-95973448D01*
X239262991Y-96002778D01*
X239262989Y-96002779D01*
X239106467Y-96086443D01*
X239058478Y-96101000D01*
X238936627Y-96137963D01*
X238870443Y-96144481D01*
X238804260Y-96151000D01*
X238715740Y-96151000D01*
X238649558Y-96144482D01*
X238583373Y-96137963D01*
X238461522Y-96101000D01*
X238413533Y-96086443D01*
X238257011Y-96002779D01*
X238257009Y-96002778D01*
X238221271Y-95973448D01*
X238119814Y-95890186D01*
X238036552Y-95788729D01*
X238007222Y-95752991D01*
X237997652Y-95735087D01*
X237923557Y-95596467D01*
X237893757Y-95498228D01*
X237872037Y-95426627D01*
X237854641Y-95250000D01*
X237872037Y-95073373D01*
X237923557Y-94903534D01*
X237923557Y-94903533D01*
X238007221Y-94747011D01*
X238007222Y-94747009D01*
X238039631Y-94707519D01*
X238119814Y-94609814D01*
X238221271Y-94526552D01*
X238257009Y-94497222D01*
X238274913Y-94487652D01*
X238413533Y-94413557D01*
X238470147Y-94396384D01*
X238583373Y-94362037D01*
X238649557Y-94355519D01*
X238715740Y-94349000D01*
X238804260Y-94349000D01*
X238870442Y-94355518D01*
X238870442Y-94355518D01*
G37*
G36*
X245358228Y-94431703D02*
X245513100Y-94495853D01*
X245652481Y-94588985D01*
X245771015Y-94707519D01*
X245864147Y-94846900D01*
X245928297Y-95001772D01*
X245961000Y-95166184D01*
X245961000Y-95333816D01*
X245928297Y-95498228D01*
X245864147Y-95653100D01*
X245771015Y-95792481D01*
X245652481Y-95911015D01*
X245513100Y-96004147D01*
X245358228Y-96068297D01*
X245193816Y-96101000D01*
X245026184Y-96101000D01*
X244861772Y-96068297D01*
X244706900Y-96004147D01*
X244567519Y-95911015D01*
X244448985Y-95792481D01*
X244355853Y-95653100D01*
X244291703Y-95498228D01*
X244259000Y-95333816D01*
X244259000Y-95166184D01*
X244291703Y-95001772D01*
X244355853Y-94846900D01*
X244448985Y-94707519D01*
X244567519Y-94588985D01*
X244706900Y-94495853D01*
X244861772Y-94431703D01*
X245026184Y-94399000D01*
X245193816Y-94399000D01*
X245358228Y-94431703D01*
X245358228Y-94431703D01*
G37*
G36*
X218550442Y-91815518D02*
X218616627Y-91822037D01*
X218729853Y-91856384D01*
X218786467Y-91873557D01*
X218925087Y-91947652D01*
X218942991Y-91957222D01*
X218978729Y-91986552D01*
X219080186Y-92069814D01*
X219163448Y-92171271D01*
X219192778Y-92207009D01*
X219192779Y-92207011D01*
X219276443Y-92363533D01*
X219276443Y-92363534D01*
X219327963Y-92533373D01*
X219345359Y-92710000D01*
X219327963Y-92886627D01*
X219293616Y-92999853D01*
X219276443Y-93056467D01*
X219202348Y-93195087D01*
X219192778Y-93212991D01*
X219163448Y-93248729D01*
X219080186Y-93350186D01*
X218978729Y-93433448D01*
X218942991Y-93462778D01*
X218942989Y-93462779D01*
X218786467Y-93546443D01*
X218729853Y-93563616D01*
X218616627Y-93597963D01*
X218550442Y-93604482D01*
X218484260Y-93611000D01*
X218395740Y-93611000D01*
X218329557Y-93604481D01*
X218263373Y-93597963D01*
X218150147Y-93563616D01*
X218093533Y-93546443D01*
X217937011Y-93462779D01*
X217937009Y-93462778D01*
X217901271Y-93433448D01*
X217799814Y-93350186D01*
X217716552Y-93248729D01*
X217687222Y-93212991D01*
X217677652Y-93195087D01*
X217603557Y-93056467D01*
X217586384Y-92999853D01*
X217552037Y-92886627D01*
X217534641Y-92710000D01*
X217552037Y-92533373D01*
X217603557Y-92363534D01*
X217603557Y-92363533D01*
X217687221Y-92207011D01*
X217687222Y-92207009D01*
X217716552Y-92171271D01*
X217799814Y-92069814D01*
X217901271Y-91986552D01*
X217937009Y-91957222D01*
X217954913Y-91947652D01*
X218093533Y-91873557D01*
X218150147Y-91856384D01*
X218263373Y-91822037D01*
X218329558Y-91815518D01*
X218395740Y-91809000D01*
X218484260Y-91809000D01*
X218550442Y-91815518D01*
X218550442Y-91815518D01*
G37*
G36*
X238870442Y-91815518D02*
X238936627Y-91822037D01*
X239049853Y-91856384D01*
X239106467Y-91873557D01*
X239245087Y-91947652D01*
X239262991Y-91957222D01*
X239298729Y-91986552D01*
X239400186Y-92069814D01*
X239483448Y-92171271D01*
X239512778Y-92207009D01*
X239512779Y-92207011D01*
X239596443Y-92363533D01*
X239596443Y-92363534D01*
X239647963Y-92533373D01*
X239665359Y-92710000D01*
X239647963Y-92886627D01*
X239613616Y-92999853D01*
X239596443Y-93056467D01*
X239522348Y-93195087D01*
X239512778Y-93212991D01*
X239483448Y-93248729D01*
X239400186Y-93350186D01*
X239298729Y-93433448D01*
X239262991Y-93462778D01*
X239262989Y-93462779D01*
X239106467Y-93546443D01*
X239049853Y-93563616D01*
X238936627Y-93597963D01*
X238870442Y-93604482D01*
X238804260Y-93611000D01*
X238715740Y-93611000D01*
X238649557Y-93604481D01*
X238583373Y-93597963D01*
X238470147Y-93563616D01*
X238413533Y-93546443D01*
X238257011Y-93462779D01*
X238257009Y-93462778D01*
X238221271Y-93433448D01*
X238119814Y-93350186D01*
X238036552Y-93248729D01*
X238007222Y-93212991D01*
X237997652Y-93195087D01*
X237923557Y-93056467D01*
X237906384Y-92999853D01*
X237872037Y-92886627D01*
X237854641Y-92710000D01*
X237872037Y-92533373D01*
X237923557Y-92363534D01*
X237923557Y-92363533D01*
X238007221Y-92207011D01*
X238007222Y-92207009D01*
X238036552Y-92171271D01*
X238119814Y-92069814D01*
X238221271Y-91986552D01*
X238257009Y-91957222D01*
X238274913Y-91947652D01*
X238413533Y-91873557D01*
X238470147Y-91856384D01*
X238583373Y-91822037D01*
X238649558Y-91815518D01*
X238715740Y-91809000D01*
X238804260Y-91809000D01*
X238870442Y-91815518D01*
X238870442Y-91815518D01*
G37*
G36*
X218550443Y-89275519D02*
X218616627Y-89282037D01*
X218729853Y-89316384D01*
X218786467Y-89333557D01*
X218916363Y-89402989D01*
X218942991Y-89417222D01*
X218978729Y-89446552D01*
X219080186Y-89529814D01*
X219163448Y-89631271D01*
X219192778Y-89667009D01*
X219192779Y-89667011D01*
X219276443Y-89823533D01*
X219276443Y-89823534D01*
X219327963Y-89993373D01*
X219345359Y-90170000D01*
X219327963Y-90346627D01*
X219293616Y-90459853D01*
X219276443Y-90516467D01*
X219202348Y-90655087D01*
X219192778Y-90672991D01*
X219163448Y-90708729D01*
X219080186Y-90810186D01*
X218978729Y-90893448D01*
X218942991Y-90922778D01*
X218942989Y-90922779D01*
X218786467Y-91006443D01*
X218729853Y-91023616D01*
X218616627Y-91057963D01*
X218550442Y-91064482D01*
X218484260Y-91071000D01*
X218395740Y-91071000D01*
X218329558Y-91064482D01*
X218263373Y-91057963D01*
X218150147Y-91023616D01*
X218093533Y-91006443D01*
X217937011Y-90922779D01*
X217937009Y-90922778D01*
X217901271Y-90893448D01*
X217799814Y-90810186D01*
X217716552Y-90708729D01*
X217687222Y-90672991D01*
X217677652Y-90655087D01*
X217603557Y-90516467D01*
X217586384Y-90459853D01*
X217552037Y-90346627D01*
X217534641Y-90170000D01*
X217552037Y-89993373D01*
X217603557Y-89823534D01*
X217603557Y-89823533D01*
X217687221Y-89667011D01*
X217687222Y-89667009D01*
X217716552Y-89631271D01*
X217799814Y-89529814D01*
X217901271Y-89446552D01*
X217937009Y-89417222D01*
X217963637Y-89402989D01*
X218093533Y-89333557D01*
X218150147Y-89316384D01*
X218263373Y-89282037D01*
X218329557Y-89275519D01*
X218395740Y-89269000D01*
X218484260Y-89269000D01*
X218550443Y-89275519D01*
X218550443Y-89275519D01*
G37*
G36*
X238870443Y-89275519D02*
X238936627Y-89282037D01*
X239049853Y-89316384D01*
X239106467Y-89333557D01*
X239236363Y-89402989D01*
X239262991Y-89417222D01*
X239298729Y-89446552D01*
X239400186Y-89529814D01*
X239483448Y-89631271D01*
X239512778Y-89667009D01*
X239512779Y-89667011D01*
X239596443Y-89823533D01*
X239596443Y-89823534D01*
X239647963Y-89993373D01*
X239665359Y-90170000D01*
X239647963Y-90346627D01*
X239613616Y-90459853D01*
X239596443Y-90516467D01*
X239522348Y-90655087D01*
X239512778Y-90672991D01*
X239483448Y-90708729D01*
X239400186Y-90810186D01*
X239298729Y-90893448D01*
X239262991Y-90922778D01*
X239262989Y-90922779D01*
X239106467Y-91006443D01*
X239049853Y-91023616D01*
X238936627Y-91057963D01*
X238870442Y-91064482D01*
X238804260Y-91071000D01*
X238715740Y-91071000D01*
X238649558Y-91064482D01*
X238583373Y-91057963D01*
X238470147Y-91023616D01*
X238413533Y-91006443D01*
X238257011Y-90922779D01*
X238257009Y-90922778D01*
X238221271Y-90893448D01*
X238119814Y-90810186D01*
X238036552Y-90708729D01*
X238007222Y-90672991D01*
X237997652Y-90655087D01*
X237923557Y-90516467D01*
X237906384Y-90459853D01*
X237872037Y-90346627D01*
X237854641Y-90170000D01*
X237872037Y-89993373D01*
X237923557Y-89823534D01*
X237923557Y-89823533D01*
X238007221Y-89667011D01*
X238007222Y-89667009D01*
X238036552Y-89631271D01*
X238119814Y-89529814D01*
X238221271Y-89446552D01*
X238257009Y-89417222D01*
X238283637Y-89402989D01*
X238413533Y-89333557D01*
X238470147Y-89316384D01*
X238583373Y-89282037D01*
X238649557Y-89275519D01*
X238715740Y-89269000D01*
X238804260Y-89269000D01*
X238870443Y-89275519D01*
X238870443Y-89275519D01*
G37*
G36*
X252840443Y-88005519D02*
X252906627Y-88012037D01*
X253019853Y-88046384D01*
X253076467Y-88063557D01*
X253206363Y-88132989D01*
X253232991Y-88147222D01*
X253268729Y-88176552D01*
X253370186Y-88259814D01*
X253453448Y-88361271D01*
X253482778Y-88397009D01*
X253482779Y-88397011D01*
X253566443Y-88553533D01*
X253566443Y-88553534D01*
X253617963Y-88723373D01*
X253635359Y-88900000D01*
X253617963Y-89076627D01*
X253583616Y-89189853D01*
X253566443Y-89246467D01*
X253547430Y-89282037D01*
X253482778Y-89402991D01*
X253453448Y-89438729D01*
X253370186Y-89540186D01*
X253268729Y-89623448D01*
X253232991Y-89652778D01*
X253232989Y-89652779D01*
X253076467Y-89736443D01*
X253019853Y-89753616D01*
X252906627Y-89787963D01*
X252840443Y-89794481D01*
X252774260Y-89801000D01*
X252685740Y-89801000D01*
X252619557Y-89794481D01*
X252553373Y-89787963D01*
X252440147Y-89753616D01*
X252383533Y-89736443D01*
X252227011Y-89652779D01*
X252227009Y-89652778D01*
X252191271Y-89623448D01*
X252089814Y-89540186D01*
X252006552Y-89438729D01*
X251977222Y-89402991D01*
X251912570Y-89282037D01*
X251893557Y-89246467D01*
X251876384Y-89189853D01*
X251842037Y-89076627D01*
X251824641Y-88900000D01*
X251842037Y-88723373D01*
X251893557Y-88553534D01*
X251893557Y-88553533D01*
X251977221Y-88397011D01*
X251977222Y-88397009D01*
X252006552Y-88361271D01*
X252089814Y-88259814D01*
X252191271Y-88176552D01*
X252227009Y-88147222D01*
X252253637Y-88132989D01*
X252383533Y-88063557D01*
X252440147Y-88046384D01*
X252553373Y-88012037D01*
X252619558Y-88005518D01*
X252685740Y-87999000D01*
X252774260Y-87999000D01*
X252840443Y-88005519D01*
X252840443Y-88005519D01*
G37*
G36*
X238870442Y-86735518D02*
X238936627Y-86742037D01*
X239049853Y-86776384D01*
X239106467Y-86793557D01*
X239236363Y-86862989D01*
X239262991Y-86877222D01*
X239298729Y-86906552D01*
X239400186Y-86989814D01*
X239483448Y-87091271D01*
X239512778Y-87127009D01*
X239512779Y-87127011D01*
X239596443Y-87283533D01*
X239596443Y-87283534D01*
X239647963Y-87453373D01*
X239665359Y-87630000D01*
X239647963Y-87806627D01*
X239613616Y-87919853D01*
X239596443Y-87976467D01*
X239577430Y-88012037D01*
X239512778Y-88132991D01*
X239483448Y-88168729D01*
X239400186Y-88270186D01*
X239298729Y-88353448D01*
X239262991Y-88382778D01*
X239262989Y-88382779D01*
X239106467Y-88466443D01*
X239049853Y-88483616D01*
X238936627Y-88517963D01*
X238870442Y-88524482D01*
X238804260Y-88531000D01*
X238715740Y-88531000D01*
X238649558Y-88524482D01*
X238583373Y-88517963D01*
X238470147Y-88483616D01*
X238413533Y-88466443D01*
X238257011Y-88382779D01*
X238257009Y-88382778D01*
X238221271Y-88353448D01*
X238119814Y-88270186D01*
X238036552Y-88168729D01*
X238007222Y-88132991D01*
X237942570Y-88012037D01*
X237923557Y-87976467D01*
X237906384Y-87919853D01*
X237872037Y-87806627D01*
X237854641Y-87630000D01*
X237872037Y-87453373D01*
X237923557Y-87283534D01*
X237923557Y-87283533D01*
X238007221Y-87127011D01*
X238007222Y-87127009D01*
X238036552Y-87091271D01*
X238119814Y-86989814D01*
X238221271Y-86906552D01*
X238257009Y-86877222D01*
X238283637Y-86862989D01*
X238413533Y-86793557D01*
X238470147Y-86776384D01*
X238583373Y-86742037D01*
X238649558Y-86735518D01*
X238715740Y-86729000D01*
X238804260Y-86729000D01*
X238870442Y-86735518D01*
X238870442Y-86735518D01*
G37*
G36*
X218550442Y-86735518D02*
X218616627Y-86742037D01*
X218729853Y-86776384D01*
X218786467Y-86793557D01*
X218916363Y-86862989D01*
X218942991Y-86877222D01*
X218978729Y-86906552D01*
X219080186Y-86989814D01*
X219163448Y-87091271D01*
X219192778Y-87127009D01*
X219192779Y-87127011D01*
X219276443Y-87283533D01*
X219276443Y-87283534D01*
X219327963Y-87453373D01*
X219345359Y-87630000D01*
X219327963Y-87806627D01*
X219293616Y-87919853D01*
X219276443Y-87976467D01*
X219257430Y-88012037D01*
X219192778Y-88132991D01*
X219163448Y-88168729D01*
X219080186Y-88270186D01*
X218978729Y-88353448D01*
X218942991Y-88382778D01*
X218942989Y-88382779D01*
X218786467Y-88466443D01*
X218729853Y-88483616D01*
X218616627Y-88517963D01*
X218550442Y-88524482D01*
X218484260Y-88531000D01*
X218395740Y-88531000D01*
X218329558Y-88524482D01*
X218263373Y-88517963D01*
X218150147Y-88483616D01*
X218093533Y-88466443D01*
X217937011Y-88382779D01*
X217937009Y-88382778D01*
X217901271Y-88353448D01*
X217799814Y-88270186D01*
X217716552Y-88168729D01*
X217687222Y-88132991D01*
X217622570Y-88012037D01*
X217603557Y-87976467D01*
X217586384Y-87919853D01*
X217552037Y-87806627D01*
X217534641Y-87630000D01*
X217552037Y-87453373D01*
X217603557Y-87283534D01*
X217603557Y-87283533D01*
X217687221Y-87127011D01*
X217687222Y-87127009D01*
X217716552Y-87091271D01*
X217799814Y-86989814D01*
X217901271Y-86906552D01*
X217937009Y-86877222D01*
X217963637Y-86862989D01*
X218093533Y-86793557D01*
X218150147Y-86776384D01*
X218263373Y-86742037D01*
X218329558Y-86735518D01*
X218395740Y-86729000D01*
X218484260Y-86729000D01*
X218550442Y-86735518D01*
X218550442Y-86735518D01*
G37*
G36*
X252840442Y-85465518D02*
X252906627Y-85472037D01*
X253019853Y-85506384D01*
X253076467Y-85523557D01*
X253206363Y-85592989D01*
X253232991Y-85607222D01*
X253268729Y-85636552D01*
X253370186Y-85719814D01*
X253453448Y-85821271D01*
X253482778Y-85857009D01*
X253482779Y-85857011D01*
X253566443Y-86013533D01*
X253566443Y-86013534D01*
X253617963Y-86183373D01*
X253635359Y-86360000D01*
X253617963Y-86536627D01*
X253583616Y-86649853D01*
X253566443Y-86706467D01*
X253547430Y-86742037D01*
X253482778Y-86862991D01*
X253453448Y-86898729D01*
X253370186Y-87000186D01*
X253268729Y-87083448D01*
X253232991Y-87112778D01*
X253232989Y-87112779D01*
X253076467Y-87196443D01*
X253019853Y-87213616D01*
X252906627Y-87247963D01*
X252840442Y-87254482D01*
X252774260Y-87261000D01*
X252685740Y-87261000D01*
X252619558Y-87254482D01*
X252553373Y-87247963D01*
X252440147Y-87213616D01*
X252383533Y-87196443D01*
X252227011Y-87112779D01*
X252227009Y-87112778D01*
X252191271Y-87083448D01*
X252089814Y-87000186D01*
X252006552Y-86898729D01*
X251977222Y-86862991D01*
X251912570Y-86742037D01*
X251893557Y-86706467D01*
X251876384Y-86649853D01*
X251842037Y-86536627D01*
X251824641Y-86360000D01*
X251842037Y-86183373D01*
X251893557Y-86013534D01*
X251893557Y-86013533D01*
X251977221Y-85857011D01*
X251977222Y-85857009D01*
X252006552Y-85821271D01*
X252089814Y-85719814D01*
X252191271Y-85636552D01*
X252227009Y-85607222D01*
X252253637Y-85592989D01*
X252383533Y-85523557D01*
X252440147Y-85506384D01*
X252553373Y-85472037D01*
X252619558Y-85465518D01*
X252685740Y-85459000D01*
X252774260Y-85459000D01*
X252840442Y-85465518D01*
X252840442Y-85465518D01*
G37*
G36*
X218550442Y-84195518D02*
X218616627Y-84202037D01*
X218729853Y-84236384D01*
X218786467Y-84253557D01*
X218916363Y-84322989D01*
X218942991Y-84337222D01*
X218978729Y-84366552D01*
X219080186Y-84449814D01*
X219163448Y-84551271D01*
X219192778Y-84587009D01*
X219192779Y-84587011D01*
X219276443Y-84743533D01*
X219276443Y-84743534D01*
X219327963Y-84913373D01*
X219345359Y-85090000D01*
X219327963Y-85266627D01*
X219293616Y-85379853D01*
X219276443Y-85436467D01*
X219257430Y-85472037D01*
X219192778Y-85592991D01*
X219163448Y-85628729D01*
X219080186Y-85730186D01*
X218978729Y-85813448D01*
X218942991Y-85842778D01*
X218942989Y-85842779D01*
X218786467Y-85926443D01*
X218729853Y-85943616D01*
X218616627Y-85977963D01*
X218550442Y-85984482D01*
X218484260Y-85991000D01*
X218395740Y-85991000D01*
X218329558Y-85984482D01*
X218263373Y-85977963D01*
X218150147Y-85943616D01*
X218093533Y-85926443D01*
X217937011Y-85842779D01*
X217937009Y-85842778D01*
X217901271Y-85813448D01*
X217799814Y-85730186D01*
X217716552Y-85628729D01*
X217687222Y-85592991D01*
X217622570Y-85472037D01*
X217603557Y-85436467D01*
X217586384Y-85379853D01*
X217552037Y-85266627D01*
X217534641Y-85090000D01*
X217552037Y-84913373D01*
X217603557Y-84743534D01*
X217603557Y-84743533D01*
X217687221Y-84587011D01*
X217687222Y-84587009D01*
X217716552Y-84551271D01*
X217799814Y-84449814D01*
X217901271Y-84366552D01*
X217937009Y-84337222D01*
X217963637Y-84322989D01*
X218093533Y-84253557D01*
X218150147Y-84236384D01*
X218263373Y-84202037D01*
X218329558Y-84195518D01*
X218395740Y-84189000D01*
X218484260Y-84189000D01*
X218550442Y-84195518D01*
X218550442Y-84195518D01*
G37*
G36*
X238870442Y-84195518D02*
X238936627Y-84202037D01*
X239049853Y-84236384D01*
X239106467Y-84253557D01*
X239236363Y-84322989D01*
X239262991Y-84337222D01*
X239298729Y-84366552D01*
X239400186Y-84449814D01*
X239483448Y-84551271D01*
X239512778Y-84587009D01*
X239512779Y-84587011D01*
X239596443Y-84743533D01*
X239596443Y-84743534D01*
X239647963Y-84913373D01*
X239665359Y-85090000D01*
X239647963Y-85266627D01*
X239613616Y-85379853D01*
X239596443Y-85436467D01*
X239577430Y-85472037D01*
X239512778Y-85592991D01*
X239483448Y-85628729D01*
X239400186Y-85730186D01*
X239298729Y-85813448D01*
X239262991Y-85842778D01*
X239262989Y-85842779D01*
X239106467Y-85926443D01*
X239049853Y-85943616D01*
X238936627Y-85977963D01*
X238870442Y-85984482D01*
X238804260Y-85991000D01*
X238715740Y-85991000D01*
X238649558Y-85984482D01*
X238583373Y-85977963D01*
X238470147Y-85943616D01*
X238413533Y-85926443D01*
X238257011Y-85842779D01*
X238257009Y-85842778D01*
X238221271Y-85813448D01*
X238119814Y-85730186D01*
X238036552Y-85628729D01*
X238007222Y-85592991D01*
X237942570Y-85472037D01*
X237923557Y-85436467D01*
X237906384Y-85379853D01*
X237872037Y-85266627D01*
X237854641Y-85090000D01*
X237872037Y-84913373D01*
X237923557Y-84743534D01*
X237923557Y-84743533D01*
X238007221Y-84587011D01*
X238007222Y-84587009D01*
X238036552Y-84551271D01*
X238119814Y-84449814D01*
X238221271Y-84366552D01*
X238257009Y-84337222D01*
X238283637Y-84322989D01*
X238413533Y-84253557D01*
X238470147Y-84236384D01*
X238583373Y-84202037D01*
X238649558Y-84195518D01*
X238715740Y-84189000D01*
X238804260Y-84189000D01*
X238870442Y-84195518D01*
X238870442Y-84195518D01*
G37*
G36*
X252840443Y-82925519D02*
X252906627Y-82932037D01*
X253019853Y-82966384D01*
X253076467Y-82983557D01*
X253206363Y-83052989D01*
X253232991Y-83067222D01*
X253268729Y-83096552D01*
X253370186Y-83179814D01*
X253453448Y-83281271D01*
X253482778Y-83317009D01*
X253482779Y-83317011D01*
X253566443Y-83473533D01*
X253566443Y-83473534D01*
X253617963Y-83643373D01*
X253635359Y-83820000D01*
X253617963Y-83996627D01*
X253583616Y-84109853D01*
X253566443Y-84166467D01*
X253547430Y-84202037D01*
X253482778Y-84322991D01*
X253453448Y-84358729D01*
X253370186Y-84460186D01*
X253268729Y-84543448D01*
X253232991Y-84572778D01*
X253232989Y-84572779D01*
X253076467Y-84656443D01*
X253019853Y-84673616D01*
X252906627Y-84707963D01*
X252840442Y-84714482D01*
X252774260Y-84721000D01*
X252685740Y-84721000D01*
X252619557Y-84714481D01*
X252553373Y-84707963D01*
X252440147Y-84673616D01*
X252383533Y-84656443D01*
X252227011Y-84572779D01*
X252227009Y-84572778D01*
X252191271Y-84543448D01*
X252089814Y-84460186D01*
X252006552Y-84358729D01*
X251977222Y-84322991D01*
X251912570Y-84202037D01*
X251893557Y-84166467D01*
X251876384Y-84109853D01*
X251842037Y-83996627D01*
X251824641Y-83820000D01*
X251842037Y-83643373D01*
X251893557Y-83473534D01*
X251893557Y-83473533D01*
X251977221Y-83317011D01*
X251977222Y-83317009D01*
X252006552Y-83281271D01*
X252089814Y-83179814D01*
X252191271Y-83096552D01*
X252227009Y-83067222D01*
X252253637Y-83052989D01*
X252383533Y-82983557D01*
X252440147Y-82966384D01*
X252553373Y-82932037D01*
X252619557Y-82925519D01*
X252685740Y-82919000D01*
X252774260Y-82919000D01*
X252840443Y-82925519D01*
X252840443Y-82925519D01*
G37*
G36*
X246490443Y-82925519D02*
X246556627Y-82932037D01*
X246669853Y-82966384D01*
X246726467Y-82983557D01*
X246856363Y-83052989D01*
X246882991Y-83067222D01*
X246918729Y-83096552D01*
X247020186Y-83179814D01*
X247103448Y-83281271D01*
X247132778Y-83317009D01*
X247132779Y-83317011D01*
X247216443Y-83473533D01*
X247216443Y-83473534D01*
X247267963Y-83643373D01*
X247285359Y-83820000D01*
X247267963Y-83996627D01*
X247233616Y-84109853D01*
X247216443Y-84166467D01*
X247197430Y-84202037D01*
X247132778Y-84322991D01*
X247103448Y-84358729D01*
X247020186Y-84460186D01*
X246918729Y-84543448D01*
X246882991Y-84572778D01*
X246882989Y-84572779D01*
X246726467Y-84656443D01*
X246669853Y-84673616D01*
X246556627Y-84707963D01*
X246490442Y-84714482D01*
X246424260Y-84721000D01*
X246335740Y-84721000D01*
X246269557Y-84714481D01*
X246203373Y-84707963D01*
X246090147Y-84673616D01*
X246033533Y-84656443D01*
X245877011Y-84572779D01*
X245877009Y-84572778D01*
X245841271Y-84543448D01*
X245739814Y-84460186D01*
X245656552Y-84358729D01*
X245627222Y-84322991D01*
X245562570Y-84202037D01*
X245543557Y-84166467D01*
X245526384Y-84109853D01*
X245492037Y-83996627D01*
X245474641Y-83820000D01*
X245492037Y-83643373D01*
X245543557Y-83473534D01*
X245543557Y-83473533D01*
X245627221Y-83317011D01*
X245627222Y-83317009D01*
X245656552Y-83281271D01*
X245739814Y-83179814D01*
X245841271Y-83096552D01*
X245877009Y-83067222D01*
X245903637Y-83052989D01*
X246033533Y-82983557D01*
X246090147Y-82966384D01*
X246203373Y-82932037D01*
X246269557Y-82925519D01*
X246335740Y-82919000D01*
X246424260Y-82919000D01*
X246490443Y-82925519D01*
X246490443Y-82925519D01*
G37*
G36*
X218550443Y-81655519D02*
X218616627Y-81662037D01*
X218729853Y-81696384D01*
X218786467Y-81713557D01*
X218916363Y-81782989D01*
X218942991Y-81797222D01*
X218978729Y-81826552D01*
X219080186Y-81909814D01*
X219163448Y-82011271D01*
X219192778Y-82047009D01*
X219192779Y-82047011D01*
X219276443Y-82203533D01*
X219276443Y-82203534D01*
X219327963Y-82373373D01*
X219345359Y-82550000D01*
X219327963Y-82726627D01*
X219293616Y-82839853D01*
X219276443Y-82896467D01*
X219257430Y-82932037D01*
X219192778Y-83052991D01*
X219163448Y-83088729D01*
X219080186Y-83190186D01*
X218978729Y-83273448D01*
X218942991Y-83302778D01*
X218942989Y-83302779D01*
X218786467Y-83386443D01*
X218729853Y-83403616D01*
X218616627Y-83437963D01*
X218550443Y-83444481D01*
X218484260Y-83451000D01*
X218395740Y-83451000D01*
X218329557Y-83444481D01*
X218263373Y-83437963D01*
X218150147Y-83403616D01*
X218093533Y-83386443D01*
X217937011Y-83302779D01*
X217937009Y-83302778D01*
X217901271Y-83273448D01*
X217799814Y-83190186D01*
X217716552Y-83088729D01*
X217687222Y-83052991D01*
X217622570Y-82932037D01*
X217603557Y-82896467D01*
X217586384Y-82839853D01*
X217552037Y-82726627D01*
X217534641Y-82550000D01*
X217552037Y-82373373D01*
X217603557Y-82203534D01*
X217603557Y-82203533D01*
X217687221Y-82047011D01*
X217687222Y-82047009D01*
X217716552Y-82011271D01*
X217799814Y-81909814D01*
X217901271Y-81826552D01*
X217937009Y-81797222D01*
X217963637Y-81782989D01*
X218093533Y-81713557D01*
X218150147Y-81696384D01*
X218263373Y-81662037D01*
X218329557Y-81655519D01*
X218395740Y-81649000D01*
X218484260Y-81649000D01*
X218550443Y-81655519D01*
X218550443Y-81655519D01*
G37*
G36*
X238870443Y-81655519D02*
X238936627Y-81662037D01*
X239049853Y-81696384D01*
X239106467Y-81713557D01*
X239236363Y-81782989D01*
X239262991Y-81797222D01*
X239298729Y-81826552D01*
X239400186Y-81909814D01*
X239483448Y-82011271D01*
X239512778Y-82047009D01*
X239512779Y-82047011D01*
X239596443Y-82203533D01*
X239596443Y-82203534D01*
X239647963Y-82373373D01*
X239665359Y-82550000D01*
X239647963Y-82726627D01*
X239613616Y-82839853D01*
X239596443Y-82896467D01*
X239577430Y-82932037D01*
X239512778Y-83052991D01*
X239483448Y-83088729D01*
X239400186Y-83190186D01*
X239298729Y-83273448D01*
X239262991Y-83302778D01*
X239262989Y-83302779D01*
X239106467Y-83386443D01*
X239049853Y-83403616D01*
X238936627Y-83437963D01*
X238870443Y-83444481D01*
X238804260Y-83451000D01*
X238715740Y-83451000D01*
X238649557Y-83444481D01*
X238583373Y-83437963D01*
X238470147Y-83403616D01*
X238413533Y-83386443D01*
X238257011Y-83302779D01*
X238257009Y-83302778D01*
X238221271Y-83273448D01*
X238119814Y-83190186D01*
X238036552Y-83088729D01*
X238007222Y-83052991D01*
X237942570Y-82932037D01*
X237923557Y-82896467D01*
X237906384Y-82839853D01*
X237872037Y-82726627D01*
X237854641Y-82550000D01*
X237872037Y-82373373D01*
X237923557Y-82203534D01*
X237923557Y-82203533D01*
X238007221Y-82047011D01*
X238007222Y-82047009D01*
X238036552Y-82011271D01*
X238119814Y-81909814D01*
X238221271Y-81826552D01*
X238257009Y-81797222D01*
X238283637Y-81782989D01*
X238413533Y-81713557D01*
X238470147Y-81696384D01*
X238583373Y-81662037D01*
X238649557Y-81655519D01*
X238715740Y-81649000D01*
X238804260Y-81649000D01*
X238870443Y-81655519D01*
X238870443Y-81655519D01*
G37*
G36*
X252840442Y-80385518D02*
X252906627Y-80392037D01*
X253019853Y-80426384D01*
X253076467Y-80443557D01*
X253206363Y-80512989D01*
X253232991Y-80527222D01*
X253268729Y-80556552D01*
X253370186Y-80639814D01*
X253453448Y-80741271D01*
X253482778Y-80777009D01*
X253482779Y-80777011D01*
X253566443Y-80933533D01*
X253566443Y-80933534D01*
X253617963Y-81103373D01*
X253635359Y-81280000D01*
X253617963Y-81456627D01*
X253583616Y-81569853D01*
X253566443Y-81626467D01*
X253547430Y-81662037D01*
X253482778Y-81782991D01*
X253453448Y-81818729D01*
X253370186Y-81920186D01*
X253268729Y-82003448D01*
X253232991Y-82032778D01*
X253232989Y-82032779D01*
X253076467Y-82116443D01*
X253019853Y-82133616D01*
X252906627Y-82167963D01*
X252840442Y-82174482D01*
X252774260Y-82181000D01*
X252685740Y-82181000D01*
X252619557Y-82174481D01*
X252553373Y-82167963D01*
X252440147Y-82133616D01*
X252383533Y-82116443D01*
X252227011Y-82032779D01*
X252227009Y-82032778D01*
X252191271Y-82003448D01*
X252089814Y-81920186D01*
X252006552Y-81818729D01*
X251977222Y-81782991D01*
X251912570Y-81662037D01*
X251893557Y-81626467D01*
X251876384Y-81569853D01*
X251842037Y-81456627D01*
X251824641Y-81280000D01*
X251842037Y-81103373D01*
X251893557Y-80933534D01*
X251893557Y-80933533D01*
X251977221Y-80777011D01*
X251977222Y-80777009D01*
X252006552Y-80741271D01*
X252089814Y-80639814D01*
X252191271Y-80556552D01*
X252227009Y-80527222D01*
X252253637Y-80512989D01*
X252383533Y-80443557D01*
X252440147Y-80426384D01*
X252553373Y-80392037D01*
X252619558Y-80385518D01*
X252685740Y-80379000D01*
X252774260Y-80379000D01*
X252840442Y-80385518D01*
X252840442Y-80385518D01*
G37*
G36*
X247281000Y-82181000D02*
X245479000Y-82181000D01*
X245479000Y-80379000D01*
X247281000Y-80379000D01*
X247281000Y-82181000D01*
X247281000Y-82181000D01*
G37*
G36*
X218550443Y-79115519D02*
X218616627Y-79122037D01*
X218729853Y-79156384D01*
X218786467Y-79173557D01*
X218925087Y-79247652D01*
X218942991Y-79257222D01*
X218978729Y-79286552D01*
X219080186Y-79369814D01*
X219163448Y-79471271D01*
X219192778Y-79507009D01*
X219192779Y-79507011D01*
X219276443Y-79663533D01*
X219276443Y-79663534D01*
X219327963Y-79833373D01*
X219345359Y-80010000D01*
X219327963Y-80186627D01*
X219293616Y-80299853D01*
X219276443Y-80356467D01*
X219257430Y-80392037D01*
X219192778Y-80512991D01*
X219163448Y-80548729D01*
X219080186Y-80650186D01*
X218978729Y-80733448D01*
X218942991Y-80762778D01*
X218942989Y-80762779D01*
X218786467Y-80846443D01*
X218729853Y-80863616D01*
X218616627Y-80897963D01*
X218550442Y-80904482D01*
X218484260Y-80911000D01*
X218395740Y-80911000D01*
X218329558Y-80904482D01*
X218263373Y-80897963D01*
X218150147Y-80863616D01*
X218093533Y-80846443D01*
X217937011Y-80762779D01*
X217937009Y-80762778D01*
X217901271Y-80733448D01*
X217799814Y-80650186D01*
X217716552Y-80548729D01*
X217687222Y-80512991D01*
X217622570Y-80392037D01*
X217603557Y-80356467D01*
X217586384Y-80299853D01*
X217552037Y-80186627D01*
X217534641Y-80010000D01*
X217552037Y-79833373D01*
X217603557Y-79663534D01*
X217603557Y-79663533D01*
X217687221Y-79507011D01*
X217687222Y-79507009D01*
X217716552Y-79471271D01*
X217799814Y-79369814D01*
X217901271Y-79286552D01*
X217937009Y-79257222D01*
X217954913Y-79247652D01*
X218093533Y-79173557D01*
X218150147Y-79156384D01*
X218263373Y-79122037D01*
X218329557Y-79115519D01*
X218395740Y-79109000D01*
X218484260Y-79109000D01*
X218550443Y-79115519D01*
X218550443Y-79115519D01*
G37*
G36*
X238870443Y-79115519D02*
X238936627Y-79122037D01*
X239049853Y-79156384D01*
X239106467Y-79173557D01*
X239245087Y-79247652D01*
X239262991Y-79257222D01*
X239298729Y-79286552D01*
X239400186Y-79369814D01*
X239483448Y-79471271D01*
X239512778Y-79507009D01*
X239512779Y-79507011D01*
X239596443Y-79663533D01*
X239596443Y-79663534D01*
X239647963Y-79833373D01*
X239665359Y-80010000D01*
X239647963Y-80186627D01*
X239613616Y-80299853D01*
X239596443Y-80356467D01*
X239577430Y-80392037D01*
X239512778Y-80512991D01*
X239483448Y-80548729D01*
X239400186Y-80650186D01*
X239298729Y-80733448D01*
X239262991Y-80762778D01*
X239262989Y-80762779D01*
X239106467Y-80846443D01*
X239049853Y-80863616D01*
X238936627Y-80897963D01*
X238870442Y-80904482D01*
X238804260Y-80911000D01*
X238715740Y-80911000D01*
X238649558Y-80904482D01*
X238583373Y-80897963D01*
X238470147Y-80863616D01*
X238413533Y-80846443D01*
X238257011Y-80762779D01*
X238257009Y-80762778D01*
X238221271Y-80733448D01*
X238119814Y-80650186D01*
X238036552Y-80548729D01*
X238007222Y-80512991D01*
X237942570Y-80392037D01*
X237923557Y-80356467D01*
X237906384Y-80299853D01*
X237872037Y-80186627D01*
X237854641Y-80010000D01*
X237872037Y-79833373D01*
X237923557Y-79663534D01*
X237923557Y-79663533D01*
X238007221Y-79507011D01*
X238007222Y-79507009D01*
X238036552Y-79471271D01*
X238119814Y-79369814D01*
X238221271Y-79286552D01*
X238257009Y-79257222D01*
X238274913Y-79247652D01*
X238413533Y-79173557D01*
X238470147Y-79156384D01*
X238583373Y-79122037D01*
X238649557Y-79115519D01*
X238715740Y-79109000D01*
X238804260Y-79109000D01*
X238870443Y-79115519D01*
X238870443Y-79115519D01*
G37*
G36*
X253631000Y-79641000D02*
X251829000Y-79641000D01*
X251829000Y-77839000D01*
X253631000Y-77839000D01*
X253631000Y-79641000D01*
X253631000Y-79641000D01*
G37*
G36*
X238870443Y-76575519D02*
X238936627Y-76582037D01*
X239049853Y-76616384D01*
X239106467Y-76633557D01*
X239245087Y-76707652D01*
X239262991Y-76717222D01*
X239298729Y-76746552D01*
X239400186Y-76829814D01*
X239483448Y-76931271D01*
X239512778Y-76967009D01*
X239512779Y-76967011D01*
X239596443Y-77123533D01*
X239596443Y-77123534D01*
X239647963Y-77293373D01*
X239665359Y-77470000D01*
X239647963Y-77646627D01*
X239613616Y-77759853D01*
X239596443Y-77816467D01*
X239522348Y-77955087D01*
X239512778Y-77972991D01*
X239483448Y-78008729D01*
X239400186Y-78110186D01*
X239298729Y-78193448D01*
X239262991Y-78222778D01*
X239262989Y-78222779D01*
X239106467Y-78306443D01*
X239049853Y-78323616D01*
X238936627Y-78357963D01*
X238870443Y-78364481D01*
X238804260Y-78371000D01*
X238715740Y-78371000D01*
X238649557Y-78364481D01*
X238583373Y-78357963D01*
X238470147Y-78323616D01*
X238413533Y-78306443D01*
X238257011Y-78222779D01*
X238257009Y-78222778D01*
X238221271Y-78193448D01*
X238119814Y-78110186D01*
X238036552Y-78008729D01*
X238007222Y-77972991D01*
X237997652Y-77955087D01*
X237923557Y-77816467D01*
X237906384Y-77759853D01*
X237872037Y-77646627D01*
X237854641Y-77470000D01*
X237872037Y-77293373D01*
X237923557Y-77123534D01*
X237923557Y-77123533D01*
X238007221Y-76967011D01*
X238007222Y-76967009D01*
X238036552Y-76931271D01*
X238119814Y-76829814D01*
X238221271Y-76746552D01*
X238257009Y-76717222D01*
X238274913Y-76707652D01*
X238413533Y-76633557D01*
X238470147Y-76616384D01*
X238583373Y-76582037D01*
X238649557Y-76575519D01*
X238715740Y-76569000D01*
X238804260Y-76569000D01*
X238870443Y-76575519D01*
X238870443Y-76575519D01*
G37*
G36*
X218550443Y-76575519D02*
X218616627Y-76582037D01*
X218729853Y-76616384D01*
X218786467Y-76633557D01*
X218925087Y-76707652D01*
X218942991Y-76717222D01*
X218978729Y-76746552D01*
X219080186Y-76829814D01*
X219163448Y-76931271D01*
X219192778Y-76967009D01*
X219192779Y-76967011D01*
X219276443Y-77123533D01*
X219276443Y-77123534D01*
X219327963Y-77293373D01*
X219345359Y-77470000D01*
X219327963Y-77646627D01*
X219293616Y-77759853D01*
X219276443Y-77816467D01*
X219202348Y-77955087D01*
X219192778Y-77972991D01*
X219163448Y-78008729D01*
X219080186Y-78110186D01*
X218978729Y-78193448D01*
X218942991Y-78222778D01*
X218942989Y-78222779D01*
X218786467Y-78306443D01*
X218729853Y-78323616D01*
X218616627Y-78357963D01*
X218550443Y-78364481D01*
X218484260Y-78371000D01*
X218395740Y-78371000D01*
X218329557Y-78364481D01*
X218263373Y-78357963D01*
X218150147Y-78323616D01*
X218093533Y-78306443D01*
X217937011Y-78222779D01*
X217937009Y-78222778D01*
X217901271Y-78193448D01*
X217799814Y-78110186D01*
X217716552Y-78008729D01*
X217687222Y-77972991D01*
X217677652Y-77955087D01*
X217603557Y-77816467D01*
X217586384Y-77759853D01*
X217552037Y-77646627D01*
X217534641Y-77470000D01*
X217552037Y-77293373D01*
X217603557Y-77123534D01*
X217603557Y-77123533D01*
X217687221Y-76967011D01*
X217687222Y-76967009D01*
X217716552Y-76931271D01*
X217799814Y-76829814D01*
X217901271Y-76746552D01*
X217937009Y-76717222D01*
X217954913Y-76707652D01*
X218093533Y-76633557D01*
X218150147Y-76616384D01*
X218263373Y-76582037D01*
X218329557Y-76575519D01*
X218395740Y-76569000D01*
X218484260Y-76569000D01*
X218550443Y-76575519D01*
X218550443Y-76575519D01*
G37*
G36*
X218550442Y-74035518D02*
X218616627Y-74042037D01*
X218729853Y-74076384D01*
X218786467Y-74093557D01*
X218925087Y-74167652D01*
X218942991Y-74177222D01*
X218978729Y-74206552D01*
X219080186Y-74289814D01*
X219163448Y-74391271D01*
X219192778Y-74427009D01*
X219192779Y-74427011D01*
X219276443Y-74583533D01*
X219276443Y-74583534D01*
X219327963Y-74753373D01*
X219345359Y-74930000D01*
X219327963Y-75106627D01*
X219293616Y-75219853D01*
X219276443Y-75276467D01*
X219202348Y-75415087D01*
X219192778Y-75432991D01*
X219163448Y-75468729D01*
X219080186Y-75570186D01*
X218978729Y-75653448D01*
X218942991Y-75682778D01*
X218942989Y-75682779D01*
X218786467Y-75766443D01*
X218729853Y-75783616D01*
X218616627Y-75817963D01*
X218550442Y-75824482D01*
X218484260Y-75831000D01*
X218395740Y-75831000D01*
X218329558Y-75824482D01*
X218263373Y-75817963D01*
X218150147Y-75783616D01*
X218093533Y-75766443D01*
X217937011Y-75682779D01*
X217937009Y-75682778D01*
X217901271Y-75653448D01*
X217799814Y-75570186D01*
X217716552Y-75468729D01*
X217687222Y-75432991D01*
X217677652Y-75415087D01*
X217603557Y-75276467D01*
X217586384Y-75219853D01*
X217552037Y-75106627D01*
X217534641Y-74930000D01*
X217552037Y-74753373D01*
X217603557Y-74583534D01*
X217603557Y-74583533D01*
X217687221Y-74427011D01*
X217687222Y-74427009D01*
X217716552Y-74391271D01*
X217799814Y-74289814D01*
X217901271Y-74206552D01*
X217937009Y-74177222D01*
X217954913Y-74167652D01*
X218093533Y-74093557D01*
X218150147Y-74076384D01*
X218263373Y-74042037D01*
X218329558Y-74035518D01*
X218395740Y-74029000D01*
X218484260Y-74029000D01*
X218550442Y-74035518D01*
X218550442Y-74035518D01*
G37*
G36*
X238870442Y-74035518D02*
X238936627Y-74042037D01*
X239049853Y-74076384D01*
X239106467Y-74093557D01*
X239245087Y-74167652D01*
X239262991Y-74177222D01*
X239298729Y-74206552D01*
X239400186Y-74289814D01*
X239483448Y-74391271D01*
X239512778Y-74427009D01*
X239512779Y-74427011D01*
X239596443Y-74583533D01*
X239596443Y-74583534D01*
X239647963Y-74753373D01*
X239665359Y-74930000D01*
X239647963Y-75106627D01*
X239613616Y-75219853D01*
X239596443Y-75276467D01*
X239522348Y-75415087D01*
X239512778Y-75432991D01*
X239483448Y-75468729D01*
X239400186Y-75570186D01*
X239298729Y-75653448D01*
X239262991Y-75682778D01*
X239262989Y-75682779D01*
X239106467Y-75766443D01*
X239049853Y-75783616D01*
X238936627Y-75817963D01*
X238870442Y-75824482D01*
X238804260Y-75831000D01*
X238715740Y-75831000D01*
X238649558Y-75824482D01*
X238583373Y-75817963D01*
X238470147Y-75783616D01*
X238413533Y-75766443D01*
X238257011Y-75682779D01*
X238257009Y-75682778D01*
X238221271Y-75653448D01*
X238119814Y-75570186D01*
X238036552Y-75468729D01*
X238007222Y-75432991D01*
X237997652Y-75415087D01*
X237923557Y-75276467D01*
X237906384Y-75219853D01*
X237872037Y-75106627D01*
X237854641Y-74930000D01*
X237872037Y-74753373D01*
X237923557Y-74583534D01*
X237923557Y-74583533D01*
X238007221Y-74427011D01*
X238007222Y-74427009D01*
X238036552Y-74391271D01*
X238119814Y-74289814D01*
X238221271Y-74206552D01*
X238257009Y-74177222D01*
X238274913Y-74167652D01*
X238413533Y-74093557D01*
X238470147Y-74076384D01*
X238583373Y-74042037D01*
X238649558Y-74035518D01*
X238715740Y-74029000D01*
X238804260Y-74029000D01*
X238870442Y-74035518D01*
X238870442Y-74035518D01*
G37*
G36*
X251073228Y-70936703D02*
X251228100Y-71000853D01*
X251367481Y-71093985D01*
X251486015Y-71212519D01*
X251579147Y-71351900D01*
X251643297Y-71506772D01*
X251676000Y-71671184D01*
X251676000Y-71838816D01*
X251643297Y-72003228D01*
X251579147Y-72158100D01*
X251486015Y-72297481D01*
X251367481Y-72416015D01*
X251228100Y-72509147D01*
X251073228Y-72573297D01*
X250908816Y-72606000D01*
X250741184Y-72606000D01*
X250576772Y-72573297D01*
X250421900Y-72509147D01*
X250282519Y-72416015D01*
X250163985Y-72297481D01*
X250070853Y-72158100D01*
X250006703Y-72003228D01*
X249974000Y-71838816D01*
X249974000Y-71671184D01*
X250006703Y-71506772D01*
X250070853Y-71351900D01*
X250163985Y-71212519D01*
X250282519Y-71093985D01*
X250421900Y-71000853D01*
X250576772Y-70936703D01*
X250741184Y-70904000D01*
X250908816Y-70904000D01*
X251073228Y-70936703D01*
X251073228Y-70936703D01*
G37*
G36*
X243371821Y-70916313D02*
X243371824Y-70916314D01*
X243371825Y-70916314D01*
X243532239Y-70964975D01*
X243532241Y-70964976D01*
X243532244Y-70964977D01*
X243680078Y-71043995D01*
X243809659Y-71150341D01*
X243916005Y-71279922D01*
X243995023Y-71427756D01*
X243995024Y-71427759D01*
X243995025Y-71427761D01*
X244043686Y-71588175D01*
X244043687Y-71588179D01*
X244060117Y-71755000D01*
X244043687Y-71921821D01*
X244043686Y-71921824D01*
X244043686Y-71921825D01*
X244018993Y-72003228D01*
X243995023Y-72082244D01*
X243916005Y-72230078D01*
X243809659Y-72359659D01*
X243680078Y-72466005D01*
X243532244Y-72545023D01*
X243532241Y-72545024D01*
X243532239Y-72545025D01*
X243371825Y-72593686D01*
X243371824Y-72593686D01*
X243371821Y-72593687D01*
X243246804Y-72606000D01*
X243163196Y-72606000D01*
X243038179Y-72593687D01*
X243038176Y-72593686D01*
X243038175Y-72593686D01*
X242877761Y-72545025D01*
X242877759Y-72545024D01*
X242877756Y-72545023D01*
X242729922Y-72466005D01*
X242600341Y-72359659D01*
X242493995Y-72230078D01*
X242414977Y-72082244D01*
X242391008Y-72003228D01*
X242366314Y-71921825D01*
X242366314Y-71921824D01*
X242366313Y-71921821D01*
X242349883Y-71755000D01*
X242366313Y-71588179D01*
X242366314Y-71588175D01*
X242414975Y-71427761D01*
X242414976Y-71427759D01*
X242414977Y-71427756D01*
X242493995Y-71279922D01*
X242600341Y-71150341D01*
X242729922Y-71043995D01*
X242877756Y-70964977D01*
X242877759Y-70964976D01*
X242877761Y-70964975D01*
X243038175Y-70916314D01*
X243038176Y-70916314D01*
X243038179Y-70916313D01*
X243163196Y-70904000D01*
X243246804Y-70904000D01*
X243371821Y-70916313D01*
X243371821Y-70916313D01*
G37*
G36*
X262521000Y-70751000D02*
X260719000Y-70751000D01*
X260719000Y-68949000D01*
X262521000Y-68949000D01*
X262521000Y-70751000D01*
X262521000Y-70751000D01*
G37*
G36*
X256650443Y-68955519D02*
X256716627Y-68962037D01*
X256829853Y-68996384D01*
X256886467Y-69013557D01*
X257025087Y-69087652D01*
X257042991Y-69097222D01*
X257078729Y-69126552D01*
X257180186Y-69209814D01*
X257263448Y-69311271D01*
X257292778Y-69347009D01*
X257292779Y-69347011D01*
X257376443Y-69503533D01*
X257376443Y-69503534D01*
X257427963Y-69673373D01*
X257445359Y-69850000D01*
X257427963Y-70026627D01*
X257393616Y-70139853D01*
X257376443Y-70196467D01*
X257302348Y-70335087D01*
X257292778Y-70352991D01*
X257263448Y-70388729D01*
X257180186Y-70490186D01*
X257078729Y-70573448D01*
X257042991Y-70602778D01*
X257042989Y-70602779D01*
X256886467Y-70686443D01*
X256829853Y-70703616D01*
X256716627Y-70737963D01*
X256650443Y-70744481D01*
X256584260Y-70751000D01*
X256495740Y-70751000D01*
X256429557Y-70744481D01*
X256363373Y-70737963D01*
X256250147Y-70703616D01*
X256193533Y-70686443D01*
X256037011Y-70602779D01*
X256037009Y-70602778D01*
X256001271Y-70573448D01*
X255899814Y-70490186D01*
X255816552Y-70388729D01*
X255787222Y-70352991D01*
X255777652Y-70335087D01*
X255703557Y-70196467D01*
X255686384Y-70139853D01*
X255652037Y-70026627D01*
X255634641Y-69850000D01*
X255652037Y-69673373D01*
X255703557Y-69503534D01*
X255703557Y-69503533D01*
X255787221Y-69347011D01*
X255787222Y-69347009D01*
X255816552Y-69311271D01*
X255899814Y-69209814D01*
X256001271Y-69126552D01*
X256037009Y-69097222D01*
X256054913Y-69087652D01*
X256193533Y-69013557D01*
X256250147Y-68996384D01*
X256363373Y-68962037D01*
X256429557Y-68955519D01*
X256495740Y-68949000D01*
X256584260Y-68949000D01*
X256650443Y-68955519D01*
X256650443Y-68955519D01*
G37*
G36*
X259190443Y-68955519D02*
X259256627Y-68962037D01*
X259369853Y-68996384D01*
X259426467Y-69013557D01*
X259565087Y-69087652D01*
X259582991Y-69097222D01*
X259618729Y-69126552D01*
X259720186Y-69209814D01*
X259803448Y-69311271D01*
X259832778Y-69347009D01*
X259832779Y-69347011D01*
X259916443Y-69503533D01*
X259916443Y-69503534D01*
X259967963Y-69673373D01*
X259985359Y-69850000D01*
X259967963Y-70026627D01*
X259933616Y-70139853D01*
X259916443Y-70196467D01*
X259842348Y-70335087D01*
X259832778Y-70352991D01*
X259803448Y-70388729D01*
X259720186Y-70490186D01*
X259618729Y-70573448D01*
X259582991Y-70602778D01*
X259582989Y-70602779D01*
X259426467Y-70686443D01*
X259369853Y-70703616D01*
X259256627Y-70737963D01*
X259190443Y-70744481D01*
X259124260Y-70751000D01*
X259035740Y-70751000D01*
X258969557Y-70744481D01*
X258903373Y-70737963D01*
X258790147Y-70703616D01*
X258733533Y-70686443D01*
X258577011Y-70602779D01*
X258577009Y-70602778D01*
X258541271Y-70573448D01*
X258439814Y-70490186D01*
X258356552Y-70388729D01*
X258327222Y-70352991D01*
X258317652Y-70335087D01*
X258243557Y-70196467D01*
X258226384Y-70139853D01*
X258192037Y-70026627D01*
X258174641Y-69850000D01*
X258192037Y-69673373D01*
X258243557Y-69503534D01*
X258243557Y-69503533D01*
X258327221Y-69347011D01*
X258327222Y-69347009D01*
X258356552Y-69311271D01*
X258439814Y-69209814D01*
X258541271Y-69126552D01*
X258577009Y-69097222D01*
X258594913Y-69087652D01*
X258733533Y-69013557D01*
X258790147Y-68996384D01*
X258903373Y-68962037D01*
X258969557Y-68955519D01*
X259035740Y-68949000D01*
X259124260Y-68949000D01*
X259190443Y-68955519D01*
X259190443Y-68955519D01*
G37*
G36*
X249871800Y-56273000D02*
X248069800Y-56273000D01*
X248069800Y-54471000D01*
X249871800Y-54471000D01*
X249871800Y-56273000D01*
X249871800Y-56273000D01*
G37*
G36*
X246541243Y-54477519D02*
X246607427Y-54484037D01*
X246720653Y-54518384D01*
X246777267Y-54535557D01*
X246915887Y-54609652D01*
X246933791Y-54619222D01*
X246969529Y-54648552D01*
X247070986Y-54731814D01*
X247154248Y-54833271D01*
X247183578Y-54869009D01*
X247183579Y-54869011D01*
X247267243Y-55025533D01*
X247267243Y-55025534D01*
X247318763Y-55195373D01*
X247336159Y-55372000D01*
X247318763Y-55548627D01*
X247284416Y-55661853D01*
X247267243Y-55718467D01*
X247193148Y-55857087D01*
X247183578Y-55874991D01*
X247154248Y-55910729D01*
X247070986Y-56012186D01*
X246969529Y-56095448D01*
X246933791Y-56124778D01*
X246933789Y-56124779D01*
X246777267Y-56208443D01*
X246720653Y-56225616D01*
X246607427Y-56259963D01*
X246541243Y-56266481D01*
X246475060Y-56273000D01*
X246386540Y-56273000D01*
X246320357Y-56266481D01*
X246254173Y-56259963D01*
X246140947Y-56225616D01*
X246084333Y-56208443D01*
X245927811Y-56124779D01*
X245927809Y-56124778D01*
X245892071Y-56095448D01*
X245790614Y-56012186D01*
X245707352Y-55910729D01*
X245678022Y-55874991D01*
X245668452Y-55857087D01*
X245594357Y-55718467D01*
X245577184Y-55661853D01*
X245542837Y-55548627D01*
X245525441Y-55372000D01*
X245542837Y-55195373D01*
X245594357Y-55025534D01*
X245594357Y-55025533D01*
X245678021Y-54869011D01*
X245678022Y-54869009D01*
X245707352Y-54833271D01*
X245790614Y-54731814D01*
X245892071Y-54648552D01*
X245927809Y-54619222D01*
X245945713Y-54609652D01*
X246084333Y-54535557D01*
X246140947Y-54518384D01*
X246254173Y-54484037D01*
X246320357Y-54477519D01*
X246386540Y-54471000D01*
X246475060Y-54471000D01*
X246541243Y-54477519D01*
X246541243Y-54477519D01*
G37*
M02*
